<?xml version="1.0" encoding="utf-8"?>
<!-- Generator: Adobe Illustrator 23.0.6, SVG Export Plug-In . SVG Version: 6.00 Build 0)  -->
<svg version="1.1" id="Calque_1" xmlns="http://www.w3.org/2000/svg" xmlns:xlink="http://www.w3.org/1999/xlink" x="0px" y="0px"
	 viewBox="0 0 198.43 198.43" style="enable-background:new 0 0 198.43 198.43;" xml:space="preserve">
<style type="text/css">
	.cardAnimation-whiteCard6-cahLogo_V2GyqRay6t .st0{fill:#FFFFFF;}
	.cardAnimation-whiteCard6-cahLogo_V2GyqRay6t .st1{fill:#F28B00;}
	.cardAnimation-whiteCard6-cahLogo_V2GyqRay6t .st2{fill:#2F3838;}
	.cardAnimation-whiteCard6-cahLogo_V2GyqRay6t .st3{fill:#A2ACAC;}
	.cardAnimation-whiteCard6-cahLogo_V2GyqRay6t .st4{fill:#F29500;}
	.cardAnimation-whiteCard6-cahLogo_V2GyqRay6t .st5{fill:#B71E17;}
	.cardAnimation-whiteCard6-cahLogo_V2GyqRay6t .st6{fill:#CCA371;}
	.cardAnimation-whiteCard6-cahLogo_V2GyqRay6t .st7{fill:none;}
	.cardAnimation-whiteCard6-cahLogo_V2GyqRay6t .st8{fill-rule:evenodd;clip-rule:evenodd;fill:#1B9247;}
	.cardAnimation-whiteCard6-cahLogo_V2GyqRay6t .st9{enable-background:new    ;}
	.cardAnimation-whiteCard6-cahLogo_V2GyqRay6t .st10{fill:#EE721D;}
	.cardAnimation-whiteCard6-cahLogo_V2GyqRay6t .st11{fill:#1D1D1B;}
	.cardAnimation-whiteCard6-cahLogo_V2GyqRay6t .st12{fill:#F19400;}
	.cardAnimation-whiteCard6-cahLogo_V2GyqRay6t .st13{fill:#00A86B;}
	.cardAnimation-whiteCard6-cahLogo_V2GyqRay6t .st14{fill:#B61D17;}
</style>
<g>
	<g>
		<g>
			<path class="st0" d="M177.93,198.43H20.07c-11,0-19.91-8.91-19.91-19.91V19.91C0.16,8.91,9.08,0,20.07,0h157.86
				c11,0,19.91,8.91,19.91,19.91v158.6C197.84,189.51,188.93,198.43,177.93,198.43z"/>
			<g>
				<g>
					<path class="st1" d="M52.75,97.25c0.05-0.04,0.11-0.1,0.15-0.15c-0.07-0.05-0.1-0.06-0.18-0.04
						C52.64,97.1,52.71,97.18,52.75,97.25z"/>
					<path class="st1" d="M196.66,66.66c-0.07,0.06-0.17,0.15-0.24,0.22c0.11,0.07,0.14,0.1,0.27,0.06
						C196.83,66.9,196.73,66.78,196.66,66.66z"/>
					<path class="st2" d="M150.94,95.14c0.06-0.05,0.03-0.16-0.05-0.16c-0.11,0-0.14,0.05-0.16,0.16
						C150.71,95.25,150.86,95.21,150.94,95.14z"/>
					<path class="st1" d="M4.35,21.74c0.08,0,0.16-0.04,0.12-0.11c-0.04-0.08-0.1-0.05-0.18,0C4.24,21.66,4.29,21.74,4.35,21.74z"/>
					<path class="st1" d="M105.18,49.4c-0.01,0.05,0,0.11,0.05,0.1c0.06-0.01,0.05-0.06,0.03-0.11
						C105.25,49.34,105.19,49.36,105.18,49.4z"/>
					<path class="st1" d="M65.18,88.67c0.02,0.04,0.06,0.06,0.08,0.03c0.03-0.04,0-0.06-0.04-0.08
						C65.18,88.6,65.16,88.64,65.18,88.67z"/>
					<path class="st2" d="M187.76,37.52c0.18,0.17,0.36,0.39,0.54,0.56c-0.1-0.18-0.2-0.4-0.3-0.58
						C187.91,37.51,187.84,37.52,187.76,37.52z"/>
					<path class="st2" d="M185.37,16.72c-0.77-2.47-1.22-5.33-2-7.81c-0.03,2.13-0.28,4.67-0.31,6.79
						C183.87,16.05,184.57,16.38,185.37,16.72z"/>
					<path class="st3" d="M72.52,76.17L72.52,76.17L72.52,76.17z"/>
					<path class="st3" d="M156.68,17.04L156.68,17.04L156.68,17.04z"/>
					<path class="st3" d="M12.68,45.62L12.68,45.62L12.68,45.62z"/>
					<path class="st1" d="M24.25,24.52c-0.5-0.43-1.21-0.58-1.41,0.04c-0.2,0.65,0.43,0.74,1.11,0.84
						C24.5,25.49,24.61,24.84,24.25,24.52z"/>
					<path class="st1" d="M69.39,10.51c0,2.21,1.22,4.38,3.27,3.47c2.14-0.95,0.97-2.76-0.29-4.7C71.33,7.68,69.39,8.86,69.39,10.51
						z"/>
					<path class="st3" d="M178.85,38.64c-0.02-0.14-0.31-0.16-0.33-0.31c-0.82-1.69-1.31-3.54-2.12-5.22
						c-0.34-0.09-0.74,0.13-1.07,0.04c-0.06,0-0.3-0.21-0.3-0.15c0.27,2.47,0.05,2.54,0.97,4.85
						C176.55,39.27,177.35,38.34,178.85,38.64z"/>
					<path class="st3" d="M152.78,67.88c-0.02,0.01,0.02,0.06,0.04,0.05c0.15-0.03,0.15-0.03,0.29-0.09c0,0,0-0.04-0.01-0.04
						C152.94,67.79,152.93,67.82,152.78,67.88z"/>
					<path class="st4" d="M183.84,26.66c2.1-0.83,1.84-2.48,0.29-4.1c-1.22-1.28-2.31-0.33-3.08,1.25
						C180.05,25.89,181.82,27.47,183.84,26.66z"/>
					<path class="st4" d="M48.32,20.97c2.1-0.83,1.84-2.48,0.29-4.1c-1.22-1.28-2.31-0.33-3.08,1.25
						C44.52,20.2,46.3,21.77,48.32,20.97z"/>
					<path class="st5" d="M39.25,30.93c-0.05,0.04-0.05,0.06-0.01,0.11c0.11,0.1,0.11,0.12,0.26,0.13c0.06,0,0.01-0.05,0.01-0.12
						c0.01-0.11,0.08-0.13,0.01-0.21C39.44,30.71,39.37,30.84,39.25,30.93z"/>
					<path class="st3" d="M182.58,12.78c0.03,0.02,0.04,0.06,0.07,0.03c0.03-0.02-0.02-0.03-0.06-0.04
						C182.59,12.77,182.58,12.77,182.58,12.78z"/>
					<path class="st2" d="M109.33,95.45c0.06,0.03,0.07-0.05,0.11-0.1c0.01-0.01-0.01-0.01-0.02-0.01
						C109.35,95.37,109.27,95.42,109.33,95.45z"/>
					<path class="st2" d="M3.51,32.86c-0.09-0.07-0.12,0.04-0.21,0.1c-0.01,0.01,0.01,0.03,0.03,0.02
						C3.46,32.96,3.6,32.92,3.51,32.86z"/>
					<path class="st6" d="M163.86,93.97c0.11-0.04,0.11-0.04,0.21-0.1c0-0.02-0.01-0.07,0-0.09c-0.12,0.06-0.13,0.06-0.23,0.15
						C163.81,93.94,163.84,93.97,163.86,93.97z"/>
					<path class="st5" d="M-1.15,83.97c-0.02-0.09-0.05-0.2-0.07-0.29c-0.13,0.02-0.15,0.03-0.23,0.13
						C-1.35,83.86-1.24,83.92-1.15,83.97z"/>
					<path class="st5" d="M157.1,4.91c0.89-0.52,1.99-1.21,2.87-1.73c-0.66-1.25-0.89-1.45-2.25-1.88
						C157.54,2.45,157.27,3.76,157.1,4.91z"/>
					<path class="st3" d="M79.95,85.45c0.02-0.06,0.01-0.05,0-0.11c-0.01-0.04,0-0.05-0.04-0.06c-0.19-0.05-0.19-0.04-0.39-0.05
						l-0.04,0.02c0.03,0.07,0.09,0.13,0.12,0.2c0.09,0.03,0.16,0.06,0.25,0.09C79.92,85.54,79.92,85.52,79.95,85.45z"/>
					<path class="st6" d="M153.29,32.64c-0.08,0.05-0.17,0.11-0.25,0.16c-0.02,0.02-0.05,0.03-0.05,0.05
						c-0.01,0.09,0.03,0.09,0.06,0.18c0.06,0.04,0.11,0.07,0.17,0.11c0.08-0.11,0.19-0.2,0.27-0.31c0.02-0.06-0.02-0.07-0.04-0.12
						C153.41,32.64,153.38,32.64,153.29,32.64z"/>
					<path class="st6" d="M63.42,23.19c-0.07,0.01-0.16,0.02-0.23,0.03c-0.02,0-0.04,0-0.05,0.02c-0.04,0.06-0.01,0.07-0.02,0.14
						c0.03,0.05,0.05,0.08,0.08,0.14c0.09-0.05,0.2-0.08,0.29-0.13c0.03-0.04,0.01-0.05,0.01-0.1
						C63.5,23.22,63.48,23.21,63.42,23.19z"/>
					<path class="st6" d="M48.93,2.57c-0.63-0.36-0.67-0.27-1.39-0.36c0.05,0.38,0.09,0.67,0.14,1.05c0.78,0.33,0.83,0.24,1.68,0.25
						C49.21,3.2,49.08,2.88,48.93,2.57z"/>
					<path class="st6" d="M104.23,70.94c0.06,0.04,0.06,0.03,0.13,0.04c0-0.04,0-0.06-0.01-0.1c-0.07-0.03-0.08-0.03-0.15-0.03
						C104.21,70.88,104.22,70.91,104.23,70.94z"/>
					<path class="st6" d="M171.48,59.14c0.02,0.02,0.02,0.02,0.05,0.02c0-0.01,0-0.03,0-0.04c-0.03-0.02-0.03-0.02-0.06-0.02
						C171.48,59.11,171.48,59.13,171.48,59.14z"/>
					<path class="st5" d="M99.88,4.55c0.94,1.64,1.92,0.8,3.77,1.27c-0.14-0.24-0.11-0.95-0.25-1.19
						C101.53,3.8,99.08,3.16,99.88,4.55z"/>
					<path class="st6" d="M149.91,15.24c0.06-0.76,0.14-1.09-0.64-1.15c-1.49,1.26-2.74,2.31-4.22,3.57
						c0.89,0.49,1.51,0.77,2.4,1.26C148.24,17.66,149.12,16.52,149.91,15.24z"/>
					<path class="st6" d="M23.56,35.8c0.27-0.3,0.41-0.41,0.11-0.67c-1.02,0.06-1.88,0.1-2.9,0.15c0.21,0.48,0.37,0.79,0.58,1.27
						C22.09,36.27,22.83,36.08,23.56,35.8z"/>
					<path class="st1" d="M174.03,84.6c0.09-0.03,0.21-0.06,0.31-0.09c-0.03-0.08-0.09-0.04-0.17-0.08c-0.1-0.05-0.09-0.09-0.2-0.08
						C173.99,84.43,174.01,84.52,174.03,84.6z"/>
					<path class="st1" d="M184.22,24.5c0.14,0.04,0.33,0.09,0.48,0.14c0.03-0.13-0.08-0.13-0.15-0.25
						c-0.08-0.15-0.04-0.19-0.19-0.28C184.31,24.24,184.26,24.37,184.22,24.5z"/>
					<path class="st2" d="M5.28,72.51c0-0.04-0.01-0.07-0.01-0.11c-0.04,0.04-0.05,0.04-0.06,0.1C5.2,72.53,5.24,72.52,5.28,72.51z"
						/>
					<path class="st2" d="M84.48,29.84c0.03-0.04,0.07-0.08,0.1-0.12c-0.08,0-0.09-0.01-0.16,0.04
						C84.38,29.79,84.44,29.82,84.48,29.84z"/>
					<path class="st2" d="M14.41,79.52c-0.06,0.09-0.13,0.16-0.19,0.25c0.17,0,0.18,0.01,0.31-0.09
						C14.63,79.61,14.51,79.56,14.41,79.52z"/>
					<path class="st5" d="M3.06,1.37C3.23,1.32,3.3,1.38,3.39,1.23c0.08-0.12-0.15,0-0.3,0.03C3.08,1.28,3.08,1.34,3.06,1.37z"/>
					<path class="st5" d="M170.38,19.74c-0.95,2.33-2.23,2.52-1.36,4.88c0.72,1.96,1.41-1.65,2.32-3.54
						C171.2,20.72,170.52,20.12,170.38,19.74z"/>
					<path class="st5" d="M93.84,62.9c-0.04-0.12,0-0.16-0.11-0.22c-0.09-0.05,0,0.11,0.03,0.2C93.78,62.89,93.83,62.89,93.84,62.9z
						"/>
					<path class="st6" d="M122.84,35.29c-0.06,0-0.1-0.02-0.16-0.02c0.04,0.14,0.09,0.26,0.13,0.4c0.09,0.05,0.1,0.04,0.2,0.03
						c0.02,0,0.04-0.03,0.03-0.05C122.98,35.46,122.94,35.47,122.84,35.29z"/>
					<path class="st6" d="M196.38,20.86c0.06-0.06,0.11-0.09,0.17-0.15c-0.19-0.08-0.38-0.14-0.57-0.23
						c-0.15,0.05-0.14,0.07-0.23,0.19c-0.02,0.02,0,0.07,0.03,0.08C196.06,20.86,196.08,20.81,196.38,20.86z"/>
					<path class="st6" d="M72.63,3.18c0.24,0.11,0.22,0.19,0.48,0.24c0.01-0.14,0.03-0.31,0.05-0.44C73,3.03,72.83,3.04,72.67,3.09
						c-0.02,0.01-0.02,0.06-0.03,0.07C72.63,3.17,72.62,3.18,72.63,3.18z"/>
					<path class="st5" d="M18.26,11.77c-0.23,1.92-0.92,2.14-0.02,3.87c0.44,0.85,2.17,1.4,2.28,0.45c0.3-2.52-0.99-2.47-1.92-4.83
						C18.44,10.83,18.32,11.25,18.26,11.77z"/>
					<path class="st6" d="M176.94,35.11L176.94,35.11c0.01,0.02,0,0.03,0.02,0.03c0.01-0.02,0.02-0.04,0.02-0.05
						C176.97,35.08,176.97,35.1,176.94,35.11z"/>
					<path class="st6" d="M164.25,35.42C164.25,35.42,164.24,35.42,164.25,35.42C164.24,35.42,164.24,35.42,164.25,35.42
						c0,0.01,0.01,0.01,0.02,0.02C164.26,35.43,164.25,35.43,164.25,35.42z"/>
					<path class="st5" d="M114.68,1.31c0-0.01,0-0.02,0-0.03c-0.11-0.01-0.11-0.02-0.21,0c-0.03,0-0.01,0.05,0.01,0.06
						c0.08,0.03,0.09,0.03,0.18,0.04C114.68,1.38,114.67,1.34,114.68,1.31z"/>
					<path class="st5" d="M29.98,8.05c0.1,0.06,0.28,0.3,0.38,0.36c1.51-1.07,1.69-0.95,2.86-2.38c0.28-0.35-0.4-0.73-0.83-0.59
						c-1.51,0.47-1.6,0.55-2.84,1.52C29.15,7.26,29.81,7.58,29.98,8.05z"/>
					<path class="st2" d="M73.94,16.61c0.03,0.05,0.05,0.1,0.08,0.15c0.03,0.01,0.05,0.01,0.06-0.02
						C74.03,16.7,73.99,16.65,73.94,16.61z"/>
					<path class="st2" d="M-2.04,65.76c0.11-0.03,0.12-0.03,0.22-0.09c0.03-0.05,0.06-0.13,0.09-0.18c0-0.03-0.02,0-0.04,0.01
						c-0.35,0.1-0.35,0.08-0.69,0.2l0.02-0.04c0.05,0.03,0.08,0.08,0.13,0.11C-2.18,65.81-2.18,65.8-2.04,65.76z"/>
					<path class="st3" d="M88.6,2.87c-0.28-0.37-0.32-0.54-0.79-0.47c-0.36,0.05-0.35,0.29-0.3,0.64
						C87.85,2.99,88.26,2.92,88.6,2.87z"/>
					<path class="st3" d="M124.15,5.66c0.74,0.96,0.88,1.39,2.08,1.19c0.94-0.16,0.91-0.77,0.76-1.7
						C126.1,5.31,125.04,5.52,124.15,5.66z"/>
					<path class="st3" d="M145.05,22.6c-0.04-0.31-0.02-0.43-0.32-0.54c-0.23-0.08-0.31,0.06-0.4,0.29
						C144.55,22.43,144.82,22.52,145.05,22.6z"/>
					<path class="st1" d="M197.44,36.55c-0.01,0.05-0.02,0.1-0.02,0.16c0.01,0.01,0.02-0.01,0.03-0.01
						c0.01-0.03,0.02-0.05,0.04-0.08C197.49,36.57,197.48,36.56,197.44,36.55z"/>
					<path class="st6" d="M19.56,0.61c-0.25,0.1-0.64,0.32-0.9,0.43c-0.08,0.95-0.7,1.4,0.19,1.78c1.09,0.47,1.4,0.13,2.18-0.75
						C21.7,1.32,20.38,1.17,19.56,0.61z"/>
					<path class="st2" d="M2.94,11.28c0.27-0.23,0.52-0.43,0.8-0.67c0.03-0.38,0.05-0.4-0.18-0.7c-0.4,0-0.73-0.04-1.12-0.06
						c0.15,0.49,0.22,1,0.37,1.49C2.82,11.38,2.9,11.31,2.94,11.28z"/>
					<path class="st6" d="M60.9,8.02c-0.02,0.12-0.02,0.24-0.04,0.35c0.02,0.01,0.03,0.03,0.06,0.04c0.02-0.19,0.01-0.19,0.01-0.38
						C60.92,8.02,60.91,8.01,60.9,8.02z"/>
					<path class="st6" d="M195.5,49.82c0.03,0.14,0.09,0.27,0.12,0.41c0.03,0,0.05,0.01,0.08,0.02c-0.06-0.22-0.08-0.21-0.17-0.42
						C195.52,49.8,195.5,49.8,195.5,49.82z"/>
					<path class="st5" d="M143.78,3.05c-0.01-0.02,0-0.04-0.03-0.04C143.72,3,143.69,3,143.69,3.03c0,0.04,0.02,0.04,0.06,0.07
						C143.77,3.08,143.78,3.06,143.78,3.05z"/>
					<path class="st6" d="M136.21,83.41c-0.08-0.01-0.15-0.02-0.23-0.03c-0.04,0.07-0.07,0.14-0.11,0.21c0.01,0.04,0,0.04,0.05,0.04
						c0.1,0,0.1,0.02,0.18-0.04c0.08-0.06,0.07-0.07,0.12-0.16C136.23,83.42,136.21,83.41,136.21,83.41z"/>
				</g>
			</g>
		</g>
	</g>
	<rect x="36.24" y="61.56" class="st7" width="126.96" height="21.93"/>
	<g>

			<rect x="89.32" y="26.07" transform="matrix(0.9979 -0.0653 0.0653 0.9979 -1.7255 6.6395)" class="st8" width="22.77" height="7.29"/>
		<g class="st9">
			<path class="st0" d="M97.69,32.89c-0.13-0.03-0.36-0.12-0.69-0.29c-0.12-0.06-0.21-0.1-0.27-0.12s-0.11-0.03-0.16-0.03h-0.02
				c-0.05,0.01-0.11,0.02-0.18,0.06c-0.08,0.03-0.16,0.06-0.24,0.06c-0.07,0.01-0.12,0.01-0.15,0.01c-0.09,0.01-0.17,0-0.24,0
				c-0.37-0.07-0.7-0.29-0.98-0.65c-0.28-0.36-0.49-0.82-0.62-1.38c-0.05-0.26-0.09-0.52-0.11-0.79c-0.02-0.28-0.02-0.56,0-0.85
				c0.04-0.57,0.15-1.07,0.33-1.52c0.1-0.25,0.2-0.41,0.32-0.5c0.11-0.09,0.3-0.14,0.55-0.16h0.06c0.65-0.04,1.15,0.1,1.5,0.44
				c0.34,0.31,0.59,0.79,0.74,1.43c0.06,0.25,0.1,0.51,0.12,0.77c0.02,0.38,0,0.76-0.06,1.15c-0.04,0.26-0.12,0.54-0.25,0.86
				c-0.03,0.07-0.05,0.14-0.07,0.2c-0.02,0.06-0.03,0.09-0.03,0.1c0,0.06,0.04,0.11,0.11,0.15c0.07,0.04,0.19,0.09,0.37,0.15
				c0.12,0.04,0.21,0.07,0.27,0.1s0.11,0.07,0.15,0.11c0.08,0.07,0.12,0.17,0.12,0.27v0.04c-0.01,0.23-0.13,0.36-0.37,0.4
				c-0.04,0-0.07,0-0.11,0C97.74,32.9,97.71,32.9,97.69,32.89z M96.06,31.64c0.12-0.05,0.23-0.17,0.34-0.36
				c0.11-0.19,0.2-0.42,0.27-0.68c0.09-0.4,0.13-0.79,0.1-1.17c-0.02-0.37-0.1-0.73-0.24-1.08c-0.11-0.27-0.25-0.46-0.42-0.57
				s-0.4-0.15-0.68-0.13c-0.1,0.01-0.18,0.03-0.23,0.06c-0.05,0.03-0.09,0.1-0.12,0.19c-0.03,0.1-0.06,0.24-0.08,0.44
				c-0.08,0.5-0.1,0.94-0.08,1.31v0.05c0.04,0.6,0.16,1.08,0.37,1.44c0.17,0.29,0.35,0.47,0.54,0.53c0.04,0.01,0.08,0.02,0.11,0.02
				C95.98,31.67,96.02,31.66,96.06,31.64z"/>
			<path class="st0" d="M99.33,32.32c-0.36-0.09-0.64-0.45-0.84-1.08c-0.09-0.28-0.14-0.55-0.17-0.78s-0.05-0.41-0.05-0.51
				c-0.01-0.18-0.01-0.31,0.01-0.4c0.06-0.17,0.13-0.26,0.21-0.29c0.08-0.02,0.14-0.03,0.16-0.04c0.11-0.01,0.21,0.04,0.31,0.13
				c0.05,0.05,0.08,0.1,0.09,0.16c0.02,0.06,0.02,0.12,0.03,0.18c0,0.03,0,0.07,0,0.11v0.08c0.01,0.08,0.02,0.17,0.03,0.27
				c0.02,0.13,0.06,0.3,0.12,0.51c0.05,0.18,0.09,0.31,0.12,0.37c0.03,0.06,0.07,0.09,0.12,0.09c0.03,0,0.06-0.02,0.09-0.07
				c0.03-0.04,0.06-0.13,0.1-0.27c0.04-0.14,0.09-0.33,0.16-0.6c0.11-0.43,0.2-0.74,0.27-0.92s0.14-0.32,0.21-0.4
				c0.11-0.12,0.21-0.18,0.33-0.19c0.08,0,0.17,0.02,0.26,0.08c0.09,0.06,0.17,0.13,0.22,0.21c0.07,0.11,0.13,0.32,0.19,0.61
				c0.08,0.43,0.15,0.77,0.21,1.01c0.06,0.25,0.12,0.46,0.19,0.66c0.04,0.13,0.07,0.24,0.08,0.32v0.04c0,0.09-0.03,0.17-0.09,0.25
				c-0.05,0.07-0.11,0.11-0.17,0.12s-0.1,0.02-0.13,0.02c-0.06,0-0.13-0.01-0.19-0.04c-0.08-0.03-0.15-0.09-0.2-0.18
				c-0.06-0.09-0.11-0.21-0.17-0.38l-0.03-0.09c-0.02-0.04-0.03-0.08-0.04-0.12s-0.02-0.06-0.03-0.08
				c-0.03-0.09-0.07-0.14-0.12-0.14c-0.01,0-0.01,0-0.02,0.01c-0.01,0-0.03,0.01-0.04,0.03s-0.03,0.05-0.05,0.1
				c-0.02,0.05-0.05,0.12-0.08,0.2c-0.07,0.18-0.14,0.33-0.2,0.44s-0.13,0.21-0.2,0.28c-0.15,0.17-0.31,0.26-0.48,0.27H99.5
				c-0.03,0-0.05,0-0.08,0C99.38,32.33,99.35,32.32,99.33,32.32z"/>
			<path class="st0" d="M102.23,27.91c-0.19-0.07-0.29-0.16-0.32-0.28s-0.04-0.19-0.04-0.22c-0.01-0.16,0.03-0.3,0.13-0.44
				c0.09-0.1,0.19-0.16,0.31-0.16c0.03,0,0.07,0,0.1,0.01c0.15,0.02,0.27,0.08,0.34,0.19c0.08,0.1,0.12,0.2,0.12,0.29
				c0,0.07,0,0.14-0.02,0.22c-0.05,0.14-0.12,0.23-0.21,0.3s-0.18,0.1-0.26,0.11C102.33,27.93,102.29,27.93,102.23,27.91z
				 M102.64,32.1c-0.05-0.02-0.1-0.05-0.15-0.1c-0.05-0.05-0.08-0.1-0.11-0.16c-0.07-0.21-0.13-0.76-0.19-1.65l-0.01-0.12
				c-0.01-0.2-0.02-0.36-0.03-0.47c-0.01-0.11-0.01-0.19-0.01-0.25s0-0.1,0.01-0.12c0-0.02,0.01-0.05,0.02-0.07
				c0.02-0.06,0.05-0.11,0.08-0.14s0.07-0.07,0.12-0.1c0.06-0.04,0.12-0.05,0.18-0.06c0.02,0,0.05,0,0.07,0
				c0.09,0.01,0.16,0.05,0.22,0.12c0.04,0.04,0.07,0.09,0.08,0.15s0.03,0.16,0.04,0.29c0.01,0.08,0.02,0.16,0.03,0.27
				c0.01,0.1,0.02,0.19,0.03,0.26c0.01,0.08,0.03,0.21,0.05,0.39c0.02,0.18,0.04,0.37,0.07,0.58c0.04,0.28,0.06,0.49,0.07,0.63
				c0.01,0.13,0,0.23-0.01,0.29c-0.02,0.06-0.05,0.11-0.1,0.16c-0.06,0.06-0.11,0.1-0.17,0.11c-0.05,0.01-0.09,0.02-0.12,0.02
				C102.75,32.14,102.69,32.13,102.64,32.1z"/>
			<path class="st0" d="M104.51,32.27c-0.22-0.06-0.38-0.19-0.48-0.39c-0.08-0.15-0.12-0.31-0.13-0.48
				c-0.03-0.47,0.19-1.03,0.65-1.68c0.08-0.11,0.13-0.19,0.15-0.23c0.02-0.04,0.03-0.07,0.03-0.09c0-0.01,0-0.02-0.01-0.02
				c-0.01-0.03-0.04-0.04-0.08-0.05c-0.04,0-0.08,0-0.12,0c-0.05,0-0.12,0.01-0.19,0.02c-0.19,0.03-0.33,0.05-0.44,0.05h-0.04
				c-0.11,0-0.19,0-0.23-0.02c-0.08-0.03-0.13-0.08-0.17-0.14s-0.06-0.12-0.06-0.18c0-0.02,0-0.04,0-0.06
				c0.01-0.05,0.02-0.1,0.05-0.16c0.03-0.05,0.06-0.09,0.1-0.12c0.04-0.04,0.12-0.07,0.24-0.1c0.12-0.04,0.31-0.08,0.56-0.13
				c0.34-0.08,0.59-0.13,0.76-0.15c0.17-0.03,0.32-0.05,0.48-0.06c0.17-0.01,0.3-0.01,0.4,0s0.18,0.03,0.27,0.07
				c0.17,0.08,0.27,0.23,0.29,0.43v0.02c0.01,0.1-0.02,0.2-0.07,0.29c-0.06,0.09-0.19,0.22-0.38,0.38
				c-0.28,0.23-0.49,0.43-0.65,0.61s-0.3,0.38-0.42,0.6c-0.13,0.24-0.19,0.41-0.18,0.51c0,0.07,0.05,0.11,0.12,0.1h0.02
				c0.05-0.01,0.14-0.05,0.25-0.12c0.12-0.07,0.24-0.15,0.37-0.25c0.13-0.11,0.23-0.18,0.3-0.21c0.06-0.03,0.13-0.05,0.2-0.06
				c0.14-0.01,0.25,0.04,0.34,0.14c0.06,0.08,0.09,0.16,0.1,0.25s-0.02,0.18-0.07,0.28c-0.08,0.12-0.25,0.27-0.51,0.46
				c-0.26,0.18-0.51,0.33-0.75,0.44c-0.14,0.06-0.28,0.09-0.4,0.1C104.68,32.3,104.59,32.29,104.51,32.27z"/>
		</g>
		<g class="st9">
			<path class="st10" d="M85.99,26.96c-0.26-0.06-0.44-0.23-0.55-0.48c-0.04-0.07-0.07-0.18-0.1-0.31
				c-0.03-0.14-0.08-0.36-0.14-0.68c-0.05-0.28-0.11-0.46-0.19-0.52c-0.08-0.06-0.18-0.09-0.3-0.08c-0.07,0-0.14,0.02-0.21,0.03
				c-0.21,0.04-0.37,0.07-0.49,0.09c-0.11,0.02-0.2,0.05-0.25,0.07c-0.06,0.02-0.1,0.04-0.12,0.06c-0.05,0.04-0.09,0.08-0.12,0.13
				c-0.02,0.04-0.03,0.1-0.03,0.15c0,0.06,0,0.11,0.01,0.15c0,0.08,0.01,0.17,0.02,0.29l0.05,0.48l-0.08,0.18
				c-0.14,0.28-0.27,0.42-0.4,0.43c-0.13,0.01-0.2,0.01-0.21,0.01c-0.26,0.02-0.48-0.1-0.65-0.36c-0.04-0.07-0.08-0.16-0.12-0.27
				c-0.03-0.11-0.07-0.27-0.1-0.49c-0.04-0.22-0.08-0.52-0.14-0.91c-0.21-1.53-0.35-2.58-0.4-3.15s-0.09-0.99-0.11-1.27
				c-0.04-0.62-0.06-1.26-0.07-1.93c0-0.18,0-0.3,0-0.39s0.01-0.15,0.02-0.2c0.01-0.05,0.03-0.11,0.06-0.17
				c0.03-0.08,0.07-0.14,0.1-0.19c0.03-0.05,0.07-0.09,0.12-0.12c0.12-0.08,0.24-0.13,0.36-0.14c0.09-0.01,0.18,0.01,0.26,0.04
				c0.2,0.09,0.33,0.26,0.39,0.51c0.01,0.05,0.03,0.23,0.06,0.54c0.03,0.31,0.07,0.67,0.11,1.09c0.13,1.42,0.23,2.41,0.3,2.97
				s0.12,0.86,0.16,0.91c0.03,0.05,0.07,0.09,0.13,0.11c0.06,0.03,0.12,0.04,0.19,0.04s0.18-0.03,0.34-0.07
				c0.16-0.04,0.31-0.09,0.47-0.13s0.26-0.08,0.31-0.11c0.03-0.02,0.06-0.05,0.09-0.08s0.05-0.06,0.06-0.09
				c0.02-0.03,0.03-0.06,0.03-0.11c0-0.05,0-0.12,0-0.23c0-0.11-0.02-0.27-0.03-0.48s-0.04-0.49-0.07-0.85
				c-0.02-0.28-0.04-0.55-0.06-0.81c-0.02-0.25-0.03-0.5-0.04-0.73c-0.02-0.47-0.03-1.06-0.03-1.77c0-0.34,0.01-0.58,0.03-0.73
				c0.02-0.14,0.06-0.26,0.12-0.34c0.08-0.12,0.16-0.19,0.26-0.22c0.1-0.03,0.17-0.04,0.22-0.05c0.08-0.01,0.17,0.01,0.25,0.04
				c0.24,0.1,0.39,0.33,0.44,0.69c0.01,0.08,0.04,0.37,0.08,0.88c0.04,0.51,0.09,1.12,0.14,1.82c0.11,1.47,0.2,2.55,0.27,3.23
				s0.17,1.34,0.29,1.97c0.06,0.31,0.09,0.54,0.1,0.71c0,0.06,0,0.11,0,0.15c-0.01,0.17-0.07,0.31-0.16,0.42
				c-0.09,0.1-0.18,0.17-0.28,0.21s-0.18,0.06-0.25,0.06C86.09,26.98,86.04,26.97,85.99,26.96z"/>
		</g>
		<g class="st9">
			<path class="st10" d="M90.57,26.77c-0.54-0.11-1.04-0.42-1.48-0.92s-0.79-1.13-1.03-1.91c-0.19-0.65-0.3-1.33-0.34-2.02
				c-0.06-0.88,0-1.78,0.18-2.71c0.1-0.49,0.24-0.94,0.42-1.35c0.12-0.3,0.25-0.52,0.39-0.67s0.3-0.24,0.49-0.3
				c0.15-0.04,0.34-0.07,0.57-0.08c0.08,0,0.16-0.01,0.24-0.01c0.34-0.01,0.65,0.01,0.94,0.05c1.58,0.28,2.54,1.61,2.86,4
				c0.02,0.15,0.03,0.3,0.04,0.46c0.05,0.72,0,1.43-0.15,2.13c-0.17,0.85-0.47,1.58-0.88,2.19c-0.32,0.46-0.69,0.8-1.12,0.99
				c-0.1,0.05-0.19,0.08-0.27,0.1c-0.08,0.02-0.19,0.03-0.33,0.05l-0.15,0.01C90.79,26.79,90.67,26.78,90.57,26.77z M91.26,25.09
				c0.25-0.17,0.49-0.52,0.71-1.06c0.27-0.69,0.41-1.27,0.4-1.74c0-0.47-0.01-0.77-0.01-0.89c-0.04-0.67-0.18-1.29-0.42-1.88
				c-0.18-0.45-0.41-0.76-0.7-0.94c-0.29-0.18-0.66-0.26-1.11-0.23H90.1c-0.18,0.01-0.3,0.04-0.38,0.07
				c-0.07,0.04-0.13,0.11-0.17,0.2c-0.07,0.19-0.14,0.51-0.21,0.96c-0.06,0.45-0.11,0.9-0.13,1.35c-0.01,0.33-0.01,0.64,0.01,0.94
				c0.06,1.03,0.3,1.87,0.7,2.55c0.35,0.54,0.69,0.79,1.01,0.77C91.05,25.2,91.15,25.16,91.26,25.09z"/>
		</g>
		<g class="st9">
			<path class="st10" d="M96.12,26.17c-0.55-0.06-0.95-0.3-1.19-0.73c-0.12-0.18-0.18-0.4-0.2-0.66c-0.01-0.17,0-0.36,0.03-0.56
				c0.08-0.52,0.32-1.34,0.72-2.45c0.07-0.2,0.18-0.48,0.32-0.85s0.29-0.74,0.43-1.11c0.35-0.86,0.52-1.32,0.52-1.38
				c-0.02-0.13-0.11-0.19-0.27-0.18c-0.04,0-0.12,0.02-0.24,0.04c-0.13,0.02-0.27,0.05-0.42,0.08c-0.36,0.08-0.6,0.13-0.72,0.14
				s-0.21,0.02-0.26,0.03c-0.09,0.01-0.15,0-0.2-0.01c-0.21-0.04-0.36-0.13-0.45-0.26c-0.09-0.13-0.14-0.26-0.15-0.39
				c0-0.06,0-0.13,0.01-0.19c0.02-0.12,0.08-0.24,0.17-0.34c0.09-0.11,0.21-0.19,0.34-0.25c0.27-0.12,1.02-0.26,2.25-0.42
				c0.33-0.05,0.56-0.08,0.67-0.09s0.2-0.02,0.24-0.02c0.1-0.01,0.18-0.01,0.24-0.01c0.08,0.01,0.16,0.03,0.22,0.05
				c0.28,0.13,0.44,0.36,0.46,0.71v0.02c0.01,0.15-0.05,0.43-0.19,0.84c-0.14,0.43-0.42,1.16-0.84,2.21
				c-0.7,1.77-1.12,2.99-1.29,3.68c-0.01,0.07-0.02,0.13-0.03,0.16c0,0.03-0.01,0.06,0,0.08v0.03c0.01,0.02,0.02,0.05,0.03,0.07
				c0.05,0.1,0.14,0.15,0.27,0.14c0.05,0,0.1-0.01,0.16-0.03c0.33-0.08,0.91-0.33,1.73-0.74c0.2-0.11,0.39-0.2,0.56-0.28
				s0.28-0.13,0.33-0.14c0.06-0.02,0.13-0.03,0.19-0.03c0.17-0.01,0.33,0.03,0.47,0.13c0.18,0.12,0.29,0.31,0.31,0.56
				c0.01,0.22-0.06,0.4-0.21,0.56c-0.04,0.05-0.1,0.1-0.15,0.14c-0.06,0.04-0.15,0.1-0.28,0.17s-0.33,0.17-0.6,0.31
				c-1.19,0.61-2.09,0.93-2.69,0.97C96.3,26.18,96.2,26.18,96.12,26.17z"/>
		</g>
		<g class="st9">
			<path class="st10" d="M101.55,25.67c-0.07-0.04-0.14-0.09-0.22-0.16c-0.07-0.07-0.13-0.15-0.17-0.23
				c-0.05-0.1-0.08-0.27-0.1-0.53c-0.02-0.34-0.01-0.82,0.03-1.45c0.04-0.57,0.13-1.24,0.25-2.01c0.13-0.77,0.28-1.51,0.46-2.23
				c0.42-1.71,0.92-2.73,1.48-3.04c0.07-0.04,0.13-0.07,0.19-0.08s0.14-0.02,0.26-0.03c0.16-0.01,0.29,0,0.39,0.03
				s0.21,0.09,0.33,0.19c0.15,0.12,0.28,0.28,0.38,0.47c0.1,0.19,0.2,0.48,0.29,0.86c0.09,0.39,0.2,0.93,0.33,1.63
				c0.45,2.43,0.85,4.09,1.22,4.98c0.06,0.14,0.1,0.25,0.12,0.31c0.02,0.06,0.03,0.11,0.03,0.15c0,0.02,0,0.04,0,0.06
				c-0.04,0.42-0.26,0.65-0.64,0.69c-0.21,0.01-0.39-0.05-0.56-0.19c-0.08-0.07-0.16-0.15-0.22-0.24s-0.13-0.22-0.19-0.39
				c-0.07-0.16-0.13-0.27-0.2-0.33c-0.06-0.07-0.14-0.1-0.23-0.1c-0.02,0-0.06,0-0.11,0c-0.08,0.01-0.2,0.02-0.34,0.03
				c-0.24,0.03-0.5,0.06-0.78,0.1s-0.48,0.07-0.62,0.1c-0.19,0.03-0.32,0.1-0.39,0.18c-0.07,0.09-0.1,0.24-0.11,0.47
				c0,0.17-0.02,0.3-0.06,0.4s-0.1,0.19-0.18,0.26c-0.05,0.04-0.09,0.07-0.13,0.09s-0.1,0.03-0.19,0.04h-0.07c-0.05,0-0.09,0-0.12,0
				C101.63,25.7,101.59,25.69,101.55,25.67z M103.62,22.64c0.18-0.04,0.34-0.07,0.48-0.1s0.22-0.05,0.26-0.07
				c0.07-0.04,0.12-0.1,0.14-0.18c0.01-0.03,0.02-0.05,0.02-0.08c0-0.02,0-0.04,0-0.06c0-0.02-0.01-0.05-0.01-0.07
				c-0.01-0.06-0.02-0.14-0.04-0.24c-0.02-0.1-0.05-0.25-0.09-0.43c-0.05-0.22-0.1-0.49-0.17-0.82c-0.06-0.33-0.12-0.64-0.18-0.92
				c-0.12-0.64-0.2-1-0.24-1.08c-0.03-0.06-0.08-0.08-0.12-0.08h-0.01c-0.05,0.01-0.1,0.05-0.14,0.12c-0.07,0.14-0.17,0.5-0.31,1.09
				s-0.26,1.22-0.39,1.9c-0.08,0.43-0.11,0.73-0.1,0.9c0,0.06,0.01,0.1,0.03,0.13c0.01,0.01,0.03,0.03,0.06,0.05
				c0.03,0.02,0.06,0.04,0.09,0.05c0.04,0.02,0.06,0.03,0.09,0.03l0.19-0.04C103.3,22.7,103.45,22.67,103.62,22.64z"/>
		</g>
		<g class="st9">
			<path class="st10" d="M108.65,25.58c-0.21-0.07-0.37-0.21-0.47-0.42c-0.04-0.07-0.08-0.18-0.11-0.33s-0.07-0.4-0.12-0.73
				c-0.05-0.34-0.11-0.81-0.18-1.43c-0.04-0.37-0.09-0.73-0.13-1.09s-0.08-0.64-0.1-0.83c-0.03-0.28-0.06-0.6-0.09-0.97
				c-0.03-0.37-0.05-0.64-0.06-0.82c-0.02-0.35-0.04-0.7-0.06-1.05c-0.03-0.51-0.04-0.85-0.04-1.02c0-0.08,0.01-0.16,0.02-0.24
				c0.01-0.08,0.03-0.14,0.04-0.18c0.08-0.2,0.21-0.35,0.37-0.44c0.17-0.09,0.31-0.14,0.43-0.15c0.08,0,0.16,0,0.24,0.03
				c0.16,0.04,0.32,0.21,0.5,0.51c0.18,0.31,0.44,0.86,0.78,1.67c0.61,1.43,1.04,2.4,1.3,2.93c0.07,0.15,0.14,0.28,0.2,0.42
				c0.07,0.13,0.11,0.23,0.14,0.29c0.03,0.06,0.06,0.11,0.1,0.17s0.07,0.1,0.1,0.14c0.04,0.04,0.07,0.07,0.09,0.08
				s0.03,0.01,0.04,0.01s0.02-0.01,0.04-0.02c0.03-0.02,0.04-0.05,0.06-0.09c0.01-0.04,0.02-0.11,0.03-0.21c0-0.1,0-0.24,0-0.42
				s-0.01-0.42-0.02-0.72c-0.01-0.34-0.02-0.68-0.03-1.04c-0.01-0.35-0.01-0.64-0.01-0.85c0-0.44,0-0.91,0-1.41s0-0.91,0-1.23
				c0-0.25,0.01-0.43,0.04-0.56c0.03-0.12,0.08-0.23,0.16-0.32c0.14-0.15,0.3-0.23,0.49-0.25h0.03c0.2,0,0.38,0.08,0.52,0.24
				c0.08,0.08,0.13,0.17,0.17,0.29c0.04,0.11,0.06,0.28,0.07,0.5l0.01,0.09c0.01,0.26,0.01,0.64,0.01,1.13
				c-0.01,1.38,0.01,2.62,0.04,3.73c0.04,1.1,0.05,1.89,0.01,2.38s-0.12,0.84-0.25,1.07c-0.19,0.37-0.47,0.57-0.83,0.59h-0.03
				c-0.24,0.02-0.47-0.05-0.67-0.2c-0.2-0.15-0.44-0.44-0.7-0.88c-0.26-0.44-0.59-1.06-1-1.88c-0.12-0.24-0.21-0.43-0.28-0.56
				s-0.12-0.22-0.16-0.28c-0.04-0.05-0.07-0.08-0.1-0.09c-0.01,0-0.02-0.01-0.03-0.01c-0.05,0-0.09,0.06-0.11,0.18v0.06
				c0.01,0.09,0.02,0.27,0.04,0.52c0.04,0.33,0.08,0.72,0.14,1.14c0.05,0.43,0.11,0.81,0.16,1.14c0.03,0.22,0.05,0.4,0.06,0.54
				c0,0.07,0.01,0.13,0,0.18c-0.01,0.14-0.05,0.27-0.12,0.36c-0.09,0.13-0.19,0.22-0.3,0.27c-0.11,0.04-0.2,0.07-0.27,0.07
				S108.72,25.6,108.65,25.58z"/>
		</g>
		<g class="st9">
			<path class="st10" d="M114.92,24.83c-0.07-0.04-0.14-0.09-0.22-0.16c-0.07-0.07-0.13-0.15-0.17-0.23
				c-0.05-0.1-0.08-0.27-0.1-0.53c-0.02-0.34-0.01-0.82,0.03-1.44c0.04-0.57,0.13-1.24,0.26-2.01c0.13-0.77,0.28-1.51,0.46-2.23
				c0.42-1.71,0.92-2.73,1.48-3.04c0.07-0.04,0.13-0.07,0.19-0.08s0.14-0.02,0.26-0.03c0.16-0.01,0.29,0,0.39,0.03
				s0.21,0.09,0.33,0.19c0.15,0.12,0.28,0.28,0.38,0.47c0.1,0.19,0.2,0.48,0.29,0.86c0.09,0.39,0.21,0.93,0.33,1.63
				c0.45,2.43,0.85,4.09,1.22,4.98c0.06,0.14,0.1,0.25,0.12,0.31s0.03,0.11,0.03,0.15c0,0.02,0,0.04,0,0.06
				c-0.04,0.42-0.26,0.65-0.64,0.69c-0.21,0.01-0.39-0.05-0.55-0.19c-0.08-0.07-0.16-0.15-0.22-0.24s-0.13-0.22-0.19-0.39
				c-0.07-0.16-0.13-0.27-0.2-0.33c-0.06-0.07-0.14-0.1-0.23-0.1c-0.02,0-0.06,0-0.11,0c-0.08,0.01-0.2,0.02-0.34,0.03
				c-0.24,0.03-0.5,0.06-0.78,0.1c-0.27,0.04-0.48,0.07-0.62,0.1c-0.19,0.03-0.32,0.1-0.39,0.18c-0.07,0.09-0.1,0.24-0.11,0.47
				c0,0.17-0.02,0.3-0.06,0.4s-0.1,0.19-0.18,0.26c-0.04,0.04-0.09,0.07-0.13,0.09s-0.11,0.03-0.19,0.04h-0.07
				c-0.05,0-0.09,0-0.12,0C115.01,24.86,114.96,24.85,114.92,24.83z M116.99,21.8c0.18-0.04,0.34-0.07,0.48-0.1s0.22-0.05,0.26-0.07
				c0.07-0.04,0.11-0.1,0.14-0.18c0.01-0.03,0.02-0.05,0.02-0.08c0-0.02,0-0.04,0-0.06c0-0.02-0.01-0.05-0.01-0.07
				c-0.01-0.06-0.02-0.14-0.05-0.24c-0.02-0.1-0.05-0.25-0.09-0.43c-0.05-0.22-0.1-0.49-0.17-0.82s-0.12-0.64-0.18-0.92
				c-0.12-0.64-0.2-1-0.24-1.08c-0.03-0.06-0.08-0.08-0.12-0.08h-0.01c-0.05,0.01-0.1,0.05-0.14,0.12c-0.07,0.14-0.17,0.5-0.31,1.09
				s-0.26,1.22-0.39,1.9c-0.08,0.43-0.11,0.73-0.1,0.9c0,0.06,0.01,0.1,0.03,0.13c0.01,0.01,0.03,0.03,0.05,0.05
				c0.03,0.02,0.06,0.04,0.1,0.05c0.04,0.02,0.06,0.03,0.09,0.03l0.19-0.04C116.67,21.86,116.82,21.83,116.99,21.8z"/>
		</g>
	</g>
</g>
<g>
	<path class="st11" d="M39.89,65.76h1.44v2.81h2.48v-2.81h1.43v7.44H43.8v-3.26h-2.48v3.26h-1.44V65.76z"/>
	<path class="st11" d="M52.29,70.84h-4.44c0.06,0.39,0.24,0.7,0.51,0.93c0.28,0.23,0.63,0.35,1.06,0.35c0.52,0,0.96-0.18,1.33-0.54
		l1.16,0.55c-0.29,0.41-0.64,0.72-1.04,0.91s-0.88,0.3-1.44,0.3c-0.86,0-1.57-0.27-2.11-0.82c-0.54-0.54-0.81-1.23-0.81-2.05
		c0-0.84,0.27-1.54,0.81-2.09c0.54-0.55,1.22-0.83,2.04-0.83c0.87,0,1.57,0.28,2.11,0.83s0.81,1.29,0.81,2.2L52.29,70.84z
		 M50.91,69.76c-0.09-0.31-0.27-0.56-0.54-0.75c-0.27-0.19-0.58-0.29-0.93-0.29c-0.39,0-0.72,0.11-1.01,0.32
		c-0.18,0.13-0.35,0.37-0.51,0.71H50.91z"/>
	<path class="st11" d="M53.41,67.69h1.4v2.65c0,0.52,0.04,0.87,0.11,1.07c0.07,0.2,0.19,0.36,0.34,0.47s0.35,0.17,0.58,0.17
		s0.42-0.05,0.59-0.16c0.16-0.11,0.28-0.27,0.36-0.48c0.06-0.16,0.09-0.5,0.09-1.02v-2.7h1.38v2.33c0,0.96-0.08,1.62-0.23,1.97
		c-0.18,0.43-0.46,0.76-0.82,0.99c-0.36,0.23-0.82,0.35-1.38,0.35c-0.6,0-1.09-0.13-1.46-0.4c-0.37-0.27-0.63-0.65-0.79-1.13
		c-0.11-0.33-0.16-0.94-0.16-1.82V67.69z"/>
	<path class="st11" d="M59.3,67.69h1.18v0.69c0.13-0.27,0.3-0.48,0.51-0.62c0.21-0.14,0.44-0.21,0.7-0.21
		c0.18,0,0.37,0.05,0.56,0.14l-0.43,1.19c-0.16-0.08-0.29-0.12-0.4-0.12c-0.21,0-0.39,0.13-0.54,0.39
		c-0.15,0.26-0.22,0.78-0.22,1.55l0,0.27v2.22H59.3V67.69z"/>
	<path class="st11" d="M68.45,70.84h-4.44c0.06,0.39,0.24,0.7,0.51,0.93c0.28,0.23,0.63,0.35,1.06,0.35c0.52,0,0.96-0.18,1.33-0.54
		l1.16,0.55c-0.29,0.41-0.64,0.72-1.04,0.91s-0.88,0.3-1.44,0.3c-0.86,0-1.57-0.27-2.11-0.82c-0.54-0.54-0.81-1.23-0.81-2.05
		c0-0.84,0.27-1.54,0.81-2.09c0.54-0.55,1.22-0.83,2.04-0.83c0.87,0,1.57,0.28,2.11,0.83s0.81,1.29,0.81,2.2L68.45,70.84z
		 M67.07,69.76c-0.09-0.31-0.27-0.56-0.54-0.75c-0.27-0.19-0.58-0.29-0.93-0.29c-0.39,0-0.72,0.11-1.01,0.32
		c-0.18,0.13-0.35,0.37-0.51,0.71H67.07z"/>
	<path class="st11" d="M69.56,67.69h1.4v2.65c0,0.52,0.04,0.87,0.11,1.07c0.07,0.2,0.19,0.36,0.34,0.47s0.35,0.17,0.58,0.17
		s0.42-0.05,0.59-0.16c0.16-0.11,0.28-0.27,0.36-0.48c0.06-0.16,0.09-0.5,0.09-1.02v-2.7h1.38v2.33c0,0.96-0.08,1.62-0.23,1.97
		c-0.18,0.43-0.46,0.76-0.82,0.99c-0.36,0.23-0.82,0.35-1.38,0.35c-0.6,0-1.09-0.13-1.46-0.4c-0.37-0.27-0.63-0.65-0.79-1.13
		c-0.11-0.33-0.16-0.94-0.16-1.82V67.69z"/>
	<path class="st11" d="M75.29,67.69h1.6l1.09,1.5l1.08-1.5h1.58l-1.87,2.59l2.11,2.91h-1.6l-1.31-1.8l-1.3,1.8h-1.58l2.09-2.89
		L75.29,67.69z"/>
	<path class="st11" d="M84.33,65.57h1.38v7.62h-1.38V65.57z"/>
	<path class="st11" d="M92.47,70.84h-4.44c0.06,0.39,0.24,0.7,0.51,0.93c0.28,0.23,0.63,0.35,1.06,0.35c0.52,0,0.96-0.18,1.33-0.54
		l1.16,0.55c-0.29,0.41-0.64,0.72-1.04,0.91s-0.88,0.3-1.44,0.3c-0.86,0-1.57-0.27-2.11-0.82c-0.54-0.54-0.81-1.23-0.81-2.05
		c0-0.84,0.27-1.54,0.81-2.09c0.54-0.55,1.22-0.83,2.04-0.83c0.87,0,1.57,0.28,2.11,0.83s0.81,1.29,0.81,2.2L92.47,70.84z
		 M91.09,69.76c-0.09-0.31-0.27-0.56-0.54-0.75c-0.27-0.19-0.58-0.29-0.93-0.29c-0.39,0-0.72,0.11-1.01,0.32
		c-0.18,0.13-0.35,0.37-0.51,0.71H91.09z"/>
	<path class="st11" d="M96.96,68.46l-0.85,0.86c-0.35-0.34-0.66-0.52-0.95-0.52c-0.16,0-0.28,0.03-0.36,0.1
		c-0.09,0.07-0.13,0.15-0.13,0.25c0,0.07,0.03,0.14,0.08,0.21s0.19,0.15,0.41,0.26l0.51,0.25c0.53,0.26,0.9,0.53,1.1,0.8
		c0.2,0.27,0.3,0.59,0.3,0.96c0,0.49-0.18,0.9-0.54,1.22c-0.36,0.33-0.84,0.49-1.44,0.49c-0.8,0-1.44-0.31-1.92-0.94l0.85-0.93
		c0.16,0.19,0.35,0.34,0.57,0.46c0.22,0.12,0.41,0.17,0.58,0.17c0.18,0,0.33-0.04,0.44-0.13s0.17-0.19,0.17-0.3
		c0-0.21-0.2-0.42-0.6-0.62l-0.47-0.23c-0.89-0.45-1.33-1.01-1.33-1.68c0-0.43,0.17-0.81,0.5-1.12c0.33-0.31,0.76-0.46,1.29-0.46
		c0.36,0,0.69,0.08,1.01,0.24C96.47,67.94,96.74,68.17,96.96,68.46z"/>
	<path class="st11" d="M106.43,68.81l-1.15,0.63c-0.22-0.23-0.43-0.38-0.64-0.47c-0.21-0.09-0.46-0.13-0.74-0.13
		c-0.52,0-0.93,0.15-1.25,0.46c-0.32,0.31-0.48,0.7-0.48,1.18c0,0.47,0.15,0.85,0.46,1.15c0.31,0.3,0.71,0.44,1.21,0.44
		c0.62,0,1.1-0.21,1.44-0.63l1.09,0.75c-0.59,0.77-1.42,1.15-2.5,1.15c-0.97,0-1.73-0.29-2.27-0.86c-0.55-0.57-0.82-1.24-0.82-2.01
		c0-0.53,0.13-1.02,0.4-1.47s0.64-0.8,1.12-1.06c0.48-0.26,1.01-0.38,1.6-0.38c0.55,0,1.04,0.11,1.47,0.33
		C105.8,68.09,106.15,68.4,106.43,68.81z"/>
	<path class="st11" d="M117.75,70.86h-4.45c0.06,0.39,0.23,0.7,0.51,0.93s0.64,0.35,1.08,0.35c0.47,0,0.9-0.17,1.28-0.52l1.2,0.55
		c-0.32,0.39-0.68,0.69-1.09,0.88s-0.88,0.29-1.41,0.29c-0.99,0-1.75-0.35-2.28-1.05c-0.28,0.35-0.61,0.61-0.99,0.79
		c-0.38,0.17-0.8,0.26-1.27,0.26c-0.83,0-1.53-0.28-2.09-0.84c-0.56-0.56-0.84-1.25-0.84-2.06c0-0.79,0.29-1.46,0.86-2.03
		c0.58-0.57,1.27-0.85,2.08-0.85c0.31,0,0.61,0.04,0.9,0.13c0.29,0.09,0.56,0.21,0.8,0.38c0.18,0.12,0.37,0.31,0.56,0.56
		c0.58-0.71,1.34-1.07,2.27-1.07c0.58,0,1.09,0.13,1.53,0.4c0.44,0.27,0.78,0.63,1.01,1.1C117.64,69.51,117.75,70.12,117.75,70.86z
		 M110.34,68.8c-0.3,0-0.57,0.07-0.8,0.21c-0.24,0.14-0.43,0.34-0.56,0.59c-0.14,0.26-0.21,0.54-0.21,0.85
		c0,0.31,0.07,0.59,0.2,0.84c0.13,0.26,0.31,0.45,0.55,0.59c0.23,0.14,0.49,0.2,0.79,0.2c0.46,0,0.83-0.15,1.13-0.46
		c0.29-0.31,0.44-0.71,0.44-1.2c0-0.47-0.15-0.85-0.45-1.17C111.13,68.96,110.77,68.8,110.34,68.8z M116.38,69.78
		c-0.1-0.33-0.29-0.59-0.55-0.77c-0.26-0.18-0.58-0.27-0.95-0.27c-0.37,0-0.7,0.1-0.98,0.29c-0.28,0.19-0.47,0.44-0.56,0.75H116.38z
		"/>
	<path class="st11" d="M118.85,67.69h1.4v2.65c0,0.52,0.04,0.87,0.11,1.07c0.07,0.2,0.19,0.36,0.34,0.47s0.35,0.17,0.58,0.17
		s0.42-0.05,0.59-0.16c0.16-0.11,0.28-0.27,0.36-0.48c0.06-0.16,0.09-0.5,0.09-1.02v-2.7h1.38v2.33c0,0.96-0.08,1.62-0.23,1.97
		c-0.18,0.43-0.46,0.76-0.82,0.99c-0.36,0.23-0.82,0.35-1.38,0.35c-0.6,0-1.09-0.13-1.46-0.4c-0.37-0.27-0.63-0.65-0.79-1.13
		c-0.11-0.33-0.16-0.94-0.16-1.82V67.69z"/>
	<path class="st11" d="M124.75,67.69h1.18v0.69c0.13-0.27,0.3-0.48,0.51-0.62c0.21-0.14,0.44-0.21,0.7-0.21
		c0.18,0,0.37,0.05,0.56,0.14l-0.43,1.19c-0.16-0.08-0.29-0.12-0.4-0.12c-0.21,0-0.39,0.13-0.54,0.39
		c-0.15,0.26-0.22,0.78-0.22,1.55l0,0.27v2.22h-1.37V67.69z"/>
	<path class="st11" d="M131.75,68.46l-0.85,0.86c-0.35-0.34-0.66-0.52-0.95-0.52c-0.16,0-0.28,0.03-0.36,0.1
		c-0.09,0.07-0.13,0.15-0.13,0.25c0,0.07,0.03,0.14,0.08,0.21s0.19,0.15,0.41,0.26l0.51,0.25c0.53,0.26,0.9,0.53,1.1,0.8
		c0.2,0.27,0.3,0.59,0.3,0.96c0,0.49-0.18,0.9-0.54,1.22c-0.36,0.33-0.84,0.49-1.44,0.49c-0.8,0-1.44-0.31-1.92-0.94l0.85-0.93
		c0.16,0.19,0.35,0.34,0.57,0.46c0.22,0.12,0.41,0.17,0.58,0.17c0.18,0,0.33-0.04,0.44-0.13s0.17-0.19,0.17-0.3
		c0-0.21-0.2-0.42-0.6-0.62l-0.47-0.23c-0.89-0.45-1.33-1.01-1.33-1.68c0-0.43,0.17-0.81,0.5-1.12c0.33-0.31,0.76-0.46,1.29-0.46
		c0.36,0,0.69,0.08,1.01,0.24C131.27,67.94,131.54,68.17,131.75,68.46z"/>
	<path class="st11" d="M137.21,67.69v0.61c0.25-0.25,0.52-0.44,0.81-0.56s0.6-0.19,0.93-0.19c0.72,0,1.33,0.27,1.83,0.81
		c0.5,0.54,0.75,1.24,0.75,2.09c0,0.82-0.26,1.5-0.78,2.05c-0.52,0.55-1.13,0.83-1.85,0.83c-0.32,0-0.61-0.06-0.89-0.17
		c-0.27-0.11-0.54-0.3-0.81-0.55v2.59h-1.37v-7.51H137.21z M138.66,68.83c-0.43,0-0.8,0.15-1.08,0.45c-0.29,0.3-0.43,0.68-0.43,1.16
		c0,0.49,0.14,0.88,0.43,1.19c0.29,0.3,0.65,0.45,1.08,0.45c0.42,0,0.78-0.15,1.06-0.46s0.43-0.7,0.43-1.17
		c0-0.47-0.14-0.86-0.42-1.16S139.09,68.83,138.66,68.83z"/>
	<path class="st11" d="M142.67,67.69h1.4v2.65c0,0.52,0.04,0.87,0.11,1.07c0.07,0.2,0.19,0.36,0.34,0.47s0.35,0.17,0.58,0.17
		s0.42-0.05,0.59-0.16c0.16-0.11,0.28-0.27,0.36-0.48c0.06-0.16,0.09-0.5,0.09-1.02v-2.7h1.38v2.33c0,0.96-0.08,1.62-0.23,1.97
		c-0.18,0.43-0.46,0.76-0.82,0.99c-0.36,0.23-0.82,0.35-1.38,0.35c-0.6,0-1.09-0.13-1.46-0.4c-0.37-0.27-0.63-0.65-0.79-1.13
		c-0.11-0.33-0.16-0.94-0.16-1.82V67.69z"/>
	<path class="st11" d="M148.57,67.69h1.18v0.69c0.13-0.27,0.3-0.48,0.51-0.62c0.21-0.14,0.44-0.21,0.7-0.21
		c0.18,0,0.37,0.05,0.56,0.14l-0.43,1.19c-0.16-0.08-0.29-0.12-0.4-0.12c-0.21,0-0.39,0.13-0.54,0.39
		c-0.15,0.26-0.22,0.78-0.22,1.55l0,0.27v2.22h-1.37V67.69z"/>
	<path class="st11" d="M155.57,68.46l-0.85,0.86c-0.35-0.34-0.66-0.52-0.95-0.52c-0.16,0-0.28,0.03-0.36,0.1
		c-0.09,0.07-0.13,0.15-0.13,0.25c0,0.07,0.03,0.14,0.08,0.21s0.19,0.15,0.41,0.26l0.51,0.25c0.53,0.26,0.9,0.53,1.1,0.8
		c0.2,0.27,0.3,0.59,0.3,0.96c0,0.49-0.18,0.9-0.54,1.22c-0.36,0.33-0.84,0.49-1.44,0.49c-0.8,0-1.44-0.31-1.92-0.94l0.85-0.93
		c0.16,0.19,0.35,0.34,0.57,0.46c0.22,0.12,0.41,0.17,0.58,0.17c0.18,0,0.33-0.04,0.44-0.13s0.17-0.19,0.17-0.3
		c0-0.21-0.2-0.42-0.6-0.62l-0.47-0.23c-0.89-0.45-1.33-1.01-1.33-1.68c0-0.43,0.17-0.81,0.5-1.12c0.33-0.31,0.76-0.46,1.29-0.46
		c0.36,0,0.69,0.08,1.01,0.24C155.08,67.94,155.35,68.17,155.57,68.46z"/>
	<path class="st11" d="M157.42,71.79l0.99,0.5l-1.25,2.13l-0.69-0.33L157.42,71.79z"/>
	<path class="st11" d="M68.84,81.23l-1.15,0.63c-0.22-0.23-0.43-0.38-0.64-0.47c-0.21-0.09-0.46-0.13-0.74-0.13
		c-0.52,0-0.93,0.15-1.25,0.46c-0.32,0.31-0.48,0.7-0.48,1.18c0,0.47,0.15,0.85,0.46,1.15c0.31,0.3,0.71,0.44,1.21,0.44
		c0.62,0,1.1-0.21,1.44-0.63l1.09,0.75c-0.59,0.77-1.42,1.15-2.5,1.15c-0.97,0-1.73-0.29-2.27-0.86c-0.55-0.57-0.82-1.24-0.82-2.01
		c0-0.53,0.13-1.02,0.4-1.47s0.64-0.8,1.12-1.06c0.48-0.26,1.01-0.38,1.6-0.38c0.55,0,1.04,0.11,1.47,0.33
		C68.21,80.52,68.57,80.83,68.84,81.23z"/>
	<path class="st11" d="M74.15,80.12h1.38v5.5h-1.38v-0.58c-0.27,0.26-0.54,0.44-0.81,0.55c-0.27,0.11-0.56,0.17-0.88,0.17
		c-0.71,0-1.33-0.28-1.84-0.83c-0.52-0.55-0.78-1.24-0.78-2.05c0-0.85,0.25-1.55,0.75-2.09c0.5-0.54,1.11-0.81,1.83-0.81
		c0.33,0,0.64,0.06,0.93,0.19c0.29,0.12,0.56,0.31,0.8,0.56V80.12z M72.7,81.25c-0.43,0-0.78,0.15-1.06,0.45s-0.42,0.69-0.42,1.16
		c0,0.48,0.14,0.87,0.43,1.17s0.64,0.46,1.06,0.46c0.43,0,0.79-0.15,1.08-0.45s0.43-0.7,0.43-1.19c0-0.48-0.14-0.87-0.43-1.16
		S73.13,81.25,72.7,81.25z"/>
	<path class="st11" d="M76.6,80.12h1.18v0.69c0.13-0.27,0.3-0.48,0.51-0.62c0.21-0.14,0.44-0.21,0.7-0.21
		c0.18,0,0.37,0.05,0.56,0.14l-0.43,1.19c-0.16-0.08-0.29-0.12-0.4-0.12c-0.21,0-0.39,0.13-0.54,0.39
		c-0.15,0.26-0.22,0.78-0.22,1.55l0,0.27v2.22H76.6V80.12z"/>
	<path class="st11" d="M83.67,77.85c0.24,0,0.45,0.09,0.62,0.26c0.17,0.17,0.26,0.39,0.26,0.64c0,0.25-0.09,0.46-0.26,0.63
		c-0.17,0.17-0.38,0.26-0.62,0.26c-0.25,0-0.45-0.09-0.63-0.27c-0.17-0.18-0.26-0.39-0.26-0.64c0-0.24,0.08-0.45,0.26-0.62
		C83.22,77.94,83.43,77.85,83.67,77.85z M82.98,80.12h1.38v5.5h-1.38V80.12z"/>
	<path class="st11" d="M85.47,78h1.38v7.62h-1.38V78z"/>
	<path class="st11" d="M91.47,80.89l-0.85,0.86c-0.35-0.34-0.66-0.52-0.95-0.52c-0.16,0-0.28,0.03-0.36,0.1
		c-0.09,0.07-0.13,0.15-0.13,0.25c0,0.07,0.03,0.14,0.08,0.21s0.19,0.15,0.41,0.26l0.51,0.25c0.53,0.26,0.9,0.53,1.1,0.8
		c0.2,0.27,0.3,0.59,0.3,0.96c0,0.49-0.18,0.9-0.54,1.22c-0.36,0.33-0.84,0.49-1.44,0.49c-0.8,0-1.44-0.31-1.92-0.94l0.85-0.93
		c0.16,0.19,0.35,0.34,0.57,0.46c0.22,0.12,0.41,0.17,0.58,0.17c0.18,0,0.33-0.04,0.44-0.13s0.17-0.19,0.17-0.3
		c0-0.21-0.2-0.42-0.6-0.62l-0.47-0.23c-0.89-0.45-1.33-1.01-1.33-1.68c0-0.43,0.17-0.81,0.5-1.12c0.33-0.31,0.76-0.46,1.29-0.46
		c0.36,0,0.69,0.08,1.01,0.24C90.98,80.37,91.25,80.59,91.47,80.89z"/>
	<path class="st11" d="M94.96,80.12h1.41l1.39,3.25l1.39-3.25h1.4l-2.34,5.5h-0.89L94.96,80.12z"/>
	<path class="st11" d="M106.87,83.27h-4.44c0.06,0.39,0.24,0.7,0.51,0.93c0.28,0.23,0.63,0.35,1.06,0.35c0.52,0,0.96-0.18,1.33-0.54
		l1.16,0.55c-0.29,0.41-0.64,0.72-1.04,0.91s-0.88,0.3-1.44,0.3c-0.86,0-1.57-0.27-2.11-0.82c-0.54-0.54-0.81-1.23-0.81-2.05
		c0-0.84,0.27-1.54,0.81-2.09c0.54-0.55,1.22-0.83,2.04-0.83c0.87,0,1.57,0.28,2.11,0.83s0.81,1.29,0.81,2.2L106.87,83.27z
		 M105.48,82.18c-0.09-0.31-0.27-0.56-0.54-0.75c-0.27-0.19-0.58-0.29-0.93-0.29c-0.39,0-0.72,0.11-1.01,0.32
		c-0.18,0.13-0.35,0.37-0.51,0.71H105.48z"/>
	<path class="st11" d="M107.66,80.12h1.18v0.69c0.13-0.27,0.3-0.48,0.51-0.62c0.21-0.14,0.44-0.21,0.7-0.21
		c0.18,0,0.37,0.05,0.56,0.14l-0.43,1.19c-0.16-0.08-0.29-0.12-0.4-0.12c-0.21,0-0.39,0.13-0.54,0.39
		c-0.15,0.26-0.22,0.78-0.22,1.55l0,0.27v2.22h-1.37V80.12z"/>
	<path class="st11" d="M113.88,79.98c0.52,0,1.01,0.13,1.46,0.39c0.46,0.26,0.81,0.61,1.07,1.06c0.26,0.45,0.38,0.93,0.38,1.44
		c0,0.52-0.13,1-0.39,1.46c-0.26,0.45-0.61,0.8-1.05,1.06c-0.44,0.25-0.93,0.38-1.47,0.38c-0.79,0-1.46-0.28-2.02-0.84
		s-0.84-1.24-0.84-2.05c0-0.86,0.32-1.58,0.95-2.15C112.52,80.23,113.16,79.98,113.88,79.98z M113.9,81.28
		c-0.43,0-0.79,0.15-1.07,0.45c-0.29,0.3-0.43,0.68-0.43,1.15c0,0.48,0.14,0.87,0.42,1.16c0.28,0.3,0.64,0.45,1.07,0.45
		c0.43,0,0.79-0.15,1.08-0.45s0.43-0.69,0.43-1.16c0-0.47-0.14-0.86-0.42-1.15S114.34,81.28,113.9,81.28z"/>
	<path class="st11" d="M117.92,80.12h1.38v0.56c0.31-0.26,0.6-0.45,0.85-0.55c0.25-0.1,0.51-0.16,0.78-0.16
		c0.55,0,1.01,0.19,1.39,0.57c0.32,0.32,0.48,0.8,0.48,1.44v3.64h-1.37v-2.41c0-0.66-0.03-1.09-0.09-1.31
		c-0.06-0.21-0.16-0.38-0.31-0.49c-0.15-0.11-0.33-0.17-0.54-0.17c-0.28,0-0.52,0.09-0.72,0.28s-0.34,0.45-0.42,0.78
		c-0.04,0.17-0.06,0.54-0.06,1.12v2.21h-1.38V80.12z"/>
	<path class="st11" d="M124.3,78.09h1.38v2.03h0.82v1.19h-0.82v4.31h-1.38v-4.31h-0.71v-1.19h0.71V78.09z"/>
	<path class="st11" d="M128,84.18c0.22,0,0.41,0.08,0.56,0.23s0.23,0.34,0.23,0.56s-0.08,0.41-0.23,0.56s-0.34,0.23-0.56,0.23
		s-0.41-0.08-0.56-0.23s-0.23-0.34-0.23-0.56s0.08-0.41,0.23-0.56S127.78,84.18,128,84.18z"/>
	<path class="st11" d="M130.89,84.18c0.22,0,0.41,0.08,0.56,0.23s0.23,0.34,0.23,0.56s-0.08,0.41-0.23,0.56s-0.34,0.23-0.56,0.23
		s-0.41-0.08-0.56-0.23s-0.23-0.34-0.23-0.56s0.08-0.41,0.23-0.56S130.67,84.18,130.89,84.18z"/>
	<path class="st11" d="M133.79,84.18c0.22,0,0.41,0.08,0.56,0.23s0.23,0.34,0.23,0.56s-0.08,0.41-0.23,0.56s-0.34,0.23-0.56,0.23
		s-0.41-0.08-0.56-0.23S133,85.19,133,84.97s0.08-0.41,0.23-0.56S133.57,84.18,133.79,84.18z"/>
	<path class="st11" d="M136.69,84.18c0.22,0,0.41,0.08,0.56,0.23s0.23,0.34,0.23,0.56s-0.08,0.41-0.23,0.56s-0.34,0.23-0.56,0.23
		s-0.41-0.08-0.56-0.23s-0.23-0.34-0.23-0.56s0.08-0.41,0.23-0.56S136.47,84.18,136.69,84.18z"/>
</g>
<g>
	<path class="st11" d="M34.26,106.88v-6.87h1.42c1.03,0,1.77,0.08,2.24,0.25c0.67,0.23,1.19,0.64,1.56,1.21
		c0.38,0.58,0.56,1.26,0.56,2.06c0,0.69-0.15,1.29-0.45,1.82s-0.68,0.91-1.16,1.16c-0.47,0.25-1.14,0.37-2,0.37H34.26z
		 M34.92,106.24h0.79c0.95,0,1.61-0.06,1.97-0.18c0.52-0.17,0.92-0.47,1.22-0.91c0.3-0.44,0.44-0.97,0.44-1.6
		c0-0.66-0.16-1.23-0.48-1.7s-0.77-0.79-1.34-0.96c-0.43-0.13-1.14-0.2-2.12-0.2h-0.49V106.24z"/>
	<path class="st11" d="M41.49,99.71c0.15,0,0.28,0.05,0.38,0.16c0.1,0.11,0.16,0.23,0.16,0.38c0,0.15-0.05,0.27-0.16,0.38
		c-0.11,0.11-0.23,0.16-0.38,0.16c-0.15,0-0.27-0.05-0.38-0.16s-0.16-0.23-0.16-0.38c0-0.15,0.05-0.28,0.16-0.38
		S41.34,99.71,41.49,99.71z M41.17,101.81h0.65v5.08h-0.65V101.81z"/>
	<path class="st11" d="M47.45,105.2l0.55,0.29c-0.18,0.36-0.39,0.64-0.63,0.86c-0.24,0.22-0.5,0.38-0.8,0.5
		c-0.3,0.12-0.63,0.17-1,0.17c-0.83,0-1.48-0.27-1.94-0.81s-0.7-1.16-0.7-1.84c0-0.64,0.2-1.22,0.59-1.72
		c0.5-0.64,1.17-0.96,2.01-0.96c0.87,0,1.56,0.33,2.07,0.98c0.37,0.46,0.55,1.04,0.56,1.74H43.6c0.01,0.59,0.2,1.07,0.57,1.45
		c0.36,0.38,0.81,0.56,1.35,0.56c0.26,0,0.51-0.04,0.75-0.13c0.25-0.09,0.45-0.21,0.62-0.36C47.07,105.77,47.25,105.53,47.45,105.2z
		 M47.45,103.83c-0.09-0.35-0.21-0.63-0.38-0.84c-0.17-0.21-0.39-0.38-0.66-0.5c-0.27-0.13-0.56-0.19-0.87-0.19
		c-0.5,0-0.93,0.16-1.29,0.48c-0.26,0.23-0.46,0.58-0.59,1.05H47.45z"/>
	<path class="st11" d="M49.31,101.81h0.65v2.37c0,0.58,0.03,0.98,0.09,1.19c0.09,0.31,0.27,0.56,0.54,0.74
		c0.26,0.18,0.58,0.27,0.94,0.27s0.67-0.09,0.93-0.26s0.43-0.41,0.53-0.69c0.07-0.2,0.1-0.61,0.1-1.25v-2.37h0.67v2.49
		c0,0.7-0.08,1.23-0.25,1.58s-0.41,0.63-0.74,0.83c-0.33,0.2-0.74,0.3-1.24,0.3c-0.49,0-0.91-0.1-1.24-0.3
		c-0.33-0.2-0.58-0.48-0.74-0.84c-0.16-0.36-0.25-0.9-0.25-1.62V101.81z"/>
	<path class="st11" d="M34.26,111.49h0.69v6.2h2.64v0.66h-3.33V111.49z"/>
	<path class="st11" d="M42.84,116.67l0.55,0.29c-0.18,0.35-0.39,0.64-0.63,0.86c-0.24,0.22-0.5,0.38-0.8,0.5s-0.63,0.17-1,0.17
		c-0.83,0-1.48-0.27-1.94-0.81s-0.7-1.16-0.7-1.84c0-0.64,0.2-1.22,0.59-1.72c0.5-0.64,1.17-0.96,2.01-0.96
		c0.87,0,1.56,0.33,2.07,0.98c0.37,0.46,0.55,1.04,0.56,1.74h-4.57c0.01,0.59,0.2,1.07,0.57,1.45c0.36,0.38,0.81,0.57,1.35,0.57
		c0.26,0,0.51-0.04,0.75-0.13c0.25-0.09,0.45-0.21,0.62-0.36C42.46,117.24,42.64,117,42.84,116.67z M42.84,115.3
		c-0.09-0.35-0.21-0.63-0.38-0.83c-0.17-0.21-0.39-0.38-0.66-0.51c-0.27-0.13-0.56-0.19-0.87-0.19c-0.5,0-0.93,0.16-1.29,0.48
		c-0.26,0.23-0.46,0.58-0.59,1.05H42.84z"/>
	<path class="st11" d="M47.18,113.28h0.67v0.74c0.2-0.29,0.41-0.51,0.63-0.66s0.45-0.22,0.69-0.22c0.18,0,0.37,0.06,0.58,0.17
		l-0.34,0.55c-0.14-0.06-0.25-0.09-0.35-0.09c-0.22,0-0.43,0.09-0.63,0.27c-0.2,0.18-0.36,0.46-0.46,0.83
		c-0.08,0.29-0.12,0.88-0.12,1.76v1.72h-0.67V113.28z"/>
	<path class="st11" d="M52.7,113.15c0.78,0,1.43,0.28,1.95,0.85c0.47,0.52,0.7,1.13,0.7,1.83c0,0.71-0.25,1.33-0.74,1.86
		c-0.49,0.53-1.13,0.79-1.91,0.79c-0.78,0-1.42-0.27-1.91-0.79c-0.49-0.53-0.74-1.15-0.74-1.86c0-0.7,0.23-1.31,0.7-1.83
		C51.27,113.43,51.92,113.15,52.7,113.15z M52.7,113.79c-0.54,0-1.01,0.2-1.4,0.6c-0.39,0.4-0.59,0.89-0.59,1.46
		c0,0.37,0.09,0.71,0.27,1.03c0.18,0.32,0.42,0.56,0.72,0.74c0.3,0.17,0.64,0.26,1,0.26s0.69-0.09,1-0.26
		c0.3-0.17,0.54-0.42,0.72-0.74c0.18-0.32,0.27-0.66,0.27-1.03c0-0.57-0.2-1.06-0.59-1.46C53.71,113.99,53.24,113.79,52.7,113.79z"
		/>
	<path class="st11" d="M56.01,113.28h0.69l1.75,3.91l1.69-3.91h0.7l-3.03,6.94h-0.69l0.98-2.24L56.01,113.28z"/>
	<path class="st11" d="M66.74,113.28v5.08H66.1v-0.87c-0.27,0.33-0.58,0.58-0.92,0.75s-0.71,0.25-1.12,0.25
		c-0.72,0-1.33-0.26-1.84-0.78s-0.76-1.16-0.76-1.9c0-0.73,0.26-1.36,0.77-1.88s1.13-0.78,1.85-0.78c0.42,0,0.79,0.09,1.13,0.27
		c0.34,0.18,0.63,0.44,0.89,0.8v-0.93H66.74z M64.13,113.78c-0.36,0-0.7,0.09-1.01,0.27c-0.31,0.18-0.55,0.43-0.73,0.75
		c-0.18,0.32-0.27,0.66-0.27,1.03c0,0.36,0.09,0.7,0.28,1.03s0.43,0.58,0.74,0.76c0.31,0.18,0.64,0.27,1,0.27
		c0.36,0,0.7-0.09,1.02-0.27c0.32-0.18,0.57-0.42,0.74-0.73c0.17-0.31,0.26-0.65,0.26-1.04c0-0.59-0.19-1.08-0.58-1.47
		S64.7,113.78,64.13,113.78z"/>
	<path class="st11" d="M68.13,113.28h0.65v2.37c0,0.58,0.03,0.98,0.09,1.2c0.09,0.31,0.27,0.56,0.54,0.74
		c0.26,0.18,0.58,0.27,0.94,0.27s0.67-0.09,0.93-0.26s0.43-0.41,0.53-0.69c0.07-0.2,0.1-0.61,0.1-1.25v-2.37h0.67v2.49
		c0,0.7-0.08,1.23-0.25,1.58c-0.16,0.36-0.41,0.63-0.74,0.83c-0.33,0.2-0.74,0.3-1.24,0.3c-0.49,0-0.91-0.1-1.24-0.3
		c-0.33-0.2-0.58-0.48-0.74-0.84c-0.16-0.36-0.25-0.9-0.25-1.62V113.28z"/>
	<path class="st11" d="M74.02,113.28h0.65v0.88c0.23-0.32,0.46-0.56,0.7-0.71c0.33-0.2,0.68-0.3,1.04-0.3c0.25,0,0.48,0.05,0.7,0.14
		c0.22,0.1,0.4,0.22,0.54,0.38c0.14,0.16,0.26,0.39,0.36,0.69c0.22-0.4,0.49-0.7,0.81-0.91c0.33-0.21,0.68-0.31,1.05-0.31
		c0.35,0,0.66,0.09,0.93,0.27c0.27,0.18,0.47,0.43,0.6,0.74c0.13,0.32,0.2,0.79,0.2,1.43v2.77h-0.67v-2.77
		c0-0.54-0.04-0.92-0.12-1.12c-0.08-0.2-0.21-0.37-0.4-0.49c-0.19-0.12-0.41-0.19-0.67-0.19c-0.32,0-0.61,0.09-0.87,0.28
		c-0.26,0.19-0.45,0.44-0.58,0.75s-0.18,0.83-0.18,1.56v1.99h-0.65v-2.6c0-0.61-0.04-1.03-0.11-1.25s-0.21-0.39-0.4-0.53
		c-0.19-0.13-0.42-0.2-0.68-0.2c-0.3,0-0.58,0.09-0.85,0.27s-0.46,0.43-0.58,0.73c-0.13,0.31-0.19,0.78-0.19,1.42v2.15h-0.65V113.28
		z"/>
	<path class="st11" d="M87.27,116.67l0.55,0.29c-0.18,0.35-0.39,0.64-0.63,0.86c-0.24,0.22-0.5,0.38-0.8,0.5s-0.63,0.17-1,0.17
		c-0.83,0-1.48-0.27-1.94-0.81s-0.7-1.16-0.7-1.84c0-0.64,0.2-1.22,0.59-1.72c0.5-0.64,1.17-0.96,2.01-0.96
		c0.87,0,1.56,0.33,2.07,0.98c0.37,0.46,0.55,1.04,0.56,1.74h-4.57c0.01,0.59,0.2,1.07,0.57,1.45c0.36,0.38,0.81,0.57,1.35,0.57
		c0.26,0,0.51-0.04,0.75-0.13c0.25-0.09,0.45-0.21,0.62-0.36C86.88,117.24,87.07,117,87.27,116.67z M87.27,115.3
		c-0.09-0.35-0.21-0.63-0.38-0.83c-0.17-0.21-0.39-0.38-0.66-0.51c-0.27-0.13-0.56-0.19-0.87-0.19c-0.5,0-0.93,0.16-1.29,0.48
		c-0.26,0.23-0.46,0.58-0.59,1.05H87.27z"/>
	<path class="st11" d="M96.92,111.32v7.04h-0.64v-0.87c-0.27,0.33-0.58,0.58-0.92,0.75s-0.71,0.25-1.12,0.25
		c-0.72,0-1.33-0.26-1.84-0.78s-0.76-1.16-0.76-1.9c0-0.73,0.26-1.36,0.77-1.88c0.51-0.52,1.13-0.78,1.85-0.78
		c0.42,0,0.79,0.09,1.13,0.27c0.34,0.18,0.63,0.44,0.89,0.8v-2.89H96.92z M94.31,113.78c-0.36,0-0.7,0.09-1.01,0.27
		c-0.31,0.18-0.55,0.43-0.73,0.75c-0.18,0.32-0.27,0.66-0.27,1.03c0,0.36,0.09,0.7,0.27,1.03c0.18,0.33,0.43,0.58,0.74,0.76
		s0.64,0.27,1,0.27c0.36,0,0.7-0.09,1.02-0.27c0.32-0.18,0.57-0.42,0.74-0.73c0.17-0.31,0.26-0.65,0.26-1.04
		c0-0.59-0.19-1.08-0.58-1.47C95.35,113.97,94.88,113.78,94.31,113.78z"/>
	<path class="st11" d="M102.68,116.67l0.55,0.29c-0.18,0.35-0.39,0.64-0.63,0.86c-0.24,0.22-0.5,0.38-0.8,0.5s-0.63,0.17-1,0.17
		c-0.83,0-1.48-0.27-1.94-0.81s-0.7-1.16-0.7-1.84c0-0.64,0.2-1.22,0.59-1.72c0.5-0.64,1.17-0.96,2.01-0.96
		c0.87,0,1.56,0.33,2.07,0.98c0.37,0.46,0.55,1.04,0.56,1.74h-4.57c0.01,0.59,0.2,1.07,0.57,1.45c0.36,0.38,0.81,0.57,1.35,0.57
		c0.26,0,0.51-0.04,0.75-0.13c0.25-0.09,0.45-0.21,0.62-0.36C102.29,117.24,102.48,117,102.68,116.67z M102.68,115.3
		c-0.09-0.35-0.21-0.63-0.38-0.83c-0.17-0.21-0.39-0.38-0.66-0.51c-0.27-0.13-0.56-0.19-0.87-0.19c-0.5,0-0.93,0.16-1.29,0.48
		c-0.26,0.23-0.46,0.58-0.59,1.05H102.68z"/>
	<path class="st11" d="M107.17,113.83l-0.42,0.43c-0.35-0.34-0.69-0.51-1.03-0.51c-0.21,0-0.39,0.07-0.54,0.21s-0.23,0.3-0.23,0.49
		c0,0.16,0.06,0.32,0.19,0.47c0.12,0.15,0.39,0.33,0.79,0.54c0.49,0.25,0.82,0.49,0.99,0.73c0.17,0.24,0.26,0.5,0.26,0.8
		c0,0.42-0.15,0.77-0.44,1.06s-0.66,0.43-1.1,0.43c-0.29,0-0.57-0.06-0.84-0.19c-0.27-0.13-0.49-0.3-0.66-0.53l0.41-0.47
		c0.33,0.38,0.69,0.56,1.06,0.56c0.26,0,0.49-0.08,0.67-0.25c0.18-0.17,0.28-0.37,0.28-0.59c0-0.19-0.06-0.35-0.18-0.5
		c-0.12-0.14-0.4-0.32-0.82-0.54c-0.46-0.24-0.77-0.47-0.94-0.7c-0.17-0.23-0.25-0.49-0.25-0.79c0-0.38,0.13-0.71,0.39-0.96
		c0.26-0.25,0.6-0.38,1-0.38C106.22,113.15,106.69,113.37,107.17,113.83z"/>
	<path class="st11" d="M115.9,114.33l-0.52,0.32c-0.45-0.59-1.06-0.89-1.83-0.89c-0.62,0-1.13,0.2-1.54,0.6
		c-0.41,0.4-0.61,0.88-0.61,1.45c0,0.37,0.09,0.72,0.28,1.04c0.19,0.33,0.45,0.58,0.77,0.76c0.33,0.18,0.7,0.27,1.1,0.27
		c0.75,0,1.36-0.3,1.83-0.89l0.52,0.34c-0.24,0.37-0.57,0.65-0.98,0.85c-0.41,0.2-0.88,0.3-1.4,0.3c-0.8,0-1.47-0.25-2-0.77
		c-0.53-0.51-0.79-1.13-0.79-1.86c0-0.49,0.12-0.95,0.37-1.37s0.59-0.75,1.02-0.99s0.92-0.36,1.45-0.36c0.34,0,0.66,0.05,0.97,0.15
		c0.31,0.1,0.58,0.24,0.8,0.4C115.56,113.87,115.75,114.08,115.9,114.33z"/>
	<path class="st11" d="M117.38,111.18c0.15,0,0.28,0.05,0.38,0.16c0.1,0.11,0.16,0.23,0.16,0.38c0,0.15-0.05,0.27-0.16,0.38
		c-0.11,0.11-0.23,0.16-0.38,0.16c-0.15,0-0.27-0.05-0.38-0.16s-0.16-0.23-0.16-0.38c0-0.15,0.05-0.28,0.16-0.38
		S117.24,111.18,117.38,111.18z M117.06,113.28h0.65v5.08h-0.65V113.28z"/>
	<path class="st11" d="M123.35,116.67l0.55,0.29c-0.18,0.35-0.39,0.64-0.63,0.86c-0.24,0.22-0.5,0.38-0.8,0.5s-0.63,0.17-1,0.17
		c-0.83,0-1.48-0.27-1.94-0.81s-0.7-1.16-0.7-1.84c0-0.64,0.2-1.22,0.59-1.72c0.5-0.64,1.17-0.96,2.01-0.96
		c0.87,0,1.56,0.33,2.07,0.98c0.37,0.46,0.55,1.04,0.56,1.74h-4.57c0.01,0.59,0.2,1.07,0.57,1.45c0.36,0.38,0.81,0.57,1.35,0.57
		c0.26,0,0.51-0.04,0.75-0.13c0.25-0.09,0.45-0.21,0.62-0.36C122.96,117.24,123.15,117,123.35,116.67z M123.35,115.3
		c-0.09-0.35-0.21-0.63-0.38-0.83c-0.17-0.21-0.39-0.38-0.66-0.51c-0.27-0.13-0.56-0.19-0.87-0.19c-0.5,0-0.93,0.16-1.29,0.48
		c-0.26,0.23-0.46,0.58-0.59,1.05H123.35z"/>
	<path class="st11" d="M125.2,113.28h0.65v2.37c0,0.58,0.03,0.98,0.09,1.2c0.09,0.31,0.27,0.56,0.54,0.74
		c0.26,0.18,0.58,0.27,0.94,0.27s0.67-0.09,0.93-0.26s0.43-0.41,0.53-0.69c0.07-0.2,0.1-0.61,0.1-1.25v-2.37h0.67v2.49
		c0,0.7-0.08,1.23-0.25,1.58c-0.16,0.36-0.41,0.63-0.74,0.83c-0.33,0.2-0.74,0.3-1.24,0.3c-0.49,0-0.91-0.1-1.24-0.3
		c-0.33-0.2-0.58-0.48-0.74-0.84c-0.16-0.36-0.25-0.9-0.25-1.62V113.28z"/>
	<path class="st11" d="M130.52,113.28h0.78l1.35,1.86l1.34-1.86h0.79l-1.73,2.4l1.95,2.68h-0.8l-1.55-2.13l-1.54,2.13h-0.78
		l1.92-2.67L130.52,113.28z"/>
	<path class="st11" d="M34.26,122.96h0.69v6.2h2.64v0.66h-3.33V122.96z"/>
	<path class="st11" d="M43.63,124.75v5.08h-0.64v-0.87c-0.27,0.33-0.58,0.58-0.92,0.75s-0.71,0.25-1.12,0.25
		c-0.72,0-1.33-0.26-1.84-0.78s-0.76-1.16-0.76-1.9c0-0.73,0.26-1.36,0.77-1.88s1.13-0.78,1.85-0.78c0.42,0,0.79,0.09,1.13,0.27
		c0.34,0.18,0.63,0.44,0.89,0.8v-0.93H43.63z M41.01,125.25c-0.36,0-0.7,0.09-1.01,0.27c-0.31,0.18-0.55,0.43-0.73,0.75
		c-0.18,0.32-0.27,0.66-0.27,1.03c0,0.36,0.09,0.7,0.28,1.03c0.18,0.33,0.43,0.58,0.74,0.76c0.31,0.18,0.64,0.27,1,0.27
		c0.36,0,0.7-0.09,1.02-0.27c0.32-0.18,0.57-0.42,0.74-0.73c0.17-0.31,0.26-0.65,0.26-1.04c0-0.59-0.19-1.08-0.58-1.47
		S41.58,125.25,41.01,125.25z"/>
	<path class="st11" d="M52.12,124.75h0.65v4.05c0,0.71-0.06,1.23-0.19,1.56c-0.17,0.47-0.47,0.83-0.89,1.08s-0.93,0.38-1.53,0.38
		c-0.44,0-0.83-0.06-1.17-0.18s-0.63-0.29-0.85-0.5c-0.22-0.21-0.42-0.51-0.6-0.91h0.71c0.19,0.34,0.44,0.59,0.75,0.75
		s0.68,0.24,1.14,0.24c0.45,0,0.82-0.08,1.13-0.25c0.31-0.17,0.53-0.38,0.66-0.63c0.13-0.25,0.2-0.66,0.2-1.22v-0.26
		c-0.25,0.31-0.55,0.55-0.9,0.71c-0.35,0.17-0.73,0.25-1.13,0.25c-0.47,0-0.91-0.12-1.32-0.35c-0.41-0.23-0.73-0.54-0.95-0.94
		c-0.22-0.39-0.34-0.82-0.34-1.29c0-0.47,0.12-0.91,0.35-1.31s0.56-0.73,0.97-0.96c0.41-0.24,0.85-0.36,1.31-0.36
		c0.38,0,0.73,0.08,1.06,0.24c0.33,0.16,0.65,0.42,0.95,0.78V124.75z M50.19,125.25c-0.37,0-0.71,0.09-1.03,0.27
		c-0.32,0.18-0.57,0.43-0.75,0.74c-0.18,0.32-0.27,0.66-0.27,1.03c0,0.56,0.19,1.02,0.56,1.38c0.37,0.37,0.86,0.55,1.45,0.55
		c0.6,0,1.08-0.18,1.45-0.54c0.37-0.36,0.55-0.84,0.55-1.42c0-0.38-0.08-0.72-0.25-1.03s-0.41-0.54-0.71-0.71
		C50.88,125.33,50.55,125.25,50.19,125.25z"/>
	<path class="st11" d="M54.08,122.79h0.65v7.04h-0.65V122.79z"/>
	<path class="st11" d="M58.49,124.62c0.78,0,1.43,0.28,1.95,0.85c0.47,0.52,0.7,1.13,0.7,1.83c0,0.71-0.25,1.33-0.74,1.86
		c-0.49,0.53-1.13,0.79-1.91,0.79c-0.78,0-1.42-0.27-1.91-0.79c-0.49-0.53-0.74-1.15-0.74-1.86c0-0.7,0.23-1.31,0.7-1.83
		C57.06,124.9,57.71,124.62,58.49,124.62z M58.49,125.26c-0.54,0-1.01,0.2-1.4,0.6c-0.39,0.4-0.59,0.89-0.59,1.46
		c0,0.37,0.09,0.71,0.27,1.03c0.18,0.32,0.42,0.56,0.72,0.74c0.3,0.17,0.64,0.26,1,0.26s0.69-0.09,1-0.26
		c0.3-0.17,0.54-0.42,0.72-0.74c0.18-0.32,0.27-0.66,0.27-1.03c0-0.57-0.2-1.06-0.59-1.46C59.5,125.46,59.03,125.26,58.49,125.26z"
		/>
	<path class="st11" d="M62.57,122.66c0.15,0,0.28,0.05,0.38,0.16c0.1,0.11,0.16,0.23,0.16,0.38c0,0.15-0.05,0.27-0.16,0.38
		c-0.11,0.11-0.23,0.16-0.38,0.16c-0.15,0-0.27-0.05-0.38-0.16s-0.16-0.23-0.16-0.38c0-0.15,0.05-0.28,0.16-0.38
		S62.43,122.66,62.57,122.66z M62.25,124.75h0.65v5.08h-0.65V124.75z"/>
	<path class="st11" d="M64.01,124.75h0.67v0.74c0.2-0.29,0.41-0.51,0.63-0.66s0.45-0.22,0.69-0.22c0.18,0,0.37,0.06,0.58,0.17
		l-0.34,0.55c-0.14-0.06-0.25-0.09-0.35-0.09c-0.22,0-0.43,0.09-0.63,0.27c-0.2,0.18-0.36,0.46-0.46,0.83
		c-0.08,0.29-0.12,0.88-0.12,1.76v1.72h-0.67V124.75z"/>
	<path class="st11" d="M71.41,128.14l0.55,0.29c-0.18,0.35-0.39,0.64-0.63,0.86c-0.24,0.22-0.5,0.38-0.8,0.5s-0.63,0.17-1,0.17
		c-0.83,0-1.48-0.27-1.94-0.81s-0.7-1.16-0.7-1.84c0-0.64,0.2-1.22,0.59-1.72c0.5-0.64,1.17-0.96,2.01-0.96
		c0.87,0,1.56,0.33,2.07,0.98c0.37,0.46,0.55,1.04,0.56,1.74h-4.57c0.01,0.59,0.2,1.07,0.57,1.45c0.36,0.38,0.81,0.57,1.35,0.57
		c0.26,0,0.51-0.04,0.75-0.13c0.25-0.09,0.45-0.21,0.62-0.36C71.03,128.71,71.21,128.47,71.41,128.14z M71.41,126.77
		c-0.09-0.35-0.21-0.63-0.38-0.83c-0.17-0.21-0.39-0.38-0.66-0.51c-0.27-0.13-0.56-0.19-0.87-0.19c-0.5,0-0.93,0.16-1.29,0.48
		c-0.26,0.23-0.46,0.58-0.59,1.05H71.41z"/>
	<path class="st11" d="M81.06,122.79v7.04h-0.64v-0.87c-0.27,0.33-0.58,0.58-0.92,0.75s-0.71,0.25-1.12,0.25
		c-0.72,0-1.33-0.26-1.84-0.78s-0.76-1.16-0.76-1.9c0-0.73,0.26-1.36,0.77-1.88c0.51-0.52,1.13-0.78,1.85-0.78
		c0.42,0,0.79,0.09,1.13,0.27c0.34,0.18,0.63,0.44,0.89,0.8v-2.89H81.06z M78.45,125.25c-0.36,0-0.7,0.09-1.01,0.27
		c-0.31,0.18-0.55,0.43-0.73,0.75c-0.18,0.32-0.27,0.66-0.27,1.03c0,0.36,0.09,0.7,0.27,1.03c0.18,0.33,0.43,0.58,0.74,0.76
		s0.64,0.27,1,0.27c0.36,0,0.7-0.09,1.02-0.27c0.32-0.18,0.57-0.42,0.74-0.73c0.17-0.31,0.26-0.65,0.26-1.04
		c0-0.59-0.19-1.08-0.58-1.47C79.5,125.44,79.02,125.25,78.45,125.25z"/>
	<path class="st11" d="M86.82,128.14l0.55,0.29c-0.18,0.35-0.39,0.64-0.63,0.86c-0.24,0.22-0.5,0.38-0.8,0.5s-0.63,0.17-1,0.17
		c-0.83,0-1.48-0.27-1.94-0.81s-0.7-1.16-0.7-1.84c0-0.64,0.2-1.22,0.59-1.72c0.5-0.64,1.17-0.96,2.01-0.96
		c0.87,0,1.56,0.33,2.07,0.98c0.37,0.46,0.55,1.04,0.56,1.74h-4.57c0.01,0.59,0.2,1.07,0.57,1.45c0.36,0.38,0.81,0.57,1.35,0.57
		c0.26,0,0.51-0.04,0.75-0.13c0.25-0.09,0.45-0.21,0.62-0.36C86.44,128.71,86.62,128.47,86.82,128.14z M86.82,126.77
		c-0.09-0.35-0.21-0.63-0.38-0.83c-0.17-0.21-0.39-0.38-0.66-0.51c-0.27-0.13-0.56-0.19-0.87-0.19c-0.5,0-0.93,0.16-1.29,0.48
		c-0.26,0.23-0.46,0.58-0.59,1.05H86.82z"/>
	<path class="st11" d="M91.51,129.83v-6.87h1.42c1.03,0,1.77,0.08,2.24,0.25c0.67,0.23,1.19,0.64,1.56,1.21s0.56,1.26,0.56,2.06
		c0,0.69-0.15,1.29-0.45,1.81c-0.3,0.52-0.68,0.91-1.16,1.16c-0.47,0.25-1.14,0.37-2,0.37H91.51z M92.17,129.18h0.79
		c0.95,0,1.61-0.06,1.97-0.18c0.52-0.17,0.92-0.47,1.22-0.91c0.3-0.44,0.44-0.97,0.44-1.6c0-0.66-0.16-1.23-0.48-1.7
		c-0.32-0.47-0.77-0.79-1.34-0.97c-0.43-0.13-1.14-0.2-2.12-0.2h-0.49V129.18z"/>
	<path class="st11" d="M98.74,122.66c0.15,0,0.28,0.05,0.38,0.16c0.1,0.11,0.16,0.23,0.16,0.38c0,0.15-0.05,0.27-0.16,0.38
		c-0.11,0.11-0.23,0.16-0.38,0.16c-0.15,0-0.27-0.05-0.38-0.16s-0.16-0.23-0.16-0.38c0-0.15,0.05-0.28,0.16-0.38
		S98.6,122.66,98.74,122.66z M98.42,124.75h0.65v5.08h-0.65V124.75z"/>
	<path class="st11" d="M104.71,128.14l0.55,0.29c-0.18,0.35-0.39,0.64-0.63,0.86c-0.24,0.22-0.5,0.38-0.8,0.5s-0.63,0.17-1,0.17
		c-0.83,0-1.48-0.27-1.94-0.81s-0.7-1.16-0.7-1.84c0-0.64,0.2-1.22,0.59-1.72c0.5-0.64,1.17-0.96,2.01-0.96
		c0.87,0,1.56,0.33,2.07,0.98c0.37,0.46,0.55,1.04,0.56,1.74h-4.57c0.01,0.59,0.2,1.07,0.57,1.45c0.36,0.38,0.81,0.57,1.35,0.57
		c0.26,0,0.51-0.04,0.75-0.13c0.25-0.09,0.45-0.21,0.62-0.36C104.32,128.71,104.51,128.47,104.71,128.14z M104.71,126.77
		c-0.09-0.35-0.21-0.63-0.38-0.83c-0.17-0.21-0.39-0.38-0.66-0.51c-0.27-0.13-0.56-0.19-0.87-0.19c-0.5,0-0.93,0.16-1.29,0.48
		c-0.26,0.23-0.46,0.58-0.59,1.05H104.71z"/>
	<path class="st11" d="M106.56,124.75h0.65v2.37c0,0.58,0.03,0.98,0.09,1.2c0.09,0.31,0.27,0.56,0.54,0.74
		c0.26,0.18,0.58,0.27,0.94,0.27s0.67-0.09,0.93-0.26s0.43-0.41,0.53-0.69c0.07-0.2,0.1-0.61,0.1-1.25v-2.37H111v2.49
		c0,0.7-0.08,1.23-0.25,1.58c-0.16,0.36-0.41,0.63-0.74,0.83c-0.33,0.2-0.74,0.3-1.24,0.3c-0.49,0-0.91-0.1-1.24-0.3
		c-0.33-0.2-0.58-0.48-0.74-0.84c-0.16-0.36-0.25-0.9-0.25-1.62V124.75z"/>
	<path class="st11" d="M34.26,134.43h0.69v6.2h2.64v0.66h-3.33V134.43z"/>
	<path class="st11" d="M42.84,139.61l0.55,0.29c-0.18,0.36-0.39,0.64-0.63,0.86c-0.24,0.22-0.5,0.38-0.8,0.5
		c-0.3,0.12-0.63,0.17-1,0.17c-0.83,0-1.48-0.27-1.94-0.81s-0.7-1.16-0.7-1.84c0-0.64,0.2-1.22,0.59-1.72
		c0.5-0.64,1.17-0.96,2.01-0.96c0.87,0,1.56,0.33,2.07,0.98c0.37,0.46,0.55,1.04,0.56,1.74h-4.57c0.01,0.59,0.2,1.07,0.57,1.45
		c0.36,0.38,0.81,0.56,1.35,0.56c0.26,0,0.51-0.04,0.75-0.13c0.25-0.09,0.45-0.21,0.62-0.36C42.46,140.18,42.64,139.94,42.84,139.61
		z M42.84,138.25c-0.09-0.35-0.21-0.63-0.38-0.84c-0.17-0.21-0.39-0.38-0.66-0.5c-0.27-0.13-0.56-0.19-0.87-0.19
		c-0.5,0-0.93,0.16-1.29,0.48c-0.26,0.23-0.46,0.58-0.59,1.05H42.84z"/>
	<path class="st11" d="M49.52,134.26v0.64c-0.24-0.1-0.45-0.15-0.62-0.15c-0.13,0-0.23,0.03-0.32,0.08s-0.14,0.11-0.16,0.18
		c-0.02,0.07-0.03,0.24-0.03,0.53l0,0.69h1.06v0.56h-1.06l0,4.51h-0.65v-4.51h-0.67v-0.56h0.67v-0.79c0-0.36,0.03-0.62,0.1-0.78
		c0.07-0.15,0.18-0.28,0.34-0.38s0.35-0.14,0.58-0.14C48.97,134.13,49.22,134.17,49.52,134.26z"/>
	<path class="st11" d="M50.65,134.13c0.15,0,0.28,0.05,0.38,0.16c0.1,0.11,0.16,0.23,0.16,0.38c0,0.15-0.05,0.27-0.16,0.38
		c-0.11,0.11-0.23,0.16-0.38,0.16c-0.15,0-0.27-0.05-0.38-0.16s-0.16-0.23-0.16-0.38c0-0.15,0.05-0.28,0.16-0.38
		S50.51,134.13,50.65,134.13z M50.33,136.22h0.65v5.08h-0.65V136.22z"/>
	<path class="st11" d="M52.24,134.26h0.65v7.04h-0.65V134.26z"/>
	<path class="st11" d="M56.81,136.77l-0.42,0.43c-0.35-0.34-0.69-0.51-1.03-0.51c-0.21,0-0.39,0.07-0.54,0.21
		c-0.15,0.14-0.23,0.3-0.23,0.49c0,0.17,0.06,0.32,0.19,0.47c0.12,0.15,0.39,0.33,0.79,0.54c0.49,0.25,0.82,0.5,0.99,0.73
		c0.17,0.24,0.26,0.5,0.26,0.8c0,0.42-0.15,0.77-0.44,1.06c-0.29,0.29-0.66,0.44-1.1,0.44c-0.29,0-0.57-0.06-0.84-0.19
		c-0.27-0.13-0.49-0.3-0.66-0.53l0.41-0.47c0.33,0.38,0.69,0.56,1.06,0.56c0.26,0,0.49-0.08,0.67-0.25
		c0.18-0.17,0.28-0.37,0.28-0.59c0-0.19-0.06-0.35-0.18-0.5c-0.12-0.14-0.4-0.32-0.82-0.54c-0.46-0.24-0.77-0.47-0.94-0.7
		c-0.17-0.23-0.25-0.49-0.25-0.79c0-0.39,0.13-0.71,0.39-0.96c0.26-0.26,0.6-0.38,1-0.38C55.86,136.09,56.33,136.32,56.81,136.77z"
		/>
	<path class="st11" d="M65.68,134.26v7.04h-0.64v-0.87c-0.27,0.33-0.58,0.58-0.92,0.75s-0.71,0.25-1.12,0.25
		c-0.72,0-1.33-0.26-1.84-0.78c-0.51-0.52-0.76-1.15-0.76-1.9c0-0.73,0.26-1.36,0.77-1.88c0.51-0.52,1.13-0.78,1.85-0.78
		c0.42,0,0.79,0.09,1.13,0.27s0.63,0.44,0.89,0.8v-2.89H65.68z M63.07,136.72c-0.36,0-0.7,0.09-1.01,0.27
		c-0.31,0.18-0.55,0.43-0.73,0.75c-0.18,0.32-0.27,0.67-0.27,1.03c0,0.36,0.09,0.7,0.27,1.03c0.18,0.33,0.43,0.58,0.74,0.76
		s0.64,0.27,1,0.27c0.36,0,0.7-0.09,1.02-0.27s0.57-0.42,0.74-0.73c0.17-0.31,0.26-0.65,0.26-1.04c0-0.59-0.19-1.08-0.58-1.47
		C64.11,136.92,63.63,136.72,63.07,136.72z"/>
	<path class="st11" d="M71.44,139.61l0.55,0.29c-0.18,0.36-0.39,0.64-0.63,0.86c-0.24,0.22-0.5,0.38-0.8,0.5
		c-0.3,0.12-0.63,0.17-1,0.17c-0.83,0-1.48-0.27-1.94-0.81s-0.7-1.16-0.7-1.84c0-0.64,0.2-1.22,0.59-1.72
		c0.5-0.64,1.17-0.96,2.01-0.96c0.87,0,1.56,0.33,2.07,0.98c0.37,0.46,0.55,1.04,0.56,1.74h-4.57c0.01,0.59,0.2,1.07,0.57,1.45
		c0.36,0.38,0.81,0.56,1.35,0.56c0.26,0,0.51-0.04,0.75-0.13c0.25-0.09,0.45-0.21,0.62-0.36C71.05,140.18,71.24,139.94,71.44,139.61
		z M71.44,138.25c-0.09-0.35-0.21-0.63-0.38-0.84c-0.17-0.21-0.39-0.38-0.66-0.5c-0.27-0.13-0.56-0.19-0.87-0.19
		c-0.5,0-0.93,0.16-1.29,0.48c-0.26,0.23-0.46,0.58-0.59,1.05H71.44z"/>
	<path class="st11" d="M75.92,134.26h0.65v7.04h-0.65V134.26z"/>
	<path class="st11" d="M78.39,136.42h-0.48l-0.1-2.16h0.69L78.39,136.42z"/>
	<path class="st11" d="M79.83,134.26h0.65v2.87c0.26-0.35,0.56-0.61,0.87-0.78c0.32-0.17,0.66-0.26,1.03-0.26
		c0.38,0,0.72,0.1,1.01,0.29s0.51,0.45,0.65,0.78c0.14,0.32,0.21,0.83,0.21,1.53v2.62H83.6v-2.42c0-0.58-0.02-0.97-0.07-1.17
		c-0.08-0.34-0.23-0.59-0.44-0.76s-0.49-0.25-0.84-0.25c-0.4,0-0.75,0.13-1.06,0.39c-0.31,0.26-0.52,0.58-0.62,0.97
		c-0.06,0.25-0.09,0.71-0.09,1.38v1.86h-0.65V134.26z"/>
	<path class="st11" d="M88.06,136.09c0.78,0,1.43,0.28,1.95,0.85c0.47,0.52,0.7,1.13,0.7,1.83c0,0.71-0.25,1.33-0.74,1.86
		c-0.49,0.53-1.13,0.8-1.91,0.8c-0.78,0-1.42-0.27-1.91-0.8c-0.49-0.53-0.74-1.15-0.74-1.86c0-0.7,0.23-1.31,0.7-1.83
		C86.62,136.37,87.27,136.09,88.06,136.09z M88.06,136.73c-0.54,0-1.01,0.2-1.4,0.6c-0.39,0.4-0.59,0.89-0.59,1.46
		c0,0.37,0.09,0.71,0.27,1.03c0.18,0.32,0.42,0.56,0.72,0.73c0.3,0.17,0.64,0.26,1,0.26s0.69-0.09,1-0.26
		c0.3-0.17,0.54-0.42,0.72-0.73c0.18-0.32,0.27-0.66,0.27-1.03c0-0.57-0.2-1.05-0.59-1.46C89.06,136.93,88.6,136.73,88.06,136.73z"
		/>
	<path class="st11" d="M91.91,136.22h0.65v0.88c0.23-0.32,0.46-0.56,0.7-0.71c0.33-0.2,0.68-0.3,1.04-0.3c0.25,0,0.48,0.05,0.7,0.14
		c0.22,0.1,0.4,0.22,0.54,0.38c0.14,0.16,0.26,0.39,0.36,0.69c0.22-0.4,0.49-0.7,0.81-0.91c0.33-0.21,0.68-0.31,1.05-0.31
		c0.35,0,0.66,0.09,0.93,0.27s0.47,0.42,0.6,0.74c0.13,0.32,0.2,0.79,0.2,1.43v2.77h-0.67v-2.77c0-0.54-0.04-0.92-0.12-1.12
		c-0.08-0.2-0.21-0.37-0.4-0.49c-0.19-0.12-0.41-0.19-0.67-0.19c-0.32,0-0.61,0.09-0.87,0.28c-0.26,0.19-0.45,0.44-0.58,0.75
		c-0.12,0.31-0.18,0.83-0.18,1.56v1.99h-0.65v-2.6c0-0.61-0.04-1.03-0.11-1.25c-0.08-0.22-0.21-0.39-0.4-0.53
		c-0.19-0.13-0.42-0.2-0.68-0.2c-0.3,0-0.58,0.09-0.85,0.27c-0.26,0.18-0.46,0.43-0.58,0.73s-0.19,0.78-0.19,1.41v2.15h-0.65V136.22
		z"/>
	<path class="st11" d="M100.88,136.22h0.65v0.88c0.23-0.32,0.46-0.56,0.7-0.71c0.33-0.2,0.68-0.3,1.04-0.3
		c0.25,0,0.48,0.05,0.7,0.14c0.22,0.1,0.4,0.22,0.54,0.38c0.14,0.16,0.26,0.39,0.36,0.69c0.22-0.4,0.49-0.7,0.81-0.91
		c0.33-0.21,0.68-0.31,1.05-0.31c0.35,0,0.66,0.09,0.93,0.27s0.47,0.42,0.6,0.74c0.13,0.32,0.2,0.79,0.2,1.43v2.77h-0.67v-2.77
		c0-0.54-0.04-0.92-0.12-1.12c-0.08-0.2-0.21-0.37-0.4-0.49c-0.19-0.12-0.41-0.19-0.67-0.19c-0.32,0-0.61,0.09-0.87,0.28
		c-0.26,0.19-0.45,0.44-0.58,0.75c-0.12,0.31-0.18,0.83-0.18,1.56v1.99h-0.65v-2.6c0-0.61-0.04-1.03-0.11-1.25
		c-0.08-0.22-0.21-0.39-0.4-0.53c-0.19-0.13-0.42-0.2-0.68-0.2c-0.3,0-0.58,0.09-0.85,0.27c-0.26,0.18-0.46,0.43-0.58,0.73
		s-0.19,0.78-0.19,1.41v2.15h-0.65V136.22z"/>
	<path class="st11" d="M114.12,139.61l0.55,0.29c-0.18,0.36-0.39,0.64-0.63,0.86c-0.24,0.22-0.5,0.38-0.8,0.5
		c-0.3,0.12-0.63,0.17-1,0.17c-0.83,0-1.48-0.27-1.94-0.81s-0.7-1.16-0.7-1.84c0-0.64,0.2-1.22,0.59-1.72
		c0.5-0.64,1.17-0.96,2.01-0.96c0.87,0,1.56,0.33,2.07,0.98c0.37,0.46,0.55,1.04,0.56,1.74h-4.57c0.01,0.59,0.2,1.07,0.57,1.45
		c0.36,0.38,0.81,0.56,1.35,0.56c0.26,0,0.51-0.04,0.75-0.13c0.25-0.09,0.45-0.21,0.62-0.36
		C113.74,140.18,113.92,139.94,114.12,139.61z M114.12,138.25c-0.09-0.35-0.21-0.63-0.38-0.84c-0.17-0.21-0.39-0.38-0.66-0.5
		c-0.27-0.13-0.56-0.19-0.87-0.19c-0.5,0-0.93,0.16-1.29,0.48c-0.26,0.23-0.46,0.58-0.59,1.05H114.12z"/>
	<path class="st11" d="M118.46,136.22h0.67v0.74c0.2-0.29,0.41-0.51,0.63-0.66s0.45-0.22,0.69-0.22c0.18,0,0.37,0.06,0.58,0.17
		l-0.34,0.55c-0.14-0.06-0.25-0.09-0.35-0.09c-0.22,0-0.43,0.09-0.63,0.27c-0.2,0.18-0.36,0.46-0.46,0.83
		c-0.08,0.29-0.12,0.87-0.12,1.75v1.72h-0.67V136.22z"/>
	<path class="st11" d="M125.86,139.61l0.55,0.29c-0.18,0.36-0.39,0.64-0.63,0.86c-0.24,0.22-0.5,0.38-0.8,0.5
		c-0.3,0.12-0.63,0.17-1,0.17c-0.83,0-1.48-0.27-1.94-0.81s-0.7-1.16-0.7-1.84c0-0.64,0.2-1.22,0.59-1.72
		c0.5-0.64,1.17-0.96,2.01-0.96c0.87,0,1.56,0.33,2.07,0.98c0.37,0.46,0.55,1.04,0.56,1.74h-4.57c0.01,0.59,0.2,1.07,0.57,1.45
		c0.36,0.38,0.81,0.56,1.35,0.56c0.26,0,0.51-0.04,0.75-0.13c0.25-0.09,0.45-0.21,0.62-0.36
		C125.47,140.18,125.66,139.94,125.86,139.61z M125.86,138.25c-0.09-0.35-0.21-0.63-0.38-0.84c-0.17-0.21-0.39-0.38-0.66-0.5
		c-0.27-0.13-0.56-0.19-0.87-0.19c-0.5,0-0.93,0.16-1.29,0.48c-0.26,0.23-0.46,0.58-0.59,1.05H125.86z"/>
	<path class="st11" d="M127.31,136.22h0.7l1.71,3.7l1.68-3.7h0.7l-2.32,5.08h-0.12L127.31,136.22z"/>
	<path class="st11" d="M137.37,139.61l0.55,0.29c-0.18,0.36-0.39,0.64-0.63,0.86c-0.24,0.22-0.5,0.38-0.8,0.5
		c-0.3,0.12-0.63,0.17-1,0.17c-0.83,0-1.48-0.27-1.94-0.81s-0.7-1.16-0.7-1.84c0-0.64,0.2-1.22,0.59-1.72
		c0.5-0.64,1.17-0.96,2.01-0.96c0.87,0,1.56,0.33,2.07,0.98c0.37,0.46,0.55,1.04,0.56,1.74h-4.57c0.01,0.59,0.2,1.07,0.57,1.45
		c0.36,0.38,0.81,0.56,1.35,0.56c0.26,0,0.51-0.04,0.75-0.13c0.25-0.09,0.45-0.21,0.62-0.36
		C136.98,140.18,137.17,139.94,137.37,139.61z M137.37,138.25c-0.09-0.35-0.21-0.63-0.38-0.84c-0.17-0.21-0.39-0.38-0.66-0.5
		c-0.27-0.13-0.56-0.19-0.87-0.19c-0.5,0-0.93,0.16-1.29,0.48c-0.26,0.23-0.46,0.58-0.59,1.05H137.37z"/>
	<path class="st11" d="M139.31,136.22h0.65v0.91c0.26-0.35,0.55-0.61,0.87-0.78c0.32-0.17,0.66-0.26,1.04-0.26
		c0.38,0,0.72,0.1,1.01,0.29s0.51,0.45,0.65,0.78c0.14,0.33,0.21,0.84,0.21,1.53v2.62h-0.65v-2.42c0-0.58-0.02-0.97-0.07-1.17
		c-0.08-0.34-0.22-0.59-0.44-0.76s-0.5-0.25-0.84-0.25c-0.39,0-0.75,0.13-1.06,0.39c-0.31,0.26-0.52,0.58-0.62,0.97
		c-0.06,0.25-0.09,0.71-0.09,1.38v1.86h-0.65V136.22z"/>
	<path class="st11" d="M145.36,134.13c0.15,0,0.28,0.05,0.38,0.16c0.1,0.11,0.16,0.23,0.16,0.38c0,0.15-0.05,0.27-0.16,0.38
		c-0.11,0.11-0.23,0.16-0.38,0.16c-0.15,0-0.27-0.05-0.38-0.16s-0.16-0.23-0.16-0.38c0-0.15,0.05-0.28,0.16-0.38
		S145.22,134.13,145.36,134.13z M145.04,136.22h0.65v5.08h-0.65V136.22z"/>
	<path class="st11" d="M146.8,136.22h0.67v0.74c0.2-0.29,0.41-0.51,0.63-0.66s0.45-0.22,0.69-0.22c0.18,0,0.37,0.06,0.58,0.17
		l-0.34,0.55c-0.14-0.06-0.25-0.09-0.35-0.09c-0.22,0-0.43,0.09-0.63,0.27c-0.2,0.18-0.36,0.46-0.46,0.83
		c-0.08,0.29-0.12,0.87-0.12,1.75v1.72h-0.67V136.22z"/>
</g>
<circle class="st12" cx="21.74" cy="102.82" r="2.87"/>
<circle class="st11" cx="21.74" cy="114.7" r="2.87"/>
<circle class="st13" cx="21.74" cy="127.51" r="2.87"/>
<circle class="st14" cx="21.74" cy="138.08" r="2.87"/>
</svg>
