<?xml version="1.0" encoding="utf-8"?>
<!-- Generator: Adobe Illustrator 23.0.6, SVG Export Plug-In . SVG Version: 6.00 Build 0)  -->
<svg version="1.1" id="Calque_1" xmlns="http://www.w3.org/2000/svg" xmlns:xlink="http://www.w3.org/1999/xlink" x="0px" y="0px"
	 viewBox="0 0 198.43 198.43" style="enable-background:new 0 0 198.43 198.43;" xml:space="preserve">
<style type="text/css">
	.cardAnimation-whiteCard5-cahLogo_V2GyqRay6t .st0{fill:#FFFFFF;}
	.cardAnimation-whiteCard5-cahLogo_V2GyqRay6t .st1{fill:#F28B00;}
	.cardAnimation-whiteCard5-cahLogo_V2GyqRay6t .st2{fill:#2F3838;}
	.cardAnimation-whiteCard5-cahLogo_V2GyqRay6t .st3{fill:#A2ACAC;}
	.cardAnimation-whiteCard5-cahLogo_V2GyqRay6t .st4{fill:#F29500;}
	.cardAnimation-whiteCard5-cahLogo_V2GyqRay6t .st5{fill:#B71E17;}
	.cardAnimation-whiteCard5-cahLogo_V2GyqRay6t .st6{fill:#CCA371;}
	.cardAnimation-whiteCard5-cahLogo_V2GyqRay6t .st7{enable-background:new    ;}
	.cardAnimation-whiteCard5-cahLogo_V2GyqRay6t .st8{fill:#12100B;}
	.cardAnimation-whiteCard5-cahLogo_V2GyqRay6t .st9{fill-rule:evenodd;clip-rule:evenodd;fill:#AFBF4B;}
	.cardAnimation-whiteCard5-cahLogo_V2GyqRay6t .st10{fill:#497E5D;}
	.cardAnimation-whiteCard5-cahLogo_V2GyqRay6t .st11{fill:none;}
</style>
<g>
	<g>
		<path class="st0" d="M177.93,198.43H20.07c-11,0-19.91-8.91-19.91-19.91V19.91C0.16,8.91,9.08,0,20.07,0h157.86
			c11,0,19.91,8.91,19.91,19.91v158.6C197.84,189.51,188.93,198.43,177.93,198.43z"/>
		<g>
			<g>
				<path class="st1" d="M52.75,97.25c0.05-0.04,0.11-0.1,0.15-0.15c-0.07-0.05-0.1-0.06-0.18-0.04
					C52.64,97.1,52.71,97.18,52.75,97.25z"/>
				<path class="st1" d="M196.66,66.66c-0.07,0.06-0.17,0.15-0.24,0.22c0.11,0.07,0.14,0.1,0.27,0.06
					C196.83,66.9,196.73,66.78,196.66,66.66z"/>
				<path class="st2" d="M150.94,95.14c0.06-0.05,0.03-0.16-0.05-0.16c-0.11,0-0.14,0.05-0.16,0.16
					C150.71,95.25,150.86,95.21,150.94,95.14z"/>
				<path class="st1" d="M4.35,21.74c0.08,0,0.16-0.04,0.12-0.11c-0.04-0.08-0.1-0.05-0.18,0C4.24,21.66,4.29,21.74,4.35,21.74z"/>
				<path class="st1" d="M105.18,49.4c-0.01,0.05,0,0.11,0.05,0.1c0.06-0.01,0.05-0.06,0.03-0.11
					C105.25,49.34,105.19,49.36,105.18,49.4z"/>
				<path class="st1" d="M65.18,88.67c0.02,0.04,0.06,0.06,0.08,0.03c0.03-0.04,0-0.06-0.04-0.08
					C65.18,88.6,65.16,88.64,65.18,88.67z"/>
				<path class="st2" d="M187.76,37.52c0.18,0.17,0.36,0.39,0.54,0.56c-0.1-0.18-0.2-0.4-0.3-0.58
					C187.91,37.51,187.84,37.52,187.76,37.52z"/>
				<path class="st2" d="M185.37,16.72c-0.77-2.47-1.22-5.33-2-7.81c-0.03,2.13-0.28,4.67-0.31,6.79
					C183.87,16.05,184.57,16.38,185.37,16.72z"/>
				<path class="st3" d="M72.52,76.17L72.52,76.17L72.52,76.17z"/>
				<path class="st3" d="M156.68,17.04L156.68,17.04L156.68,17.04z"/>
				<path class="st3" d="M12.68,45.62v0.01V45.62z"/>
				<path class="st1" d="M24.25,24.52c-0.5-0.43-1.21-0.58-1.41,0.04c-0.2,0.65,0.43,0.74,1.11,0.84
					C24.5,25.49,24.61,24.84,24.25,24.52z"/>
				<path class="st1" d="M69.39,10.51c0,2.21,1.22,4.38,3.27,3.47c2.14-0.95,0.97-2.76-0.29-4.7C71.33,7.68,69.39,8.86,69.39,10.51z
					"/>
				<path class="st3" d="M178.85,38.64c-0.02-0.14-0.31-0.16-0.33-0.31c-0.82-1.69-1.31-3.54-2.12-5.22
					c-0.34-0.09-0.74,0.13-1.07,0.04c-0.06,0-0.3-0.21-0.3-0.15c0.27,2.47,0.05,2.54,0.97,4.85
					C176.55,39.27,177.35,38.34,178.85,38.64z"/>
				<path class="st3" d="M152.78,67.88c-0.02,0.01,0.02,0.06,0.04,0.05c0.15-0.03,0.15-0.03,0.29-0.09c0,0,0-0.04-0.01-0.04
					C152.94,67.79,152.93,67.82,152.78,67.88z"/>
				<path class="st4" d="M183.84,26.66c2.1-0.83,1.84-2.48,0.29-4.1c-1.22-1.28-2.31-0.33-3.08,1.25
					C180.05,25.89,181.82,27.47,183.84,26.66z"/>
				<path class="st4" d="M48.32,20.97c2.1-0.83,1.84-2.48,0.29-4.1c-1.22-1.28-2.31-0.33-3.08,1.25
					C44.52,20.2,46.3,21.77,48.32,20.97z"/>
				<path class="st5" d="M39.25,30.93c-0.05,0.04-0.05,0.06-0.01,0.11c0.11,0.1,0.11,0.12,0.26,0.13c0.06,0,0.01-0.05,0.01-0.12
					c0.01-0.11,0.08-0.13,0.01-0.21C39.44,30.71,39.37,30.84,39.25,30.93z"/>
				<path class="st3" d="M182.58,12.78c0.03,0.02,0.04,0.06,0.07,0.03c0.03-0.02-0.02-0.03-0.06-0.04
					C182.59,12.77,182.58,12.77,182.58,12.78z"/>
				<path class="st2" d="M109.33,95.45c0.06,0.03,0.07-0.05,0.11-0.1c0.01-0.01-0.01-0.01-0.02-0.01
					C109.35,95.37,109.27,95.42,109.33,95.45z"/>
				<path class="st2" d="M3.51,32.86c-0.09-0.07-0.12,0.04-0.21,0.1c-0.01,0.01,0.01,0.03,0.03,0.02
					C3.46,32.96,3.6,32.92,3.51,32.86z"/>
				<path class="st6" d="M163.86,93.97c0.11-0.04,0.11-0.04,0.21-0.1c0-0.02-0.01-0.07,0-0.09c-0.12,0.06-0.13,0.06-0.23,0.15
					C163.81,93.94,163.84,93.97,163.86,93.97z"/>
				<path class="st5" d="M-1.15,83.97c-0.02-0.09-0.05-0.2-0.07-0.29c-0.13,0.02-0.15,0.03-0.23,0.13
					C-1.35,83.86-1.24,83.92-1.15,83.97z"/>
				<path class="st5" d="M157.1,4.91c0.89-0.52,1.99-1.21,2.87-1.73c-0.66-1.25-0.89-1.45-2.25-1.88
					C157.54,2.45,157.27,3.76,157.1,4.91z"/>
				<path class="st3" d="M79.95,85.45c0.02-0.06,0.01-0.05,0-0.11c-0.01-0.04,0-0.05-0.04-0.06c-0.19-0.05-0.19-0.04-0.39-0.05
					l-0.04,0.02c0.03,0.07,0.09,0.13,0.12,0.2c0.09,0.03,0.16,0.06,0.25,0.09C79.92,85.54,79.92,85.52,79.95,85.45z"/>
				<path class="st6" d="M153.29,32.64c-0.08,0.05-0.17,0.11-0.25,0.16c-0.02,0.02-0.05,0.03-0.05,0.05
					c-0.01,0.09,0.03,0.09,0.06,0.18c0.06,0.04,0.11,0.07,0.17,0.11c0.08-0.11,0.19-0.2,0.27-0.31c0.02-0.06-0.02-0.07-0.04-0.12
					C153.41,32.64,153.38,32.64,153.29,32.64z"/>
				<path class="st6" d="M63.42,23.19c-0.07,0.01-0.16,0.02-0.23,0.03c-0.02,0-0.04,0-0.05,0.02c-0.04,0.06-0.01,0.07-0.02,0.14
					c0.03,0.05,0.05,0.08,0.08,0.14c0.09-0.05,0.2-0.08,0.29-0.13c0.03-0.04,0.01-0.05,0.01-0.1C63.5,23.22,63.48,23.21,63.42,23.19
					z"/>
				<path class="st6" d="M48.93,2.57c-0.63-0.36-0.67-0.27-1.39-0.36c0.05,0.38,0.09,0.67,0.14,1.05c0.78,0.33,0.83,0.24,1.68,0.25
					C49.21,3.2,49.08,2.88,48.93,2.57z"/>
				<path class="st6" d="M104.23,70.94c0.06,0.04,0.06,0.03,0.13,0.04c0-0.04,0-0.06-0.01-0.1c-0.07-0.03-0.08-0.03-0.15-0.03
					C104.21,70.88,104.22,70.91,104.23,70.94z"/>
				<path class="st6" d="M171.48,59.14c0.02,0.02,0.02,0.02,0.05,0.02c0-0.01,0-0.03,0-0.04c-0.03-0.02-0.03-0.02-0.06-0.02
					C171.48,59.11,171.48,59.13,171.48,59.14z"/>
				<path class="st5" d="M99.88,4.55c0.94,1.64,1.92,0.8,3.77,1.27c-0.14-0.24-0.11-0.95-0.25-1.19
					C101.53,3.8,99.08,3.16,99.88,4.55z"/>
				<path class="st6" d="M149.91,15.24c0.06-0.76,0.14-1.09-0.64-1.15c-1.49,1.26-2.74,2.31-4.22,3.57c0.89,0.49,1.51,0.77,2.4,1.26
					C148.24,17.66,149.12,16.52,149.91,15.24z"/>
				<path class="st6" d="M23.56,35.8c0.27-0.3,0.41-0.41,0.11-0.67c-1.02,0.06-1.88,0.1-2.9,0.15c0.21,0.48,0.37,0.79,0.58,1.27
					C22.09,36.27,22.83,36.08,23.56,35.8z"/>
				<path class="st1" d="M174.03,84.6c0.09-0.03,0.21-0.06,0.31-0.09c-0.03-0.08-0.09-0.04-0.17-0.08c-0.1-0.05-0.09-0.09-0.2-0.08
					C173.99,84.43,174.01,84.52,174.03,84.6z"/>
				<path class="st1" d="M184.22,24.5c0.14,0.04,0.33,0.09,0.48,0.14c0.03-0.13-0.08-0.13-0.15-0.25c-0.08-0.15-0.04-0.19-0.19-0.28
					C184.31,24.24,184.26,24.37,184.22,24.5z"/>
				<path class="st2" d="M5.28,72.51c0-0.04-0.01-0.07-0.01-0.11c-0.04,0.04-0.05,0.04-0.06,0.1C5.2,72.53,5.24,72.52,5.28,72.51z"
					/>
				<path class="st2" d="M84.48,29.84c0.03-0.04,0.07-0.08,0.1-0.12c-0.08,0-0.09-0.01-0.16,0.04
					C84.38,29.79,84.44,29.82,84.48,29.84z"/>
				<path class="st2" d="M14.41,79.52c-0.06,0.09-0.13,0.16-0.19,0.25c0.17,0,0.18,0.01,0.31-0.09
					C14.63,79.61,14.51,79.56,14.41,79.52z"/>
				<path class="st5" d="M3.06,1.37C3.23,1.32,3.3,1.38,3.39,1.23c0.08-0.12-0.15,0-0.3,0.03C3.08,1.28,3.08,1.34,3.06,1.37z"/>
				<path class="st5" d="M170.38,19.74c-0.95,2.33-2.23,2.52-1.36,4.88c0.72,1.96,1.41-1.65,2.32-3.54
					C171.2,20.72,170.52,20.12,170.38,19.74z"/>
				<path class="st5" d="M93.84,62.9c-0.04-0.12,0-0.16-0.11-0.22c-0.09-0.05,0,0.11,0.03,0.2C93.78,62.89,93.83,62.89,93.84,62.9z"
					/>
				<path class="st6" d="M122.84,35.29c-0.06,0-0.1-0.02-0.16-0.02c0.04,0.14,0.09,0.26,0.13,0.4c0.09,0.05,0.1,0.04,0.2,0.03
					c0.02,0,0.04-0.03,0.03-0.05C122.98,35.46,122.94,35.47,122.84,35.29z"/>
				<path class="st6" d="M196.38,20.86c0.06-0.06,0.11-0.09,0.17-0.15c-0.19-0.08-0.38-0.14-0.57-0.23
					c-0.15,0.05-0.14,0.07-0.23,0.19c-0.02,0.02,0,0.07,0.03,0.08C196.06,20.86,196.08,20.81,196.38,20.86z"/>
				<path class="st6" d="M72.63,3.18c0.24,0.11,0.22,0.19,0.48,0.24c0.01-0.14,0.03-0.31,0.05-0.44C73,3.03,72.83,3.04,72.67,3.09
					c-0.02,0.01-0.02,0.06-0.03,0.07C72.63,3.17,72.62,3.18,72.63,3.18z"/>
				<path class="st5" d="M18.26,11.77c-0.23,1.92-0.92,2.14-0.02,3.87c0.44,0.85,2.17,1.4,2.28,0.45c0.3-2.52-0.99-2.47-1.92-4.83
					C18.44,10.83,18.32,11.25,18.26,11.77z"/>
				<path class="st6" d="M176.94,35.11L176.94,35.11c0.01,0.02,0,0.03,0.02,0.03c0.01-0.02,0.02-0.04,0.02-0.05
					C176.97,35.08,176.97,35.1,176.94,35.11z"/>
				<path class="st6" d="M164.25,35.42C164.25,35.42,164.24,35.42,164.25,35.42C164.24,35.42,164.24,35.42,164.25,35.42
					c0,0.01,0.01,0.01,0.02,0.02C164.26,35.43,164.25,35.43,164.25,35.42z"/>
				<path class="st5" d="M114.68,1.31c0-0.01,0-0.02,0-0.03c-0.11-0.01-0.11-0.02-0.21,0c-0.03,0-0.01,0.05,0.01,0.06
					c0.08,0.03,0.09,0.03,0.18,0.04C114.68,1.38,114.67,1.34,114.68,1.31z"/>
				<path class="st5" d="M29.98,8.05c0.1,0.06,0.28,0.3,0.38,0.36c1.51-1.07,1.69-0.95,2.86-2.38c0.28-0.35-0.4-0.73-0.83-0.59
					c-1.51,0.47-1.6,0.55-2.84,1.52C29.15,7.26,29.81,7.58,29.98,8.05z"/>
				<path class="st2" d="M73.94,16.61c0.03,0.05,0.05,0.1,0.08,0.15c0.03,0.01,0.05,0.01,0.06-0.02
					C74.03,16.7,73.99,16.65,73.94,16.61z"/>
				<path class="st2" d="M-2.04,65.76c0.11-0.03,0.12-0.03,0.22-0.09c0.03-0.05,0.06-0.13,0.09-0.18c0-0.03-0.02,0-0.04,0.01
					c-0.35,0.1-0.35,0.08-0.69,0.2l0.02-0.04c0.05,0.03,0.08,0.08,0.13,0.11C-2.18,65.81-2.18,65.8-2.04,65.76z"/>
				<path class="st3" d="M88.6,2.87c-0.28-0.37-0.32-0.54-0.79-0.47c-0.36,0.05-0.35,0.29-0.3,0.64C87.85,2.99,88.26,2.92,88.6,2.87
					z"/>
				<path class="st3" d="M124.15,5.66c0.74,0.96,0.88,1.39,2.08,1.19c0.94-0.16,0.91-0.77,0.76-1.7
					C126.1,5.31,125.04,5.52,124.15,5.66z"/>
				<path class="st3" d="M145.05,22.6c-0.04-0.31-0.02-0.43-0.32-0.54c-0.23-0.08-0.31,0.06-0.4,0.29
					C144.55,22.43,144.82,22.52,145.05,22.6z"/>
				<path class="st1" d="M197.44,36.55c-0.01,0.05-0.02,0.1-0.02,0.16c0.01,0.01,0.02-0.01,0.03-0.01c0.01-0.03,0.02-0.05,0.04-0.08
					C197.49,36.57,197.48,36.56,197.44,36.55z"/>
				<path class="st6" d="M19.56,0.61c-0.25,0.1-0.64,0.32-0.9,0.43c-0.08,0.95-0.7,1.4,0.19,1.78c1.09,0.47,1.4,0.13,2.18-0.75
					C21.7,1.32,20.38,1.17,19.56,0.61z"/>
				<path class="st2" d="M2.94,11.28c0.27-0.23,0.52-0.43,0.8-0.67c0.03-0.38,0.05-0.4-0.18-0.7c-0.4,0-0.73-0.04-1.12-0.06
					c0.15,0.49,0.22,1,0.37,1.49C2.82,11.38,2.9,11.31,2.94,11.28z"/>
				<path class="st6" d="M60.9,8.02c-0.02,0.12-0.02,0.24-0.04,0.35c0.02,0.01,0.03,0.03,0.06,0.04c0.02-0.19,0.01-0.19,0.01-0.38
					C60.92,8.02,60.91,8.01,60.9,8.02z"/>
				<path class="st6" d="M195.5,49.82c0.03,0.14,0.09,0.27,0.12,0.41c0.03,0,0.05,0.01,0.08,0.02c-0.06-0.22-0.08-0.21-0.17-0.42
					C195.52,49.8,195.5,49.8,195.5,49.82z"/>
				<path class="st5" d="M143.78,3.05c-0.01-0.02,0-0.04-0.03-0.04C143.72,3,143.69,3,143.69,3.03c0,0.04,0.02,0.04,0.06,0.07
					C143.77,3.08,143.78,3.06,143.78,3.05z"/>
				<path class="st6" d="M136.21,83.41c-0.08-0.01-0.15-0.02-0.23-0.03c-0.04,0.07-0.07,0.14-0.11,0.21c0.01,0.04,0,0.04,0.05,0.04
					c0.1,0,0.1,0.02,0.18-0.04c0.08-0.06,0.07-0.07,0.12-0.16C136.23,83.42,136.21,83.41,136.21,83.41z"/>
			</g>
		</g>
	</g>
</g>
<g class="st7">
	<path class="st8" d="M63.48,101.15l-2.18,0.25c-0.1,0.01-0.15-0.15-0.17-0.47c-0.02-0.32,0.05-0.87,0.22-1.64
		c0.17-0.78,0.4-1.35,0.72-1.72c0.31-0.37,3.12-0.72,8.42-1.07c1.36-0.09,2.05-0.07,2.05,0.05c0.04,0.57-0.06,1.35-0.3,2.34
		c-0.24,0.99-0.45,1.66-0.64,1.99c0.41,6.62,0.56,10.06,0.44,10.32c-0.12,0.25-0.53,0.56-1.25,0.92c-0.72,0.36-1.34,0.55-1.85,0.58
		c-0.51,0.03-0.77,0.01-0.78-0.06c-0.09-1.33-0.2-2.12-0.34-2.39l-0.08-0.07l-0.1,0.08c-1.31,1.54-3.1,2.39-5.37,2.54
		c-3.1,0.2-5.51-0.68-7.2-2.64c-1.7-1.96-2.66-4.58-2.87-7.86c-0.18-2.76,0.15-5.29,0.98-7.59c0.53-1.44,1.24-2.71,2.14-3.81
		c0.9-1.1,2.18-2.05,3.84-2.85c1.66-0.8,3.62-1.28,5.86-1.42c0.5-0.03,1.2-0.02,2.09,0.05c0.89,0.06,1.37,0.13,1.43,0.2
		c0.06,0.07,0.11,0.34,0.14,0.81c0.03,0.47,0.01,1.11-0.05,1.93c-0.07,0.82-0.17,1.31-0.3,1.47c-0.77-0.34-2.03-0.46-3.8-0.34
		c-2.53,0.17-4.49,1.17-5.88,3.02c-1.39,1.85-1.97,4.46-1.75,7.83c0.14,2.17,0.68,3.87,1.63,5.12s2.19,1.82,3.75,1.72
		c1.55-0.1,2.79-0.58,3.7-1.43c0.91-0.85,1.35-1.55,1.32-2.09l-0.08-1.18c-0.1-1.5-0.22-2.32-0.38-2.46
		C66.65,101.06,65.53,101.02,63.48,101.15z"/>
	<path class="st8" d="M87.32,108.44c-1.26,1.8-3.07,2.78-5.42,2.93s-4.25-0.48-5.68-1.89c-1.44-1.41-2.23-3.32-2.39-5.72
		c-0.16-2.4,0.53-4.58,2.07-6.55c1.54-1.97,3.72-3.04,6.53-3.23c1.15-0.03,1.77,0.01,1.88,0.1c0.1,0.09,0.17,0.32,0.19,0.69
		c0.02,0.37,0.02,0.78-0.03,1.23c0.36-0.02,0.83,0.16,1.42,0.56c0.59,0.4,1.08,0.8,1.46,1.22c0.39,0.42,0.74,1.02,1.05,1.8
		c0.31,0.78,0.51,1.67,0.57,2.65C89.13,104.57,88.58,106.64,87.32,108.44z M83.58,99.99c-0.57-0.33-1.12-0.48-1.65-0.45l-0.29,0.02
		c-0.05-0.09-0.09-0.3-0.11-0.62c-0.02-0.32-0.01-0.63,0.05-0.93c-0.98,0.06-1.86,0.58-2.65,1.55c-0.79,0.97-1.13,2.26-1.02,3.89
		c0.13,1.92,0.81,3.21,2.05,3.87c0.47,0.26,1.11,0.37,1.91,0.32c0.8-0.05,1.53-0.48,2.18-1.29c0.65-0.81,0.93-1.96,0.83-3.47
		S84.35,100.41,83.58,99.99z"/>
	<path class="st8" d="M91.03,104.54L90.3,91.17c-0.13-1.94-0.24-3.26-0.33-3.95c-0.09-0.69-0.14-1.05-0.14-1.1
		c-0.02-0.25,0.37-0.56,1.14-0.93c0.78-0.37,1.48-0.58,2.1-0.62c0.62-0.04,0.93-0.01,0.94,0.09c-0.06,0.92,0.09,4.12,0.45,9.61
		l0.52,9.05c0.11,1.7,0.2,2.74,0.28,3.13c0.19,1.08,0.6,2.04,1.23,2.88c0.02,0.25-0.45,0.67-1.39,1.28
		c-0.94,0.6-1.76,0.93-2.45,0.98c-0.19,0.01-0.43-0.34-0.72-1.07c-0.29-0.72-0.47-1.35-0.56-1.89
		C91.29,108.1,91.18,106.73,91.03,104.54z"/>
	<path class="st8" d="M98.87,87.16c0.66-0.04,1.2,0.14,1.64,0.56c0.44,0.42,0.68,0.98,0.72,1.7s-0.18,1.34-0.69,1.88
		c-0.5,0.54-1.08,0.83-1.74,0.87c-0.66,0.04-1.2-0.14-1.62-0.54c-0.42-0.4-0.66-0.96-0.7-1.68c-0.05-0.71,0.18-1.35,0.67-1.9
		C97.64,87.5,98.21,87.2,98.87,87.16z M101.28,96.23l0.32,5.99c0.12,1.92,0.27,3.33,0.44,4.22s0.53,1.71,1.08,2.47
		c0.02,0.25-0.45,0.67-1.39,1.28c-0.94,0.6-1.76,0.93-2.45,0.98c-0.21,0.01-0.45-0.34-0.72-1.07c-0.26-0.72-0.45-1.42-0.55-2.08
		c-0.1-0.66-0.28-2.9-0.53-6.71c-0.25-3.81-0.3-5.9-0.16-6.26c0.52-0.48,1.47-0.76,2.86-0.85c0.55-0.04,0.89,0.02,1.02,0.16
		L101.28,96.23z"/>
	<path class="st8" d="M116.91,99.84c0.2,3.08,0.35,4.87,0.46,5.38c0.28,1.34,0.75,2.29,1.41,2.84c0.02,0.27-0.43,0.71-1.34,1.31
		c-0.91,0.6-1.74,0.93-2.51,0.98c-0.21,0.01-0.46-0.3-0.74-0.93c-0.28-0.64-0.45-1.11-0.51-1.43c-0.06-0.32-0.1-0.48-0.12-0.47
		l-0.1,0.08c-1.2,1.12-2.64,1.73-4.34,1.84c-1.7,0.11-3.03-0.23-4-1.02c-0.97-0.79-1.51-1.87-1.6-3.25
		c-0.09-1.38,0.13-2.56,0.65-3.55c0.52-0.99,1.16-1.75,1.92-2.29s1.6-1,2.54-1.35c1.42-0.59,2.55-0.91,3.39-0.96l0.07-0.04
		c-0.08-1.21-1.6-1.71-4.56-1.52c-1.17,0.08-2.04,0.18-2.6,0.32l-0.04,0c-0.03-0.49,0.08-1.12,0.33-1.87
		c0.25-0.76,0.47-1.26,0.66-1.49c0.19-0.23,1.04-0.4,2.54-0.5c2.72-0.18,4.76,0.23,6.12,1.21c1.36,0.99,2.11,2.6,2.26,4.84
		L116.91,99.84z M113.09,102.47l-0.09-1.4c-0.04-0.54-0.07-0.81-0.09-0.81c-1.6,0.1-2.96,0.63-4.07,1.56
		c-0.71,0.59-1.03,1.29-0.98,2.1c0.03,0.52,0.24,0.94,0.62,1.26c0.38,0.32,0.94,0.46,1.66,0.41s1.42-0.31,2.07-0.8
		C112.87,104.3,113.16,103.52,113.09,102.47z"/>
	<path class="st8" d="M122.75,83.44c-0.01,0.57,0.03,2.12,0.13,4.66c1.79-0.12,2.69-0.14,2.69-0.07c0.05,0.84-0.02,1.59-0.21,2.26
		c-0.2,0.67-0.4,1.01-0.62,1.02l-1.68,0.11c0.19,3.65,0.36,6.61,0.51,8.88c0.15,2.28,0.28,3.8,0.41,4.55
		c0.23,1.27,0.78,2.29,1.67,3.04c0.02,0.27-0.42,0.7-1.3,1.27c-0.89,0.58-1.73,0.89-2.55,0.95c-0.07,0-0.22-0.11-0.44-0.34
		c-0.22-0.23-0.46-0.62-0.73-1.18c-0.26-0.55-0.44-1.09-0.54-1.63c-0.1-0.54-0.25-2.47-0.47-5.79c-0.22-3.32-0.39-6.46-0.51-9.42
		l-2,0.17c-0.13-0.12-0.22-0.65-0.28-1.59c-0.06-0.95,0.01-1.53,0.21-1.74c0.52-0.06,1.15-0.12,1.89-0.2
		c-0.09-1.43-0.19-2.35-0.29-2.76c-0.1-0.41-0.15-0.66-0.16-0.73c-0.02-0.25,0.38-0.56,1.18-0.93c0.8-0.37,1.51-0.58,2.14-0.62
		C122.43,83.31,122.74,83.34,122.75,83.44z"/>
	<path class="st8" d="M126.58,100.28l-0.95-12.8c-0.16-2.39-0.18-3.65-0.07-3.78c0.27-0.31,0.71-0.63,1.34-0.94
		c0.63-0.31,1.24-0.49,1.84-0.53s0.9-0.01,0.9,0.09c-0.01,0.22,0.05,1.84,0.17,4.85s0.22,4.98,0.28,5.91l0.02,0.33
		c0.01,0.12,0.05,0.18,0.12,0.18l0.67-0.79c0.25-0.26,0.75-0.64,1.53-1.12c0.77-0.48,1.51-0.75,2.21-0.79
		c0.7-0.05,1.3,0.04,1.78,0.25c0.48,0.22,0.89,0.49,1.22,0.81c0.33,0.32,0.63,0.81,0.89,1.44c0.26,0.64,0.46,1.23,0.6,1.78
		c0.14,0.55,0.28,1.3,0.42,2.25c0.16,1.3,0.3,2.95,0.43,4.94l0.18,4.92c-0.06,0.2-0.45,0.4-1.18,0.6c-0.73,0.2-1.34,0.31-1.81,0.34
		l-1.19-0.11c0.09-2.23,0.07-4.37-0.06-6.41c-0.13-2.04-0.38-3.58-0.73-4.62c-0.36-1.04-0.98-1.53-1.86-1.47
		c-0.57,0.04-1.09,0.31-1.57,0.81s-0.79,0.99-0.95,1.47l-0.28,0.72c0.16,1.7,0.3,3.51,0.43,5.46s0.13,2.97,0.02,3.08
		c-0.67,0.71-1.96,1.13-3.88,1.25c-0.19,0.01-0.29-0.02-0.29-0.09C126.94,107.22,126.86,104.54,126.58,100.28z"/>
</g>
<g>
	
		<rect x="84.04" y="26.02" transform="matrix(0.9979 -0.0653 0.0653 0.9979 -1.7599 6.3876)" class="st9" width="25.59" height="8.19"/>
	<g class="st7">
		<path class="st0" d="M91.56,33.25c-0.03-0.01-0.06-0.03-0.09-0.05c-0.03-0.02-0.06-0.04-0.07-0.06c-0.07-0.07-0.12-0.18-0.16-0.33
			c-0.04-0.15-0.08-0.42-0.12-0.8c-0.01-0.14-0.03-0.27-0.04-0.39c-0.01-0.12-0.02-0.22-0.02-0.3c-0.01-0.16-0.02-0.36-0.04-0.61
			c-0.02-0.37-0.05-0.91-0.08-1.62c-0.01-0.23-0.02-0.39-0.03-0.51c-0.01-0.12-0.02-0.2-0.02-0.25c-0.01-0.05-0.02-0.08-0.03-0.1
			c-0.01-0.03-0.03-0.05-0.04-0.06c-0.01-0.01-0.03-0.01-0.05-0.01c-0.03,0-0.06,0.02-0.08,0.04c-0.02,0.02-0.05,0.08-0.09,0.15
			c-0.03,0.08-0.08,0.18-0.14,0.33c-0.27,0.67-0.49,1.58-0.66,2.72c-0.01,0.08-0.03,0.15-0.04,0.23c-0.02,0.07-0.03,0.13-0.04,0.16
			c-0.05,0.14-0.13,0.24-0.22,0.3c-0.09,0.06-0.18,0.09-0.27,0.1c-0.04,0-0.08,0-0.12-0.01c-0.04-0.01-0.08-0.02-0.11-0.04
			c-0.03-0.02-0.07-0.04-0.11-0.08c-0.04-0.04-0.08-0.08-0.11-0.13c-0.03-0.04-0.05-0.11-0.08-0.19c-0.02-0.08-0.05-0.21-0.08-0.37
			c-0.12-0.6-0.22-1.08-0.29-1.45c-0.08-0.37-0.14-0.65-0.18-0.85c-0.04-0.2-0.08-0.33-0.1-0.41c-0.02-0.08-0.05-0.13-0.07-0.15
			c-0.03-0.04-0.07-0.06-0.09-0.06c-0.05,0-0.1,0.07-0.15,0.21c-0.07,0.22-0.12,0.57-0.15,1.07c-0.01,0.1-0.01,0.2-0.01,0.31
			c0,0.11-0.01,0.21-0.01,0.28c0,0.12,0,0.29,0.01,0.48c0.01,0.2,0.02,0.36,0.03,0.49l0.03,0.4c0.02,0.27,0.04,0.46,0.06,0.58
			c0.02,0.12,0.03,0.22,0.05,0.29c0.02,0.07,0.04,0.17,0.08,0.3c0.02,0.05,0.02,0.1,0.03,0.15c0.01,0.11-0.02,0.21-0.08,0.29
			c-0.08,0.1-0.18,0.16-0.3,0.17c-0.08,0.01-0.17-0.01-0.25-0.06c-0.09-0.04-0.16-0.12-0.22-0.23c-0.06-0.1-0.12-0.27-0.17-0.48
			c-0.07-0.27-0.11-0.5-0.14-0.7c-0.03-0.2-0.06-0.48-0.08-0.83c-0.05-0.78-0.04-1.49,0.04-2.11c0.07-0.53,0.19-0.96,0.36-1.31
			c0.17-0.35,0.38-0.57,0.62-0.67c0.07-0.03,0.13-0.05,0.16-0.05c0.03,0,0.05,0,0.06,0c0.05,0,0.12,0,0.19,0.02
			c0.07,0.01,0.13,0.04,0.19,0.07c0.06,0.03,0.12,0.07,0.19,0.13c0.13,0.11,0.25,0.26,0.34,0.44c0.09,0.19,0.19,0.45,0.27,0.79
			c0.03,0.1,0.05,0.18,0.07,0.23s0.03,0.1,0.05,0.13c0.01,0.03,0.02,0.05,0.03,0.06c0.01,0.01,0.03,0.02,0.04,0.02
			c0.01,0,0.01,0,0.02,0c0.03,0,0.05-0.02,0.08-0.07c0.03-0.06,0.08-0.17,0.14-0.33c0.29-0.79,0.59-1.32,0.89-1.6
			c0.16-0.14,0.33-0.21,0.5-0.22c0.09-0.01,0.19,0.01,0.28,0.04c0.26,0.09,0.46,0.31,0.6,0.66c0.08,0.19,0.13,0.41,0.16,0.68
			c0.03,0.27,0.05,0.49,0.06,0.68c0.02,0.37,0.04,0.84,0.06,1.4c0.01,0.32,0.03,0.63,0.05,0.91c0.04,0.54,0.08,1.01,0.14,1.41
			c0.01,0.09,0.02,0.16,0.03,0.22c0,0.04,0,0.07,0,0.1c-0.01,0.08-0.03,0.15-0.06,0.22c-0.06,0.11-0.12,0.18-0.2,0.21
			c-0.08,0.03-0.14,0.05-0.18,0.05C91.69,33.29,91.62,33.28,91.56,33.25z"/>
		<path class="st0" d="M93.1,28.29c-0.21-0.07-0.33-0.18-0.36-0.31c-0.03-0.13-0.04-0.21-0.05-0.25c-0.01-0.18,0.04-0.34,0.15-0.49
			c0.1-0.11,0.22-0.17,0.34-0.18c0.04,0,0.07,0,0.11,0.01c0.17,0.02,0.3,0.1,0.39,0.21c0.08,0.12,0.13,0.23,0.14,0.33
			c0,0.08,0,0.16-0.03,0.25c-0.05,0.15-0.13,0.27-0.24,0.34c-0.1,0.07-0.2,0.11-0.3,0.12C93.21,28.31,93.16,28.31,93.1,28.29z
			 M93.55,33c-0.06-0.02-0.11-0.06-0.17-0.12c-0.05-0.06-0.09-0.12-0.12-0.18c-0.08-0.24-0.15-0.86-0.21-1.85l-0.01-0.14
			c-0.01-0.22-0.02-0.4-0.03-0.53s-0.01-0.22-0.01-0.28c0-0.06,0-0.11,0.01-0.14c0-0.03,0.01-0.06,0.02-0.08
			c0.02-0.07,0.05-0.12,0.09-0.16c0.03-0.04,0.08-0.08,0.13-0.11c0.07-0.04,0.14-0.06,0.21-0.07c0.03,0,0.05,0,0.08,0
			c0.1,0.01,0.18,0.06,0.25,0.13c0.04,0.05,0.07,0.1,0.09,0.17c0.02,0.06,0.03,0.17,0.04,0.33c0.01,0.08,0.02,0.18,0.03,0.3
			c0.01,0.11,0.02,0.21,0.03,0.3c0.01,0.09,0.03,0.24,0.05,0.44c0.02,0.21,0.05,0.42,0.08,0.65c0.04,0.32,0.07,0.55,0.08,0.71
			c0.01,0.15,0.01,0.26-0.01,0.33c-0.02,0.07-0.06,0.13-0.11,0.18c-0.06,0.07-0.13,0.11-0.19,0.13c-0.06,0.02-0.11,0.02-0.13,0.03
			C93.68,33.04,93.62,33.03,93.55,33z"/>
		<path class="st0" d="M95.74,33.29c-0.11-0.04-0.2-0.12-0.27-0.24c-0.07-0.12-0.15-0.33-0.24-0.62c-0.14-0.45-0.26-0.98-0.36-1.62
			c-0.05-0.31-0.08-0.55-0.09-0.71l0-0.04c-0.01-0.16,0.01-0.27,0.04-0.34c0.07-0.14,0.17-0.22,0.32-0.24l0.05-0.01
			c0.2-0.01,0.36,0.1,0.49,0.34c0.02,0.04,0.04,0.07,0.07,0.1c0.02,0.03,0.03,0.04,0.04,0.04c0.05,0,0.13-0.13,0.21-0.38
			c0.19-0.5,0.41-0.87,0.63-1.1c0.27-0.26,0.54-0.4,0.79-0.42c0.21-0.01,0.42,0.06,0.62,0.23c0.22,0.18,0.39,0.57,0.5,1.15
			c0.02,0.11,0.05,0.2,0.06,0.26c0.02,0.06,0.03,0.11,0.04,0.13c0.01,0.03,0.03,0.04,0.05,0.05c0.02,0.01,0.05,0.01,0.07,0.01
			c0.01,0,0.03,0,0.04-0.01c0.04-0.02,0.1-0.05,0.18-0.11c0.19-0.15,0.38-0.22,0.55-0.24c0.04,0,0.09,0,0.13,0.01
			c0.42,0.04,0.73,0.38,0.93,1.01c0.04,0.13,0.08,0.3,0.13,0.51c0.05,0.21,0.09,0.42,0.14,0.63c0.04,0.2,0.06,0.34,0.07,0.42
			c0.02,0.27-0.09,0.45-0.33,0.54c-0.03,0.01-0.07,0.02-0.1,0.02c-0.11,0.01-0.21-0.03-0.3-0.1c-0.05-0.04-0.1-0.09-0.13-0.14
			s-0.07-0.13-0.1-0.24c-0.03-0.1-0.06-0.25-0.1-0.44c-0.1-0.49-0.17-0.78-0.22-0.86c-0.04-0.08-0.09-0.12-0.15-0.12
			c-0.05,0-0.1,0.04-0.15,0.12c-0.12,0.16-0.22,0.44-0.32,0.85c-0.04,0.16-0.07,0.27-0.09,0.35c-0.02,0.08-0.04,0.13-0.05,0.17
			s-0.03,0.07-0.05,0.1c-0.09,0.14-0.17,0.22-0.25,0.23c-0.08,0.01-0.12,0.01-0.13,0.01c-0.15,0.01-0.27-0.04-0.38-0.15
			c-0.03-0.04-0.06-0.09-0.09-0.15c-0.02-0.06-0.04-0.15-0.06-0.27c-0.02-0.12-0.04-0.28-0.07-0.49c-0.12-1.02-0.23-1.7-0.31-2.05
			c-0.03-0.14-0.09-0.21-0.17-0.21l-0.02,0c-0.02,0-0.04,0.01-0.06,0.02c-0.02,0.01-0.04,0.04-0.08,0.08
			c-0.21,0.29-0.4,0.81-0.55,1.58c-0.03,0.15-0.06,0.35-0.09,0.61c-0.03,0.25-0.05,0.49-0.07,0.72c-0.03,0.36-0.06,0.59-0.1,0.68
			c-0.06,0.13-0.14,0.22-0.22,0.26c-0.09,0.04-0.16,0.07-0.22,0.07S95.8,33.31,95.74,33.29z"/>
		<path class="st0" d="M102.96,32.95c-0.43-0.08-0.77-0.3-1.03-0.66c-0.25-0.36-0.4-0.7-0.46-1.03c-0.06-0.33-0.09-0.57-0.1-0.74
			c-0.02-0.32-0.01-0.63,0.03-0.94c0.07-0.47,0.2-0.86,0.41-1.18c0.23-0.32,0.43-0.5,0.61-0.54c0.18-0.04,0.3-0.06,0.37-0.07
			c0.21-0.01,0.42,0.03,0.62,0.13c0.26,0.13,0.45,0.31,0.57,0.54c0.12,0.22,0.18,0.44,0.19,0.63c0.01,0.14,0,0.28-0.02,0.43
			c-0.16,0.8-0.58,1.34-1.26,1.63c-0.06,0.02-0.11,0.04-0.15,0.07c-0.05,0.02-0.08,0.04-0.09,0.05c-0.03,0.04-0.05,0.08-0.04,0.13
			c0.01,0.09,0.07,0.21,0.2,0.34c0.12,0.12,0.24,0.18,0.38,0.17l0.03,0c0.03,0,0.07-0.01,0.1-0.03c0.04-0.02,0.1-0.05,0.17-0.1
			c0.05-0.03,0.1-0.06,0.16-0.09c0.05-0.03,0.09-0.05,0.12-0.06c0.04-0.01,0.08-0.02,0.12-0.02c0.14-0.01,0.26,0.04,0.37,0.16
			c0.07,0.08,0.12,0.18,0.12,0.29c0,0.07-0.01,0.15-0.03,0.23c-0.04,0.11-0.13,0.21-0.25,0.32c-0.12,0.1-0.26,0.19-0.41,0.25
			c-0.1,0.04-0.2,0.07-0.28,0.08c-0.08,0.01-0.13,0.02-0.16,0.02C103.14,32.97,103.04,32.96,102.96,32.95z M102.65,30.17
			c0.1-0.06,0.2-0.15,0.29-0.28c0.09-0.12,0.16-0.25,0.2-0.39c0.02-0.08,0.04-0.14,0.04-0.2c0-0.06,0-0.11,0-0.13
			c0-0.05-0.01-0.09-0.03-0.13c-0.04-0.09-0.08-0.14-0.14-0.16c-0.06-0.02-0.1-0.03-0.14-0.03c-0.04,0-0.08,0.02-0.13,0.04
			c-0.16,0.1-0.27,0.38-0.35,0.82c-0.02,0.14-0.03,0.24-0.03,0.33c0.01,0.13,0.05,0.19,0.14,0.19
			C102.55,30.22,102.6,30.2,102.65,30.17z"/>
		<path class="st0" d="M106.17,32.8c-0.09-0.04-0.16-0.1-0.21-0.19c-0.05-0.08-0.08-0.16-0.08-0.24c0-0.02,0-0.04,0-0.05
			c0.01-0.09,0.04-0.18,0.09-0.25c0.05-0.07,0.15-0.17,0.29-0.28c0.16-0.13,0.27-0.23,0.33-0.3c0.06-0.07,0.08-0.13,0.08-0.19
			c0-0.05-0.02-0.09-0.05-0.12c-0.03-0.04-0.1-0.07-0.2-0.11c-0.1-0.04-0.24-0.09-0.44-0.15c-0.24-0.08-0.41-0.14-0.52-0.19
			c-0.11-0.05-0.21-0.1-0.29-0.15c-0.3-0.22-0.47-0.5-0.49-0.86c0-0.05,0-0.11,0-0.16c0.02-0.44,0.22-0.87,0.6-1.3
			c0.3-0.32,0.59-0.55,0.88-0.69c0.1-0.04,0.19-0.06,0.27-0.07c0.19-0.01,0.35,0.07,0.46,0.24c0.03,0.06,0.05,0.12,0.05,0.18
			c0,0.04,0,0.07-0.01,0.1c-0.01,0.1-0.06,0.19-0.13,0.25c-0.02,0.02-0.05,0.04-0.09,0.06c-0.04,0.02-0.08,0.05-0.13,0.07
			c-0.19,0.08-0.38,0.25-0.58,0.51c-0.1,0.13-0.19,0.25-0.24,0.37c-0.06,0.12-0.09,0.21-0.08,0.28c0,0.06,0.02,0.11,0.05,0.15
			c0.03,0.04,0.09,0.08,0.18,0.12c0.09,0.04,0.22,0.09,0.4,0.14c0.2,0.06,0.37,0.12,0.49,0.17c0.12,0.05,0.23,0.11,0.33,0.16
			c0.37,0.24,0.57,0.54,0.6,0.91c0,0.05,0,0.1,0,0.15c-0.03,0.32-0.2,0.64-0.51,0.94c-0.1,0.09-0.21,0.19-0.34,0.29
			c-0.12,0.1-0.22,0.16-0.29,0.2c-0.07,0.03-0.14,0.05-0.22,0.06C106.3,32.83,106.24,32.83,106.17,32.8z"/>
	</g>
	<g class="st7">
		<path class="st10" d="M79.98,26.48c-0.29-0.08-0.49-0.27-0.6-0.56c-0.04-0.08-0.07-0.2-0.1-0.36c-0.03-0.15-0.08-0.41-0.13-0.77
			c-0.04-0.32-0.11-0.52-0.19-0.59c-0.08-0.07-0.2-0.11-0.34-0.1c-0.07,0-0.15,0.01-0.24,0.03c-0.24,0.03-0.42,0.06-0.55,0.09
			c-0.13,0.02-0.23,0.05-0.29,0.07c-0.06,0.02-0.11,0.04-0.14,0.07c-0.06,0.04-0.11,0.09-0.14,0.14c-0.03,0.05-0.04,0.11-0.04,0.17
			c0,0.07,0,0.12,0,0.17c0,0.09,0.01,0.19,0.02,0.33l0.04,0.54l-0.1,0.2c-0.16,0.31-0.32,0.46-0.47,0.47
			c-0.15,0-0.23,0.01-0.23,0.01c-0.29,0.01-0.53-0.13-0.72-0.42c-0.05-0.08-0.09-0.18-0.12-0.31c-0.03-0.13-0.07-0.31-0.1-0.55
			c-0.03-0.24-0.07-0.58-0.12-1.02c-0.19-1.72-0.3-2.91-0.34-3.55c-0.04-0.64-0.07-1.12-0.08-1.43c-0.02-0.7-0.03-1.42-0.01-2.17
			c0-0.2,0.01-0.34,0.01-0.44c0-0.1,0.01-0.17,0.03-0.23s0.04-0.12,0.07-0.19c0.04-0.09,0.08-0.16,0.12-0.21
			c0.04-0.05,0.08-0.1,0.14-0.13c0.14-0.09,0.28-0.14,0.41-0.14c0.1,0,0.2,0.02,0.3,0.06c0.22,0.1,0.36,0.3,0.42,0.59
			c0.01,0.06,0.02,0.26,0.05,0.6c0.02,0.35,0.05,0.76,0.08,1.23c0.1,1.6,0.18,2.72,0.24,3.35s0.1,0.97,0.14,1.03
			c0.03,0.05,0.08,0.1,0.14,0.13c0.06,0.03,0.13,0.05,0.21,0.05c0.07,0,0.2-0.02,0.38-0.07c0.18-0.04,0.36-0.08,0.53-0.13
			c0.17-0.05,0.29-0.08,0.35-0.11c0.03-0.02,0.07-0.05,0.1-0.08c0.03-0.03,0.06-0.07,0.07-0.1c0.02-0.03,0.03-0.07,0.04-0.12
			c0.01-0.05,0.01-0.14,0.01-0.26c0-0.12-0.01-0.3-0.02-0.54c-0.01-0.24-0.03-0.56-0.05-0.96c-0.02-0.32-0.03-0.62-0.04-0.92
			c-0.01-0.29-0.02-0.56-0.02-0.82c0-0.52,0.01-1.19,0.03-1.99c0.01-0.38,0.03-0.66,0.06-0.82c0.03-0.16,0.08-0.29,0.15-0.38
			c0.09-0.13,0.19-0.21,0.3-0.24s0.19-0.04,0.25-0.05c0.09,0,0.19,0.01,0.28,0.05c0.27,0.12,0.43,0.38,0.47,0.79
			c0.01,0.09,0.03,0.42,0.06,0.99c0.03,0.57,0.07,1.26,0.1,2.06c0.07,1.66,0.13,2.87,0.19,3.63c0.06,0.77,0.15,1.51,0.26,2.22
			c0.06,0.35,0.09,0.61,0.09,0.8c0,0.07,0,0.12,0,0.17c-0.02,0.19-0.08,0.34-0.2,0.47c-0.1,0.11-0.21,0.18-0.32,0.22
			c-0.11,0.04-0.21,0.06-0.28,0.06C80.09,26.5,80.03,26.5,79.98,26.48z"/>
	</g>
	<g class="st7">
		<path class="st10" d="M85.13,26.42c-0.61-0.15-1.15-0.51-1.63-1.08c-0.48-0.58-0.85-1.3-1.1-2.18c-0.19-0.74-0.29-1.5-0.32-2.28
			c-0.03-0.99,0.07-2,0.3-3.04c0.13-0.55,0.31-1.05,0.52-1.5c0.15-0.33,0.3-0.58,0.46-0.73c0.15-0.16,0.34-0.26,0.57-0.32
			c0.17-0.04,0.39-0.06,0.64-0.07c0.09,0,0.18,0,0.27,0c0.38,0,0.73,0.03,1.05,0.09c1.77,0.37,2.79,1.9,3.07,4.59
			c0.02,0.17,0.03,0.34,0.03,0.51c0.03,0.81-0.05,1.61-0.24,2.38c-0.22,0.95-0.58,1.76-1.06,2.43c-0.37,0.51-0.8,0.87-1.29,1.07
			c-0.12,0.05-0.22,0.08-0.31,0.1c-0.09,0.02-0.21,0.03-0.37,0.04l-0.17,0.01C85.38,26.45,85.24,26.44,85.13,26.42z M85.96,24.56
			c0.29-0.19,0.56-0.57,0.83-1.16c0.33-0.76,0.5-1.41,0.51-1.94c0.01-0.53,0.02-0.86,0.01-1c-0.02-0.75-0.16-1.46-0.41-2.12
			c-0.19-0.51-0.44-0.87-0.75-1.08c-0.32-0.21-0.73-0.31-1.24-0.29l-0.04,0c-0.2,0.01-0.34,0.03-0.43,0.07
			c-0.08,0.04-0.15,0.11-0.19,0.22c-0.09,0.22-0.18,0.57-0.27,1.07c-0.09,0.5-0.15,1-0.19,1.51c-0.02,0.37-0.03,0.72-0.02,1.05
			c0.04,1.16,0.27,2.12,0.71,2.88c0.37,0.61,0.74,0.91,1.11,0.9C85.72,24.67,85.84,24.64,85.96,24.56z"/>
	</g>
	<g class="st7">
		<path class="st10" d="M91.38,25.94c-0.61-0.09-1.05-0.37-1.31-0.86c-0.12-0.2-0.19-0.45-0.2-0.75c-0.01-0.19,0.01-0.4,0.05-0.63
			c0.11-0.58,0.4-1.49,0.89-2.73c0.08-0.22,0.21-0.54,0.39-0.95c0.17-0.41,0.35-0.82,0.52-1.23c0.42-0.96,0.63-1.47,0.62-1.53
			c-0.01-0.15-0.11-0.22-0.3-0.21c-0.04,0-0.13,0.01-0.27,0.04c-0.14,0.02-0.3,0.05-0.47,0.07c-0.41,0.08-0.68,0.12-0.81,0.14
			c-0.13,0.01-0.23,0.02-0.3,0.02c-0.1,0-0.17,0-0.23-0.02c-0.23-0.06-0.4-0.16-0.49-0.31c-0.1-0.15-0.15-0.29-0.15-0.44
			c0-0.07,0-0.14,0.02-0.21c0.03-0.14,0.1-0.27,0.21-0.38c0.11-0.12,0.24-0.21,0.4-0.27c0.3-0.13,1.15-0.26,2.54-0.4
			c0.38-0.04,0.63-0.07,0.76-0.07c0.13-0.01,0.22-0.01,0.27-0.01c0.11,0,0.2,0,0.26,0c0.09,0.01,0.17,0.03,0.24,0.07
			c0.31,0.15,0.48,0.42,0.5,0.81l0,0.02c0.01,0.17-0.07,0.48-0.24,0.94c-0.18,0.48-0.52,1.29-1.02,2.46
			c-0.84,1.96-1.36,3.33-1.57,4.09c-0.02,0.08-0.03,0.14-0.03,0.18c-0.01,0.04-0.01,0.07-0.01,0.09l0,0.03
			c0.01,0.02,0.02,0.05,0.03,0.08c0.05,0.12,0.15,0.18,0.3,0.17c0.05,0,0.11-0.01,0.18-0.03c0.37-0.08,1.03-0.34,1.96-0.78
			c0.23-0.11,0.44-0.21,0.63-0.29c0.19-0.08,0.32-0.13,0.37-0.15c0.07-0.02,0.15-0.03,0.22-0.03c0.2-0.01,0.37,0.05,0.52,0.16
			c0.2,0.15,0.31,0.36,0.33,0.64c0.01,0.24-0.08,0.45-0.25,0.62c-0.05,0.06-0.11,0.11-0.18,0.15c-0.07,0.05-0.18,0.1-0.32,0.18
			c-0.15,0.07-0.38,0.18-0.69,0.33c-1.36,0.65-2.38,0.98-3.05,1C91.58,25.96,91.48,25.95,91.38,25.94z"/>
	</g>
	<g class="st7">
		<path class="st10" d="M97.51,25.56c-0.08-0.04-0.16-0.11-0.24-0.19c-0.08-0.08-0.14-0.17-0.18-0.26C97.03,25,97,24.8,96.99,24.51
			c-0.01-0.38,0.01-0.92,0.08-1.62c0.07-0.64,0.19-1.39,0.36-2.25c0.17-0.86,0.37-1.69,0.59-2.49c0.53-1.91,1.12-3.03,1.77-3.37
			c0.08-0.05,0.15-0.08,0.21-0.09c0.06-0.01,0.16-0.02,0.29-0.03c0.18-0.01,0.32,0.01,0.44,0.05c0.11,0.04,0.23,0.12,0.36,0.23
			c0.17,0.14,0.3,0.32,0.41,0.54c0.11,0.22,0.21,0.55,0.3,0.98c0.09,0.44,0.2,1.05,0.32,1.84c0.42,2.75,0.82,4.63,1.2,5.64
			c0.06,0.16,0.1,0.28,0.12,0.35c0.02,0.07,0.03,0.13,0.03,0.17c0,0.03,0,0.05,0,0.07c-0.06,0.47-0.31,0.72-0.75,0.75
			c-0.23,0.01-0.44-0.07-0.62-0.23c-0.09-0.08-0.17-0.17-0.24-0.28c-0.07-0.11-0.14-0.25-0.21-0.44c-0.07-0.18-0.14-0.31-0.21-0.38
			c-0.07-0.08-0.15-0.12-0.26-0.12c-0.02,0-0.07-0.01-0.12,0c-0.09,0-0.22,0.01-0.39,0.03c-0.27,0.02-0.56,0.05-0.87,0.09
			c-0.31,0.03-0.54,0.06-0.7,0.09c-0.22,0.03-0.37,0.1-0.45,0.19c-0.08,0.09-0.12,0.27-0.13,0.52c-0.01,0.19-0.04,0.34-0.08,0.45
			c-0.05,0.11-0.12,0.21-0.21,0.29c-0.05,0.05-0.1,0.08-0.15,0.1c-0.05,0.02-0.12,0.03-0.21,0.04l-0.08,0c-0.05,0-0.1,0-0.13,0
			C97.6,25.6,97.55,25.58,97.51,25.56z M99.94,22.22c0.2-0.04,0.38-0.07,0.54-0.1c0.16-0.03,0.25-0.05,0.29-0.07
			c0.08-0.04,0.13-0.1,0.16-0.19c0.01-0.03,0.02-0.06,0.03-0.08s0.01-0.05,0-0.07c0-0.03,0-0.05-0.01-0.08
			c-0.01-0.07-0.02-0.16-0.04-0.28c-0.02-0.12-0.05-0.28-0.09-0.49c-0.05-0.25-0.1-0.56-0.16-0.93s-0.12-0.72-0.17-1.04
			c-0.12-0.72-0.19-1.13-0.23-1.23c-0.04-0.06-0.08-0.1-0.13-0.09h-0.01c-0.06,0.01-0.11,0.05-0.16,0.13
			c-0.08,0.15-0.21,0.56-0.38,1.21c-0.17,0.65-0.34,1.36-0.5,2.12c-0.1,0.48-0.15,0.82-0.14,1c0,0.07,0.01,0.11,0.03,0.14
			c0.01,0.01,0.03,0.03,0.06,0.05c0.03,0.02,0.06,0.04,0.1,0.06c0.04,0.02,0.07,0.03,0.1,0.04l0.21-0.04
			C99.57,22.28,99.74,22.25,99.94,22.22z"/>
	</g>
	<g class="st7">
		<path class="st10" d="M105.48,25.7c-0.24-0.09-0.41-0.25-0.51-0.48c-0.04-0.08-0.08-0.21-0.11-0.38
			c-0.03-0.17-0.07-0.45-0.11-0.83s-0.09-0.92-0.16-1.61c-0.04-0.41-0.08-0.82-0.11-1.23s-0.07-0.72-0.09-0.93
			c-0.03-0.31-0.05-0.67-0.07-1.09c-0.02-0.41-0.03-0.72-0.04-0.92c-0.01-0.4-0.02-0.79-0.03-1.18c-0.01-0.58-0.02-0.96-0.01-1.14
			c0.01-0.09,0.02-0.18,0.04-0.27c0.02-0.09,0.03-0.16,0.05-0.2c0.1-0.23,0.24-0.39,0.43-0.48c0.19-0.09,0.35-0.14,0.49-0.15
			c0.09,0,0.18,0.01,0.27,0.04c0.17,0.05,0.35,0.24,0.54,0.59c0.19,0.35,0.46,0.98,0.82,1.9c0.64,1.62,1.09,2.74,1.36,3.34
			c0.07,0.16,0.15,0.32,0.21,0.47c0.07,0.15,0.12,0.26,0.14,0.33c0.03,0.07,0.07,0.13,0.11,0.2c0.04,0.07,0.08,0.12,0.11,0.16
			c0.05,0.05,0.08,0.08,0.09,0.09c0.02,0.01,0.03,0.01,0.04,0.01c0.01,0,0.03-0.01,0.04-0.02c0.03-0.02,0.05-0.05,0.07-0.1
			c0.02-0.05,0.03-0.12,0.04-0.23c0.01-0.11,0.01-0.27,0.02-0.47c0-0.2,0-0.48,0-0.81c0-0.38,0-0.77,0-1.17s0.01-0.72,0.02-0.95
			c0.01-0.49,0.03-1.02,0.05-1.58c0.02-0.56,0.03-1.02,0.05-1.38c0.01-0.28,0.03-0.49,0.06-0.63c0.04-0.14,0.1-0.26,0.19-0.35
			c0.16-0.17,0.35-0.25,0.56-0.26l0.04,0c0.23,0.01,0.42,0.1,0.58,0.28c0.08,0.09,0.14,0.2,0.18,0.33s0.06,0.32,0.07,0.57l0,0.11
			c0,0.3-0.01,0.72-0.02,1.26c-0.06,1.55-0.08,2.95-0.07,4.19c0.01,1.24-0.01,2.13-0.07,2.67c-0.05,0.55-0.16,0.94-0.32,1.19
			c-0.23,0.41-0.55,0.62-0.95,0.64l-0.03,0c-0.27,0.01-0.52-0.07-0.75-0.25c-0.22-0.17-0.48-0.51-0.76-1.01
			c-0.28-0.5-0.63-1.21-1.05-2.15c-0.12-0.27-0.22-0.48-0.29-0.63c-0.07-0.15-0.13-0.25-0.17-0.32c-0.04-0.06-0.08-0.1-0.11-0.11
			c-0.01,0-0.02-0.01-0.03-0.01c-0.06,0-0.1,0.07-0.13,0.19l0,0.07c0,0.11,0.01,0.3,0.03,0.58c0.03,0.38,0.07,0.81,0.12,1.29
			c0.05,0.48,0.09,0.91,0.14,1.29c0.03,0.25,0.04,0.45,0.05,0.6c0,0.08,0,0.14,0,0.2c-0.01,0.16-0.06,0.3-0.15,0.41
			c-0.11,0.14-0.22,0.24-0.35,0.29c-0.12,0.05-0.22,0.07-0.3,0.07C105.63,25.73,105.56,25.72,105.48,25.7z"/>
	</g>
	<g class="st7">
		<path class="st10" d="M112.54,25.06c-0.08-0.04-0.16-0.11-0.24-0.19c-0.08-0.08-0.14-0.17-0.18-0.26
			c-0.05-0.11-0.08-0.31-0.09-0.6c-0.01-0.38,0.01-0.92,0.08-1.62c0.07-0.64,0.19-1.39,0.36-2.25c0.17-0.85,0.37-1.69,0.59-2.49
			c0.53-1.91,1.12-3.03,1.77-3.37c0.08-0.05,0.15-0.08,0.21-0.09c0.06-0.01,0.16-0.02,0.29-0.02c0.18-0.01,0.32,0.01,0.44,0.05
			c0.11,0.04,0.23,0.12,0.36,0.23c0.17,0.14,0.3,0.32,0.41,0.54c0.11,0.22,0.21,0.55,0.3,0.98c0.09,0.44,0.2,1.05,0.32,1.84
			c0.42,2.75,0.82,4.63,1.2,5.64c0.06,0.16,0.11,0.28,0.12,0.35c0.02,0.07,0.03,0.13,0.03,0.17c0,0.03,0,0.05,0,0.07
			c-0.06,0.47-0.31,0.72-0.75,0.75c-0.24,0.01-0.44-0.07-0.62-0.23c-0.09-0.08-0.17-0.17-0.24-0.28c-0.07-0.11-0.14-0.25-0.21-0.44
			c-0.07-0.18-0.14-0.31-0.21-0.38c-0.07-0.08-0.15-0.12-0.26-0.12c-0.02,0-0.07-0.01-0.12,0c-0.09,0-0.22,0.01-0.39,0.03
			c-0.27,0.02-0.56,0.05-0.88,0.09c-0.31,0.03-0.54,0.06-0.7,0.09c-0.22,0.03-0.37,0.1-0.45,0.19c-0.08,0.09-0.12,0.27-0.13,0.52
			c-0.01,0.19-0.04,0.34-0.08,0.45c-0.05,0.11-0.12,0.21-0.21,0.29c-0.05,0.05-0.1,0.08-0.15,0.09c-0.05,0.02-0.12,0.03-0.21,0.04
			l-0.08,0c-0.05,0-0.1,0-0.13,0C112.64,25.1,112.59,25.08,112.54,25.06z M114.97,21.73c0.2-0.04,0.38-0.07,0.54-0.1
			c0.16-0.03,0.25-0.05,0.29-0.07c0.08-0.04,0.13-0.1,0.16-0.19c0.01-0.03,0.02-0.06,0.03-0.08c0-0.03,0.01-0.05,0-0.07
			c0-0.03,0-0.05-0.01-0.08c-0.01-0.06-0.02-0.16-0.04-0.27c-0.02-0.12-0.05-0.28-0.09-0.49c-0.05-0.25-0.1-0.56-0.16-0.93
			c-0.06-0.37-0.12-0.72-0.17-1.04c-0.12-0.72-0.19-1.13-0.23-1.23c-0.04-0.06-0.08-0.1-0.14-0.09l-0.01,0
			c-0.06,0.01-0.11,0.05-0.17,0.13c-0.08,0.15-0.21,0.56-0.38,1.21s-0.34,1.36-0.5,2.12c-0.1,0.48-0.15,0.82-0.14,1
			c0,0.07,0.01,0.11,0.03,0.14c0.01,0.01,0.03,0.03,0.06,0.05s0.07,0.04,0.1,0.06c0.04,0.02,0.07,0.03,0.1,0.03l0.21-0.04
			C114.6,21.78,114.78,21.76,114.97,21.73z"/>
	</g>
	<polygon class="st11" points="123.21,36.41 123.87,36.41 123.87,36.41 	"/>
</g>
<rect x="16.16" y="158.98" class="st11" width="166.11" height="25.9"/>
<g class="st7">
	<path d="M50.94,163.76l0.67-4.67h0.08l1.9,3.83l1.88-3.83h0.07l0.67,4.67h-0.46l-0.46-3.34l-1.65,3.34h-0.12l-1.67-3.36l-0.46,3.36
		H50.94z"/>
	<path d="M57.21,158.89c0.1,0,0.19,0.04,0.26,0.11c0.07,0.07,0.11,0.16,0.11,0.26c0,0.1-0.04,0.19-0.11,0.26
		c-0.07,0.07-0.16,0.11-0.26,0.11c-0.1,0-0.18-0.04-0.26-0.11c-0.07-0.07-0.11-0.16-0.11-0.26c0-0.1,0.04-0.19,0.11-0.26
		C57.02,158.92,57.11,158.89,57.21,158.89z M56.99,160.31h0.44v3.45h-0.44V160.31z"/>
	<path d="M58.35,160.31h0.44v0.6c0.15-0.22,0.31-0.38,0.48-0.48c0.22-0.14,0.46-0.2,0.71-0.2c0.17,0,0.33,0.03,0.48,0.1
		s0.27,0.15,0.37,0.26c0.1,0.11,0.18,0.26,0.25,0.47c0.15-0.27,0.33-0.48,0.55-0.62s0.46-0.21,0.72-0.21c0.24,0,0.45,0.06,0.63,0.18
		c0.18,0.12,0.32,0.29,0.41,0.5c0.09,0.22,0.13,0.54,0.13,0.97v1.88h-0.45v-1.88c0-0.37-0.03-0.62-0.08-0.76
		c-0.05-0.14-0.14-0.25-0.27-0.33c-0.13-0.08-0.28-0.13-0.46-0.13c-0.21,0-0.41,0.06-0.59,0.19s-0.31,0.3-0.39,0.51
		s-0.12,0.56-0.12,1.06v1.35H60.7v-1.77c0-0.42-0.03-0.7-0.08-0.85c-0.05-0.15-0.14-0.27-0.27-0.36c-0.13-0.09-0.28-0.13-0.46-0.13
		c-0.21,0-0.4,0.06-0.58,0.19s-0.31,0.29-0.4,0.5c-0.09,0.21-0.13,0.53-0.13,0.96v1.46h-0.44V160.31z"/>
	<path d="M67.36,162.62l0.37,0.2c-0.12,0.24-0.26,0.44-0.43,0.58c-0.16,0.15-0.34,0.26-0.54,0.34s-0.43,0.12-0.68,0.12
		c-0.56,0-1-0.18-1.32-0.55c-0.32-0.37-0.48-0.79-0.48-1.25c0-0.44,0.13-0.83,0.4-1.17c0.34-0.44,0.8-0.65,1.37-0.65
		c0.59,0,1.06,0.22,1.41,0.67c0.25,0.32,0.38,0.71,0.38,1.18h-3.11c0.01,0.4,0.14,0.73,0.38,0.99c0.25,0.26,0.55,0.38,0.92,0.38
		c0.18,0,0.35-0.03,0.51-0.09c0.17-0.06,0.31-0.14,0.42-0.24C67.1,163.01,67.22,162.84,67.36,162.62z M67.36,161.69
		c-0.06-0.24-0.15-0.43-0.26-0.57c-0.11-0.14-0.26-0.26-0.45-0.34c-0.19-0.09-0.38-0.13-0.59-0.13c-0.34,0-0.63,0.11-0.87,0.33
		c-0.18,0.16-0.31,0.4-0.4,0.71H67.36z"/>
	<path d="M68.51,160.31h0.45v0.5c0.14-0.2,0.28-0.35,0.43-0.45c0.15-0.1,0.31-0.15,0.47-0.15c0.12,0,0.25,0.04,0.39,0.12l-0.23,0.38
		c-0.09-0.04-0.17-0.06-0.23-0.06c-0.15,0-0.29,0.06-0.43,0.18c-0.14,0.12-0.24,0.31-0.31,0.57c-0.06,0.2-0.08,0.59-0.08,1.19v1.17
		h-0.45V160.31z"/>
	<path d="M72.36,158.98h0.44v4.79h-0.44V158.98z"/>
	<path d="M77.17,160.31v3.45h-0.44v-0.59c-0.19,0.23-0.4,0.4-0.63,0.51c-0.23,0.11-0.48,0.17-0.76,0.17c-0.49,0-0.91-0.18-1.25-0.53
		c-0.35-0.35-0.52-0.79-0.52-1.29c0-0.5,0.17-0.92,0.52-1.28s0.77-0.53,1.26-0.53c0.28,0,0.54,0.06,0.77,0.18
		c0.23,0.12,0.43,0.3,0.6,0.54v-0.63H77.17z M75.39,160.65c-0.25,0-0.48,0.06-0.68,0.18c-0.21,0.12-0.38,0.29-0.5,0.51
		s-0.19,0.45-0.19,0.7c0,0.24,0.06,0.48,0.19,0.7c0.12,0.22,0.29,0.39,0.5,0.52c0.21,0.12,0.44,0.19,0.68,0.19
		c0.24,0,0.47-0.06,0.69-0.18c0.22-0.12,0.39-0.29,0.5-0.5s0.18-0.45,0.18-0.71c0-0.4-0.13-0.73-0.4-1S75.78,160.65,75.39,160.65z"
		/>
	<path d="M80.36,159.03h0.44v1.28h0.7v0.38h-0.7v3.07h-0.44v-3.07h-0.61v-0.38h0.61V159.03z"/>
	<path d="M82.17,158.98h0.44v1.95c0.18-0.24,0.38-0.41,0.59-0.53c0.22-0.12,0.45-0.18,0.7-0.18c0.26,0,0.49,0.07,0.69,0.2
		c0.2,0.13,0.35,0.31,0.44,0.53c0.1,0.22,0.14,0.57,0.14,1.04v1.78h-0.44v-1.65c0-0.4-0.02-0.66-0.05-0.8
		c-0.06-0.23-0.15-0.4-0.3-0.52s-0.33-0.17-0.57-0.17c-0.27,0-0.51,0.09-0.72,0.27c-0.21,0.18-0.35,0.4-0.42,0.66
		c-0.04,0.17-0.06,0.48-0.06,0.94v1.27h-0.44V158.98z"/>
	<path d="M89.04,162.62l0.37,0.2c-0.12,0.24-0.26,0.44-0.43,0.58c-0.16,0.15-0.34,0.26-0.54,0.34s-0.43,0.12-0.68,0.12
		c-0.56,0-1-0.18-1.32-0.55c-0.32-0.37-0.48-0.79-0.48-1.25c0-0.44,0.13-0.83,0.4-1.17c0.34-0.44,0.8-0.65,1.37-0.65
		c0.59,0,1.06,0.22,1.41,0.67c0.25,0.32,0.38,0.71,0.38,1.18h-3.11c0.01,0.4,0.14,0.73,0.38,0.99c0.25,0.26,0.55,0.38,0.92,0.38
		c0.18,0,0.35-0.03,0.51-0.09c0.17-0.06,0.31-0.14,0.42-0.24C88.78,163.01,88.91,162.84,89.04,162.62z M89.04,161.69
		c-0.06-0.24-0.15-0.43-0.26-0.57c-0.11-0.14-0.26-0.26-0.45-0.34c-0.19-0.09-0.38-0.13-0.59-0.13c-0.34,0-0.63,0.11-0.87,0.33
		c-0.18,0.16-0.31,0.4-0.4,0.71H89.04z M87.97,158.69h0.68l-0.94,0.98h-0.44L87.97,158.69z"/>
	<path d="M90.36,160.31h0.44v0.6c0.15-0.22,0.31-0.38,0.48-0.48c0.22-0.14,0.46-0.2,0.71-0.2c0.17,0,0.33,0.03,0.48,0.1
		s0.27,0.15,0.37,0.26c0.1,0.11,0.18,0.26,0.25,0.47c0.15-0.27,0.33-0.48,0.55-0.62s0.46-0.21,0.72-0.21c0.24,0,0.45,0.06,0.63,0.18
		c0.18,0.12,0.32,0.29,0.41,0.5c0.09,0.22,0.13,0.54,0.13,0.97v1.88h-0.45v-1.88c0-0.37-0.03-0.62-0.08-0.76
		c-0.05-0.14-0.14-0.25-0.27-0.33c-0.13-0.08-0.28-0.13-0.46-0.13c-0.21,0-0.41,0.06-0.59,0.19s-0.31,0.3-0.39,0.51
		s-0.12,0.56-0.12,1.06v1.35h-0.44v-1.77c0-0.42-0.03-0.7-0.08-0.85c-0.05-0.15-0.14-0.27-0.27-0.36c-0.13-0.09-0.28-0.13-0.46-0.13
		c-0.21,0-0.4,0.06-0.58,0.19s-0.31,0.29-0.4,0.5c-0.09,0.21-0.13,0.53-0.13,0.96v1.46h-0.44V160.31z"/>
	<path d="M99.9,160.31v3.45h-0.44v-0.59c-0.19,0.23-0.4,0.4-0.63,0.51c-0.23,0.11-0.48,0.17-0.76,0.17c-0.49,0-0.91-0.18-1.25-0.53
		c-0.35-0.35-0.52-0.79-0.52-1.29c0-0.5,0.17-0.92,0.52-1.28s0.77-0.53,1.26-0.53c0.28,0,0.54,0.06,0.77,0.18
		c0.23,0.12,0.43,0.3,0.6,0.54v-0.63H99.9z M98.12,160.65c-0.25,0-0.48,0.06-0.68,0.18c-0.21,0.12-0.38,0.29-0.5,0.51
		s-0.19,0.45-0.19,0.7c0,0.24,0.06,0.48,0.19,0.7c0.12,0.22,0.29,0.39,0.5,0.52c0.21,0.12,0.44,0.19,0.68,0.19
		c0.24,0,0.47-0.06,0.69-0.18c0.22-0.12,0.39-0.29,0.5-0.5s0.18-0.45,0.18-0.71c0-0.4-0.13-0.73-0.4-1S98.51,160.65,98.12,160.65z"
		/>
	<path d="M101.29,159.03h0.44v1.28h0.7v0.38h-0.7v3.07h-0.44v-3.07h-0.61v-0.38h0.61V159.03z"/>
	<path d="M103.25,158.89c0.1,0,0.19,0.04,0.26,0.11c0.07,0.07,0.11,0.16,0.11,0.26c0,0.1-0.04,0.19-0.11,0.26
		c-0.07,0.07-0.16,0.11-0.26,0.11c-0.1,0-0.18-0.04-0.26-0.11c-0.07-0.07-0.11-0.16-0.11-0.26c0-0.1,0.04-0.19,0.11-0.26
		C103.07,158.92,103.16,158.89,103.25,158.89z M103.03,160.31h0.44v3.45h-0.44V160.31z"/>
	<path d="M107.84,160.31v4.72h-0.44v-1.86c-0.19,0.23-0.39,0.4-0.63,0.51c-0.23,0.11-0.49,0.17-0.76,0.17
		c-0.49,0-0.91-0.18-1.25-0.53s-0.52-0.79-0.52-1.29c0-0.5,0.17-0.92,0.52-1.28c0.35-0.35,0.77-0.53,1.26-0.53
		c0.28,0,0.54,0.06,0.77,0.18c0.23,0.12,0.43,0.3,0.6,0.54v-0.63H107.84z M106.06,160.65c-0.25,0-0.48,0.06-0.69,0.18
		c-0.21,0.12-0.38,0.29-0.5,0.51c-0.12,0.22-0.19,0.45-0.19,0.7c0,0.24,0.06,0.48,0.19,0.7c0.12,0.22,0.29,0.39,0.5,0.52
		c0.21,0.12,0.44,0.19,0.68,0.19c0.24,0,0.47-0.06,0.69-0.18c0.22-0.12,0.38-0.29,0.5-0.5c0.12-0.21,0.18-0.45,0.18-0.71
		c0-0.4-0.13-0.73-0.39-1C106.77,160.78,106.45,160.65,106.06,160.65z"/>
	<path d="M108.78,160.31h0.44v1.61c0,0.39,0.02,0.66,0.06,0.81c0.06,0.21,0.19,0.38,0.36,0.5c0.18,0.12,0.39,0.18,0.64,0.18
		s0.46-0.06,0.63-0.18c0.17-0.12,0.29-0.28,0.36-0.47c0.04-0.13,0.07-0.42,0.07-0.85v-1.61h0.45v1.7c0,0.48-0.06,0.83-0.17,1.08
		c-0.11,0.24-0.28,0.43-0.5,0.57c-0.22,0.14-0.5,0.21-0.84,0.21c-0.34,0-0.62-0.07-0.84-0.21c-0.23-0.14-0.39-0.33-0.5-0.57
		c-0.11-0.24-0.17-0.61-0.17-1.1V160.31z"/>
	<path d="M115.69,162.62l0.38,0.2c-0.12,0.24-0.26,0.44-0.43,0.58c-0.16,0.15-0.34,0.26-0.54,0.34s-0.43,0.12-0.68,0.12
		c-0.56,0-1-0.18-1.32-0.55s-0.48-0.79-0.48-1.25c0-0.44,0.13-0.83,0.4-1.17c0.34-0.44,0.8-0.65,1.37-0.65
		c0.59,0,1.06,0.22,1.41,0.67c0.25,0.32,0.38,0.71,0.38,1.18h-3.11c0.01,0.4,0.14,0.73,0.38,0.99c0.25,0.26,0.55,0.38,0.92,0.38
		c0.18,0,0.35-0.03,0.51-0.09c0.17-0.06,0.31-0.14,0.42-0.24C115.43,163.01,115.56,162.84,115.69,162.62z M115.69,161.69
		c-0.06-0.24-0.15-0.43-0.26-0.57s-0.26-0.26-0.45-0.34c-0.19-0.09-0.38-0.13-0.59-0.13c-0.34,0-0.63,0.11-0.87,0.33
		c-0.18,0.16-0.31,0.4-0.4,0.71H115.69z"/>
	<path d="M120.55,160.69l-0.29,0.29c-0.24-0.23-0.47-0.35-0.7-0.35c-0.14,0-0.27,0.05-0.37,0.14c-0.1,0.09-0.15,0.21-0.15,0.33
		c0,0.11,0.04,0.22,0.13,0.32c0.08,0.1,0.26,0.23,0.53,0.37c0.33,0.17,0.56,0.34,0.67,0.5c0.12,0.16,0.17,0.34,0.17,0.54
		c0,0.28-0.1,0.52-0.3,0.72c-0.2,0.2-0.45,0.29-0.75,0.29c-0.2,0-0.39-0.04-0.57-0.13c-0.18-0.09-0.33-0.21-0.45-0.36l0.28-0.32
		c0.23,0.26,0.47,0.38,0.72,0.38c0.18,0,0.33-0.06,0.46-0.17s0.19-0.25,0.19-0.4c0-0.13-0.04-0.24-0.12-0.34
		c-0.08-0.1-0.27-0.22-0.56-0.37c-0.31-0.16-0.52-0.32-0.64-0.48c-0.11-0.16-0.17-0.33-0.17-0.54c0-0.26,0.09-0.48,0.27-0.65
		c0.18-0.17,0.41-0.26,0.68-0.26C119.9,160.22,120.22,160.38,120.55,160.69z"/>
	<path d="M121.28,160.31h0.44v1.61c0,0.39,0.02,0.66,0.06,0.81c0.06,0.21,0.18,0.38,0.36,0.5c0.18,0.12,0.39,0.18,0.64,0.18
		s0.46-0.06,0.63-0.18c0.17-0.12,0.29-0.28,0.36-0.47c0.04-0.13,0.07-0.42,0.07-0.85v-1.61h0.45v1.7c0,0.48-0.06,0.83-0.17,1.08
		s-0.28,0.43-0.5,0.57c-0.22,0.14-0.5,0.21-0.84,0.21c-0.34,0-0.62-0.07-0.84-0.21c-0.23-0.14-0.39-0.33-0.5-0.57
		c-0.11-0.24-0.17-0.61-0.17-1.1V160.31z"/>
	<path d="M125.12,160.31h0.45v0.5c0.13-0.2,0.28-0.35,0.43-0.45c0.15-0.1,0.31-0.15,0.47-0.15c0.12,0,0.25,0.04,0.39,0.12
		l-0.23,0.38c-0.09-0.04-0.17-0.06-0.23-0.06c-0.15,0-0.29,0.06-0.43,0.18c-0.14,0.12-0.24,0.31-0.31,0.57
		c-0.05,0.2-0.08,0.59-0.08,1.19v1.17h-0.45V160.31z"/>
	<path d="M128.97,158.98h0.44v4.79h-0.44V158.98z"/>
	<path d="M133.78,160.31v3.45h-0.44v-0.59c-0.19,0.23-0.39,0.4-0.63,0.51c-0.23,0.11-0.48,0.17-0.76,0.17
		c-0.49,0-0.91-0.18-1.25-0.53s-0.52-0.79-0.52-1.29c0-0.5,0.17-0.92,0.52-1.28c0.35-0.35,0.77-0.53,1.26-0.53
		c0.28,0,0.54,0.06,0.77,0.18c0.23,0.12,0.43,0.3,0.6,0.54v-0.63H133.78z M132.01,160.65c-0.25,0-0.48,0.06-0.68,0.18
		c-0.21,0.12-0.38,0.29-0.5,0.51c-0.12,0.22-0.19,0.45-0.19,0.7c0,0.24,0.06,0.48,0.19,0.7c0.12,0.22,0.29,0.39,0.5,0.52
		c0.21,0.12,0.44,0.19,0.68,0.19c0.24,0,0.47-0.06,0.69-0.18c0.22-0.12,0.38-0.29,0.5-0.5s0.18-0.45,0.18-0.71
		c0-0.4-0.13-0.73-0.4-1C132.71,160.78,132.39,160.65,132.01,160.65z"/>
	<path d="M139.93,161.03l-0.35,0.22c-0.3-0.4-0.72-0.61-1.25-0.61c-0.42,0-0.77,0.14-1.05,0.41c-0.28,0.27-0.42,0.6-0.42,0.99
		c0,0.25,0.06,0.49,0.19,0.71c0.13,0.22,0.3,0.39,0.53,0.52c0.22,0.12,0.47,0.18,0.75,0.18c0.51,0,0.92-0.2,1.24-0.61l0.35,0.23
		c-0.17,0.25-0.39,0.44-0.67,0.58c-0.28,0.14-0.59,0.21-0.95,0.21c-0.55,0-1-0.17-1.36-0.52s-0.54-0.77-0.54-1.27
		c0-0.33,0.08-0.64,0.25-0.93c0.17-0.29,0.4-0.51,0.69-0.67s0.62-0.24,0.99-0.24c0.23,0,0.45,0.04,0.66,0.1
		c0.21,0.07,0.39,0.16,0.54,0.27C139.7,160.71,139.83,160.85,139.93,161.03z"/>
	<path d="M144.23,160.31v3.45h-0.44v-0.59c-0.19,0.23-0.4,0.4-0.63,0.51c-0.23,0.11-0.49,0.17-0.76,0.17
		c-0.49,0-0.91-0.18-1.25-0.53c-0.35-0.35-0.52-0.79-0.52-1.29c0-0.5,0.17-0.92,0.52-1.28c0.35-0.35,0.77-0.53,1.26-0.53
		c0.28,0,0.54,0.06,0.77,0.18c0.23,0.12,0.43,0.3,0.6,0.54v-0.63H144.23z M142.45,160.65c-0.25,0-0.48,0.06-0.68,0.18
		c-0.21,0.12-0.38,0.29-0.5,0.51c-0.12,0.22-0.19,0.45-0.19,0.7c0,0.24,0.06,0.48,0.19,0.7s0.29,0.39,0.5,0.52
		c0.21,0.12,0.44,0.19,0.68,0.19c0.24,0,0.47-0.06,0.69-0.18c0.22-0.12,0.39-0.29,0.5-0.5s0.18-0.45,0.18-0.71
		c0-0.4-0.13-0.73-0.39-1C143.16,160.78,142.84,160.65,142.45,160.65z"/>
	<path d="M145.06,160.31h0.45v0.5c0.13-0.2,0.28-0.35,0.43-0.45c0.15-0.1,0.31-0.15,0.47-0.15c0.12,0,0.25,0.04,0.39,0.12
		l-0.23,0.38c-0.09-0.04-0.17-0.06-0.23-0.06c-0.15,0-0.29,0.06-0.43,0.18c-0.14,0.12-0.24,0.31-0.31,0.57
		c-0.05,0.2-0.08,0.59-0.08,1.19v1.17h-0.45V160.31z"/>
	<path d="M147.57,159.03h0.44v1.28h0.7v0.38h-0.7v3.07h-0.44v-3.07h-0.61v-0.38h0.61V159.03z"/>
	<path d="M152.29,162.62l0.38,0.2c-0.12,0.24-0.27,0.44-0.43,0.58c-0.16,0.15-0.34,0.26-0.54,0.34s-0.43,0.12-0.68,0.12
		c-0.56,0-1-0.18-1.32-0.55c-0.32-0.37-0.48-0.79-0.48-1.25c0-0.44,0.13-0.83,0.4-1.17c0.34-0.44,0.8-0.65,1.37-0.65
		c0.59,0,1.06,0.22,1.41,0.67c0.25,0.32,0.38,0.71,0.38,1.18h-3.11c0.01,0.4,0.14,0.73,0.38,0.99c0.25,0.26,0.55,0.38,0.92,0.38
		c0.18,0,0.35-0.03,0.51-0.09c0.17-0.06,0.31-0.14,0.42-0.24C152.03,163.01,152.16,162.84,152.29,162.62z M152.29,161.69
		c-0.06-0.24-0.15-0.43-0.26-0.57s-0.26-0.26-0.45-0.34c-0.19-0.09-0.38-0.13-0.59-0.13c-0.34,0-0.63,0.11-0.87,0.33
		c-0.18,0.16-0.31,0.4-0.4,0.71H152.29z"/>
	<path d="M154.1,163.06c0.11,0,0.2,0.04,0.28,0.11s0.11,0.17,0.11,0.28c0,0.11-0.04,0.2-0.11,0.28s-0.17,0.12-0.28,0.12
		c-0.11,0-0.2-0.04-0.28-0.12s-0.11-0.17-0.11-0.28c0-0.11,0.04-0.2,0.11-0.28S153.99,163.06,154.1,163.06z"/>
</g>
<g class="st7">
	<path d="M44.99,167.09h0.51l1.55,3.61l1.57-3.61h0.51l-2.03,4.67h-0.1L44.99,167.09z"/>
	<path d="M51.47,168.22c0.53,0,0.97,0.19,1.32,0.58c0.32,0.35,0.48,0.77,0.48,1.25c0,0.48-0.17,0.9-0.5,1.26
		c-0.34,0.36-0.77,0.54-1.3,0.54c-0.53,0-0.96-0.18-1.3-0.54c-0.34-0.36-0.5-0.78-0.5-1.26c0-0.48,0.16-0.89,0.48-1.24
		C50.49,168.41,50.93,168.22,51.47,168.22z M51.47,168.65c-0.37,0-0.69,0.14-0.95,0.41c-0.27,0.27-0.4,0.6-0.4,0.99
		c0,0.25,0.06,0.48,0.18,0.7c0.12,0.22,0.28,0.38,0.49,0.5c0.21,0.12,0.43,0.18,0.68,0.18c0.25,0,0.47-0.06,0.68-0.18
		c0.21-0.12,0.37-0.28,0.49-0.5c0.12-0.21,0.18-0.45,0.18-0.7c0-0.39-0.13-0.72-0.4-0.99C52.15,168.79,51.83,168.65,51.47,168.65z"
		/>
	<path d="M54.48,167.03h0.44v1.28h0.7v0.38h-0.7v3.07h-0.44v-3.07h-0.61v-0.38h0.61V167.03z"/>
	<path d="M56.12,168.31h0.45v0.5c0.14-0.2,0.28-0.35,0.43-0.45c0.15-0.1,0.31-0.15,0.47-0.15c0.12,0,0.25,0.04,0.39,0.12l-0.23,0.38
		c-0.09-0.04-0.17-0.06-0.23-0.06c-0.15,0-0.29,0.06-0.43,0.18c-0.14,0.12-0.24,0.31-0.31,0.57c-0.06,0.2-0.08,0.59-0.08,1.19v1.17
		h-0.45V168.31z"/>
	<path d="M61.15,170.62l0.37,0.2c-0.12,0.24-0.26,0.44-0.43,0.58c-0.16,0.15-0.34,0.26-0.54,0.34s-0.43,0.12-0.68,0.12
		c-0.56,0-1-0.18-1.32-0.55c-0.32-0.37-0.48-0.79-0.48-1.25c0-0.44,0.13-0.83,0.4-1.17c0.34-0.44,0.8-0.65,1.37-0.65
		c0.59,0,1.06,0.22,1.41,0.67c0.25,0.32,0.38,0.71,0.38,1.18h-3.11c0.01,0.4,0.14,0.73,0.38,0.99c0.25,0.26,0.55,0.38,0.92,0.38
		c0.18,0,0.35-0.03,0.51-0.09c0.17-0.06,0.31-0.14,0.42-0.24C60.89,171.01,61.02,170.84,61.15,170.62z M61.15,169.69
		c-0.06-0.24-0.15-0.43-0.26-0.57c-0.11-0.14-0.26-0.26-0.45-0.34c-0.19-0.09-0.38-0.13-0.59-0.13c-0.34,0-0.63,0.11-0.87,0.33
		c-0.18,0.16-0.31,0.4-0.4,0.71H61.15z"/>
	<path d="M67.71,168.31v3.45h-0.44v-0.59c-0.19,0.23-0.4,0.4-0.63,0.51c-0.23,0.11-0.48,0.17-0.76,0.17c-0.49,0-0.91-0.18-1.25-0.53
		c-0.35-0.35-0.52-0.79-0.52-1.29c0-0.5,0.17-0.92,0.52-1.28s0.77-0.53,1.26-0.53c0.28,0,0.54,0.06,0.77,0.18
		c0.23,0.12,0.43,0.3,0.6,0.54v-0.63H67.71z M65.94,168.65c-0.25,0-0.48,0.06-0.68,0.18c-0.21,0.12-0.38,0.29-0.5,0.51
		s-0.19,0.45-0.19,0.7c0,0.24,0.06,0.48,0.19,0.7c0.12,0.22,0.29,0.39,0.5,0.52c0.21,0.12,0.44,0.19,0.68,0.19
		c0.24,0,0.47-0.06,0.69-0.18c0.22-0.12,0.39-0.29,0.5-0.5s0.18-0.45,0.18-0.71c0-0.4-0.13-0.73-0.4-1S66.32,168.65,65.94,168.65z"
		/>
	<path d="M72.16,166.98v4.79h-0.44v-0.59c-0.19,0.23-0.4,0.4-0.63,0.51c-0.23,0.11-0.48,0.17-0.76,0.17c-0.49,0-0.91-0.18-1.25-0.53
		c-0.35-0.35-0.52-0.79-0.52-1.29c0-0.5,0.17-0.92,0.52-1.28s0.77-0.53,1.26-0.53c0.28,0,0.54,0.06,0.77,0.18
		c0.23,0.12,0.43,0.3,0.6,0.54v-1.97H72.16z M70.38,168.65c-0.25,0-0.48,0.06-0.68,0.18c-0.21,0.12-0.38,0.29-0.5,0.51
		s-0.19,0.45-0.19,0.7c0,0.24,0.06,0.48,0.19,0.7c0.12,0.22,0.29,0.39,0.5,0.52c0.21,0.12,0.44,0.19,0.68,0.19
		c0.24,0,0.47-0.06,0.69-0.18c0.22-0.12,0.39-0.29,0.5-0.5s0.18-0.45,0.18-0.71c0-0.4-0.13-0.73-0.39-1S70.77,168.65,70.38,168.65z"
		/>
	<path d="M72.84,168.31h0.47l1.16,2.52l1.15-2.52h0.48l-1.58,3.45h-0.08L72.84,168.31z"/>
	<path d="M79.67,170.62l0.37,0.2c-0.12,0.24-0.26,0.44-0.43,0.58c-0.16,0.15-0.34,0.26-0.54,0.34s-0.43,0.12-0.68,0.12
		c-0.56,0-1-0.18-1.32-0.55c-0.32-0.37-0.48-0.79-0.48-1.25c0-0.44,0.13-0.83,0.4-1.17c0.34-0.44,0.8-0.65,1.37-0.65
		c0.59,0,1.06,0.22,1.41,0.67c0.25,0.32,0.38,0.71,0.38,1.18h-3.11c0.01,0.4,0.14,0.73,0.38,0.99c0.25,0.26,0.55,0.38,0.92,0.38
		c0.18,0,0.35-0.03,0.51-0.09c0.17-0.06,0.31-0.14,0.42-0.24C79.41,171.01,79.54,170.84,79.67,170.62z M79.67,169.69
		c-0.06-0.24-0.15-0.43-0.26-0.57c-0.11-0.14-0.26-0.26-0.45-0.34c-0.19-0.09-0.38-0.13-0.59-0.13c-0.34,0-0.63,0.11-0.87,0.33
		c-0.18,0.16-0.31,0.4-0.4,0.71H79.67z"/>
	<path d="M80.82,168.31h0.45v0.5c0.14-0.2,0.28-0.35,0.43-0.45c0.15-0.1,0.31-0.15,0.47-0.15c0.12,0,0.25,0.04,0.39,0.12l-0.23,0.38
		c-0.09-0.04-0.17-0.06-0.23-0.06c-0.15,0-0.29,0.06-0.43,0.18c-0.14,0.12-0.24,0.31-0.31,0.57c-0.06,0.2-0.08,0.59-0.08,1.19v1.17
		h-0.45V168.31z"/>
	<path d="M84.68,168.69l-0.29,0.29c-0.24-0.23-0.47-0.35-0.7-0.35c-0.14,0-0.27,0.05-0.37,0.14s-0.15,0.21-0.15,0.33
		c0,0.11,0.04,0.22,0.13,0.32c0.08,0.1,0.26,0.23,0.53,0.37c0.33,0.17,0.56,0.34,0.67,0.5c0.12,0.16,0.17,0.34,0.17,0.54
		c0,0.28-0.1,0.52-0.3,0.72c-0.2,0.2-0.45,0.29-0.75,0.29c-0.2,0-0.39-0.04-0.57-0.13s-0.33-0.21-0.45-0.36l0.28-0.32
		c0.23,0.26,0.47,0.38,0.72,0.38c0.18,0,0.33-0.06,0.46-0.17s0.19-0.25,0.19-0.4c0-0.13-0.04-0.24-0.12-0.34
		c-0.08-0.1-0.27-0.22-0.56-0.37c-0.31-0.16-0.52-0.32-0.64-0.48c-0.11-0.16-0.17-0.33-0.17-0.54c0-0.26,0.09-0.48,0.27-0.65
		c0.18-0.17,0.41-0.26,0.68-0.26C84.04,168.22,84.36,168.38,84.68,168.69z"/>
	<path d="M88.91,168.31v3.45h-0.44v-0.59c-0.19,0.23-0.4,0.4-0.63,0.51c-0.23,0.11-0.48,0.17-0.76,0.17c-0.49,0-0.91-0.18-1.25-0.53
		c-0.35-0.35-0.52-0.79-0.52-1.29c0-0.5,0.17-0.92,0.52-1.28s0.77-0.53,1.26-0.53c0.28,0,0.54,0.06,0.77,0.18
		c0.23,0.12,0.43,0.3,0.6,0.54v-0.63H88.91z M87.13,168.65c-0.25,0-0.48,0.06-0.68,0.18c-0.21,0.12-0.38,0.29-0.5,0.51
		s-0.19,0.45-0.19,0.7c0,0.24,0.06,0.48,0.19,0.7c0.12,0.22,0.29,0.39,0.5,0.52c0.21,0.12,0.44,0.19,0.68,0.19
		c0.24,0,0.47-0.06,0.69-0.18c0.22-0.12,0.39-0.29,0.5-0.5s0.18-0.45,0.18-0.71c0-0.4-0.13-0.73-0.4-1S87.52,168.65,87.13,168.65z"
		/>
	<path d="M90.06,166.89c0.1,0,0.19,0.04,0.26,0.11c0.07,0.07,0.11,0.16,0.11,0.26c0,0.1-0.04,0.19-0.11,0.26
		c-0.07,0.07-0.16,0.11-0.26,0.11c-0.1,0-0.18-0.04-0.26-0.11c-0.07-0.07-0.11-0.16-0.11-0.26c0-0.1,0.04-0.19,0.11-0.26
		C89.88,166.92,89.96,166.89,90.06,166.89z M89.84,168.31h0.44v3.45h-0.44V168.31z"/>
	<path d="M91.04,168.31h0.45v0.5c0.14-0.2,0.28-0.35,0.43-0.45c0.15-0.1,0.31-0.15,0.47-0.15c0.12,0,0.25,0.04,0.39,0.12l-0.23,0.38
		c-0.09-0.04-0.17-0.06-0.23-0.06c-0.15,0-0.29,0.06-0.43,0.18c-0.14,0.12-0.24,0.31-0.31,0.57c-0.06,0.2-0.08,0.59-0.08,1.19v1.17
		h-0.45V168.31z"/>
	<path d="M96.07,170.62l0.37,0.2c-0.12,0.24-0.26,0.44-0.43,0.58c-0.16,0.15-0.34,0.26-0.54,0.34s-0.43,0.12-0.68,0.12
		c-0.56,0-1-0.18-1.32-0.55c-0.32-0.37-0.48-0.79-0.48-1.25c0-0.44,0.13-0.83,0.4-1.17c0.34-0.44,0.8-0.65,1.37-0.65
		c0.59,0,1.06,0.22,1.41,0.67c0.25,0.32,0.38,0.71,0.38,1.18h-3.11c0.01,0.4,0.14,0.73,0.38,0.99c0.25,0.26,0.55,0.38,0.92,0.38
		c0.18,0,0.35-0.03,0.51-0.09c0.17-0.06,0.31-0.14,0.42-0.24C95.81,171.01,95.94,170.84,96.07,170.62z M96.07,169.69
		c-0.06-0.24-0.15-0.43-0.26-0.57c-0.11-0.14-0.26-0.26-0.45-0.34c-0.19-0.09-0.38-0.13-0.59-0.13c-0.34,0-0.63,0.11-0.87,0.33
		c-0.18,0.16-0.31,0.4-0.4,0.71H96.07z"/>
	<path d="M102.63,166.98v4.79h-0.44v-0.59c-0.19,0.23-0.4,0.4-0.63,0.51c-0.23,0.11-0.49,0.17-0.76,0.17
		c-0.49,0-0.91-0.18-1.25-0.53c-0.35-0.35-0.52-0.79-0.52-1.29c0-0.5,0.17-0.92,0.52-1.28s0.77-0.53,1.26-0.53
		c0.28,0,0.54,0.06,0.77,0.18c0.23,0.12,0.43,0.3,0.6,0.54v-1.97H102.63z M100.86,168.65c-0.25,0-0.48,0.06-0.68,0.18
		c-0.21,0.12-0.38,0.29-0.5,0.51s-0.19,0.45-0.19,0.7c0,0.24,0.06,0.48,0.19,0.7c0.12,0.22,0.29,0.39,0.5,0.52
		c0.21,0.12,0.44,0.19,0.68,0.19c0.24,0,0.47-0.06,0.69-0.18c0.22-0.12,0.39-0.29,0.5-0.5s0.18-0.45,0.18-0.71
		c0-0.4-0.13-0.73-0.39-1C101.57,168.78,101.24,168.65,100.86,168.65z"/>
	<path d="M106.55,170.62l0.37,0.2c-0.12,0.24-0.26,0.44-0.43,0.58c-0.16,0.15-0.34,0.26-0.54,0.34s-0.43,0.12-0.68,0.12
		c-0.56,0-1-0.18-1.32-0.55c-0.32-0.37-0.48-0.79-0.48-1.25c0-0.44,0.13-0.83,0.4-1.17c0.34-0.44,0.8-0.65,1.37-0.65
		c0.59,0,1.06,0.22,1.41,0.67c0.25,0.32,0.38,0.71,0.38,1.18h-3.11c0.01,0.4,0.14,0.73,0.38,0.99c0.25,0.26,0.55,0.38,0.92,0.38
		c0.18,0,0.35-0.03,0.51-0.09c0.17-0.06,0.31-0.14,0.42-0.24C106.29,171.01,106.41,170.84,106.55,170.62z M106.55,169.69
		c-0.06-0.24-0.15-0.43-0.26-0.57c-0.11-0.14-0.26-0.26-0.45-0.34s-0.38-0.13-0.59-0.13c-0.34,0-0.63,0.11-0.87,0.33
		c-0.18,0.16-0.31,0.4-0.4,0.71H106.55z"/>
	<path d="M107.54,168.31h0.47l1.16,2.52l1.15-2.52h0.48l-1.58,3.45h-0.08L107.54,168.31z"/>
	<path d="M111.3,168.31h0.45v0.5c0.13-0.2,0.28-0.35,0.43-0.45c0.15-0.1,0.31-0.15,0.47-0.15c0.12,0,0.25,0.04,0.39,0.12l-0.23,0.38
		c-0.09-0.04-0.17-0.06-0.23-0.06c-0.15,0-0.29,0.06-0.43,0.18c-0.14,0.12-0.24,0.31-0.31,0.57c-0.05,0.2-0.08,0.59-0.08,1.19v1.17
		h-0.45V168.31z"/>
	<path d="M116.86,168.31v3.45h-0.44v-0.59c-0.19,0.23-0.4,0.4-0.63,0.51c-0.23,0.11-0.49,0.17-0.76,0.17
		c-0.49,0-0.91-0.18-1.25-0.53c-0.35-0.35-0.52-0.79-0.52-1.29c0-0.5,0.17-0.92,0.52-1.28c0.35-0.35,0.77-0.53,1.26-0.53
		c0.28,0,0.54,0.06,0.77,0.18c0.23,0.12,0.43,0.3,0.6,0.54v-0.63H116.86z M115.09,168.65c-0.25,0-0.48,0.06-0.68,0.18
		c-0.21,0.12-0.38,0.29-0.5,0.51c-0.12,0.22-0.19,0.45-0.19,0.7c0,0.24,0.06,0.48,0.19,0.7s0.29,0.39,0.5,0.52
		c0.21,0.12,0.44,0.19,0.68,0.19c0.24,0,0.47-0.06,0.69-0.18c0.22-0.12,0.39-0.29,0.5-0.5s0.18-0.45,0.18-0.71
		c0-0.4-0.13-0.73-0.39-1C115.8,168.78,115.47,168.65,115.09,168.65z"/>
	<path d="M123.11,166.98v4.79h-0.44v-0.59c-0.19,0.23-0.4,0.4-0.63,0.51c-0.23,0.11-0.49,0.17-0.76,0.17
		c-0.49,0-0.91-0.18-1.25-0.53c-0.35-0.35-0.52-0.79-0.52-1.29c0-0.5,0.17-0.92,0.52-1.28c0.35-0.35,0.77-0.53,1.26-0.53
		c0.28,0,0.54,0.06,0.77,0.18c0.23,0.12,0.43,0.3,0.6,0.54v-1.97H123.11z M121.33,168.65c-0.25,0-0.48,0.06-0.68,0.18
		c-0.21,0.12-0.38,0.29-0.5,0.51c-0.12,0.22-0.18,0.45-0.18,0.7c0,0.24,0.06,0.48,0.19,0.7s0.29,0.39,0.5,0.52
		c0.21,0.12,0.44,0.19,0.68,0.19c0.24,0,0.47-0.06,0.69-0.18c0.22-0.12,0.39-0.29,0.5-0.5s0.18-0.45,0.18-0.71
		c0-0.4-0.13-0.73-0.39-1C122.04,168.78,121.72,168.65,121.33,168.65z"/>
	<path d="M127.02,170.62l0.37,0.2c-0.12,0.24-0.26,0.44-0.43,0.58c-0.16,0.15-0.34,0.26-0.54,0.34s-0.43,0.12-0.68,0.12
		c-0.56,0-1-0.18-1.32-0.55c-0.32-0.37-0.48-0.79-0.48-1.25c0-0.44,0.13-0.83,0.4-1.17c0.34-0.44,0.8-0.65,1.37-0.65
		c0.59,0,1.06,0.22,1.41,0.67c0.25,0.32,0.38,0.71,0.38,1.18h-3.11c0.01,0.4,0.14,0.73,0.38,0.99c0.25,0.26,0.55,0.38,0.92,0.38
		c0.18,0,0.35-0.03,0.51-0.09c0.17-0.06,0.31-0.14,0.42-0.24C126.76,171.01,126.89,170.84,127.02,170.62z M127.02,169.69
		c-0.06-0.24-0.15-0.43-0.26-0.57c-0.11-0.14-0.26-0.26-0.45-0.34s-0.38-0.13-0.59-0.13c-0.34,0-0.63,0.11-0.87,0.33
		c-0.18,0.16-0.31,0.4-0.4,0.71H127.02z"/>
	<path d="M128.01,168.31h0.47l1.16,2.52l1.14-2.52h0.48l-1.58,3.45h-0.08L128.01,168.31z"/>
	<path d="M132.1,166.89c0.1,0,0.19,0.04,0.26,0.11c0.07,0.07,0.11,0.16,0.11,0.26c0,0.1-0.04,0.19-0.11,0.26
		c-0.07,0.07-0.16,0.11-0.26,0.11c-0.1,0-0.18-0.04-0.26-0.11c-0.07-0.07-0.11-0.16-0.11-0.26c0-0.1,0.04-0.19,0.11-0.26
		C131.91,166.92,132,166.89,132.1,166.89z M131.88,168.31h0.44v3.45h-0.44V168.31z"/>
	<path d="M133.24,168.31h0.44v0.62c0.18-0.24,0.37-0.41,0.59-0.53c0.22-0.12,0.45-0.18,0.71-0.18c0.26,0,0.49,0.07,0.69,0.2
		c0.2,0.13,0.35,0.31,0.44,0.53c0.09,0.22,0.14,0.57,0.14,1.04v1.78h-0.44v-1.65c0-0.4-0.02-0.66-0.05-0.8
		c-0.05-0.23-0.15-0.4-0.3-0.52c-0.15-0.12-0.34-0.17-0.57-0.17c-0.27,0-0.51,0.09-0.72,0.27c-0.21,0.18-0.35,0.4-0.42,0.66
		c-0.04,0.17-0.06,0.48-0.06,0.94v1.27h-0.44V168.31z"/>
	<path d="M140.12,170.62l0.37,0.2c-0.12,0.24-0.26,0.44-0.43,0.58c-0.16,0.15-0.34,0.26-0.54,0.34s-0.43,0.12-0.68,0.12
		c-0.56,0-1-0.18-1.32-0.55c-0.32-0.37-0.48-0.79-0.48-1.25c0-0.44,0.13-0.83,0.4-1.17c0.34-0.44,0.8-0.65,1.37-0.65
		c0.59,0,1.06,0.22,1.41,0.67c0.25,0.32,0.38,0.71,0.38,1.18h-3.11c0.01,0.4,0.14,0.73,0.38,0.99c0.25,0.26,0.55,0.38,0.92,0.38
		c0.18,0,0.35-0.03,0.51-0.09c0.17-0.06,0.31-0.14,0.42-0.24C139.85,171.01,139.98,170.84,140.12,170.62z M140.12,169.69
		c-0.06-0.24-0.15-0.43-0.26-0.57c-0.11-0.14-0.26-0.26-0.45-0.34s-0.38-0.13-0.59-0.13c-0.34,0-0.63,0.11-0.87,0.33
		c-0.18,0.16-0.31,0.4-0.4,0.71H140.12z"/>
	<path d="M141.26,168.31h0.45v0.5c0.14-0.2,0.28-0.35,0.43-0.45s0.31-0.15,0.47-0.15c0.12,0,0.25,0.04,0.39,0.12l-0.23,0.38
		c-0.09-0.04-0.17-0.06-0.24-0.06c-0.15,0-0.29,0.06-0.43,0.18c-0.14,0.12-0.24,0.31-0.31,0.57c-0.06,0.2-0.08,0.59-0.08,1.19v1.17
		h-0.45V168.31z"/>
	<path d="M148.63,168.31v3.45h-0.44v-0.59c-0.19,0.23-0.39,0.4-0.63,0.51c-0.23,0.11-0.48,0.17-0.76,0.17
		c-0.49,0-0.91-0.18-1.25-0.53s-0.52-0.79-0.52-1.29c0-0.5,0.17-0.92,0.52-1.28c0.35-0.35,0.77-0.53,1.26-0.53
		c0.29,0,0.54,0.06,0.77,0.18c0.23,0.12,0.43,0.3,0.61,0.54v-0.63H148.63z M146.85,168.65c-0.25,0-0.47,0.06-0.69,0.18
		c-0.21,0.12-0.38,0.29-0.5,0.51c-0.12,0.22-0.19,0.45-0.19,0.7c0,0.24,0.06,0.48,0.19,0.7s0.29,0.39,0.5,0.52
		c0.21,0.12,0.44,0.19,0.68,0.19c0.24,0,0.47-0.06,0.69-0.18c0.22-0.12,0.38-0.29,0.5-0.5c0.12-0.21,0.18-0.45,0.18-0.71
		c0-0.4-0.13-0.73-0.39-1C147.56,168.78,147.24,168.65,146.85,168.65z"/>
	<path d="M149.3,168.31h0.47l1.16,2.52l1.15-2.52h0.48l-1.58,3.45h-0.08L149.3,168.31z"/>
	<path d="M156.14,170.62l0.38,0.2c-0.12,0.24-0.27,0.44-0.43,0.58c-0.16,0.15-0.34,0.26-0.54,0.34s-0.43,0.12-0.68,0.12
		c-0.56,0-1-0.18-1.32-0.55c-0.32-0.37-0.48-0.79-0.48-1.25c0-0.44,0.13-0.83,0.4-1.17c0.34-0.44,0.8-0.65,1.37-0.65
		c0.59,0,1.06,0.22,1.41,0.67c0.25,0.32,0.38,0.71,0.38,1.18h-3.11c0.01,0.4,0.14,0.73,0.38,0.99c0.25,0.26,0.55,0.38,0.92,0.38
		c0.18,0,0.35-0.03,0.51-0.09c0.17-0.06,0.31-0.14,0.42-0.24C155.88,171.01,156,170.84,156.14,170.62z M156.14,169.69
		c-0.06-0.24-0.15-0.43-0.26-0.57s-0.26-0.26-0.45-0.34s-0.38-0.13-0.59-0.13c-0.34,0-0.63,0.11-0.87,0.33
		c-0.18,0.16-0.31,0.4-0.4,0.71H156.14z"/>
	<path d="M160.81,169.03l-0.35,0.22c-0.3-0.4-0.72-0.61-1.25-0.61c-0.42,0-0.77,0.14-1.05,0.41c-0.28,0.27-0.42,0.6-0.42,0.99
		c0,0.25,0.06,0.49,0.19,0.71c0.13,0.22,0.3,0.39,0.53,0.52c0.22,0.12,0.47,0.18,0.75,0.18c0.51,0,0.92-0.2,1.24-0.61l0.35,0.23
		c-0.17,0.25-0.39,0.44-0.67,0.58c-0.28,0.14-0.59,0.21-0.95,0.21c-0.55,0-1-0.17-1.36-0.52c-0.36-0.35-0.54-0.77-0.54-1.27
		c0-0.33,0.08-0.64,0.25-0.93c0.17-0.29,0.4-0.51,0.69-0.67s0.62-0.24,0.99-0.24c0.23,0,0.45,0.04,0.66,0.1
		c0.21,0.07,0.39,0.16,0.54,0.27C160.58,168.71,160.7,168.85,160.81,169.03z"/>
</g>
<g class="st7">
	<path d="M70.21,176.62l0.37,0.2c-0.12,0.24-0.26,0.44-0.43,0.58c-0.16,0.15-0.34,0.26-0.54,0.34s-0.43,0.12-0.68,0.12
		c-0.56,0-1-0.18-1.32-0.55c-0.32-0.37-0.48-0.79-0.48-1.25c0-0.44,0.13-0.83,0.4-1.17c0.34-0.44,0.8-0.65,1.37-0.65
		c0.59,0,1.06,0.22,1.41,0.67c0.25,0.32,0.38,0.71,0.38,1.18h-3.11c0.01,0.4,0.14,0.73,0.38,0.99c0.25,0.26,0.55,0.38,0.92,0.38
		c0.18,0,0.35-0.03,0.51-0.09c0.17-0.06,0.31-0.14,0.42-0.24C69.94,177.01,70.07,176.84,70.21,176.62z M70.21,175.69
		c-0.06-0.24-0.15-0.43-0.26-0.57c-0.11-0.14-0.26-0.26-0.45-0.34c-0.19-0.09-0.38-0.13-0.59-0.13c-0.34,0-0.63,0.11-0.87,0.33
		c-0.18,0.16-0.31,0.4-0.4,0.71H70.21z"/>
	<path d="M71.13,174.31h0.53l0.92,1.26l0.91-1.26h0.53l-1.18,1.63l1.32,1.82h-0.54l-1.05-1.45l-1.04,1.45h-0.53l1.31-1.82
		L71.13,174.31z"/>
	<path d="M78.08,174.31v3.45h-0.44v-0.59c-0.19,0.23-0.4,0.4-0.63,0.51c-0.23,0.11-0.48,0.17-0.76,0.17c-0.49,0-0.91-0.18-1.25-0.53
		c-0.35-0.35-0.52-0.79-0.52-1.29c0-0.5,0.17-0.92,0.52-1.28s0.77-0.53,1.26-0.53c0.28,0,0.54,0.06,0.77,0.18
		c0.23,0.12,0.43,0.3,0.6,0.54v-0.63H78.08z M76.31,174.65c-0.25,0-0.48,0.06-0.68,0.18c-0.21,0.12-0.38,0.29-0.5,0.51
		s-0.19,0.45-0.19,0.7c0,0.24,0.06,0.48,0.19,0.7c0.12,0.22,0.29,0.39,0.5,0.52c0.21,0.12,0.44,0.19,0.68,0.19
		c0.24,0,0.47-0.06,0.69-0.18c0.22-0.12,0.39-0.29,0.5-0.5s0.18-0.45,0.18-0.71c0-0.4-0.13-0.73-0.4-1S76.69,174.65,76.31,174.65z"
		/>
	<path d="M82.43,175.03l-0.35,0.22c-0.3-0.4-0.72-0.61-1.25-0.61c-0.42,0-0.77,0.14-1.05,0.41s-0.42,0.6-0.42,0.99
		c0,0.25,0.06,0.49,0.19,0.71c0.13,0.22,0.3,0.39,0.53,0.52c0.22,0.12,0.47,0.18,0.75,0.18c0.51,0,0.92-0.2,1.24-0.61l0.35,0.23
		c-0.17,0.25-0.39,0.44-0.67,0.58c-0.28,0.14-0.59,0.21-0.95,0.21c-0.55,0-1-0.17-1.36-0.52c-0.36-0.35-0.54-0.77-0.54-1.27
		c0-0.33,0.08-0.64,0.25-0.93c0.17-0.29,0.4-0.51,0.69-0.67c0.29-0.16,0.62-0.24,0.99-0.24c0.23,0,0.45,0.04,0.66,0.1
		c0.21,0.07,0.39,0.16,0.54,0.27C82.2,174.71,82.33,174.85,82.43,175.03z"/>
	<path d="M83.68,173.03h0.44v1.28h0.7v0.38h-0.7v3.07h-0.44v-3.07h-0.61v-0.38h0.61V173.03z"/>
	<path d="M85.64,172.89c0.1,0,0.19,0.04,0.26,0.11c0.07,0.07,0.11,0.16,0.11,0.26c0,0.1-0.04,0.19-0.11,0.26
		c-0.07,0.07-0.16,0.11-0.26,0.11c-0.1,0-0.18-0.04-0.26-0.11c-0.07-0.07-0.11-0.16-0.11-0.26c0-0.1,0.04-0.19,0.11-0.26
		C85.46,172.92,85.55,172.89,85.64,172.89z M85.42,174.31h0.44v3.45h-0.44V174.31z"/>
	<path d="M87.18,173.03h0.44v1.28h0.7v0.38h-0.7v3.07h-0.44v-3.07h-0.61v-0.38h0.61V173.03z"/>
	<path d="M88.94,174.31h0.44v1.61c0,0.39,0.02,0.66,0.06,0.81c0.06,0.21,0.19,0.38,0.36,0.5c0.18,0.12,0.39,0.18,0.64,0.18
		s0.46-0.06,0.63-0.18c0.17-0.12,0.29-0.28,0.36-0.47c0.04-0.13,0.07-0.42,0.07-0.85v-1.61h0.45v1.7c0,0.48-0.06,0.83-0.17,1.08
		c-0.11,0.24-0.28,0.43-0.5,0.57c-0.22,0.14-0.5,0.21-0.84,0.21c-0.34,0-0.62-0.07-0.84-0.21c-0.23-0.14-0.39-0.33-0.5-0.57
		c-0.11-0.24-0.17-0.61-0.17-1.1V174.31z"/>
	<path d="M96.39,172.98v4.79h-0.44v-0.59c-0.19,0.23-0.4,0.4-0.63,0.51c-0.23,0.11-0.48,0.17-0.76,0.17c-0.49,0-0.91-0.18-1.25-0.53
		c-0.35-0.35-0.52-0.79-0.52-1.29c0-0.5,0.17-0.92,0.52-1.28s0.77-0.53,1.26-0.53c0.28,0,0.54,0.06,0.77,0.18
		c0.23,0.12,0.43,0.3,0.6,0.54v-1.97H96.39z M94.62,174.65c-0.25,0-0.48,0.06-0.68,0.18c-0.21,0.12-0.38,0.29-0.5,0.51
		s-0.19,0.45-0.19,0.7c0,0.24,0.06,0.48,0.19,0.7c0.12,0.22,0.29,0.39,0.5,0.52c0.21,0.12,0.44,0.19,0.68,0.19
		c0.24,0,0.47-0.06,0.69-0.18c0.22-0.12,0.39-0.29,0.5-0.5s0.18-0.45,0.18-0.71c0-0.4-0.13-0.73-0.39-1S95,174.65,94.62,174.65z"/>
	<path d="M100.31,176.62l0.37,0.2c-0.12,0.24-0.26,0.44-0.43,0.58c-0.16,0.15-0.34,0.26-0.54,0.34s-0.43,0.12-0.68,0.12
		c-0.56,0-1-0.18-1.32-0.55c-0.32-0.37-0.48-0.79-0.48-1.25c0-0.44,0.13-0.83,0.4-1.17c0.34-0.44,0.8-0.65,1.37-0.65
		c0.59,0,1.06,0.22,1.41,0.67c0.25,0.32,0.38,0.71,0.38,1.18h-3.11c0.01,0.4,0.14,0.73,0.38,0.99c0.25,0.26,0.55,0.38,0.92,0.38
		c0.18,0,0.35-0.03,0.51-0.09c0.17-0.06,0.31-0.14,0.42-0.24C100.04,177.01,100.17,176.84,100.31,176.62z M100.31,175.69
		c-0.06-0.24-0.15-0.43-0.26-0.57c-0.11-0.14-0.26-0.26-0.45-0.34c-0.19-0.09-0.38-0.13-0.59-0.13c-0.34,0-0.63,0.11-0.87,0.33
		c-0.18,0.16-0.31,0.4-0.4,0.71H100.31z"/>
	<path d="M103.36,172.98h0.44v4.79h-0.44V172.98z"/>
	<path d="M108.17,174.31v3.45h-0.44v-0.59c-0.19,0.23-0.39,0.4-0.63,0.51c-0.23,0.11-0.48,0.17-0.76,0.17
		c-0.49,0-0.91-0.18-1.25-0.53s-0.52-0.79-0.52-1.29c0-0.5,0.17-0.92,0.52-1.28c0.35-0.35,0.77-0.53,1.26-0.53
		c0.28,0,0.54,0.06,0.77,0.18c0.23,0.12,0.43,0.3,0.6,0.54v-0.63H108.17z M106.39,174.65c-0.25,0-0.48,0.06-0.68,0.18
		c-0.21,0.12-0.38,0.29-0.5,0.51c-0.12,0.22-0.19,0.45-0.19,0.7c0,0.24,0.06,0.48,0.19,0.7c0.12,0.22,0.29,0.39,0.5,0.52
		c0.21,0.12,0.44,0.19,0.68,0.19c0.24,0,0.47-0.06,0.69-0.18c0.22-0.12,0.38-0.29,0.5-0.5s0.18-0.45,0.18-0.71
		c0-0.4-0.13-0.73-0.4-1C107.1,174.78,106.77,174.65,106.39,174.65z"/>
	<path d="M110.8,174.31h0.45v0.5c0.13-0.2,0.28-0.35,0.43-0.45c0.15-0.1,0.31-0.15,0.47-0.15c0.12,0,0.25,0.04,0.39,0.12l-0.23,0.38
		c-0.09-0.04-0.17-0.06-0.23-0.06c-0.15,0-0.29,0.06-0.43,0.18c-0.14,0.12-0.24,0.31-0.31,0.57c-0.05,0.2-0.08,0.59-0.08,1.19v1.17
		h-0.45V174.31z"/>
	<path d="M115.83,176.62l0.38,0.2c-0.12,0.24-0.26,0.44-0.43,0.58c-0.16,0.15-0.34,0.26-0.54,0.34s-0.43,0.12-0.68,0.12
		c-0.56,0-1-0.18-1.32-0.55s-0.48-0.79-0.48-1.25c0-0.44,0.13-0.83,0.4-1.17c0.34-0.44,0.8-0.65,1.37-0.65
		c0.59,0,1.06,0.22,1.41,0.67c0.25,0.32,0.38,0.71,0.38,1.18h-3.11c0.01,0.4,0.14,0.73,0.38,0.99c0.25,0.26,0.55,0.38,0.92,0.38
		c0.18,0,0.35-0.03,0.51-0.09c0.17-0.06,0.31-0.14,0.42-0.24C115.56,177.01,115.69,176.84,115.83,176.62z M115.83,175.69
		c-0.06-0.24-0.15-0.43-0.26-0.57s-0.26-0.26-0.45-0.34c-0.19-0.09-0.38-0.13-0.59-0.13c-0.34,0-0.63,0.11-0.87,0.33
		c-0.18,0.16-0.31,0.4-0.4,0.71H115.83z"/>
	<path d="M117.15,174.31h0.44v0.63c0.18-0.24,0.38-0.42,0.61-0.54c0.23-0.12,0.48-0.18,0.76-0.18c0.49,0,0.91,0.18,1.26,0.53
		s0.52,0.78,0.52,1.28c0,0.51-0.17,0.94-0.52,1.29s-0.76,0.53-1.25,0.53c-0.28,0-0.53-0.06-0.76-0.17
		c-0.23-0.12-0.44-0.29-0.62-0.51v1.86h-0.44V174.31z M118.93,174.65c-0.38,0-0.71,0.13-0.97,0.4c-0.26,0.27-0.39,0.6-0.39,1
		c0,0.26,0.06,0.5,0.18,0.71s0.29,0.38,0.5,0.5c0.22,0.12,0.45,0.18,0.69,0.18c0.24,0,0.46-0.06,0.67-0.19
		c0.21-0.12,0.38-0.3,0.5-0.52c0.12-0.22,0.19-0.45,0.19-0.7c0-0.25-0.06-0.48-0.19-0.7c-0.12-0.22-0.29-0.39-0.5-0.51
		C119.4,174.71,119.17,174.65,118.93,174.65z"/>
	<path d="M123.21,174.22c0.53,0,0.97,0.19,1.32,0.58c0.32,0.35,0.48,0.77,0.48,1.25c0,0.48-0.17,0.9-0.5,1.26
		c-0.34,0.36-0.77,0.54-1.3,0.54c-0.53,0-0.96-0.18-1.3-0.54c-0.34-0.36-0.5-0.78-0.5-1.26c0-0.48,0.16-0.89,0.48-1.24
		C122.24,174.41,122.68,174.22,123.21,174.22z M123.21,174.65c-0.37,0-0.69,0.14-0.95,0.41c-0.27,0.27-0.4,0.6-0.4,0.99
		c0,0.25,0.06,0.48,0.18,0.7c0.12,0.22,0.29,0.38,0.49,0.5c0.21,0.12,0.43,0.18,0.68,0.18c0.25,0,0.47-0.06,0.68-0.18
		c0.21-0.12,0.37-0.28,0.49-0.5c0.12-0.21,0.18-0.45,0.18-0.7c0-0.39-0.13-0.72-0.4-0.99C123.89,174.79,123.58,174.65,123.21,174.65
		z"/>
	<path d="M125.83,174.31h0.44v0.62c0.18-0.24,0.37-0.41,0.59-0.53c0.22-0.12,0.45-0.18,0.71-0.18c0.26,0,0.49,0.07,0.69,0.2
		c0.2,0.13,0.35,0.31,0.44,0.53c0.09,0.22,0.14,0.57,0.14,1.04v1.78h-0.44v-1.65c0-0.4-0.02-0.66-0.05-0.8
		c-0.05-0.23-0.15-0.4-0.3-0.52c-0.15-0.12-0.34-0.17-0.57-0.17c-0.27,0-0.51,0.09-0.72,0.27c-0.21,0.18-0.35,0.4-0.42,0.66
		c-0.04,0.17-0.06,0.48-0.06,0.94v1.27h-0.44V174.31z"/>
	<path d="M131.53,174.69l-0.29,0.29c-0.24-0.23-0.47-0.35-0.7-0.35c-0.14,0-0.27,0.05-0.37,0.14c-0.1,0.09-0.15,0.21-0.15,0.33
		c0,0.11,0.04,0.22,0.13,0.32c0.08,0.1,0.26,0.23,0.53,0.37c0.33,0.17,0.56,0.34,0.67,0.5c0.12,0.16,0.17,0.34,0.17,0.54
		c0,0.28-0.1,0.52-0.3,0.72c-0.2,0.2-0.45,0.29-0.75,0.29c-0.2,0-0.39-0.04-0.57-0.13c-0.18-0.09-0.33-0.21-0.45-0.36l0.28-0.32
		c0.23,0.26,0.47,0.38,0.72,0.38c0.18,0,0.33-0.06,0.46-0.17s0.19-0.25,0.19-0.4c0-0.13-0.04-0.24-0.12-0.34
		c-0.08-0.1-0.27-0.22-0.56-0.37c-0.31-0.16-0.52-0.32-0.64-0.48c-0.11-0.16-0.17-0.33-0.17-0.54c0-0.26,0.09-0.48,0.27-0.65
		c0.18-0.17,0.41-0.26,0.68-0.26C130.89,174.22,131.21,174.38,131.53,174.69z"/>
	<path d="M135.23,176.62l0.37,0.2c-0.12,0.24-0.26,0.44-0.43,0.58c-0.16,0.15-0.34,0.26-0.54,0.34s-0.43,0.12-0.68,0.12
		c-0.56,0-1-0.18-1.32-0.55c-0.32-0.37-0.48-0.79-0.48-1.25c0-0.44,0.13-0.83,0.4-1.17c0.34-0.44,0.8-0.65,1.37-0.65
		c0.59,0,1.06,0.22,1.41,0.67c0.25,0.32,0.38,0.71,0.38,1.18h-3.11c0.01,0.4,0.14,0.73,0.38,0.99c0.25,0.26,0.55,0.38,0.92,0.38
		c0.18,0,0.35-0.03,0.51-0.09c0.17-0.06,0.31-0.14,0.42-0.24C134.97,177.01,135.09,176.84,135.23,176.62z M135.23,175.69
		c-0.06-0.24-0.15-0.43-0.26-0.57c-0.11-0.14-0.26-0.26-0.45-0.34s-0.38-0.13-0.59-0.13c-0.34,0-0.63,0.11-0.87,0.33
		c-0.18,0.16-0.31,0.4-0.4,0.71H135.23z"/>
</g>
</svg>
