<?xml version="1.0" encoding="utf-8"?>
<!-- Generator: Adobe Illustrator 23.0.6, SVG Export Plug-In . SVG Version: 6.00 Build 0)  -->
<svg version="1.1" id="Calque_1" xmlns="http://www.w3.org/2000/svg" xmlns:xlink="http://www.w3.org/1999/xlink" x="0px" y="0px"
	 viewBox="0 0 198.43 198.43" style="enable-background:new 0 0 198.43 198.43;" xml:space="preserve">
<style type="text/css">
	.cardAnimation-whiteCard0-cahLogo_Q6JYL6D8Uq .st0{fill:#FFFFFF;}
	.cardAnimation-whiteCard0-cahLogo_Q6JYL6D8Uq .st1{fill:#F28B00;}
	.cardAnimation-whiteCard0-cahLogo_Q6JYL6D8Uq .st2{fill:#2F3838;}
	.cardAnimation-whiteCard0-cahLogo_Q6JYL6D8Uq .st3{fill:#A2ACAC;}
	.cardAnimation-whiteCard0-cahLogo_Q6JYL6D8Uq .st4{fill:#F29500;}
	.cardAnimation-whiteCard0-cahLogo_Q6JYL6D8Uq .st5{fill:#B71E17;}
	.cardAnimation-whiteCard0-cahLogo_Q6JYL6D8Uq .st6{fill:#CCA371;}
	.cardAnimation-whiteCard0-cahLogo_Q6JYL6D8Uq .st7{fill:none;}
	.cardAnimation-whiteCard0-cahLogo_Q6JYL6D8Uq .st8{enable-background:new    ;}
	.cardAnimation-whiteCard0-cahLogo_Q6JYL6D8Uq .st9{fill:#00A96B;}
	.cardAnimation-whiteCard0-cahLogo_Q6JYL6D8Uq .st10{fill-rule:evenodd;clip-rule:evenodd;fill:#1B9247;}
	.cardAnimation-whiteCard0-cahLogo_Q6JYL6D8Uq .st11{fill:#EE721D;}
</style>
<g>
	<g>
		<g>
			<path class="st0" d="M177.93,198.43H20.07c-11,0-19.91-8.91-19.91-19.91V19.91C0.16,8.91,9.08,0,20.07,0h157.86
				c11,0,19.91,8.91,19.91,19.91v158.6C197.84,189.51,188.93,198.43,177.93,198.43z"/>
			<g>
				<g>
					<path class="st1" d="M52.75,97.25c0.05-0.04,0.11-0.1,0.15-0.15c-0.07-0.05-0.1-0.06-0.18-0.04
						C52.64,97.1,52.71,97.18,52.75,97.25z"/>
					<path class="st1" d="M196.66,66.66c-0.07,0.06-0.17,0.15-0.24,0.22c0.11,0.07,0.14,0.1,0.27,0.06
						C196.83,66.9,196.73,66.78,196.66,66.66z"/>
					<path class="st2" d="M150.94,95.14c0.06-0.05,0.03-0.16-0.05-0.16c-0.11,0-0.14,0.05-0.16,0.16
						C150.71,95.25,150.86,95.21,150.94,95.14z"/>
					<path class="st1" d="M4.35,21.74c0.08,0,0.16-0.04,0.12-0.11c-0.04-0.08-0.1-0.05-0.18,0C4.24,21.66,4.29,21.74,4.35,21.74z"/>
					<path class="st1" d="M105.18,49.4c-0.01,0.05,0,0.11,0.05,0.1c0.06-0.01,0.05-0.06,0.03-0.11
						C105.25,49.34,105.19,49.36,105.18,49.4z"/>
					<path class="st1" d="M65.18,88.67c0.02,0.04,0.06,0.06,0.08,0.03c0.03-0.04,0-0.06-0.04-0.08
						C65.18,88.6,65.16,88.64,65.18,88.67z"/>
					<path class="st2" d="M187.76,37.52c0.18,0.17,0.36,0.39,0.54,0.56c-0.1-0.18-0.2-0.4-0.3-0.58
						C187.91,37.51,187.84,37.52,187.76,37.52z"/>
					<path class="st2" d="M185.37,16.72c-0.77-2.47-1.22-5.33-2-7.81c-0.03,2.13-0.28,4.67-0.31,6.79
						C183.87,16.05,184.57,16.38,185.37,16.72z"/>
					<path class="st3" d="M72.52,76.17L72.52,76.17L72.52,76.17z"/>
					<path class="st3" d="M156.68,17.04L156.68,17.04L156.68,17.04z"/>
					<path class="st3" d="M12.68,45.62v0.01V45.62z"/>
					<path class="st1" d="M24.25,24.52c-0.5-0.43-1.21-0.58-1.41,0.04c-0.2,0.65,0.43,0.74,1.11,0.84
						C24.5,25.49,24.61,24.84,24.25,24.52z"/>
					<path class="st1" d="M69.39,10.51c0,2.21,1.22,4.38,3.27,3.47c2.14-0.95,0.97-2.76-0.29-4.7C71.33,7.68,69.39,8.86,69.39,10.51
						z"/>
					<path class="st3" d="M178.85,38.64c-0.02-0.14-0.31-0.16-0.33-0.31c-0.82-1.69-1.31-3.54-2.12-5.22
						c-0.34-0.09-0.74,0.13-1.07,0.04c-0.06,0-0.3-0.21-0.3-0.15c0.27,2.47,0.05,2.54,0.97,4.85
						C176.55,39.27,177.35,38.34,178.85,38.64z"/>
					<path class="st3" d="M152.78,67.88c-0.02,0.01,0.02,0.06,0.04,0.05c0.15-0.03,0.15-0.03,0.29-0.09c0,0,0-0.04-0.01-0.04
						C152.94,67.79,152.93,67.82,152.78,67.88z"/>
					<path class="st4" d="M183.84,26.66c2.1-0.83,1.84-2.48,0.29-4.1c-1.22-1.28-2.31-0.33-3.08,1.25
						C180.05,25.89,181.82,27.47,183.84,26.66z"/>
					<path class="st4" d="M48.32,20.97c2.1-0.83,1.84-2.48,0.29-4.1c-1.22-1.28-2.31-0.33-3.08,1.25
						C44.52,20.2,46.3,21.77,48.32,20.97z"/>
					<path class="st5" d="M39.25,30.93c-0.05,0.04-0.05,0.06-0.01,0.11c0.11,0.1,0.11,0.12,0.26,0.13c0.06,0,0.01-0.05,0.01-0.12
						c0.01-0.11,0.08-0.13,0.01-0.21C39.44,30.71,39.37,30.84,39.25,30.93z"/>
					<path class="st3" d="M182.58,12.78c0.03,0.02,0.04,0.06,0.07,0.03c0.03-0.02-0.02-0.03-0.06-0.04
						C182.59,12.77,182.58,12.77,182.58,12.78z"/>
					<path class="st2" d="M109.33,95.45c0.06,0.03,0.07-0.05,0.11-0.1c0.01-0.01-0.01-0.01-0.02-0.01
						C109.35,95.37,109.27,95.42,109.33,95.45z"/>
					<path class="st2" d="M3.51,32.86c-0.09-0.07-0.12,0.04-0.21,0.1c-0.01,0.01,0.01,0.03,0.03,0.02
						C3.46,32.96,3.6,32.92,3.51,32.86z"/>
					<path class="st6" d="M163.86,93.97c0.11-0.04,0.11-0.04,0.21-0.1c0-0.02-0.01-0.07,0-0.09c-0.12,0.06-0.13,0.06-0.23,0.15
						C163.81,93.94,163.84,93.97,163.86,93.97z"/>
					<path class="st5" d="M-1.15,83.97c-0.02-0.09-0.05-0.2-0.07-0.29c-0.13,0.02-0.15,0.03-0.23,0.13
						C-1.35,83.86-1.24,83.92-1.15,83.97z"/>
					<path class="st5" d="M157.1,4.91c0.89-0.52,1.99-1.21,2.87-1.73c-0.66-1.25-0.89-1.45-2.25-1.88
						C157.54,2.45,157.27,3.76,157.1,4.91z"/>
					<path class="st3" d="M79.95,85.45c0.02-0.06,0.01-0.05,0-0.11c-0.01-0.04,0-0.05-0.04-0.06c-0.19-0.05-0.19-0.04-0.39-0.05
						l-0.04,0.02c0.03,0.07,0.09,0.13,0.12,0.2c0.09,0.03,0.16,0.06,0.25,0.09C79.92,85.54,79.92,85.52,79.95,85.45z"/>
					<path class="st6" d="M153.29,32.64c-0.08,0.05-0.17,0.11-0.25,0.16c-0.02,0.02-0.05,0.03-0.05,0.05
						c-0.01,0.09,0.03,0.09,0.06,0.18c0.06,0.04,0.11,0.07,0.17,0.11c0.08-0.11,0.19-0.2,0.27-0.31c0.02-0.06-0.02-0.07-0.04-0.12
						C153.41,32.64,153.38,32.64,153.29,32.64z"/>
					<path class="st6" d="M63.42,23.19c-0.07,0.01-0.16,0.02-0.23,0.03c-0.02,0-0.04,0-0.05,0.02c-0.04,0.06-0.01,0.07-0.02,0.14
						c0.03,0.05,0.05,0.08,0.08,0.14c0.09-0.05,0.2-0.08,0.29-0.13c0.03-0.04,0.01-0.05,0.01-0.1
						C63.5,23.22,63.48,23.21,63.42,23.19z"/>
					<path class="st6" d="M48.93,2.57c-0.63-0.36-0.67-0.27-1.39-0.36c0.05,0.38,0.09,0.67,0.14,1.05c0.78,0.33,0.83,0.24,1.68,0.25
						C49.21,3.2,49.08,2.88,48.93,2.57z"/>
					<path class="st6" d="M104.23,70.94c0.06,0.04,0.06,0.03,0.13,0.04c0-0.04,0-0.06-0.01-0.1c-0.07-0.03-0.08-0.03-0.15-0.03
						C104.21,70.88,104.22,70.91,104.23,70.94z"/>
					<path class="st6" d="M171.48,59.14c0.02,0.02,0.02,0.02,0.05,0.02c0-0.01,0-0.03,0-0.04c-0.03-0.02-0.03-0.02-0.06-0.02
						C171.48,59.11,171.48,59.13,171.48,59.14z"/>
					<path class="st5" d="M99.88,4.55c0.94,1.64,1.92,0.8,3.77,1.27c-0.14-0.24-0.11-0.95-0.25-1.19
						C101.53,3.8,99.08,3.16,99.88,4.55z"/>
					<path class="st6" d="M149.91,15.24c0.06-0.76,0.14-1.09-0.64-1.15c-1.49,1.26-2.74,2.31-4.22,3.57
						c0.89,0.49,1.51,0.77,2.4,1.26C148.24,17.66,149.12,16.52,149.91,15.24z"/>
					<path class="st6" d="M23.56,35.8c0.27-0.3,0.41-0.41,0.11-0.67c-1.02,0.06-1.88,0.1-2.9,0.15c0.21,0.48,0.37,0.79,0.58,1.27
						C22.09,36.27,22.83,36.08,23.56,35.8z"/>
					<path class="st1" d="M174.03,84.6c0.09-0.03,0.21-0.06,0.31-0.09c-0.03-0.08-0.09-0.04-0.17-0.08c-0.1-0.05-0.09-0.09-0.2-0.08
						C173.99,84.43,174.01,84.52,174.03,84.6z"/>
					<path class="st1" d="M184.22,24.5c0.14,0.04,0.33,0.09,0.48,0.14c0.03-0.13-0.08-0.13-0.15-0.25
						c-0.08-0.15-0.04-0.19-0.19-0.28C184.31,24.24,184.26,24.37,184.22,24.5z"/>
					<path class="st2" d="M5.28,72.51c0-0.04-0.01-0.07-0.01-0.11c-0.04,0.04-0.05,0.04-0.06,0.1C5.2,72.53,5.24,72.52,5.28,72.51z"
						/>
					<path class="st2" d="M84.48,29.84c0.03-0.04,0.07-0.08,0.1-0.12c-0.08,0-0.09-0.01-0.16,0.04
						C84.38,29.79,84.44,29.82,84.48,29.84z"/>
					<path class="st2" d="M14.41,79.52c-0.06,0.09-0.13,0.16-0.19,0.25c0.17,0,0.18,0.01,0.31-0.09
						C14.63,79.61,14.51,79.56,14.41,79.52z"/>
					<path class="st5" d="M3.06,1.37C3.23,1.32,3.3,1.38,3.39,1.23c0.08-0.12-0.15,0-0.3,0.03C3.08,1.28,3.08,1.34,3.06,1.37z"/>
					<path class="st5" d="M170.38,19.74c-0.95,2.33-2.23,2.52-1.36,4.88c0.72,1.96,1.41-1.65,2.32-3.54
						C171.2,20.72,170.52,20.12,170.38,19.74z"/>
					<path class="st5" d="M93.84,62.9c-0.04-0.12,0-0.16-0.11-0.22c-0.09-0.05,0,0.11,0.03,0.2C93.78,62.89,93.83,62.89,93.84,62.9z
						"/>
					<path class="st6" d="M122.84,35.29c-0.06,0-0.1-0.02-0.16-0.02c0.04,0.14,0.09,0.26,0.13,0.4c0.09,0.05,0.1,0.04,0.2,0.03
						c0.02,0,0.04-0.03,0.03-0.05C122.98,35.46,122.94,35.47,122.84,35.29z"/>
					<path class="st6" d="M196.38,20.86c0.06-0.06,0.11-0.09,0.17-0.15c-0.19-0.08-0.38-0.14-0.57-0.23
						c-0.15,0.05-0.14,0.07-0.23,0.19c-0.02,0.02,0,0.07,0.03,0.08C196.06,20.86,196.08,20.81,196.38,20.86z"/>
					<path class="st6" d="M72.63,3.18c0.24,0.11,0.22,0.19,0.48,0.24c0.01-0.14,0.03-0.31,0.05-0.44C73,3.03,72.83,3.04,72.67,3.09
						c-0.02,0.01-0.02,0.06-0.03,0.07C72.63,3.17,72.62,3.18,72.63,3.18z"/>
					<path class="st5" d="M18.26,11.77c-0.23,1.92-0.92,2.14-0.02,3.87c0.44,0.85,2.17,1.4,2.28,0.45c0.3-2.52-0.99-2.47-1.92-4.83
						C18.44,10.83,18.32,11.25,18.26,11.77z"/>
					<path class="st6" d="M176.94,35.11L176.94,35.11c0.01,0.02,0,0.03,0.02,0.03c0.01-0.02,0.02-0.04,0.02-0.05
						C176.97,35.08,176.97,35.1,176.94,35.11z"/>
					<path class="st6" d="M164.25,35.42C164.25,35.42,164.24,35.42,164.25,35.42C164.24,35.42,164.24,35.42,164.25,35.42
						c0,0.01,0.01,0.01,0.02,0.02C164.26,35.43,164.25,35.43,164.25,35.42z"/>
					<path class="st5" d="M114.68,1.31c0-0.01,0-0.02,0-0.03c-0.11-0.01-0.11-0.02-0.21,0c-0.03,0-0.01,0.05,0.01,0.06
						c0.08,0.03,0.09,0.03,0.18,0.04C114.68,1.38,114.67,1.34,114.68,1.31z"/>
					<path class="st5" d="M29.98,8.05c0.1,0.06,0.28,0.3,0.38,0.36c1.51-1.07,1.69-0.95,2.86-2.38c0.28-0.35-0.4-0.73-0.83-0.59
						c-1.51,0.47-1.6,0.55-2.84,1.52C29.15,7.26,29.81,7.58,29.98,8.05z"/>
					<path class="st2" d="M73.94,16.61c0.03,0.05,0.05,0.1,0.08,0.15c0.03,0.01,0.05,0.01,0.06-0.02
						C74.03,16.7,73.99,16.65,73.94,16.61z"/>
					<path class="st2" d="M-2.04,65.76c0.11-0.03,0.12-0.03,0.22-0.09c0.03-0.05,0.06-0.13,0.09-0.18c0-0.03-0.02,0-0.04,0.01
						c-0.35,0.1-0.35,0.08-0.69,0.2l0.02-0.04c0.05,0.03,0.08,0.08,0.13,0.11C-2.18,65.81-2.18,65.8-2.04,65.76z"/>
					<path class="st3" d="M88.6,2.87c-0.28-0.37-0.32-0.54-0.79-0.47c-0.36,0.05-0.35,0.29-0.3,0.64
						C87.85,2.99,88.26,2.92,88.6,2.87z"/>
					<path class="st3" d="M124.15,5.66c0.74,0.96,0.88,1.39,2.08,1.19c0.94-0.16,0.91-0.77,0.76-1.7
						C126.1,5.31,125.04,5.52,124.15,5.66z"/>
					<path class="st3" d="M145.05,22.6c-0.04-0.31-0.02-0.43-0.32-0.54c-0.23-0.08-0.31,0.06-0.4,0.29
						C144.55,22.43,144.82,22.52,145.05,22.6z"/>
					<path class="st1" d="M197.44,36.55c-0.01,0.05-0.02,0.1-0.02,0.16c0.01,0.01,0.02-0.01,0.03-0.01
						c0.01-0.03,0.02-0.05,0.04-0.08C197.49,36.57,197.48,36.56,197.44,36.55z"/>
					<path class="st6" d="M19.56,0.61c-0.25,0.1-0.64,0.32-0.9,0.43c-0.08,0.95-0.7,1.4,0.19,1.78c1.09,0.47,1.4,0.13,2.18-0.75
						C21.7,1.32,20.38,1.17,19.56,0.61z"/>
					<path class="st2" d="M2.94,11.28c0.27-0.23,0.52-0.43,0.8-0.67c0.03-0.38,0.05-0.4-0.18-0.7c-0.4,0-0.73-0.04-1.12-0.06
						c0.15,0.49,0.22,1,0.37,1.49C2.82,11.38,2.9,11.31,2.94,11.28z"/>
					<path class="st6" d="M60.9,8.02c-0.02,0.12-0.02,0.24-0.04,0.35c0.02,0.01,0.03,0.03,0.06,0.04c0.02-0.19,0.01-0.19,0.01-0.38
						C60.92,8.02,60.91,8.01,60.9,8.02z"/>
					<path class="st6" d="M195.5,49.82c0.03,0.14,0.09,0.27,0.12,0.41c0.03,0,0.05,0.01,0.08,0.02c-0.06-0.22-0.08-0.21-0.17-0.42
						C195.52,49.8,195.5,49.8,195.5,49.82z"/>
					<path class="st5" d="M143.78,3.05c-0.01-0.02,0-0.04-0.03-0.04C143.72,3,143.69,3,143.69,3.03c0,0.04,0.02,0.04,0.06,0.07
						C143.77,3.08,143.78,3.06,143.78,3.05z"/>
					<path class="st6" d="M136.21,83.41c-0.08-0.01-0.15-0.02-0.23-0.03c-0.04,0.07-0.07,0.14-0.11,0.21c0.01,0.04,0,0.04,0.05,0.04
						c0.1,0,0.1,0.02,0.18-0.04c0.08-0.06,0.07-0.07,0.12-0.16C136.23,83.42,136.21,83.41,136.21,83.41z"/>
				</g>
			</g>
		</g>
	</g>
	<rect x="36.24" y="61.56" class="st7" width="126.96" height="21.93"/>
	<g class="st8">
		<path d="M47.46,62.98l-0.94,0.9c-0.64-0.68-1.36-1.02-2.17-1.02c-0.68,0-1.25,0.23-1.71,0.69c-0.46,0.46-0.7,1.03-0.7,1.71
			c0,0.47,0.1,0.89,0.31,1.26c0.21,0.37,0.5,0.65,0.87,0.86s0.79,0.31,1.25,0.31c0.39,0,0.75-0.07,1.07-0.22
			c0.32-0.15,0.68-0.41,1.07-0.8l0.91,0.95c-0.52,0.51-1.02,0.87-1.48,1.06c-0.47,0.2-1,0.3-1.59,0.3c-1.1,0-2-0.35-2.71-1.05
			c-0.7-0.7-1.05-1.59-1.05-2.69c0-0.71,0.16-1.33,0.48-1.88c0.32-0.55,0.78-0.99,1.37-1.33s1.24-0.5,1.92-0.5
			c0.58,0,1.15,0.12,1.69,0.37C46.61,62.17,47.07,62.52,47.46,62.98z"/>
		<path d="M52.37,63.58h1.31v5.24h-1.31v-0.55c-0.26,0.24-0.51,0.42-0.77,0.53s-0.54,0.16-0.84,0.16c-0.68,0-1.26-0.26-1.76-0.79
			c-0.49-0.53-0.74-1.18-0.74-1.96c0-0.81,0.24-1.47,0.72-1.99c0.48-0.52,1.06-0.78,1.74-0.78c0.31,0,0.61,0.06,0.89,0.18
			c0.28,0.12,0.53,0.3,0.77,0.54V63.58z M50.99,64.66c-0.41,0-0.74,0.14-1.01,0.43c-0.27,0.29-0.4,0.66-0.4,1.11
			c0,0.45,0.14,0.83,0.41,1.12c0.27,0.29,0.61,0.44,1.01,0.44c0.41,0,0.76-0.14,1.03-0.43c0.27-0.29,0.41-0.66,0.41-1.13
			c0-0.46-0.14-0.83-0.41-1.11S51.4,64.66,50.99,64.66z"/>
		<path d="M54.7,63.58h1.13v0.66c0.12-0.26,0.28-0.46,0.49-0.59c0.2-0.13,0.42-0.2,0.67-0.2c0.17,0,0.35,0.04,0.53,0.13l-0.41,1.13
			c-0.15-0.08-0.28-0.12-0.38-0.12c-0.2,0-0.37,0.12-0.51,0.38c-0.14,0.25-0.21,0.74-0.21,1.47l0,0.26v2.12H54.7V63.58z"/>
		<path d="M60.78,61.56h1.31v7.26h-1.31V61.56z"/>
		<path d="M67.16,63.58h1.31v5.24h-1.31v-0.55c-0.26,0.24-0.51,0.42-0.77,0.53s-0.54,0.16-0.84,0.16c-0.68,0-1.26-0.26-1.76-0.79
			c-0.49-0.53-0.74-1.18-0.74-1.96c0-0.81,0.24-1.47,0.72-1.99c0.48-0.52,1.06-0.78,1.74-0.78c0.31,0,0.61,0.06,0.89,0.18
			c0.28,0.12,0.53,0.3,0.77,0.54V63.58z M65.64,60.73l1.15,1.89h-0.94l-1.76-1.89H65.64z M65.78,64.66c-0.41,0-0.74,0.14-1.01,0.43
			c-0.27,0.29-0.4,0.66-0.4,1.11c0,0.45,0.14,0.83,0.41,1.12c0.27,0.29,0.61,0.44,1.01,0.44c0.41,0,0.76-0.14,1.03-0.43
			c0.27-0.29,0.41-0.66,0.41-1.13c0-0.46-0.14-0.83-0.41-1.11S66.2,64.66,65.78,64.66z"/>
		<path d="M75.03,63.44c0.49,0,0.96,0.12,1.39,0.37c0.44,0.25,0.77,0.58,1.02,1.01s0.37,0.88,0.37,1.37c0,0.49-0.12,0.96-0.37,1.39
			c-0.25,0.43-0.58,0.77-1,1.01c-0.42,0.24-0.89,0.36-1.4,0.36c-0.75,0-1.39-0.27-1.92-0.8c-0.53-0.54-0.8-1.18-0.8-1.95
			c0-0.82,0.3-1.5,0.9-2.05C73.74,63.68,74.34,63.44,75.03,63.44z M75.05,64.68c-0.41,0-0.75,0.14-1.02,0.43s-0.41,0.65-0.41,1.09
			c0,0.46,0.13,0.83,0.4,1.11s0.61,0.42,1.02,0.42c0.41,0,0.75-0.14,1.03-0.43s0.41-0.65,0.41-1.1c0-0.45-0.13-0.81-0.4-1.1
			S75.47,64.68,75.05,64.68z"/>
		<path d="M78.88,63.58h1.33v2.52c0,0.49,0.03,0.83,0.1,1.02c0.07,0.19,0.18,0.34,0.33,0.45c0.15,0.11,0.33,0.16,0.55,0.16
			c0.22,0,0.4-0.05,0.56-0.16c0.15-0.1,0.27-0.26,0.34-0.46c0.05-0.15,0.08-0.47,0.08-0.97v-2.57h1.31v2.22
			c0,0.92-0.07,1.54-0.22,1.88c-0.18,0.41-0.44,0.73-0.78,0.95s-0.78,0.33-1.31,0.33c-0.58,0-1.04-0.13-1.4-0.39
			c-0.35-0.26-0.6-0.61-0.75-1.07c-0.1-0.32-0.15-0.9-0.15-1.73V63.58z M80.96,60.73l1.15,1.89h-0.94l-1.76-1.89H80.96z"/>
		<path d="M92.81,66.58h-4.22c0.06,0.37,0.22,0.67,0.49,0.89c0.27,0.22,0.6,0.33,1.01,0.33c0.49,0,0.91-0.17,1.27-0.52l1.11,0.52
			c-0.28,0.39-0.61,0.68-0.99,0.87c-0.39,0.19-0.84,0.28-1.37,0.28c-0.82,0-1.49-0.26-2.01-0.78c-0.52-0.52-0.78-1.17-0.78-1.95
			c0-0.8,0.26-1.46,0.77-1.99c0.52-0.53,1.16-0.79,1.94-0.79c0.83,0,1.5,0.26,2.01,0.79c0.52,0.53,0.78,1.23,0.78,2.09L92.81,66.58z
			 M91.5,65.54c-0.09-0.29-0.26-0.53-0.51-0.71c-0.26-0.18-0.55-0.28-0.89-0.28c-0.37,0-0.69,0.1-0.96,0.31
			c-0.17,0.13-0.33,0.35-0.48,0.68H91.5z"/>
		<path d="M97.09,64.31l-0.81,0.81c-0.33-0.33-0.63-0.49-0.9-0.49c-0.15,0-0.26,0.03-0.35,0.09c-0.08,0.06-0.13,0.14-0.13,0.23
			c0,0.07,0.03,0.14,0.08,0.19c0.05,0.06,0.18,0.14,0.39,0.24l0.48,0.24c0.51,0.25,0.86,0.51,1.04,0.77
			c0.19,0.26,0.28,0.56,0.28,0.92c0,0.47-0.17,0.85-0.51,1.17c-0.34,0.31-0.8,0.47-1.38,0.47c-0.76,0-1.37-0.3-1.83-0.9l0.81-0.88
			c0.15,0.18,0.33,0.33,0.54,0.44c0.21,0.11,0.39,0.17,0.55,0.17c0.17,0,0.31-0.04,0.42-0.12c0.11-0.08,0.16-0.18,0.16-0.29
			c0-0.2-0.19-0.4-0.57-0.59l-0.44-0.22c-0.85-0.43-1.27-0.96-1.27-1.6c0-0.41,0.16-0.77,0.48-1.06c0.32-0.29,0.73-0.44,1.23-0.44
			c0.34,0,0.66,0.07,0.96,0.22S96.88,64.03,97.09,64.31z"/>
		<path d="M98.38,61.65h1.31v1.93h0.78v1.13h-0.78v4.11h-1.31v-4.11H97.7v-1.13h0.67V61.65z"/>
		<path d="M103.38,63.58h1.34l1.32,3.09l1.32-3.09h1.33l-2.23,5.24h-0.85L103.38,63.58z"/>
		<path d="M111.92,63.44c0.49,0,0.96,0.12,1.39,0.37c0.43,0.25,0.77,0.58,1.02,1.01s0.37,0.88,0.37,1.37c0,0.49-0.12,0.96-0.37,1.39
			c-0.25,0.43-0.58,0.77-1,1.01c-0.42,0.24-0.89,0.36-1.4,0.36c-0.75,0-1.39-0.27-1.92-0.8c-0.53-0.54-0.8-1.18-0.8-1.95
			c0-0.82,0.3-1.5,0.9-2.05C110.63,63.68,111.24,63.44,111.92,63.44z M111.95,64.68c-0.41,0-0.75,0.14-1.02,0.43
			c-0.27,0.28-0.41,0.65-0.41,1.09c0,0.46,0.13,0.83,0.4,1.11s0.61,0.42,1.02,0.42s0.75-0.14,1.03-0.43s0.41-0.65,0.41-1.1
			c0-0.45-0.13-0.81-0.4-1.1S112.36,64.68,111.95,64.68z"/>
		<path d="M115.94,61.65h1.31v1.93h0.78v1.13h-0.78v4.11h-1.31v-4.11h-0.67v-1.13h0.67V61.65z"/>
		<path d="M118.43,63.58h1.13v0.66c0.12-0.26,0.28-0.46,0.49-0.59s0.42-0.2,0.67-0.2c0.17,0,0.35,0.04,0.53,0.13l-0.41,1.13
			c-0.15-0.08-0.28-0.12-0.38-0.12c-0.2,0-0.37,0.12-0.51,0.38c-0.14,0.25-0.21,0.74-0.21,1.47l0,0.26v2.12h-1.31V63.58z"/>
		<path d="M127.14,66.58h-4.22c0.06,0.37,0.22,0.67,0.49,0.89c0.27,0.22,0.6,0.33,1.01,0.33c0.49,0,0.91-0.17,1.27-0.52l1.11,0.52
			c-0.28,0.39-0.61,0.68-0.99,0.87c-0.39,0.19-0.84,0.28-1.37,0.28c-0.82,0-1.49-0.26-2.01-0.78c-0.52-0.52-0.78-1.17-0.78-1.95
			c0-0.8,0.26-1.46,0.77-1.99c0.52-0.53,1.16-0.79,1.94-0.79c0.83,0,1.5,0.26,2.01,0.79c0.52,0.53,0.78,1.23,0.78,2.09L127.14,66.58
			z M125.83,65.54c-0.09-0.29-0.26-0.53-0.51-0.71c-0.26-0.18-0.55-0.28-0.89-0.28c-0.37,0-0.69,0.1-0.96,0.31
			c-0.17,0.13-0.33,0.35-0.48,0.68H125.83z"/>
		<path d="M131.13,61.65h1.32v1.93h0.78v1.13h-0.78v4.11h-1.32v-4.11h-0.67v-1.13h0.67V61.65z"/>
		<path d="M133.62,63.58h1.13v0.66c0.12-0.26,0.28-0.46,0.49-0.59c0.2-0.13,0.42-0.2,0.67-0.2c0.17,0,0.35,0.04,0.54,0.13
			l-0.41,1.13c-0.15-0.08-0.28-0.12-0.38-0.12c-0.2,0-0.37,0.12-0.51,0.38c-0.14,0.25-0.21,0.74-0.21,1.47l0,0.26v2.12h-1.31V63.58z
			"/>
		<path d="M142.33,66.58h-4.23c0.06,0.37,0.22,0.67,0.49,0.89c0.26,0.22,0.6,0.33,1.01,0.33c0.49,0,0.91-0.17,1.27-0.52l1.11,0.52
			c-0.28,0.39-0.61,0.68-0.99,0.87c-0.38,0.19-0.84,0.28-1.37,0.28c-0.82,0-1.49-0.26-2.01-0.78c-0.52-0.52-0.78-1.17-0.78-1.95
			c0-0.8,0.26-1.46,0.77-1.99c0.51-0.53,1.16-0.79,1.94-0.79c0.83,0,1.5,0.26,2.01,0.79c0.52,0.53,0.78,1.23,0.78,2.09L142.33,66.58
			z M141.02,65.54c-0.09-0.29-0.26-0.53-0.51-0.71c-0.26-0.18-0.55-0.28-0.89-0.28c-0.37,0-0.69,0.1-0.96,0.31
			c-0.17,0.13-0.33,0.35-0.48,0.68H141.02z M139.79,60.73h1.56l-1.76,1.89h-0.94L139.79,60.73z"/>
		<path d="M146.6,64.31l-0.81,0.81c-0.33-0.33-0.63-0.49-0.9-0.49c-0.15,0-0.26,0.03-0.35,0.09c-0.08,0.06-0.12,0.14-0.12,0.23
			c0,0.07,0.03,0.14,0.08,0.19c0.05,0.06,0.18,0.14,0.39,0.24l0.48,0.24c0.51,0.25,0.86,0.51,1.05,0.77
			c0.19,0.26,0.28,0.56,0.28,0.92c0,0.47-0.17,0.85-0.51,1.17c-0.34,0.31-0.8,0.47-1.38,0.47c-0.76,0-1.38-0.3-1.83-0.9l0.81-0.88
			c0.15,0.18,0.33,0.33,0.54,0.44c0.21,0.11,0.39,0.17,0.55,0.17c0.17,0,0.31-0.04,0.42-0.12c0.11-0.08,0.16-0.18,0.16-0.29
			c0-0.2-0.19-0.4-0.57-0.59l-0.44-0.22c-0.85-0.43-1.27-0.96-1.27-1.6c0-0.41,0.16-0.77,0.48-1.06c0.32-0.29,0.73-0.44,1.23-0.44
			c0.34,0,0.66,0.07,0.96,0.22C146.14,63.82,146.4,64.03,146.6,64.31z"/>
		<path d="M150.2,63.44c0.5,0,0.96,0.12,1.4,0.37c0.43,0.25,0.77,0.58,1.02,1.01s0.37,0.88,0.37,1.37c0,0.49-0.12,0.96-0.37,1.39
			c-0.25,0.43-0.58,0.77-1,1.01c-0.42,0.24-0.89,0.36-1.4,0.36c-0.75,0-1.39-0.27-1.92-0.8c-0.53-0.54-0.8-1.18-0.8-1.95
			c0-0.82,0.3-1.5,0.9-2.05C148.91,63.68,149.51,63.44,150.2,63.44z M150.22,64.68c-0.41,0-0.75,0.14-1.02,0.43
			c-0.27,0.28-0.41,0.65-0.41,1.09c0,0.46,0.13,0.83,0.4,1.11s0.61,0.42,1.02,0.42c0.41,0,0.75-0.14,1.03-0.43s0.41-0.65,0.41-1.1
			c0-0.45-0.13-0.81-0.4-1.1S150.64,64.68,150.22,64.68z"/>
		<path d="M153.74,63.58h1.13v0.66c0.12-0.26,0.28-0.46,0.49-0.59c0.2-0.13,0.42-0.2,0.66-0.2c0.17,0,0.35,0.04,0.54,0.13
			l-0.41,1.13c-0.15-0.08-0.28-0.12-0.38-0.12c-0.2,0-0.37,0.12-0.51,0.38c-0.14,0.25-0.21,0.74-0.21,1.47l0,0.26v2.12h-1.31V63.58z
			"/>
		<path d="M157.84,67.49l0.94,0.47l-1.19,2.03l-0.65-0.31L157.84,67.49z"/>
	</g>
	<g class="st8">
		<path d="M55.46,73.39h1.31v7.26h-1.31V73.39z"/>
		<path d="M61.84,75.42h1.31v5.24h-1.31v-0.55c-0.26,0.24-0.51,0.42-0.77,0.53s-0.54,0.16-0.84,0.16c-0.68,0-1.26-0.26-1.76-0.79
			c-0.49-0.53-0.74-1.18-0.74-1.96c0-0.81,0.24-1.47,0.72-1.99c0.48-0.52,1.06-0.78,1.74-0.78c0.31,0,0.61,0.06,0.89,0.18
			c0.28,0.12,0.53,0.3,0.77,0.54V75.42z M60.32,72.57l1.15,1.89h-0.94l-1.76-1.89H60.32z M60.46,76.5c-0.41,0-0.74,0.14-1.01,0.43
			c-0.27,0.29-0.4,0.66-0.4,1.11c0,0.45,0.14,0.83,0.41,1.12c0.27,0.29,0.61,0.44,1.01,0.44c0.41,0,0.76-0.14,1.03-0.43
			c0.27-0.29,0.41-0.66,0.41-1.13c0-0.46-0.14-0.83-0.41-1.11S60.87,76.5,60.46,76.5z"/>
		<path d="M71.11,75.42h1.31v5.24h-1.31v-0.55c-0.26,0.24-0.51,0.42-0.77,0.53s-0.54,0.16-0.84,0.16c-0.68,0-1.26-0.26-1.76-0.79
			C67.25,79.48,67,78.83,67,78.05c0-0.81,0.24-1.47,0.72-1.99c0.48-0.52,1.06-0.78,1.74-0.78c0.31,0,0.61,0.06,0.89,0.18
			c0.28,0.12,0.53,0.3,0.77,0.54V75.42z M69.73,76.5c-0.41,0-0.74,0.14-1.01,0.43c-0.27,0.29-0.4,0.66-0.4,1.11
			c0,0.45,0.14,0.83,0.41,1.12c0.27,0.29,0.61,0.44,1.01,0.44c0.41,0,0.76-0.14,1.03-0.43c0.27-0.29,0.41-0.66,0.41-1.13
			c0-0.46-0.14-0.83-0.41-1.11S70.15,76.5,69.73,76.5z"/>
		<path d="M73.75,75.42h1.33v2.52c0,0.49,0.03,0.83,0.1,1.02c0.07,0.19,0.18,0.34,0.33,0.45c0.15,0.11,0.33,0.16,0.55,0.16
			c0.22,0,0.4-0.05,0.56-0.16c0.15-0.1,0.27-0.26,0.34-0.46c0.05-0.15,0.08-0.47,0.08-0.97v-2.57h1.31v2.22
			c0,0.92-0.07,1.54-0.22,1.88c-0.18,0.41-0.44,0.73-0.78,0.95s-0.78,0.33-1.31,0.33c-0.58,0-1.04-0.13-1.4-0.39
			c-0.35-0.26-0.6-0.61-0.75-1.07c-0.1-0.32-0.15-0.9-0.15-1.73V75.42z"/>
		<path d="M82.89,76.15l-0.81,0.81c-0.33-0.33-0.63-0.49-0.9-0.49c-0.15,0-0.26,0.03-0.35,0.09c-0.08,0.06-0.13,0.14-0.13,0.23
			c0,0.07,0.03,0.14,0.08,0.19c0.05,0.06,0.18,0.14,0.39,0.24l0.48,0.24c0.51,0.25,0.86,0.51,1.04,0.77
			c0.19,0.26,0.28,0.56,0.28,0.92c0,0.47-0.17,0.85-0.51,1.17c-0.34,0.31-0.8,0.47-1.38,0.47c-0.76,0-1.37-0.3-1.83-0.9l0.81-0.88
			c0.15,0.18,0.33,0.33,0.54,0.44c0.21,0.11,0.39,0.17,0.55,0.17c0.17,0,0.31-0.04,0.42-0.12c0.11-0.08,0.16-0.18,0.16-0.29
			c0-0.2-0.19-0.4-0.57-0.59l-0.44-0.22c-0.85-0.43-1.27-0.96-1.27-1.6c0-0.41,0.16-0.77,0.48-1.06c0.32-0.29,0.73-0.44,1.23-0.44
			c0.34,0,0.66,0.07,0.96,0.22S82.68,75.87,82.89,76.15z"/>
		<path d="M87.23,76.15l-0.81,0.81c-0.33-0.33-0.63-0.49-0.9-0.49c-0.15,0-0.26,0.03-0.35,0.09c-0.08,0.06-0.13,0.14-0.13,0.23
			c0,0.07,0.03,0.14,0.08,0.19c0.05,0.06,0.18,0.14,0.39,0.24l0.48,0.24c0.51,0.25,0.86,0.51,1.04,0.77
			c0.19,0.26,0.28,0.56,0.28,0.92c0,0.47-0.17,0.85-0.51,1.17c-0.34,0.31-0.8,0.47-1.38,0.47c-0.76,0-1.37-0.3-1.83-0.9l0.81-0.88
			c0.15,0.18,0.33,0.33,0.54,0.44c0.21,0.11,0.39,0.17,0.55,0.17c0.17,0,0.31-0.04,0.42-0.12c0.11-0.08,0.16-0.18,0.16-0.29
			c0-0.2-0.19-0.4-0.57-0.59l-0.44-0.22c-0.85-0.43-1.27-0.96-1.27-1.6c0-0.41,0.16-0.77,0.48-1.06c0.32-0.29,0.73-0.44,1.23-0.44
			c0.34,0,0.66,0.07,0.96,0.22S87.02,75.87,87.23,76.15z"/>
		<path d="M88.87,73.26c0.23,0,0.43,0.08,0.59,0.25s0.25,0.37,0.25,0.61c0,0.23-0.08,0.43-0.25,0.6c-0.16,0.17-0.36,0.25-0.59,0.25
			c-0.23,0-0.43-0.08-0.6-0.25c-0.17-0.17-0.25-0.37-0.25-0.61c0-0.23,0.08-0.43,0.25-0.59C88.44,73.34,88.64,73.26,88.87,73.26z
			 M88.21,75.42h1.31v5.24h-1.31V75.42z"/>
		<path d="M98.74,78.42h-4.22c0.06,0.37,0.22,0.67,0.49,0.89c0.27,0.22,0.6,0.33,1.01,0.33c0.49,0,0.91-0.17,1.27-0.52l1.11,0.52
			c-0.28,0.39-0.61,0.68-0.99,0.87c-0.39,0.19-0.84,0.28-1.37,0.28c-0.82,0-1.49-0.26-2.01-0.78c-0.52-0.52-0.78-1.17-0.78-1.95
			c0-0.8,0.26-1.46,0.77-1.99c0.52-0.53,1.16-0.79,1.94-0.79c0.83,0,1.5,0.26,2.01,0.79s0.78,1.23,0.78,2.09L98.74,78.42z
			 M97.42,77.38c-0.09-0.29-0.26-0.53-0.51-0.71c-0.26-0.18-0.55-0.28-0.89-0.28c-0.37,0-0.69,0.1-0.96,0.31
			c-0.17,0.13-0.33,0.35-0.48,0.68H97.42z"/>
		<path d="M103.01,76.15l-0.81,0.81c-0.33-0.33-0.63-0.49-0.9-0.49c-0.15,0-0.26,0.03-0.35,0.09c-0.08,0.06-0.13,0.14-0.13,0.23
			c0,0.07,0.03,0.14,0.08,0.19c0.05,0.06,0.18,0.14,0.39,0.24l0.48,0.24c0.51,0.25,0.86,0.51,1.04,0.77
			c0.19,0.26,0.29,0.56,0.29,0.92c0,0.47-0.17,0.85-0.51,1.17s-0.8,0.47-1.38,0.47c-0.76,0-1.37-0.3-1.83-0.9l0.81-0.88
			c0.15,0.18,0.33,0.33,0.54,0.44c0.21,0.11,0.39,0.17,0.55,0.17c0.17,0,0.31-0.04,0.42-0.12c0.11-0.08,0.16-0.18,0.16-0.29
			c0-0.2-0.19-0.4-0.57-0.59l-0.44-0.22c-0.85-0.43-1.27-0.96-1.27-1.6c0-0.41,0.16-0.77,0.48-1.06c0.32-0.29,0.73-0.44,1.23-0.44
			c0.34,0,0.66,0.07,0.96,0.22C102.54,75.66,102.8,75.87,103.01,76.15z"/>
		<path d="M104.3,73.49h1.31v1.93h0.78v1.13h-0.78v4.11h-1.31v-4.11h-0.67v-1.13h0.67V73.49z"/>
		<path d="M109.3,75.42h1.34l1.32,3.09l1.32-3.09h1.33l-2.23,5.24h-0.85L109.3,75.42z"/>
		<path d="M117.85,75.28c0.5,0,0.96,0.12,1.39,0.37c0.44,0.25,0.78,0.58,1.02,1.01s0.37,0.88,0.37,1.37c0,0.49-0.12,0.96-0.37,1.39
			c-0.25,0.43-0.58,0.77-1,1.01c-0.42,0.24-0.89,0.36-1.4,0.36c-0.75,0-1.39-0.27-1.92-0.8c-0.53-0.54-0.8-1.18-0.8-1.95
			c0-0.82,0.3-1.5,0.9-2.05C116.56,75.52,117.16,75.28,117.85,75.28z M117.87,76.52c-0.41,0-0.75,0.14-1.02,0.43
			c-0.27,0.28-0.41,0.65-0.41,1.09c0,0.46,0.13,0.83,0.4,1.11s0.61,0.42,1.02,0.42c0.41,0,0.75-0.14,1.03-0.43s0.41-0.65,0.41-1.1
			c0-0.45-0.13-0.81-0.4-1.1S118.29,76.52,117.87,76.52z"/>
		<path d="M121.86,73.49h1.32v1.93h0.78v1.13h-0.78v4.11h-1.32v-4.11h-0.67v-1.13h0.67V73.49z"/>
		<path d="M124.35,75.42h1.13v0.66c0.12-0.26,0.28-0.46,0.49-0.59c0.2-0.13,0.42-0.2,0.67-0.2c0.17,0,0.35,0.04,0.54,0.13
			l-0.41,1.13c-0.15-0.08-0.28-0.12-0.38-0.12c-0.2,0-0.37,0.12-0.51,0.38c-0.14,0.25-0.21,0.74-0.21,1.47l0,0.26v2.12h-1.31V75.42z
			"/>
		<path d="M133.06,78.42h-4.22c0.06,0.37,0.22,0.67,0.49,0.89c0.26,0.22,0.6,0.33,1.01,0.33c0.49,0,0.91-0.17,1.27-0.52l1.11,0.52
			c-0.28,0.39-0.61,0.68-0.99,0.87c-0.39,0.19-0.84,0.28-1.37,0.28c-0.82,0-1.49-0.26-2.01-0.78c-0.52-0.52-0.78-1.17-0.78-1.95
			c0-0.8,0.26-1.46,0.77-1.99c0.51-0.53,1.16-0.79,1.94-0.79c0.83,0,1.5,0.26,2.01,0.79c0.52,0.53,0.78,1.23,0.78,2.09L133.06,78.42
			z M131.75,77.38c-0.09-0.29-0.26-0.53-0.51-0.71c-0.25-0.18-0.55-0.28-0.89-0.28c-0.37,0-0.69,0.1-0.96,0.31
			c-0.17,0.13-0.33,0.35-0.48,0.68H131.75z"/>
		<path d="M137.61,79.29c0.21,0,0.39,0.07,0.54,0.22c0.15,0.15,0.22,0.32,0.22,0.53c0,0.21-0.07,0.39-0.22,0.53
			c-0.15,0.15-0.33,0.22-0.54,0.22s-0.39-0.07-0.54-0.22c-0.15-0.15-0.22-0.33-0.22-0.53c0-0.21,0.07-0.39,0.22-0.53
			C137.22,79.36,137.4,79.29,137.61,79.29z"/>
		<path d="M140.37,79.29c0.21,0,0.39,0.07,0.53,0.22c0.15,0.15,0.22,0.32,0.22,0.53c0,0.21-0.07,0.39-0.22,0.53
			s-0.33,0.22-0.53,0.22c-0.21,0-0.39-0.07-0.54-0.22s-0.22-0.33-0.22-0.53c0-0.21,0.07-0.39,0.22-0.53
			C139.98,79.36,140.16,79.29,140.37,79.29z"/>
		<path d="M143.13,79.29c0.21,0,0.39,0.07,0.53,0.22c0.15,0.15,0.22,0.32,0.22,0.53c0,0.21-0.07,0.39-0.22,0.53
			s-0.33,0.22-0.53,0.22c-0.21,0-0.39-0.07-0.54-0.22s-0.22-0.33-0.22-0.53c0-0.21,0.07-0.39,0.22-0.53
			C142.74,79.36,142.92,79.29,143.13,79.29z"/>
	</g>
	<rect x="34.5" y="98.72" class="st7" width="98.22" height="33.4"/>
	<g class="st8">
		<path d="M35.3,98.88h3.75v0.64h-3.09v2.05h3.07v0.64h-3.07v2.57h3.07v0.64H35.3V98.88z"/>
		<path d="M42.51,101.12l-0.4,0.41c-0.33-0.32-0.66-0.48-0.98-0.48c-0.2,0-0.38,0.07-0.52,0.2c-0.14,0.13-0.22,0.29-0.22,0.47
			c0,0.16,0.06,0.31,0.18,0.45c0.12,0.15,0.37,0.32,0.75,0.51c0.46,0.24,0.78,0.47,0.94,0.69c0.16,0.22,0.25,0.48,0.25,0.76
			c0,0.4-0.14,0.73-0.42,1.01c-0.28,0.28-0.63,0.41-1.05,0.41c-0.28,0-0.55-0.06-0.8-0.18c-0.25-0.12-0.46-0.29-0.63-0.5l0.39-0.44
			c0.32,0.36,0.66,0.54,1.01,0.54c0.25,0,0.46-0.08,0.64-0.24c0.18-0.16,0.26-0.35,0.26-0.56c0-0.18-0.06-0.34-0.17-0.48
			c-0.12-0.14-0.38-0.31-0.78-0.52c-0.44-0.22-0.73-0.45-0.89-0.67c-0.16-0.22-0.24-0.47-0.24-0.75c0-0.37,0.13-0.67,0.38-0.92
			s0.57-0.37,0.95-0.37C41.61,100.46,42.06,100.68,42.51,101.12z"/>
		<path d="M43.62,100.59h0.62v0.89c0.25-0.34,0.53-0.59,0.85-0.76c0.32-0.17,0.68-0.25,1.07-0.25c0.69,0,1.27,0.25,1.76,0.74
			s0.73,1.09,0.73,1.79c0,0.71-0.24,1.32-0.73,1.81c-0.48,0.5-1.07,0.74-1.75,0.74c-0.39,0-0.74-0.08-1.06-0.24s-0.61-0.4-0.88-0.72
			v2.6h-0.62V100.59z M46.11,101.06c-0.54,0-0.99,0.19-1.36,0.56s-0.55,0.84-0.55,1.4c0,0.37,0.08,0.7,0.25,0.99s0.4,0.53,0.71,0.7
			s0.63,0.26,0.97,0.26c0.33,0,0.65-0.09,0.94-0.26c0.29-0.17,0.53-0.42,0.7-0.73c0.17-0.31,0.26-0.64,0.26-0.98
			c0-0.34-0.09-0.67-0.26-0.98c-0.17-0.31-0.41-0.55-0.7-0.72C46.78,101.15,46.46,101.06,46.11,101.06z"/>
		<path d="M49.59,100.59h0.64v0.71c0.19-0.28,0.39-0.49,0.6-0.62s0.43-0.21,0.66-0.21c0.17,0,0.36,0.06,0.55,0.17l-0.32,0.52
			c-0.13-0.06-0.24-0.08-0.33-0.08c-0.21,0-0.41,0.08-0.6,0.25c-0.19,0.17-0.34,0.44-0.44,0.79c-0.08,0.28-0.12,0.83-0.12,1.67v1.64
			h-0.64V100.59z"/>
		<path d="M52.78,98.6c0.14,0,0.26,0.05,0.36,0.15c0.1,0.1,0.15,0.22,0.15,0.36c0,0.14-0.05,0.26-0.15,0.36
			c-0.1,0.1-0.22,0.15-0.36,0.15c-0.14,0-0.26-0.05-0.36-0.15c-0.1-0.1-0.15-0.22-0.15-0.36c0-0.14,0.05-0.26,0.15-0.36
			C52.52,98.65,52.64,98.6,52.78,98.6z M52.47,100.59h0.62v4.84h-0.62V100.59z"/>
		<path d="M54.93,98.79h0.62v1.8h0.99v0.54h-0.99v4.3h-0.62v-4.3h-0.85v-0.54h0.85V98.79z"/>
	</g>
	<g class="st8">
		<path d="M41.39,111.03l-0.52,0.4c-0.28-0.37-0.63-0.65-1.02-0.84c-0.4-0.19-0.84-0.29-1.31-0.29c-0.52,0-1,0.12-1.45,0.38
			c-0.44,0.25-0.79,0.59-1.03,1.01s-0.37,0.9-0.37,1.42c0,0.8,0.27,1.46,0.82,2c0.55,0.53,1.24,0.8,2.07,0.8
			c0.92,0,1.68-0.36,2.3-1.08l0.52,0.39c-0.33,0.42-0.73,0.74-1.22,0.96s-1.03,0.34-1.63,0.34c-1.14,0-2.05-0.38-2.71-1.14
			c-0.55-0.64-0.83-1.42-0.83-2.33c0-0.96,0.34-1.76,1.01-2.42c0.67-0.65,1.51-0.98,2.52-0.98c0.61,0,1.16,0.12,1.65,0.36
			C40.67,110.25,41.08,110.59,41.39,111.03z"/>
		<path d="M44.89,111.39c0.75,0,1.36,0.27,1.85,0.81c0.45,0.49,0.67,1.07,0.67,1.75c0,0.68-0.24,1.27-0.71,1.77
			c-0.47,0.51-1.08,0.76-1.81,0.76c-0.74,0-1.35-0.25-1.82-0.76c-0.47-0.5-0.71-1.1-0.71-1.77c0-0.67,0.22-1.25,0.67-1.74
			C43.52,111.66,44.14,111.39,44.89,111.39z M44.89,112c-0.52,0-0.96,0.19-1.33,0.57c-0.37,0.38-0.56,0.84-0.56,1.39
			c0,0.35,0.08,0.68,0.25,0.98s0.4,0.54,0.69,0.7c0.29,0.17,0.6,0.25,0.95,0.25s0.66-0.08,0.95-0.25c0.29-0.16,0.52-0.4,0.69-0.7
			c0.17-0.3,0.25-0.63,0.25-0.98c0-0.54-0.19-1-0.56-1.39C45.85,112.19,45.4,112,44.89,112z"/>
		<path d="M52.64,114.75l0.52,0.28c-0.17,0.34-0.37,0.61-0.6,0.82c-0.23,0.21-0.48,0.37-0.76,0.47c-0.28,0.11-0.6,0.16-0.96,0.16
			c-0.79,0-1.41-0.26-1.85-0.78c-0.44-0.52-0.67-1.1-0.67-1.75c0-0.61,0.19-1.16,0.57-1.64c0.48-0.61,1.12-0.92,1.92-0.92
			c0.83,0,1.48,0.31,1.98,0.94c0.35,0.44,0.53,0.99,0.53,1.65h-4.35c0.01,0.56,0.19,1.02,0.54,1.38c0.35,0.36,0.78,0.54,1.29,0.54
			c0.25,0,0.49-0.04,0.72-0.13c0.23-0.09,0.43-0.2,0.59-0.34C52.27,115.3,52.45,115.07,52.64,114.75z M52.64,113.45
			c-0.08-0.33-0.2-0.6-0.36-0.8c-0.16-0.2-0.37-0.36-0.63-0.48c-0.26-0.12-0.54-0.18-0.82-0.18c-0.47,0-0.88,0.15-1.22,0.46
			c-0.25,0.22-0.44,0.56-0.57,1H52.64z"/>
		<path d="M54.4,111.52h0.62v2.26c0,0.55,0.03,0.93,0.09,1.14c0.09,0.3,0.26,0.53,0.51,0.7c0.25,0.17,0.55,0.26,0.9,0.26
			c0.35,0,0.64-0.08,0.88-0.25c0.24-0.17,0.41-0.39,0.5-0.66c0.06-0.19,0.09-0.58,0.09-1.19v-2.26h0.64v2.37
			c0,0.67-0.08,1.17-0.23,1.51c-0.16,0.34-0.39,0.6-0.7,0.79c-0.31,0.19-0.71,0.29-1.18,0.29c-0.47,0-0.87-0.09-1.18-0.29
			c-0.32-0.19-0.55-0.46-0.71-0.8c-0.16-0.34-0.23-0.86-0.23-1.54V111.52z"/>
		<path d="M59.78,111.52h0.64v0.71c0.19-0.28,0.39-0.49,0.6-0.62s0.43-0.21,0.66-0.21c0.17,0,0.36,0.06,0.55,0.17l-0.32,0.52
			c-0.13-0.06-0.24-0.08-0.33-0.08c-0.21,0-0.41,0.08-0.6,0.25c-0.19,0.17-0.34,0.44-0.44,0.79c-0.08,0.28-0.12,0.83-0.12,1.67v1.64
			h-0.64V111.52z"/>
	</g>
	<g class="st8">
		<path d="M39.89,123.45l-0.49,0.31c-0.43-0.57-1.01-0.85-1.75-0.85c-0.59,0-1.08,0.19-1.47,0.57c-0.39,0.38-0.58,0.84-0.58,1.38
			c0,0.35,0.09,0.68,0.27,1s0.42,0.55,0.74,0.72s0.66,0.26,1.05,0.26c0.71,0,1.29-0.28,1.74-0.85l0.49,0.33
			c-0.23,0.35-0.54,0.62-0.93,0.81c-0.39,0.19-0.83,0.29-1.33,0.29c-0.76,0-1.4-0.24-1.9-0.73c-0.5-0.49-0.76-1.08-0.76-1.77
			c0-0.47,0.12-0.9,0.35-1.31c0.24-0.4,0.56-0.71,0.97-0.94c0.41-0.22,0.87-0.34,1.38-0.34c0.32,0,0.63,0.05,0.93,0.15
			c0.3,0.1,0.55,0.22,0.76,0.38S39.75,123.21,39.89,123.45z"/>
		<path d="M43.38,122.32c0.75,0,1.36,0.27,1.85,0.81c0.45,0.49,0.67,1.07,0.67,1.75c0,0.68-0.24,1.27-0.71,1.77
			c-0.47,0.51-1.08,0.76-1.81,0.76c-0.74,0-1.35-0.25-1.82-0.76c-0.47-0.5-0.71-1.1-0.71-1.77c0-0.67,0.22-1.25,0.67-1.74
			C42.01,122.59,42.63,122.32,43.38,122.32z M43.38,122.93c-0.52,0-0.96,0.19-1.33,0.57c-0.37,0.38-0.56,0.84-0.56,1.39
			c0,0.35,0.08,0.68,0.25,0.98s0.4,0.54,0.69,0.7c0.29,0.17,0.6,0.25,0.95,0.25s0.66-0.08,0.95-0.25c0.29-0.16,0.52-0.4,0.69-0.7
			c0.17-0.3,0.25-0.63,0.25-0.98c0-0.54-0.19-1-0.56-1.39C44.33,123.12,43.89,122.93,43.38,122.93z"/>
		<path d="M46.81,122.45h0.64v0.71c0.19-0.28,0.39-0.49,0.6-0.62s0.43-0.21,0.66-0.21c0.17,0,0.36,0.06,0.55,0.17l-0.32,0.52
			c-0.13-0.06-0.24-0.08-0.33-0.08c-0.21,0-0.41,0.08-0.6,0.25c-0.19,0.17-0.34,0.44-0.44,0.79c-0.08,0.28-0.12,0.83-0.12,1.67v1.64
			h-0.64V122.45z"/>
		<path d="M49.8,122.45h0.62v0.89c0.25-0.34,0.53-0.59,0.85-0.76c0.32-0.17,0.68-0.25,1.07-0.25c0.69,0,1.27,0.25,1.76,0.74
			s0.73,1.09,0.73,1.79c0,0.71-0.24,1.32-0.73,1.81c-0.48,0.5-1.07,0.74-1.75,0.74c-0.39,0-0.74-0.08-1.06-0.24s-0.61-0.4-0.88-0.72
			v2.6H49.8V122.45z M52.29,122.92c-0.54,0-0.99,0.19-1.36,0.56s-0.55,0.84-0.55,1.4c0,0.37,0.08,0.7,0.25,0.99s0.4,0.53,0.71,0.7
			s0.63,0.26,0.97,0.26c0.33,0,0.65-0.09,0.94-0.26c0.29-0.17,0.53-0.42,0.7-0.73c0.17-0.31,0.26-0.64,0.26-0.98
			c0-0.34-0.09-0.67-0.26-0.98c-0.17-0.31-0.41-0.55-0.7-0.72C52.95,123.01,52.63,122.92,52.29,122.92z"/>
		<path d="M58.43,122.98l-0.4,0.41c-0.33-0.32-0.66-0.48-0.98-0.48c-0.2,0-0.38,0.07-0.52,0.2c-0.14,0.13-0.22,0.29-0.22,0.47
			c0,0.16,0.06,0.31,0.18,0.45c0.12,0.15,0.37,0.32,0.75,0.51c0.46,0.24,0.78,0.47,0.94,0.69c0.16,0.22,0.25,0.48,0.25,0.76
			c0,0.4-0.14,0.73-0.42,1.01c-0.28,0.28-0.63,0.41-1.05,0.41c-0.28,0-0.55-0.06-0.8-0.18c-0.25-0.12-0.46-0.29-0.63-0.5l0.39-0.44
			c0.32,0.36,0.66,0.54,1.01,0.54c0.25,0,0.46-0.08,0.64-0.24c0.18-0.16,0.26-0.35,0.26-0.56c0-0.18-0.06-0.34-0.17-0.48
			c-0.12-0.14-0.38-0.31-0.78-0.52c-0.44-0.22-0.73-0.45-0.89-0.67c-0.16-0.22-0.24-0.47-0.24-0.75c0-0.37,0.13-0.67,0.38-0.92
			s0.57-0.37,0.95-0.37C57.53,122.32,57.98,122.54,58.43,122.98z"/>
	</g>
	<circle class="st4" cx="23.37" cy="101.56" r="2.73"/>
	<circle cx="23.37" cy="112.87" r="2.73"/>
	<circle class="st9" cx="23.37" cy="125.07" r="2.73"/>
	<g>
		
			<rect x="89.32" y="26.07" transform="matrix(0.9979 -0.0653 0.0653 0.9979 -1.7255 6.6394)" class="st10" width="22.77" height="7.29"/>
		<g class="st8">
			<path class="st0" d="M97.69,32.89c-0.13-0.03-0.36-0.12-0.69-0.29c-0.12-0.06-0.21-0.1-0.27-0.12c-0.06-0.02-0.11-0.03-0.16-0.03
				l-0.02,0c-0.05,0.01-0.11,0.02-0.18,0.06c-0.08,0.03-0.16,0.06-0.24,0.06c-0.07,0.01-0.12,0.01-0.15,0.01
				c-0.09,0.01-0.17,0-0.24,0c-0.37-0.07-0.7-0.29-0.98-0.65c-0.28-0.36-0.49-0.82-0.62-1.38c-0.05-0.26-0.09-0.52-0.11-0.79
				c-0.02-0.28-0.02-0.56,0-0.85c0.04-0.57,0.15-1.07,0.33-1.52c0.1-0.25,0.2-0.41,0.32-0.5c0.11-0.09,0.3-0.14,0.55-0.16l0.06,0
				c0.65-0.04,1.15,0.1,1.5,0.44c0.34,0.31,0.59,0.79,0.74,1.43c0.06,0.25,0.1,0.51,0.12,0.77c0.02,0.38,0,0.76-0.06,1.15
				c-0.04,0.26-0.12,0.54-0.25,0.86c-0.03,0.07-0.05,0.14-0.07,0.2c-0.02,0.06-0.03,0.09-0.03,0.1c0,0.06,0.04,0.11,0.11,0.15
				c0.07,0.04,0.19,0.09,0.37,0.15c0.12,0.04,0.21,0.07,0.27,0.1c0.06,0.03,0.11,0.07,0.15,0.11c0.08,0.07,0.12,0.17,0.12,0.27
				l0,0.04c-0.01,0.23-0.13,0.36-0.37,0.4c-0.04,0-0.07,0-0.11,0C97.74,32.9,97.71,32.9,97.69,32.89z M96.06,31.64
				c0.12-0.05,0.23-0.17,0.34-0.36c0.11-0.19,0.2-0.42,0.27-0.68c0.09-0.4,0.13-0.79,0.1-1.17c-0.02-0.37-0.1-0.73-0.24-1.08
				c-0.11-0.27-0.25-0.46-0.42-0.57c-0.17-0.11-0.4-0.15-0.68-0.13c-0.1,0.01-0.18,0.03-0.23,0.06c-0.05,0.03-0.09,0.1-0.12,0.19
				c-0.03,0.1-0.06,0.24-0.08,0.44c-0.08,0.5-0.1,0.94-0.08,1.31l0,0.05c0.04,0.6,0.16,1.08,0.37,1.44
				c0.17,0.29,0.35,0.47,0.54,0.53c0.04,0.01,0.08,0.02,0.11,0.02C95.98,31.67,96.02,31.66,96.06,31.64z"/>
			<path class="st0" d="M99.33,32.32c-0.36-0.09-0.64-0.45-0.84-1.08c-0.09-0.28-0.14-0.55-0.17-0.78s-0.05-0.41-0.05-0.51
				c-0.01-0.18-0.01-0.31,0.01-0.4c0.06-0.17,0.13-0.26,0.21-0.29c0.08-0.02,0.14-0.03,0.16-0.04c0.11-0.01,0.21,0.04,0.31,0.13
				c0.05,0.05,0.08,0.1,0.09,0.16c0.02,0.06,0.02,0.12,0.03,0.18c0,0.03,0,0.07,0,0.11l0,0.08c0.01,0.08,0.02,0.17,0.03,0.27
				c0.02,0.13,0.06,0.3,0.12,0.51c0.05,0.18,0.09,0.31,0.12,0.37c0.03,0.06,0.07,0.09,0.12,0.09c0.03,0,0.06-0.02,0.09-0.07
				c0.03-0.04,0.06-0.13,0.1-0.27c0.04-0.14,0.09-0.33,0.16-0.6c0.11-0.43,0.2-0.74,0.27-0.92c0.07-0.18,0.14-0.32,0.21-0.4
				c0.11-0.12,0.21-0.18,0.33-0.19c0.08,0,0.17,0.02,0.26,0.08c0.09,0.06,0.17,0.13,0.22,0.21c0.07,0.11,0.13,0.32,0.19,0.61
				c0.08,0.43,0.15,0.77,0.21,1.01c0.06,0.25,0.12,0.46,0.19,0.66c0.04,0.13,0.07,0.24,0.08,0.32l0,0.04c0,0.09-0.03,0.17-0.09,0.25
				c-0.05,0.07-0.11,0.11-0.17,0.12s-0.1,0.02-0.13,0.02c-0.06,0-0.13-0.01-0.19-0.04c-0.08-0.03-0.15-0.09-0.2-0.18
				c-0.06-0.09-0.11-0.21-0.17-0.38l-0.03-0.09c-0.02-0.04-0.03-0.08-0.04-0.12c-0.01-0.04-0.02-0.06-0.03-0.08
				c-0.03-0.09-0.07-0.14-0.12-0.14c-0.01,0-0.01,0-0.02,0.01c-0.01,0-0.03,0.01-0.04,0.03c-0.01,0.02-0.03,0.05-0.05,0.1
				c-0.02,0.05-0.05,0.12-0.08,0.2c-0.07,0.18-0.14,0.33-0.2,0.44c-0.06,0.11-0.13,0.21-0.2,0.28c-0.15,0.17-0.31,0.26-0.48,0.27
				l-0.04,0c-0.03,0-0.05,0-0.08,0C99.38,32.33,99.35,32.32,99.33,32.32z"/>
			<path class="st0" d="M102.23,27.91c-0.19-0.07-0.29-0.16-0.32-0.28c-0.03-0.12-0.04-0.19-0.04-0.22
				c-0.01-0.16,0.03-0.3,0.13-0.44c0.09-0.1,0.19-0.16,0.31-0.16c0.03,0,0.07,0,0.1,0.01c0.15,0.02,0.27,0.08,0.34,0.19
				c0.08,0.1,0.12,0.2,0.12,0.29c0,0.07,0,0.14-0.02,0.22c-0.05,0.14-0.12,0.23-0.21,0.3s-0.18,0.1-0.26,0.11
				C102.33,27.93,102.29,27.93,102.23,27.91z M102.64,32.1c-0.05-0.02-0.1-0.05-0.15-0.1c-0.05-0.05-0.08-0.1-0.11-0.16
				c-0.07-0.21-0.13-0.76-0.19-1.65l-0.01-0.12c-0.01-0.2-0.02-0.36-0.03-0.47c-0.01-0.11-0.01-0.19-0.01-0.25
				c0-0.06,0-0.1,0.01-0.12c0-0.02,0.01-0.05,0.02-0.07c0.02-0.06,0.05-0.11,0.08-0.14s0.07-0.07,0.12-0.1
				c0.06-0.04,0.12-0.05,0.18-0.06c0.02,0,0.05,0,0.07,0c0.09,0.01,0.16,0.05,0.22,0.12c0.04,0.04,0.07,0.09,0.08,0.15
				c0.01,0.06,0.03,0.16,0.04,0.29c0.01,0.08,0.02,0.16,0.03,0.27c0.01,0.1,0.02,0.19,0.03,0.26c0.01,0.08,0.03,0.21,0.05,0.39
				c0.02,0.18,0.04,0.37,0.07,0.58c0.04,0.28,0.06,0.49,0.07,0.63c0.01,0.13,0,0.23-0.01,0.29c-0.02,0.06-0.05,0.11-0.1,0.16
				c-0.06,0.06-0.11,0.1-0.17,0.11c-0.05,0.01-0.09,0.02-0.12,0.02C102.75,32.14,102.69,32.13,102.64,32.1z"/>
			<path class="st0" d="M104.51,32.27c-0.22-0.06-0.38-0.19-0.48-0.39c-0.08-0.15-0.12-0.31-0.13-0.48
				c-0.03-0.47,0.19-1.03,0.65-1.68c0.08-0.11,0.13-0.19,0.15-0.23c0.02-0.04,0.03-0.07,0.03-0.09c0-0.01,0-0.02-0.01-0.02
				c-0.01-0.03-0.04-0.04-0.08-0.05c-0.04,0-0.08,0-0.12,0c-0.05,0-0.12,0.01-0.19,0.02c-0.19,0.03-0.33,0.05-0.44,0.05l-0.04,0
				c-0.11,0-0.19,0-0.23-0.02c-0.08-0.03-0.13-0.08-0.17-0.14c-0.04-0.06-0.06-0.12-0.06-0.18c0-0.02,0-0.04,0-0.06
				c0.01-0.05,0.02-0.1,0.05-0.16c0.03-0.05,0.06-0.09,0.1-0.12c0.04-0.04,0.12-0.07,0.24-0.1c0.12-0.04,0.31-0.08,0.56-0.13
				c0.34-0.08,0.59-0.13,0.76-0.15c0.17-0.03,0.32-0.05,0.48-0.06c0.17-0.01,0.3-0.01,0.4,0c0.1,0.01,0.18,0.03,0.27,0.07
				c0.17,0.08,0.27,0.23,0.29,0.43l0,0.02c0.01,0.1-0.02,0.2-0.07,0.29c-0.06,0.09-0.19,0.22-0.38,0.38
				c-0.28,0.23-0.49,0.43-0.65,0.61c-0.16,0.18-0.3,0.38-0.42,0.6c-0.13,0.24-0.19,0.41-0.18,0.51c0,0.07,0.05,0.11,0.12,0.1l0.02,0
				c0.05-0.01,0.14-0.05,0.25-0.12c0.12-0.07,0.24-0.15,0.37-0.25c0.13-0.11,0.23-0.18,0.3-0.21c0.06-0.03,0.13-0.05,0.2-0.06
				c0.14-0.01,0.25,0.04,0.34,0.14c0.06,0.08,0.09,0.16,0.1,0.25c0.01,0.09-0.02,0.18-0.07,0.28c-0.08,0.12-0.25,0.27-0.51,0.46
				c-0.26,0.18-0.51,0.33-0.75,0.44c-0.14,0.06-0.28,0.09-0.4,0.1C104.68,32.3,104.59,32.29,104.51,32.27z"/>
		</g>
		<g class="st8">
			<path class="st11" d="M85.99,26.96c-0.26-0.06-0.44-0.23-0.55-0.48c-0.04-0.07-0.07-0.18-0.1-0.31
				c-0.03-0.14-0.08-0.36-0.14-0.68c-0.05-0.28-0.11-0.46-0.19-0.52c-0.08-0.06-0.18-0.09-0.3-0.08c-0.07,0-0.14,0.02-0.21,0.03
				c-0.21,0.04-0.37,0.07-0.49,0.09c-0.11,0.02-0.2,0.05-0.25,0.07c-0.06,0.02-0.1,0.04-0.12,0.06c-0.05,0.04-0.09,0.08-0.12,0.13
				c-0.02,0.04-0.03,0.1-0.03,0.15c0,0.06,0,0.11,0.01,0.15c0,0.08,0.01,0.17,0.02,0.29l0.05,0.48l-0.08,0.18
				c-0.14,0.28-0.27,0.42-0.4,0.43c-0.13,0.01-0.2,0.01-0.21,0.01c-0.26,0.02-0.48-0.1-0.65-0.36c-0.04-0.07-0.08-0.16-0.12-0.27
				c-0.03-0.11-0.07-0.27-0.1-0.49c-0.04-0.22-0.08-0.52-0.14-0.91c-0.21-1.53-0.35-2.58-0.4-3.15c-0.05-0.57-0.09-0.99-0.11-1.27
				c-0.04-0.62-0.06-1.26-0.07-1.93c0-0.18,0-0.3,0-0.39c0-0.09,0.01-0.15,0.02-0.2c0.01-0.05,0.03-0.11,0.06-0.17
				c0.03-0.08,0.07-0.14,0.1-0.19c0.03-0.05,0.07-0.09,0.12-0.12c0.12-0.08,0.24-0.13,0.36-0.14c0.09-0.01,0.18,0.01,0.26,0.04
				c0.2,0.09,0.33,0.26,0.39,0.51c0.01,0.05,0.03,0.23,0.06,0.54c0.03,0.31,0.07,0.67,0.11,1.09c0.13,1.42,0.23,2.41,0.3,2.97
				c0.07,0.56,0.12,0.86,0.16,0.91c0.03,0.05,0.07,0.09,0.13,0.11c0.06,0.03,0.12,0.04,0.19,0.04c0.07,0,0.18-0.03,0.34-0.07
				c0.16-0.04,0.31-0.09,0.47-0.13s0.26-0.08,0.31-0.11c0.03-0.02,0.06-0.05,0.09-0.08c0.03-0.03,0.05-0.06,0.06-0.09
				c0.02-0.03,0.03-0.06,0.03-0.11c0-0.05,0-0.12,0-0.23c0-0.11-0.02-0.27-0.03-0.48s-0.04-0.49-0.07-0.85
				c-0.02-0.28-0.04-0.55-0.06-0.81c-0.02-0.25-0.03-0.5-0.04-0.73c-0.02-0.47-0.03-1.06-0.03-1.77c0-0.34,0.01-0.58,0.03-0.73
				c0.02-0.14,0.06-0.26,0.12-0.34c0.08-0.12,0.16-0.19,0.26-0.22c0.1-0.03,0.17-0.04,0.22-0.05c0.08-0.01,0.17,0.01,0.25,0.04
				c0.24,0.1,0.39,0.33,0.44,0.69c0.01,0.08,0.04,0.37,0.08,0.88c0.04,0.51,0.09,1.12,0.14,1.82c0.11,1.47,0.2,2.55,0.27,3.23
				c0.07,0.68,0.17,1.34,0.29,1.97c0.06,0.31,0.09,0.54,0.1,0.71c0,0.06,0,0.11,0,0.15c-0.01,0.17-0.07,0.31-0.16,0.42
				c-0.09,0.1-0.18,0.17-0.28,0.21s-0.18,0.06-0.25,0.06C86.09,26.98,86.04,26.97,85.99,26.96z"/>
		</g>
		<g class="st8">
			<path class="st11" d="M90.57,26.77c-0.54-0.11-1.04-0.42-1.48-0.92c-0.44-0.5-0.79-1.13-1.03-1.91c-0.19-0.65-0.3-1.33-0.34-2.02
				c-0.06-0.88,0-1.78,0.18-2.71c0.1-0.49,0.24-0.94,0.42-1.35c0.12-0.3,0.25-0.52,0.39-0.67s0.3-0.24,0.49-0.3
				c0.15-0.04,0.34-0.07,0.57-0.08c0.08,0,0.16-0.01,0.24-0.01c0.34-0.01,0.65,0.01,0.94,0.05c1.58,0.28,2.54,1.61,2.86,4
				c0.02,0.15,0.03,0.3,0.04,0.46c0.05,0.72,0,1.43-0.15,2.13c-0.17,0.85-0.47,1.58-0.88,2.19c-0.32,0.46-0.69,0.8-1.12,0.99
				c-0.1,0.05-0.19,0.08-0.27,0.1c-0.08,0.02-0.19,0.03-0.33,0.05l-0.15,0.01C90.79,26.79,90.67,26.78,90.57,26.77z M91.26,25.09
				c0.25-0.17,0.49-0.52,0.71-1.06c0.27-0.69,0.41-1.27,0.4-1.74c0-0.47-0.01-0.77-0.01-0.89c-0.04-0.67-0.18-1.29-0.42-1.88
				c-0.18-0.45-0.41-0.76-0.7-0.94c-0.29-0.18-0.66-0.26-1.11-0.23l-0.03,0c-0.18,0.01-0.3,0.04-0.38,0.07
				c-0.07,0.04-0.13,0.11-0.17,0.2c-0.07,0.19-0.14,0.51-0.21,0.96c-0.06,0.45-0.11,0.9-0.13,1.35c-0.01,0.33-0.01,0.64,0.01,0.94
				c0.06,1.03,0.3,1.87,0.7,2.55c0.35,0.54,0.69,0.79,1.01,0.77C91.05,25.2,91.15,25.16,91.26,25.09z"/>
		</g>
		<g class="st8">
			<path class="st11" d="M96.12,26.17c-0.55-0.06-0.95-0.3-1.19-0.73c-0.12-0.18-0.18-0.4-0.2-0.66c-0.01-0.17,0-0.36,0.03-0.56
				c0.08-0.52,0.32-1.34,0.72-2.45c0.07-0.2,0.18-0.48,0.32-0.85c0.14-0.37,0.29-0.74,0.43-1.11c0.35-0.86,0.52-1.32,0.52-1.38
				c-0.02-0.13-0.11-0.19-0.27-0.18c-0.04,0-0.12,0.02-0.24,0.04c-0.13,0.02-0.27,0.05-0.42,0.08c-0.36,0.08-0.6,0.13-0.72,0.14
				c-0.12,0.01-0.21,0.02-0.26,0.03c-0.09,0.01-0.15,0-0.2-0.01c-0.21-0.04-0.36-0.13-0.45-0.26c-0.09-0.13-0.14-0.26-0.15-0.39
				c0-0.06,0-0.13,0.01-0.19c0.02-0.12,0.08-0.24,0.17-0.34c0.09-0.11,0.21-0.19,0.34-0.25c0.27-0.12,1.02-0.26,2.25-0.42
				c0.33-0.05,0.56-0.08,0.67-0.09c0.11-0.01,0.2-0.02,0.24-0.02c0.1-0.01,0.18-0.01,0.24-0.01c0.08,0.01,0.16,0.03,0.22,0.05
				c0.28,0.13,0.44,0.36,0.46,0.71l0,0.02c0.01,0.15-0.05,0.43-0.19,0.84c-0.14,0.43-0.42,1.16-0.84,2.21
				c-0.7,1.77-1.12,2.99-1.29,3.68c-0.01,0.07-0.02,0.13-0.03,0.16c0,0.03-0.01,0.06,0,0.08l0,0.03c0.01,0.02,0.02,0.05,0.03,0.07
				c0.05,0.1,0.14,0.15,0.27,0.14c0.05,0,0.1-0.01,0.16-0.03c0.33-0.08,0.91-0.33,1.73-0.74c0.2-0.11,0.39-0.2,0.56-0.28
				c0.17-0.08,0.28-0.13,0.33-0.14c0.06-0.02,0.13-0.03,0.19-0.03c0.17-0.01,0.33,0.03,0.47,0.13c0.18,0.12,0.29,0.31,0.31,0.56
				c0.01,0.22-0.06,0.4-0.21,0.56c-0.04,0.05-0.1,0.1-0.15,0.14c-0.06,0.04-0.15,0.1-0.28,0.17c-0.13,0.07-0.33,0.17-0.6,0.31
				c-1.19,0.61-2.09,0.93-2.69,0.97C96.3,26.18,96.2,26.18,96.12,26.17z"/>
		</g>
		<g class="st8">
			<path class="st11" d="M101.55,25.67c-0.07-0.04-0.14-0.09-0.22-0.16c-0.07-0.07-0.13-0.15-0.17-0.23
				c-0.05-0.1-0.08-0.27-0.1-0.53c-0.02-0.34-0.01-0.82,0.03-1.45c0.04-0.57,0.13-1.24,0.25-2.01c0.13-0.77,0.28-1.51,0.46-2.23
				c0.42-1.71,0.92-2.73,1.48-3.04c0.07-0.04,0.13-0.07,0.19-0.08s0.14-0.02,0.26-0.03c0.16-0.01,0.29,0,0.39,0.03
				c0.1,0.03,0.21,0.09,0.33,0.19c0.15,0.12,0.28,0.28,0.38,0.47c0.1,0.19,0.2,0.48,0.29,0.86c0.09,0.39,0.2,0.93,0.33,1.63
				c0.45,2.43,0.85,4.09,1.22,4.98c0.06,0.14,0.1,0.25,0.12,0.31c0.02,0.06,0.03,0.11,0.03,0.15c0,0.02,0,0.04,0,0.06
				c-0.04,0.42-0.26,0.65-0.64,0.69c-0.21,0.01-0.39-0.05-0.56-0.19c-0.08-0.07-0.16-0.15-0.22-0.24c-0.06-0.09-0.13-0.22-0.19-0.39
				c-0.07-0.16-0.13-0.27-0.2-0.33c-0.06-0.07-0.14-0.1-0.23-0.1c-0.02,0-0.06,0-0.11,0c-0.08,0.01-0.2,0.02-0.34,0.03
				c-0.24,0.03-0.5,0.06-0.78,0.1c-0.28,0.04-0.48,0.07-0.62,0.1c-0.19,0.03-0.32,0.1-0.39,0.18c-0.07,0.09-0.1,0.24-0.11,0.47
				c0,0.17-0.02,0.3-0.06,0.4c-0.04,0.1-0.1,0.19-0.18,0.26c-0.05,0.04-0.09,0.07-0.13,0.09c-0.04,0.02-0.1,0.03-0.19,0.04l-0.07,0
				c-0.05,0-0.09,0-0.12,0C101.63,25.7,101.59,25.69,101.55,25.67z M103.62,22.64c0.18-0.04,0.34-0.07,0.48-0.1s0.22-0.05,0.26-0.07
				c0.07-0.04,0.12-0.1,0.14-0.18c0.01-0.03,0.02-0.05,0.02-0.08c0-0.02,0-0.04,0-0.06c0-0.02-0.01-0.05-0.01-0.07
				c-0.01-0.06-0.02-0.14-0.04-0.24c-0.02-0.1-0.05-0.25-0.09-0.43c-0.05-0.22-0.1-0.49-0.17-0.82c-0.06-0.33-0.12-0.64-0.18-0.92
				c-0.12-0.64-0.2-1-0.24-1.08c-0.03-0.06-0.08-0.08-0.12-0.08l-0.01,0c-0.05,0.01-0.1,0.05-0.14,0.12
				c-0.07,0.14-0.17,0.5-0.31,1.09c-0.14,0.59-0.26,1.22-0.39,1.9c-0.08,0.43-0.11,0.73-0.1,0.9c0,0.06,0.01,0.1,0.03,0.13
				c0.01,0.01,0.03,0.03,0.06,0.05c0.03,0.02,0.06,0.04,0.09,0.05c0.04,0.02,0.06,0.03,0.09,0.03l0.19-0.04
				C103.3,22.7,103.45,22.67,103.62,22.64z"/>
		</g>
		<g class="st8">
			<path class="st11" d="M108.65,25.58c-0.21-0.07-0.37-0.21-0.47-0.42c-0.04-0.07-0.08-0.18-0.11-0.33
				c-0.03-0.15-0.07-0.4-0.12-0.73c-0.05-0.34-0.11-0.81-0.18-1.43c-0.04-0.37-0.09-0.73-0.13-1.09s-0.08-0.64-0.1-0.83
				c-0.03-0.28-0.06-0.6-0.09-0.97c-0.03-0.37-0.05-0.64-0.06-0.82c-0.02-0.35-0.04-0.7-0.06-1.05c-0.03-0.51-0.04-0.85-0.04-1.02
				c0-0.08,0.01-0.16,0.02-0.24c0.01-0.08,0.03-0.14,0.04-0.18c0.08-0.2,0.21-0.35,0.37-0.44c0.17-0.09,0.31-0.14,0.43-0.15
				c0.08,0,0.16,0,0.24,0.03c0.16,0.04,0.32,0.21,0.5,0.51c0.18,0.31,0.44,0.86,0.78,1.67c0.61,1.43,1.04,2.4,1.3,2.93
				c0.07,0.15,0.14,0.28,0.2,0.42c0.07,0.13,0.11,0.23,0.14,0.29c0.03,0.06,0.06,0.11,0.1,0.17c0.04,0.06,0.07,0.1,0.1,0.14
				c0.04,0.04,0.07,0.07,0.09,0.08s0.03,0.01,0.04,0.01c0.01,0,0.02-0.01,0.04-0.02c0.03-0.02,0.04-0.05,0.06-0.09
				c0.01-0.04,0.02-0.11,0.03-0.21c0-0.1,0-0.24,0-0.42c0-0.18-0.01-0.42-0.02-0.72c-0.01-0.34-0.02-0.68-0.03-1.04
				c-0.01-0.35-0.01-0.64-0.01-0.85c0-0.44,0-0.91,0-1.41c0-0.5,0-0.91,0-1.23c0-0.25,0.01-0.43,0.04-0.56
				c0.03-0.12,0.08-0.23,0.16-0.32c0.14-0.15,0.3-0.23,0.49-0.25l0.03,0c0.2,0,0.38,0.08,0.52,0.24c0.08,0.08,0.13,0.17,0.17,0.29
				c0.04,0.11,0.06,0.28,0.07,0.5l0.01,0.09c0.01,0.26,0.01,0.64,0.01,1.13c-0.01,1.38,0.01,2.62,0.04,3.73
				c0.04,1.1,0.05,1.89,0.01,2.38c-0.04,0.49-0.12,0.84-0.25,1.07c-0.19,0.37-0.47,0.57-0.83,0.59l-0.03,0
				c-0.24,0.02-0.47-0.05-0.67-0.2c-0.2-0.15-0.44-0.44-0.7-0.88c-0.26-0.44-0.59-1.06-1-1.88c-0.12-0.24-0.21-0.43-0.28-0.56
				c-0.07-0.13-0.12-0.22-0.16-0.28c-0.04-0.05-0.07-0.08-0.1-0.09c-0.01,0-0.02-0.01-0.03-0.01c-0.05,0-0.09,0.06-0.11,0.18l0,0.06
				c0.01,0.09,0.02,0.27,0.04,0.52c0.04,0.33,0.08,0.72,0.14,1.14c0.05,0.43,0.11,0.81,0.16,1.14c0.03,0.22,0.05,0.4,0.06,0.54
				c0,0.07,0.01,0.13,0,0.18c-0.01,0.14-0.05,0.27-0.12,0.36c-0.09,0.13-0.19,0.22-0.3,0.27c-0.11,0.04-0.2,0.07-0.27,0.07
				S108.72,25.6,108.65,25.58z"/>
		</g>
		<g class="st8">
			<path class="st11" d="M114.92,24.83c-0.07-0.04-0.14-0.09-0.22-0.16c-0.07-0.07-0.13-0.15-0.17-0.23
				c-0.05-0.1-0.08-0.27-0.1-0.53c-0.02-0.34-0.01-0.82,0.03-1.44c0.04-0.57,0.13-1.24,0.26-2.01c0.13-0.77,0.28-1.51,0.46-2.23
				c0.42-1.71,0.92-2.73,1.48-3.04c0.07-0.04,0.13-0.07,0.19-0.08s0.14-0.02,0.26-0.03c0.16-0.01,0.29,0,0.39,0.03
				c0.1,0.03,0.21,0.09,0.33,0.19c0.15,0.12,0.28,0.28,0.38,0.47c0.1,0.19,0.2,0.48,0.29,0.86c0.09,0.39,0.21,0.93,0.33,1.63
				c0.45,2.43,0.85,4.09,1.22,4.98c0.06,0.14,0.1,0.25,0.12,0.31s0.03,0.11,0.03,0.15c0,0.02,0,0.04,0,0.06
				c-0.04,0.42-0.26,0.65-0.64,0.69c-0.21,0.01-0.39-0.05-0.55-0.19c-0.08-0.07-0.16-0.15-0.22-0.24c-0.06-0.09-0.13-0.22-0.19-0.39
				c-0.07-0.16-0.13-0.27-0.2-0.33c-0.06-0.07-0.14-0.1-0.23-0.1c-0.02,0-0.06,0-0.11,0c-0.08,0.01-0.2,0.02-0.34,0.03
				c-0.24,0.03-0.5,0.06-0.78,0.1c-0.27,0.04-0.48,0.07-0.62,0.1c-0.19,0.03-0.32,0.1-0.39,0.18c-0.07,0.09-0.1,0.24-0.11,0.47
				c0,0.17-0.02,0.3-0.06,0.4c-0.04,0.1-0.1,0.19-0.18,0.26c-0.04,0.04-0.09,0.07-0.13,0.09c-0.04,0.02-0.11,0.03-0.19,0.04l-0.07,0
				c-0.05,0-0.09,0-0.12,0C115.01,24.86,114.96,24.85,114.92,24.83z M116.99,21.8c0.18-0.04,0.34-0.07,0.48-0.1s0.22-0.05,0.26-0.07
				c0.07-0.04,0.11-0.1,0.14-0.18c0.01-0.03,0.02-0.05,0.02-0.08c0-0.02,0-0.04,0-0.06c0-0.02-0.01-0.05-0.01-0.07
				c-0.01-0.06-0.02-0.14-0.05-0.24c-0.02-0.1-0.05-0.25-0.09-0.43c-0.05-0.22-0.1-0.49-0.17-0.82c-0.07-0.33-0.12-0.64-0.18-0.92
				c-0.12-0.64-0.2-1-0.24-1.08c-0.03-0.06-0.08-0.08-0.12-0.08l-0.01,0c-0.05,0.01-0.1,0.05-0.14,0.12
				c-0.07,0.14-0.17,0.5-0.31,1.09c-0.14,0.59-0.26,1.22-0.39,1.9c-0.08,0.43-0.11,0.73-0.1,0.9c0,0.06,0.01,0.1,0.03,0.13
				c0.01,0.01,0.03,0.03,0.05,0.05c0.03,0.02,0.06,0.04,0.1,0.05c0.04,0.02,0.06,0.03,0.09,0.03l0.19-0.04
				C116.67,21.86,116.82,21.83,116.99,21.8z"/>
		</g>
	</g>
</g>
</svg>
