<?xml version="1.0" encoding="utf-8"?>
<!-- Generator: Adobe Illustrator 23.0.6, SVG Export Plug-In . SVG Version: 6.00 Build 0)  -->
<svg version="1.1" id="Calque_1" xmlns="http://www.w3.org/2000/svg" xmlns:xlink="http://www.w3.org/1999/xlink" x="0px" y="0px"
	 viewBox="0 0 198.43 198.43" style="enable-background:new 0 0 198.43 198.43;" xml:space="preserve">
<style type="text/css">
	.cardAnimation-whiteCard3-cahLogo_OB8p2qWbeH .st0{fill:#FFFFFF;}
	.cardAnimation-whiteCard3-cahLogo_OB8p2qWbeH .st1{fill:#F28B00;}
	.cardAnimation-whiteCard3-cahLogo_OB8p2qWbeH .st2{fill:#2F3838;}
	.cardAnimation-whiteCard3-cahLogo_OB8p2qWbeH .st3{fill:#A2ACAC;}
	.cardAnimation-whiteCard3-cahLogo_OB8p2qWbeH .st4{fill:#F29500;}
	.cardAnimation-whiteCard3-cahLogo_OB8p2qWbeH .st5{fill:#B71E17;}
	.cardAnimation-whiteCard3-cahLogo_OB8p2qWbeH .st6{fill:#CCA371;}
	.cardAnimation-whiteCard3-cahLogo_OB8p2qWbeH .st7{fill-rule:evenodd;clip-rule:evenodd;fill:#F8A922;}
	.cardAnimation-whiteCard3-cahLogo_OB8p2qWbeH .st8{fill:#F18849;}
	.cardAnimation-whiteCard3-cahLogo_OB8p2qWbeH .st9{fill:#12100B;}
</style>
<g>
	<g>
		<path class="st0" d="M177.93,198.43H20.07c-11,0-19.91-8.91-19.91-19.91V19.91C0.16,8.91,9.08,0,20.07,0h157.86
			c11,0,19.91,8.91,19.91,19.91v158.6C197.84,189.51,188.93,198.43,177.93,198.43z"/>
		<g>
			<g>
				<path class="st1" d="M52.75,97.25c0.05-0.04,0.11-0.1,0.15-0.15c-0.07-0.05-0.1-0.06-0.18-0.04
					C52.64,97.1,52.71,97.18,52.75,97.25z"/>
				<path class="st1" d="M196.66,66.66c-0.07,0.06-0.17,0.15-0.24,0.22c0.11,0.07,0.14,0.1,0.27,0.06
					C196.83,66.9,196.73,66.78,196.66,66.66z"/>
				<path class="st2" d="M150.94,95.14c0.06-0.05,0.03-0.16-0.05-0.16c-0.11,0-0.14,0.05-0.16,0.16
					C150.71,95.25,150.86,95.21,150.94,95.14z"/>
				<path class="st1" d="M4.35,21.74c0.08,0,0.16-0.04,0.12-0.11c-0.04-0.08-0.1-0.05-0.18,0C4.24,21.66,4.29,21.74,4.35,21.74z"/>
				<path class="st1" d="M105.18,49.4c-0.01,0.05,0,0.11,0.05,0.1c0.06-0.01,0.05-0.06,0.03-0.11
					C105.25,49.34,105.19,49.36,105.18,49.4z"/>
				<path class="st1" d="M65.18,88.67c0.02,0.04,0.06,0.06,0.08,0.03c0.03-0.04,0-0.06-0.04-0.08
					C65.18,88.6,65.16,88.64,65.18,88.67z"/>
				<path class="st2" d="M187.76,37.52c0.18,0.17,0.36,0.39,0.54,0.56c-0.1-0.18-0.2-0.4-0.3-0.58
					C187.91,37.51,187.84,37.52,187.76,37.52z"/>
				<path class="st2" d="M185.37,16.72c-0.77-2.47-1.22-5.33-2-7.81c-0.03,2.13-0.28,4.67-0.31,6.79
					C183.87,16.05,184.57,16.38,185.37,16.72z"/>
				<path class="st3" d="M72.52,76.17L72.52,76.17L72.52,76.17z"/>
				<path class="st3" d="M156.68,17.04L156.68,17.04L156.68,17.04z"/>
				<path class="st3" d="M12.68,45.62v0.01V45.62z"/>
				<path class="st1" d="M24.25,24.52c-0.5-0.43-1.21-0.58-1.41,0.04c-0.2,0.65,0.43,0.74,1.11,0.84
					C24.5,25.49,24.61,24.84,24.25,24.52z"/>
				<path class="st1" d="M69.39,10.51c0,2.21,1.22,4.38,3.27,3.47c2.14-0.95,0.97-2.76-0.29-4.7C71.33,7.68,69.39,8.86,69.39,10.51z
					"/>
				<path class="st3" d="M178.85,38.64c-0.02-0.14-0.31-0.16-0.33-0.31c-0.82-1.69-1.31-3.54-2.12-5.22
					c-0.34-0.09-0.74,0.13-1.07,0.04c-0.06,0-0.3-0.21-0.3-0.15c0.27,2.47,0.05,2.54,0.97,4.85
					C176.55,39.27,177.35,38.34,178.85,38.64z"/>
				<path class="st3" d="M152.78,67.88c-0.02,0.01,0.02,0.06,0.04,0.05c0.15-0.03,0.15-0.03,0.29-0.09c0,0,0-0.04-0.01-0.04
					C152.94,67.79,152.93,67.82,152.78,67.88z"/>
				<path class="st4" d="M183.84,26.66c2.1-0.83,1.84-2.48,0.29-4.1c-1.22-1.28-2.31-0.33-3.08,1.25
					C180.05,25.89,181.82,27.47,183.84,26.66z"/>
				<path class="st4" d="M48.32,20.97c2.1-0.83,1.84-2.48,0.29-4.1c-1.22-1.28-2.31-0.33-3.08,1.25
					C44.52,20.2,46.3,21.77,48.32,20.97z"/>
				<path class="st5" d="M39.25,30.93c-0.05,0.04-0.05,0.06-0.01,0.11c0.11,0.1,0.11,0.12,0.26,0.13c0.06,0,0.01-0.05,0.01-0.12
					c0.01-0.11,0.08-0.13,0.01-0.21C39.44,30.71,39.37,30.84,39.25,30.93z"/>
				<path class="st3" d="M182.58,12.78c0.03,0.02,0.04,0.06,0.07,0.03c0.03-0.02-0.02-0.03-0.06-0.04
					C182.59,12.77,182.58,12.77,182.58,12.78z"/>
				<path class="st2" d="M109.33,95.45c0.06,0.03,0.07-0.05,0.11-0.1c0.01-0.01-0.01-0.01-0.02-0.01
					C109.35,95.37,109.27,95.42,109.33,95.45z"/>
				<path class="st2" d="M3.51,32.86c-0.09-0.07-0.12,0.04-0.21,0.1c-0.01,0.01,0.01,0.03,0.03,0.02
					C3.46,32.96,3.6,32.92,3.51,32.86z"/>
				<path class="st6" d="M163.86,93.97c0.11-0.04,0.11-0.04,0.21-0.1c0-0.02-0.01-0.07,0-0.09c-0.12,0.06-0.13,0.06-0.23,0.15
					C163.81,93.94,163.84,93.97,163.86,93.97z"/>
				<path class="st5" d="M-1.15,83.97c-0.02-0.09-0.05-0.2-0.07-0.29c-0.13,0.02-0.15,0.03-0.23,0.13
					C-1.35,83.86-1.24,83.92-1.15,83.97z"/>
				<path class="st5" d="M157.1,4.91c0.89-0.52,1.99-1.21,2.87-1.73c-0.66-1.25-0.89-1.45-2.25-1.88
					C157.54,2.45,157.27,3.76,157.1,4.91z"/>
				<path class="st3" d="M79.95,85.45c0.02-0.06,0.01-0.05,0-0.11c-0.01-0.04,0-0.05-0.04-0.06c-0.19-0.05-0.19-0.04-0.39-0.05
					l-0.04,0.02c0.03,0.07,0.09,0.13,0.12,0.2c0.09,0.03,0.16,0.06,0.25,0.09C79.92,85.54,79.92,85.52,79.95,85.45z"/>
				<path class="st6" d="M153.29,32.64c-0.08,0.05-0.17,0.11-0.25,0.16c-0.02,0.02-0.05,0.03-0.05,0.05
					c-0.01,0.09,0.03,0.09,0.06,0.18c0.06,0.04,0.11,0.07,0.17,0.11c0.08-0.11,0.19-0.2,0.27-0.31c0.02-0.06-0.02-0.07-0.04-0.12
					C153.41,32.64,153.38,32.64,153.29,32.64z"/>
				<path class="st6" d="M63.42,23.19c-0.07,0.01-0.16,0.02-0.23,0.03c-0.02,0-0.04,0-0.05,0.02c-0.04,0.06-0.01,0.07-0.02,0.14
					c0.03,0.05,0.05,0.08,0.08,0.14c0.09-0.05,0.2-0.08,0.29-0.13c0.03-0.04,0.01-0.05,0.01-0.1C63.5,23.22,63.48,23.21,63.42,23.19
					z"/>
				<path class="st6" d="M48.93,2.57c-0.63-0.36-0.67-0.27-1.39-0.36c0.05,0.38,0.09,0.67,0.14,1.05c0.78,0.33,0.83,0.24,1.68,0.25
					C49.21,3.2,49.08,2.88,48.93,2.57z"/>
				<path class="st6" d="M104.23,70.94c0.06,0.04,0.06,0.03,0.13,0.04c0-0.04,0-0.06-0.01-0.1c-0.07-0.03-0.08-0.03-0.15-0.03
					C104.21,70.88,104.22,70.91,104.23,70.94z"/>
				<path class="st6" d="M171.48,59.14c0.02,0.02,0.02,0.02,0.05,0.02c0-0.01,0-0.03,0-0.04c-0.03-0.02-0.03-0.02-0.06-0.02
					C171.48,59.11,171.48,59.13,171.48,59.14z"/>
				<path class="st5" d="M99.88,4.55c0.94,1.64,1.92,0.8,3.77,1.27c-0.14-0.24-0.11-0.95-0.25-1.19
					C101.53,3.8,99.08,3.16,99.88,4.55z"/>
				<path class="st6" d="M149.91,15.24c0.06-0.76,0.14-1.09-0.64-1.15c-1.49,1.26-2.74,2.31-4.22,3.57c0.89,0.49,1.51,0.77,2.4,1.26
					C148.24,17.66,149.12,16.52,149.91,15.24z"/>
				<path class="st6" d="M23.56,35.8c0.27-0.3,0.41-0.41,0.11-0.67c-1.02,0.06-1.88,0.1-2.9,0.15c0.21,0.48,0.37,0.79,0.58,1.27
					C22.09,36.27,22.83,36.08,23.56,35.8z"/>
				<path class="st1" d="M174.03,84.6c0.09-0.03,0.21-0.06,0.31-0.09c-0.03-0.08-0.09-0.04-0.17-0.08c-0.1-0.05-0.09-0.09-0.2-0.08
					C173.99,84.43,174.01,84.52,174.03,84.6z"/>
				<path class="st1" d="M184.22,24.5c0.14,0.04,0.33,0.09,0.48,0.14c0.03-0.13-0.08-0.13-0.15-0.25c-0.08-0.15-0.04-0.19-0.19-0.28
					C184.31,24.24,184.26,24.37,184.22,24.5z"/>
				<path class="st2" d="M5.28,72.51c0-0.04-0.01-0.07-0.01-0.11c-0.04,0.04-0.05,0.04-0.06,0.1C5.2,72.53,5.24,72.52,5.28,72.51z"
					/>
				<path class="st2" d="M84.48,29.84c0.03-0.04,0.07-0.08,0.1-0.12c-0.08,0-0.09-0.01-0.16,0.04
					C84.38,29.79,84.44,29.82,84.48,29.84z"/>
				<path class="st2" d="M14.41,79.52c-0.06,0.09-0.13,0.16-0.19,0.25c0.17,0,0.18,0.01,0.31-0.09
					C14.63,79.61,14.51,79.56,14.41,79.52z"/>
				<path class="st5" d="M3.06,1.37C3.23,1.32,3.3,1.38,3.39,1.23c0.08-0.12-0.15,0-0.3,0.03C3.08,1.28,3.08,1.34,3.06,1.37z"/>
				<path class="st5" d="M170.38,19.74c-0.95,2.33-2.23,2.52-1.36,4.88c0.72,1.96,1.41-1.65,2.32-3.54
					C171.2,20.72,170.52,20.12,170.38,19.74z"/>
				<path class="st5" d="M93.84,62.9c-0.04-0.12,0-0.16-0.11-0.22c-0.09-0.05,0,0.11,0.03,0.2C93.78,62.89,93.83,62.89,93.84,62.9z"
					/>
				<path class="st6" d="M122.84,35.29c-0.06,0-0.1-0.02-0.16-0.02c0.04,0.14,0.09,0.26,0.13,0.4c0.09,0.05,0.1,0.04,0.2,0.03
					c0.02,0,0.04-0.03,0.03-0.05C122.98,35.46,122.94,35.47,122.84,35.29z"/>
				<path class="st6" d="M196.38,20.86c0.06-0.06,0.11-0.09,0.17-0.15c-0.19-0.08-0.38-0.14-0.57-0.23
					c-0.15,0.05-0.14,0.07-0.23,0.19c-0.02,0.02,0,0.07,0.03,0.08C196.06,20.86,196.08,20.81,196.38,20.86z"/>
				<path class="st6" d="M72.63,3.18c0.24,0.11,0.22,0.19,0.48,0.24c0.01-0.14,0.03-0.31,0.05-0.44C73,3.03,72.83,3.04,72.67,3.09
					c-0.02,0.01-0.02,0.06-0.03,0.07C72.63,3.17,72.62,3.18,72.63,3.18z"/>
				<path class="st5" d="M18.26,11.77c-0.23,1.92-0.92,2.14-0.02,3.87c0.44,0.85,2.17,1.4,2.28,0.45c0.3-2.52-0.99-2.47-1.92-4.83
					C18.44,10.83,18.32,11.25,18.26,11.77z"/>
				<path class="st6" d="M176.94,35.11L176.94,35.11c0.01,0.02,0,0.03,0.02,0.03c0.01-0.02,0.02-0.04,0.02-0.05
					C176.97,35.08,176.97,35.1,176.94,35.11z"/>
				<path class="st6" d="M164.25,35.42C164.25,35.42,164.24,35.42,164.25,35.42C164.24,35.42,164.24,35.42,164.25,35.42
					c0,0.01,0.01,0.01,0.02,0.02C164.26,35.43,164.25,35.43,164.25,35.42z"/>
				<path class="st5" d="M114.68,1.31c0-0.01,0-0.02,0-0.03c-0.11-0.01-0.11-0.02-0.21,0c-0.03,0-0.01,0.05,0.01,0.06
					c0.08,0.03,0.09,0.03,0.18,0.04C114.68,1.38,114.67,1.34,114.68,1.31z"/>
				<path class="st5" d="M29.98,8.05c0.1,0.06,0.28,0.3,0.38,0.36c1.51-1.07,1.69-0.95,2.86-2.38c0.28-0.35-0.4-0.73-0.83-0.59
					c-1.51,0.47-1.6,0.55-2.84,1.52C29.15,7.26,29.81,7.58,29.98,8.05z"/>
				<path class="st2" d="M73.94,16.61c0.03,0.05,0.05,0.1,0.08,0.15c0.03,0.01,0.05,0.01,0.06-0.02
					C74.03,16.7,73.99,16.65,73.94,16.61z"/>
				<path class="st2" d="M-2.04,65.76c0.11-0.03,0.12-0.03,0.22-0.09c0.03-0.05,0.06-0.13,0.09-0.18c0-0.03-0.02,0-0.04,0.01
					c-0.35,0.1-0.35,0.08-0.69,0.2l0.02-0.04c0.05,0.03,0.08,0.08,0.13,0.11C-2.18,65.81-2.18,65.8-2.04,65.76z"/>
				<path class="st3" d="M88.6,2.87c-0.28-0.37-0.32-0.54-0.79-0.47c-0.36,0.05-0.35,0.29-0.3,0.64C87.85,2.99,88.26,2.92,88.6,2.87
					z"/>
				<path class="st3" d="M124.15,5.66c0.74,0.96,0.88,1.39,2.08,1.19c0.94-0.16,0.91-0.77,0.76-1.7
					C126.1,5.31,125.04,5.52,124.15,5.66z"/>
				<path class="st3" d="M145.05,22.6c-0.04-0.31-0.02-0.43-0.32-0.54c-0.23-0.08-0.31,0.06-0.4,0.29
					C144.55,22.43,144.82,22.52,145.05,22.6z"/>
				<path class="st1" d="M197.44,36.55c-0.01,0.05-0.02,0.1-0.02,0.16c0.01,0.01,0.02-0.01,0.03-0.01c0.01-0.03,0.02-0.05,0.04-0.08
					C197.49,36.57,197.48,36.56,197.44,36.55z"/>
				<path class="st6" d="M19.56,0.61c-0.25,0.1-0.64,0.32-0.9,0.43c-0.08,0.95-0.7,1.4,0.19,1.78c1.09,0.47,1.4,0.13,2.18-0.75
					C21.7,1.32,20.38,1.17,19.56,0.61z"/>
				<path class="st2" d="M2.94,11.28c0.27-0.23,0.52-0.43,0.8-0.67c0.03-0.38,0.05-0.4-0.18-0.7c-0.4,0-0.73-0.04-1.12-0.06
					c0.15,0.49,0.22,1,0.37,1.49C2.82,11.38,2.9,11.31,2.94,11.28z"/>
				<path class="st6" d="M60.9,8.02c-0.02,0.12-0.02,0.24-0.04,0.35c0.02,0.01,0.03,0.03,0.06,0.04c0.02-0.19,0.01-0.19,0.01-0.38
					C60.92,8.02,60.91,8.01,60.9,8.02z"/>
				<path class="st6" d="M195.5,49.82c0.03,0.14,0.09,0.27,0.12,0.41c0.03,0,0.05,0.01,0.08,0.02c-0.06-0.22-0.08-0.21-0.17-0.42
					C195.52,49.8,195.5,49.8,195.5,49.82z"/>
				<path class="st5" d="M143.78,3.05c-0.01-0.02,0-0.04-0.03-0.04C143.72,3,143.69,3,143.69,3.03c0,0.04,0.02,0.04,0.06,0.07
					C143.77,3.08,143.78,3.06,143.78,3.05z"/>
				<path class="st6" d="M136.21,83.41c-0.08-0.01-0.15-0.02-0.23-0.03c-0.04,0.07-0.07,0.14-0.11,0.21c0.01,0.04,0,0.04,0.05,0.04
					c0.1,0,0.1,0.02,0.18-0.04c0.08-0.06,0.07-0.07,0.12-0.16C136.23,83.42,136.21,83.41,136.21,83.41z"/>
			</g>
		</g>
	</g>
</g>
<g>
	<polygon class="st7" points="118.69,28.82 80.45,30.97 81.25,41.5 119.49,39.35 	"/>
	<g>
		<path class="st0" d="M90.16,37.97c-0.61-0.09-1.24-0.73-1.88-1.92c-0.1-0.18-0.18-0.27-0.24-0.27c-0.04,0-0.06,0.04-0.09,0.1
			c-0.01,0.02-0.02,0.08-0.04,0.17c-0.02,0.09-0.04,0.2-0.06,0.33c-0.06,0.36-0.13,0.65-0.21,0.85c-0.07,0.2-0.17,0.38-0.29,0.52
			c-0.06,0.07-0.11,0.12-0.15,0.15c-0.04,0.04-0.09,0.07-0.14,0.09c-0.11,0.05-0.21,0.08-0.31,0.09c-0.23,0.01-0.44-0.08-0.65-0.28
			c-0.42-0.41-0.7-1.31-0.81-2.72c-0.01-0.11-0.02-0.23-0.03-0.33c-0.02-0.32-0.03-0.62-0.02-0.88c0.01-0.35,0.04-0.74,0.1-1.17
			c0.04-0.29,0.07-0.49,0.1-0.6c0.03-0.12,0.08-0.21,0.14-0.28c0.11-0.12,0.23-0.18,0.35-0.19c0.03,0,0.05,0,0.07,0
			c0.16,0.02,0.27,0.1,0.36,0.26c0.03,0.04,0.04,0.1,0.05,0.18v0.03c0.01,0.09,0,0.2-0.02,0.35c-0.04,0.34-0.05,0.73-0.05,1.19
			s0.01,0.86,0.04,1.21l0.01,0.2c0.02,0.25,0.05,0.47,0.08,0.66s0.06,0.32,0.09,0.39s0.07,0.1,0.11,0.1c0.01,0,0.03,0,0.04-0.01
			c0.03-0.01,0.06-0.08,0.08-0.19c0.03-0.12,0.06-0.32,0.1-0.61c0.04-0.31,0.09-0.64,0.15-0.98c0.06-0.35,0.11-0.61,0.14-0.77
			c0.05-0.25,0.13-0.43,0.22-0.54c0.09-0.1,0.22-0.16,0.39-0.17c0.11-0.01,0.19,0,0.26,0.02s0.13,0.06,0.2,0.13
			c0.06,0.05,0.11,0.13,0.17,0.25s0.12,0.31,0.21,0.57c0.35,1.06,0.7,1.84,1.05,2.33c0.05,0.08,0.11,0.14,0.18,0.21
			c0.07,0.06,0.11,0.09,0.14,0.09s0.05-0.01,0.07-0.04c0.02-0.02,0.04-0.06,0.05-0.09c0.01-0.07,0.01-0.2,0-0.41
			c-0.02-0.3-0.07-0.74-0.14-1.33c-0.08-0.63-0.16-1.14-0.22-1.53c-0.06-0.38-0.15-0.84-0.26-1.38c-0.02-0.1-0.04-0.18-0.05-0.23
			s-0.01-0.09-0.02-0.12v-0.04c0-0.04,0-0.07,0.01-0.11c0.02-0.18,0.1-0.32,0.25-0.4c0.08-0.05,0.17-0.08,0.25-0.08
			c0.06,0,0.12,0,0.18,0.02c0.14,0.05,0.25,0.15,0.33,0.31c0.03,0.06,0.06,0.2,0.12,0.42c0.05,0.22,0.11,0.48,0.16,0.77
			c0.06,0.29,0.11,0.57,0.15,0.83c0.03,0.18,0.06,0.44,0.11,0.77s0.09,0.66,0.13,0.99s0.07,0.58,0.09,0.76
			c0.01,0.08,0.02,0.16,0.02,0.24c0.04,0.56,0.01,1.01-0.09,1.37c-0.15,0.46-0.42,0.71-0.81,0.73
			C90.26,37.98,90.21,37.98,90.16,37.97z"/>
		<path class="st0" d="M93.57,37.63c-0.56-0.07-1.01-0.44-1.35-1.11c-0.18-0.37-0.28-0.82-0.32-1.35c0-0.06-0.01-0.12-0.01-0.18
			c-0.02-0.52,0.01-0.91,0.1-1.18s0.24-0.45,0.46-0.54c0.03-0.01,0.06-0.02,0.11-0.05c0.05-0.02,0.1-0.05,0.16-0.07
			c0.04-0.02,0.08-0.04,0.12-0.05c0.17-0.08,0.3-0.14,0.39-0.16s0.18-0.04,0.27-0.05c0.04,0,0.09,0,0.14,0
			c0.44-0.01,0.81,0.12,1.1,0.38c0.32,0.3,0.53,0.61,0.61,0.94c0.08,0.32,0.12,0.57,0.14,0.75c0.02,0.32-0.01,0.64-0.09,0.98
			c-0.17,0.7-0.51,1.2-1.02,1.51c-0.2,0.12-0.41,0.18-0.62,0.2C93.69,37.64,93.63,37.64,93.57,37.63z M93.87,36.4
			c0.11-0.06,0.2-0.17,0.29-0.33c0.09-0.16,0.15-0.35,0.19-0.55c0.02-0.13,0.03-0.25,0.03-0.35c-0.01-0.1-0.01-0.17-0.01-0.2
			c-0.01-0.13-0.03-0.23-0.05-0.32c-0.11-0.32-0.26-0.52-0.47-0.6c-0.06-0.02-0.13-0.03-0.19-0.02c-0.11,0.01-0.22,0.04-0.34,0.11
			c-0.16,0.09-0.26,0.17-0.31,0.25c-0.04,0.08-0.06,0.2-0.05,0.36v0.05c0.04,0.5,0.12,0.9,0.26,1.2c0.14,0.31,0.3,0.45,0.48,0.44
			c0.03,0,0.06-0.01,0.09-0.02C93.82,36.42,93.85,36.41,93.87,36.4z"/>
		<path class="st0" d="M97.1,37.38c-0.08-0.03-0.15-0.08-0.2-0.13c-0.05-0.06-0.11-0.15-0.16-0.29s-0.12-0.34-0.2-0.6
			c-0.13-0.41-0.22-0.73-0.28-0.96s-0.12-0.5-0.17-0.81c-0.03-0.16-0.06-0.3-0.09-0.44s-0.05-0.24-0.06-0.29
			c-0.03-0.11-0.05-0.2-0.05-0.28c0-0.04,0-0.07,0-0.1c0.01-0.09,0.05-0.17,0.12-0.25c0.1-0.1,0.2-0.16,0.31-0.16
			c0.11-0.01,0.22,0.03,0.33,0.12c0.07,0.06,0.12,0.12,0.17,0.2c0.05,0.08,0.09,0.19,0.14,0.34c0.04,0.13,0.08,0.22,0.1,0.27
			c0.03,0.05,0.06,0.07,0.1,0.07s0.07-0.03,0.1-0.07s0.07-0.12,0.12-0.22c0.25-0.62,0.6-1.01,1.06-1.19
			c0.07-0.02,0.16-0.04,0.26-0.05l0.08-0.01c0.08,0,0.15,0,0.2,0.01c0.05,0.01,0.11,0.03,0.17,0.05c0.11,0.05,0.22,0.13,0.35,0.24
			s0.22,0.23,0.3,0.34c0.04,0.06,0.06,0.11,0.07,0.15s0.02,0.1,0.03,0.17c0,0.07,0,0.12,0,0.16c-0.01,0.03-0.02,0.08-0.05,0.12
			c-0.06,0.11-0.13,0.18-0.21,0.22s-0.16,0.06-0.23,0.07c-0.04,0-0.08,0-0.12-0.01c-0.03-0.01-0.07-0.02-0.12-0.05
			s-0.1-0.06-0.15-0.09s-0.1-0.06-0.14-0.09c-0.04-0.02-0.08-0.04-0.1-0.04c-0.01,0-0.02,0-0.03,0c-0.13,0.01-0.27,0.21-0.41,0.6
			c-0.22,0.62-0.36,1.34-0.44,2.17c-0.02,0.24-0.06,0.42-0.11,0.54c-0.05,0.12-0.13,0.21-0.24,0.26c-0.07,0.04-0.15,0.06-0.22,0.07
			C97.25,37.42,97.17,37.41,97.1,37.38z"/>
		<path class="st0" d="M101.76,37.65c-0.1-0.05-0.18-0.12-0.24-0.21s-0.09-0.18-0.09-0.27c0-0.02,0-0.04,0-0.06
			c0.01-0.1,0.04-0.2,0.1-0.28c0.06-0.08,0.17-0.19,0.32-0.31c0.18-0.15,0.3-0.26,0.36-0.33c0.06-0.07,0.09-0.15,0.09-0.21
			c0-0.05-0.02-0.1-0.06-0.14s-0.11-0.08-0.22-0.12c-0.11-0.04-0.27-0.1-0.49-0.17c-0.27-0.08-0.46-0.15-0.58-0.2
			s-0.23-0.11-0.32-0.17c-0.34-0.24-0.52-0.56-0.55-0.96c0-0.06,0-0.12,0-0.18c0.02-0.49,0.24-0.97,0.67-1.45
			c0.34-0.36,0.66-0.62,0.98-0.77c0.11-0.04,0.21-0.07,0.3-0.07c0.21-0.01,0.39,0.07,0.51,0.27c0.04,0.06,0.06,0.13,0.06,0.2
			c0,0.04,0,0.08-0.01,0.12c-0.02,0.11-0.06,0.21-0.14,0.28c-0.02,0.02-0.05,0.04-0.1,0.07c-0.04,0.03-0.09,0.05-0.14,0.08
			c-0.21,0.09-0.42,0.28-0.65,0.56c-0.12,0.14-0.21,0.28-0.27,0.41c-0.07,0.13-0.1,0.24-0.09,0.31c0,0.07,0.02,0.12,0.06,0.17
			c0.04,0.04,0.1,0.09,0.2,0.13s0.25,0.1,0.45,0.16c0.23,0.07,0.41,0.14,0.55,0.19c0.14,0.06,0.26,0.12,0.36,0.18
			c0.42,0.27,0.64,0.6,0.66,1.01c0,0.06,0,0.11,0,0.17c-0.04,0.36-0.23,0.71-0.57,1.04c-0.11,0.11-0.24,0.21-0.37,0.32
			c-0.14,0.11-0.25,0.18-0.32,0.22c-0.08,0.04-0.16,0.06-0.25,0.07C101.91,37.69,101.83,37.68,101.76,37.65z"/>
		<path class="st0" d="M107.35,37.1c-0.03-0.01-0.06-0.02-0.1-0.04s-0.07-0.04-0.1-0.07c-0.07-0.06-0.12-0.12-0.15-0.18
			c-0.02-0.06-0.04-0.13-0.04-0.22c0-0.04,0-0.09,0-0.14c0.01-0.15,0.03-0.36,0.06-0.63c0.05-0.39,0.08-0.7,0.1-0.93
			s0.03-0.45,0.03-0.66c0-0.14,0-0.27-0.01-0.4c0-0.05-0.01-0.1-0.01-0.15c-0.01-0.17-0.04-0.29-0.06-0.35
			c-0.05-0.12-0.12-0.17-0.21-0.17c-0.11,0.01-0.24,0.1-0.4,0.29c-0.26,0.29-0.47,0.73-0.63,1.34c-0.17,0.61-0.26,1.16-0.25,1.65
			c0,0.18,0,0.31-0.03,0.4c-0.02,0.09-0.07,0.16-0.13,0.22c-0.08,0.07-0.15,0.12-0.21,0.13c-0.06,0.01-0.11,0.02-0.13,0.02
			c-0.08,0.01-0.16-0.01-0.23-0.04c-0.2-0.08-0.33-0.28-0.39-0.6c-0.01-0.05-0.04-0.16-0.08-0.32s-0.09-0.33-0.14-0.53
			c-0.19-0.71-0.32-1.3-0.4-1.78c-0.08-0.47-0.14-1.03-0.18-1.67c-0.02-0.33-0.03-0.58-0.04-0.73c0-0.15,0.01-0.26,0.03-0.33
			s0.06-0.13,0.12-0.19c0.11-0.12,0.22-0.19,0.33-0.2c0.1-0.01,0.21,0.03,0.31,0.11c0.04,0.03,0.08,0.07,0.11,0.12
			c0.03,0.05,0.05,0.13,0.07,0.23s0.04,0.25,0.06,0.45c0.05,0.39,0.1,0.76,0.15,1.09c0.05,0.33,0.08,0.52,0.11,0.58
			s0.07,0.09,0.1,0.09c0.01,0,0.03-0.01,0.04-0.01c0.05-0.03,0.12-0.13,0.21-0.29c0.12-0.21,0.27-0.41,0.46-0.61
			s0.36-0.35,0.53-0.46c0.2-0.12,0.4-0.19,0.6-0.2c0.05,0,0.1,0,0.14,0c0.26,0.02,0.49,0.11,0.69,0.28
			c0.18,0.15,0.31,0.33,0.39,0.55c0.08,0.22,0.14,0.53,0.16,0.93c0.04,0.64-0.01,1.47-0.15,2.48c-0.04,0.3-0.08,0.51-0.14,0.63
			c-0.06,0.13-0.15,0.21-0.28,0.26c-0.05,0.02-0.09,0.03-0.13,0.03h-0.02C107.47,37.12,107.42,37.11,107.35,37.1z"/>
		<path class="st0" d="M109.1,31.19c-0.23-0.08-0.37-0.2-0.4-0.34c-0.03-0.15-0.05-0.24-0.05-0.28c-0.01-0.2,0.04-0.38,0.17-0.55
			c0.11-0.13,0.24-0.2,0.38-0.2c0.04,0,0.08,0,0.12,0.01c0.19,0.03,0.33,0.11,0.43,0.23c0.09,0.13,0.15,0.25,0.15,0.37
			c0.01,0.09,0,0.18-0.03,0.27c-0.06,0.17-0.15,0.3-0.26,0.38s-0.23,0.13-0.33,0.13C109.22,31.22,109.16,31.21,109.1,31.19z
			 M109.6,36.44c-0.07-0.03-0.13-0.07-0.19-0.13c-0.06-0.06-0.1-0.13-0.13-0.2c-0.08-0.27-0.16-0.96-0.24-2.07l-0.01-0.15
			c-0.01-0.25-0.02-0.45-0.03-0.59s-0.01-0.25-0.01-0.31c0-0.07,0-0.12,0.01-0.15c0-0.03,0.01-0.06,0.02-0.09
			c0.03-0.08,0.06-0.13,0.09-0.18c0.04-0.04,0.09-0.08,0.15-0.12c0.07-0.04,0.15-0.07,0.23-0.07c0.03,0,0.06,0,0.09,0
			c0.11,0.02,0.21,0.06,0.27,0.15c0.05,0.05,0.08,0.12,0.1,0.19s0.03,0.2,0.04,0.37c0.01,0.1,0.02,0.21,0.03,0.33
			c0.01,0.13,0.02,0.24,0.04,0.33c0.01,0.1,0.03,0.26,0.06,0.49c0.03,0.23,0.06,0.47,0.09,0.72c0.05,0.35,0.07,0.62,0.08,0.79
			c0.01,0.17,0.01,0.29-0.01,0.36c-0.02,0.07-0.06,0.14-0.12,0.2c-0.07,0.08-0.14,0.12-0.21,0.14s-0.12,0.03-0.15,0.03
			C109.74,36.48,109.67,36.47,109.6,36.44z"/>
		<path class="st0" d="M112.19,39.44c-0.07-0.03-0.12-0.06-0.16-0.09c-0.04-0.04-0.08-0.09-0.12-0.15c-0.03-0.05-0.05-0.1-0.07-0.15
			c-0.02-0.05-0.04-0.13-0.07-0.24s-0.06-0.27-0.11-0.49c-0.35-1.63-0.59-3.18-0.7-4.66l-0.01-0.23c-0.01-0.14-0.01-0.25-0.02-0.33
			c0-0.12,0.01-0.22,0.03-0.28c0.02-0.06,0.06-0.12,0.12-0.18c0.09-0.11,0.19-0.17,0.31-0.18c0.04,0,0.08,0,0.13,0.01
			c0.04,0.01,0.08,0.02,0.12,0.05c0.04,0.02,0.09,0.07,0.16,0.13c0.1,0.1,0.18,0.15,0.24,0.15h0.01c0.06-0.01,0.14-0.1,0.25-0.26
			c0.4-0.52,0.82-0.86,1.25-1.01c0.1-0.03,0.2-0.05,0.29-0.05c0.21-0.01,0.41,0.03,0.6,0.14c0.27,0.15,0.46,0.41,0.58,0.76
			c0.03,0.11,0.05,0.25,0.07,0.42l0.01,0.1c0.01,0.21,0,0.42-0.02,0.62c-0.1,0.77-0.34,1.38-0.72,1.86c-0.4,0.5-0.91,0.81-1.52,0.94
			c-0.13,0.03-0.22,0.06-0.28,0.09c-0.05,0.04-0.08,0.08-0.08,0.14c0,0.06,0,0.09,0,0.1c0.01,0.1,0.03,0.25,0.07,0.44
			c0.02,0.12,0.05,0.27,0.09,0.46c0.04,0.19,0.08,0.37,0.12,0.55c0.05,0.24,0.09,0.42,0.11,0.52c0.02,0.1,0.03,0.18,0.03,0.24
			c0,0.05,0,0.1,0,0.13c-0.01,0.08-0.03,0.14-0.06,0.19c-0.09,0.17-0.22,0.26-0.38,0.27h-0.05c-0.03,0-0.06,0-0.08,0
			C112.27,39.47,112.23,39.46,112.19,39.44z M112.9,35.11c0.35-0.16,0.63-0.45,0.82-0.84c0.08-0.17,0.14-0.36,0.19-0.58
			c0.05-0.21,0.07-0.37,0.07-0.48s0-0.18,0-0.21c-0.01-0.12-0.03-0.2-0.07-0.24c-0.03-0.04-0.08-0.06-0.12-0.06
			c-0.12,0.01-0.29,0.14-0.51,0.4c-0.33,0.4-0.62,0.9-0.87,1.5c-0.08,0.19-0.12,0.31-0.12,0.35c0,0.04,0,0.07,0,0.07
			c0,0.07,0.04,0.12,0.12,0.14c0.04,0.01,0.09,0.02,0.16,0.01h0.06C112.72,35.17,112.81,35.15,112.9,35.11z"/>
	</g>
	<g>
		<path class="st8" d="M80.46,29.99c-0.32-0.09-0.54-0.3-0.67-0.63c-0.04-0.09-0.08-0.23-0.12-0.4s-0.08-0.46-0.15-0.86
			c-0.05-0.36-0.12-0.58-0.21-0.66s-0.22-0.12-0.38-0.11c-0.08,0-0.17,0.01-0.27,0.03c-0.27,0.04-0.47,0.07-0.62,0.1
			c-0.14,0.03-0.25,0.05-0.32,0.07s-0.12,0.05-0.15,0.08c-0.07,0.05-0.12,0.1-0.15,0.15c-0.03,0.06-0.05,0.12-0.05,0.19
			s0,0.13,0,0.19c0,0.1,0.01,0.22,0.02,0.36l0.04,0.6l-0.11,0.22c-0.18,0.34-0.35,0.52-0.52,0.52s-0.25,0.01-0.26,0.01
			c-0.33,0.01-0.59-0.15-0.8-0.47c-0.05-0.09-0.1-0.2-0.13-0.34c-0.04-0.14-0.07-0.34-0.11-0.62c-0.04-0.27-0.08-0.65-0.14-1.14
			c-0.21-1.92-0.34-3.24-0.38-3.96c-0.05-0.72-0.07-1.25-0.09-1.6c-0.03-0.78-0.03-1.58-0.01-2.41c0-0.22,0.01-0.38,0.01-0.49
			s0.02-0.19,0.03-0.25c0.02-0.06,0.04-0.13,0.08-0.21c0.05-0.1,0.09-0.17,0.13-0.23s0.09-0.11,0.16-0.15
			c0.16-0.1,0.31-0.15,0.46-0.16c0.11,0,0.22,0.02,0.33,0.07c0.25,0.11,0.4,0.34,0.46,0.66c0.01,0.06,0.02,0.29,0.05,0.67
			c0.03,0.39,0.06,0.84,0.09,1.37c0.11,1.79,0.2,3.03,0.26,3.73c0.06,0.7,0.11,1.08,0.16,1.15c0.04,0.06,0.09,0.11,0.16,0.15
			c0.07,0.04,0.15,0.05,0.23,0.05s0.22-0.03,0.42-0.07c0.2-0.05,0.4-0.09,0.59-0.15s0.32-0.09,0.39-0.12
			c0.04-0.02,0.07-0.05,0.11-0.09s0.06-0.07,0.08-0.11c0.02-0.03,0.03-0.08,0.04-0.14s0.01-0.15,0.01-0.29s-0.01-0.33-0.02-0.6
			s-0.03-0.62-0.06-1.07c-0.02-0.35-0.03-0.69-0.04-1.02c-0.01-0.32-0.02-0.63-0.02-0.92c0-0.59,0.01-1.32,0.03-2.22
			c0.01-0.43,0.04-0.73,0.07-0.91s0.09-0.32,0.17-0.42c0.1-0.14,0.21-0.23,0.33-0.26s0.22-0.05,0.28-0.05c0.1,0,0.21,0.02,0.31,0.06
			c0.3,0.14,0.48,0.43,0.53,0.88c0.01,0.1,0.03,0.46,0.06,1.1c0.04,0.64,0.07,1.4,0.11,2.29c0.08,1.85,0.15,3.2,0.22,4.05
			c0.07,0.85,0.17,1.68,0.29,2.48c0.06,0.39,0.1,0.68,0.1,0.89c0,0.07,0,0.13,0,0.19c-0.02,0.21-0.09,0.38-0.22,0.52
			c-0.11,0.12-0.23,0.2-0.36,0.25c-0.13,0.04-0.23,0.07-0.31,0.07C80.58,30.01,80.52,30.01,80.46,29.99z"/>
		<path class="st8" d="M86.2,29.92c-0.68-0.16-1.28-0.57-1.82-1.21c-0.54-0.64-0.94-1.45-1.22-2.43c-0.21-0.83-0.33-1.67-0.35-2.54
			c-0.04-1.1,0.07-2.23,0.33-3.39c0.15-0.61,0.34-1.17,0.58-1.67c0.17-0.37,0.34-0.64,0.51-0.82c0.17-0.17,0.38-0.29,0.63-0.36
			c0.2-0.05,0.43-0.07,0.72-0.08c0.1,0,0.2,0,0.3,0c0.42,0,0.81,0.04,1.17,0.1c1.97,0.41,3.11,2.11,3.43,5.12
			c0.02,0.19,0.03,0.38,0.04,0.57c0.03,0.91-0.06,1.79-0.26,2.66c-0.25,1.05-0.64,1.96-1.18,2.71c-0.41,0.57-0.89,0.97-1.43,1.19
			c-0.13,0.06-0.24,0.09-0.34,0.11s-0.24,0.04-0.42,0.05l-0.19,0.01C86.48,29.95,86.32,29.95,86.2,29.92z M87.12,27.85
			c0.32-0.21,0.63-0.64,0.92-1.3c0.37-0.85,0.56-1.57,0.57-2.16c0.02-0.59,0.02-0.96,0.02-1.12c-0.03-0.84-0.18-1.62-0.45-2.36
			c-0.21-0.57-0.49-0.97-0.84-1.2c-0.35-0.23-0.81-0.34-1.39-0.33h-0.04c-0.22,0.01-0.38,0.03-0.48,0.08
			c-0.09,0.04-0.17,0.13-0.22,0.25c-0.1,0.24-0.2,0.64-0.3,1.2s-0.17,1.12-0.21,1.68c-0.02,0.41-0.03,0.8-0.02,1.17
			c0.04,1.29,0.3,2.36,0.79,3.21c0.42,0.68,0.83,1.02,1.24,1.01C86.85,27.98,86.99,27.93,87.12,27.85z"/>
		<path class="st8" d="M93.17,29.39c-0.69-0.1-1.17-0.41-1.46-0.95c-0.14-0.23-0.21-0.51-0.22-0.84c-0.01-0.21,0.01-0.45,0.06-0.7
			c0.12-0.65,0.45-1.67,0.99-3.04c0.1-0.24,0.24-0.6,0.43-1.06s0.39-0.92,0.59-1.37c0.47-1.07,0.7-1.64,0.7-1.7
			c-0.02-0.16-0.13-0.24-0.33-0.23c-0.04,0-0.15,0.01-0.31,0.04c-0.16,0.02-0.34,0.05-0.53,0.08c-0.46,0.09-0.76,0.14-0.91,0.15
			s-0.26,0.02-0.33,0.02c-0.11,0-0.19,0-0.25-0.02c-0.26-0.06-0.44-0.18-0.55-0.34c-0.11-0.17-0.17-0.33-0.17-0.49
			c0-0.08,0-0.16,0.02-0.24c0.03-0.15,0.11-0.29,0.23-0.42s0.27-0.23,0.44-0.3c0.34-0.15,1.28-0.29,2.83-0.44
			c0.42-0.05,0.7-0.07,0.84-0.08s0.25-0.01,0.31-0.01c0.13,0,0.22,0,0.3,0c0.1,0.01,0.19,0.04,0.27,0.07
			c0.35,0.17,0.53,0.47,0.55,0.9v0.03c0.01,0.19-0.08,0.54-0.27,1.05c-0.2,0.53-0.57,1.44-1.14,2.74c-0.94,2.19-1.52,3.71-1.75,4.56
			c-0.02,0.09-0.03,0.16-0.04,0.2s-0.01,0.07-0.01,0.1v0.03c0.01,0.03,0.02,0.06,0.04,0.09c0.05,0.13,0.17,0.2,0.33,0.19
			c0.06,0,0.12-0.01,0.2-0.03c0.42-0.09,1.15-0.38,2.19-0.86c0.26-0.13,0.49-0.24,0.71-0.33c0.21-0.09,0.35-0.15,0.42-0.17
			c0.08-0.02,0.16-0.03,0.24-0.03c0.22-0.01,0.41,0.05,0.58,0.18c0.22,0.16,0.35,0.4,0.37,0.71c0.01,0.27-0.08,0.5-0.28,0.69
			c-0.06,0.06-0.12,0.12-0.2,0.17c-0.08,0.05-0.2,0.12-0.36,0.2c-0.17,0.08-0.42,0.2-0.77,0.37c-1.51,0.72-2.65,1.09-3.4,1.12
			C93.39,29.4,93.27,29.4,93.17,29.39z"/>
		<path class="st8" d="M99.99,28.96c-0.09-0.05-0.18-0.12-0.27-0.21c-0.09-0.09-0.15-0.19-0.2-0.29c-0.06-0.12-0.09-0.34-0.1-0.66
			c-0.01-0.43,0.02-1.03,0.09-1.81c0.07-0.72,0.21-1.55,0.4-2.51c0.19-0.95,0.41-1.88,0.66-2.78c0.6-2.13,1.25-3.38,1.97-3.75
			c0.09-0.05,0.17-0.09,0.24-0.1s0.17-0.02,0.32-0.03c0.2-0.01,0.36,0.01,0.48,0.06c0.13,0.04,0.26,0.13,0.4,0.25
			c0.19,0.16,0.34,0.36,0.46,0.6s0.23,0.61,0.33,1.09s0.22,1.17,0.35,2.05c0.47,3.06,0.91,5.16,1.34,6.28
			c0.07,0.18,0.12,0.31,0.14,0.39s0.03,0.14,0.03,0.19c0,0.03,0,0.05,0,0.08c-0.07,0.52-0.35,0.8-0.83,0.84
			c-0.26,0.01-0.49-0.08-0.69-0.26c-0.1-0.09-0.19-0.19-0.26-0.31c-0.07-0.12-0.15-0.28-0.23-0.49c-0.08-0.2-0.15-0.34-0.23-0.43
			c-0.08-0.08-0.17-0.13-0.29-0.14c-0.03,0-0.07-0.01-0.14,0c-0.1,0-0.25,0.01-0.43,0.03c-0.3,0.03-0.63,0.06-0.98,0.1
			c-0.35,0.04-0.6,0.07-0.78,0.1c-0.24,0.04-0.41,0.11-0.5,0.21c-0.09,0.1-0.14,0.3-0.15,0.58c-0.01,0.21-0.04,0.37-0.09,0.5
			c-0.05,0.12-0.13,0.23-0.24,0.32c-0.06,0.05-0.11,0.09-0.17,0.11c-0.05,0.02-0.13,0.03-0.24,0.04h-0.09c-0.06,0-0.11,0-0.15,0
			C100.1,29,100.04,28.99,99.99,28.96z M102.7,25.24c0.23-0.04,0.43-0.08,0.6-0.11s0.28-0.06,0.33-0.08
			c0.08-0.04,0.15-0.11,0.18-0.22c0.01-0.04,0.03-0.07,0.03-0.09c0-0.03,0.01-0.05,0.01-0.08s0-0.06-0.01-0.09
			c-0.01-0.07-0.02-0.17-0.05-0.31c-0.02-0.13-0.05-0.31-0.1-0.54c-0.05-0.27-0.11-0.62-0.18-1.04c-0.07-0.42-0.13-0.8-0.19-1.16
			c-0.13-0.81-0.22-1.26-0.26-1.37c-0.04-0.07-0.09-0.11-0.15-0.1h-0.02c-0.07,0.01-0.13,0.06-0.18,0.15
			c-0.09,0.17-0.23,0.62-0.43,1.35c-0.19,0.73-0.38,1.52-0.56,2.37c-0.11,0.54-0.17,0.91-0.16,1.12c0,0.07,0.01,0.13,0.03,0.16
			c0.01,0.02,0.03,0.04,0.07,0.06c0.03,0.02,0.07,0.05,0.12,0.07c0.04,0.02,0.08,0.03,0.11,0.04l0.24-0.04
			C102.29,25.3,102.48,25.28,102.7,25.24z"/>
		<path class="st8" d="M108.88,29.11c-0.26-0.1-0.46-0.28-0.57-0.54c-0.05-0.09-0.09-0.23-0.12-0.42c-0.03-0.19-0.07-0.5-0.12-0.92
			s-0.1-1.02-0.17-1.8c-0.04-0.46-0.09-0.92-0.13-1.38s-0.08-0.8-0.1-1.04c-0.03-0.35-0.05-0.75-0.07-1.21s-0.04-0.8-0.04-1.03
			c-0.01-0.44-0.03-0.88-0.04-1.32c-0.02-0.64-0.02-1.06-0.01-1.27c0.01-0.1,0.02-0.2,0.04-0.3c0.02-0.1,0.04-0.18,0.06-0.23
			c0.11-0.25,0.27-0.43,0.48-0.53c0.21-0.11,0.39-0.16,0.54-0.17c0.1,0,0.21,0.01,0.3,0.04c0.19,0.05,0.4,0.27,0.61,0.66
			s0.52,1.1,0.92,2.12c0.71,1.81,1.21,3.05,1.51,3.72c0.08,0.18,0.16,0.36,0.24,0.53c0.08,0.17,0.13,0.29,0.16,0.37
			c0.04,0.07,0.08,0.15,0.12,0.22s0.09,0.13,0.12,0.18c0.05,0.05,0.09,0.09,0.11,0.1c0.02,0.01,0.03,0.02,0.04,0.02
			c0.02,0,0.03-0.01,0.05-0.02c0.03-0.02,0.06-0.06,0.08-0.11c0.02-0.05,0.03-0.14,0.04-0.26s0.02-0.3,0.02-0.53
			c0-0.23,0-0.53,0-0.91c0-0.42,0-0.85,0-1.3c0-0.44,0.01-0.8,0.02-1.06c0.01-0.54,0.03-1.13,0.05-1.76
			c0.02-0.63,0.04-1.14,0.05-1.54c0.01-0.31,0.03-0.54,0.07-0.7s0.11-0.29,0.21-0.39c0.18-0.19,0.39-0.28,0.62-0.29h0.04
			c0.25,0.01,0.47,0.11,0.65,0.32c0.09,0.1,0.16,0.22,0.2,0.36c0.04,0.15,0.06,0.35,0.07,0.63v0.12c0,0.33-0.01,0.8-0.03,1.41
			c-0.06,1.73-0.09,3.29-0.08,4.67c0.01,1.38-0.01,2.37-0.07,2.98c-0.06,0.61-0.18,1.05-0.36,1.33c-0.26,0.46-0.61,0.7-1.06,0.71
			h-0.03c-0.31,0.01-0.58-0.08-0.83-0.28c-0.25-0.19-0.53-0.57-0.84-1.12c-0.31-0.55-0.71-1.35-1.18-2.4
			c-0.14-0.31-0.25-0.54-0.33-0.71c-0.08-0.17-0.15-0.28-0.19-0.35c-0.05-0.07-0.09-0.11-0.12-0.12c-0.01-0.01-0.02-0.01-0.03-0.01
			c-0.07,0-0.11,0.07-0.14,0.22v0.08c0,0.12,0.02,0.33,0.04,0.65c0.04,0.42,0.08,0.9,0.13,1.44c0.05,0.54,0.1,1.02,0.15,1.44
			c0.03,0.27,0.05,0.5,0.05,0.67c0,0.08,0,0.16,0,0.22c-0.02,0.18-0.07,0.33-0.16,0.45c-0.12,0.16-0.25,0.27-0.39,0.32
			s-0.25,0.08-0.34,0.08S108.97,29.14,108.88,29.11z"/>
		<path class="st8" d="M116.76,28.4c-0.09-0.05-0.18-0.12-0.26-0.21c-0.09-0.09-0.16-0.19-0.2-0.29c-0.06-0.12-0.09-0.34-0.1-0.66
			c-0.01-0.43,0.02-1.03,0.09-1.81c0.07-0.72,0.21-1.55,0.4-2.51c0.19-0.95,0.41-1.88,0.66-2.78c0.59-2.13,1.25-3.38,1.97-3.75
			c0.09-0.05,0.17-0.09,0.24-0.1s0.18-0.02,0.32-0.03c0.2-0.01,0.36,0.01,0.49,0.06c0.13,0.04,0.26,0.13,0.4,0.25
			c0.19,0.16,0.34,0.36,0.46,0.6s0.23,0.61,0.33,1.09s0.22,1.17,0.35,2.05c0.47,3.06,0.91,5.16,1.34,6.28
			c0.07,0.18,0.12,0.31,0.13,0.39c0.02,0.08,0.03,0.14,0.03,0.19c0,0.03,0,0.05-0.01,0.08c-0.07,0.52-0.35,0.8-0.83,0.84
			c-0.26,0.01-0.49-0.08-0.69-0.26c-0.1-0.09-0.19-0.19-0.26-0.31c-0.08-0.12-0.15-0.28-0.23-0.49c-0.08-0.2-0.16-0.34-0.23-0.43
			c-0.08-0.08-0.17-0.13-0.29-0.14c-0.03,0-0.07-0.01-0.14,0c-0.1,0-0.25,0.01-0.43,0.03c-0.3,0.03-0.63,0.06-0.98,0.1
			c-0.34,0.04-0.6,0.07-0.78,0.1c-0.24,0.04-0.41,0.11-0.5,0.21c-0.09,0.1-0.14,0.3-0.15,0.58c-0.01,0.21-0.04,0.37-0.09,0.5
			c-0.05,0.12-0.13,0.23-0.24,0.32c-0.06,0.05-0.11,0.09-0.17,0.11c-0.05,0.02-0.13,0.03-0.24,0.04h-0.09c-0.06,0-0.11,0-0.15,0
			C116.87,28.45,116.81,28.43,116.76,28.4z M119.47,24.69c0.23-0.04,0.43-0.08,0.6-0.11s0.28-0.06,0.33-0.08
			c0.09-0.04,0.15-0.11,0.18-0.22c0.02-0.03,0.03-0.07,0.03-0.09c0-0.03,0.01-0.05,0.01-0.08s0-0.06-0.01-0.09
			c-0.01-0.07-0.02-0.17-0.05-0.31c-0.02-0.13-0.05-0.31-0.09-0.54c-0.05-0.27-0.11-0.62-0.18-1.04c-0.07-0.42-0.13-0.8-0.19-1.16
			c-0.13-0.81-0.22-1.26-0.26-1.37c-0.04-0.07-0.09-0.11-0.15-0.1h-0.02c-0.07,0.01-0.13,0.06-0.18,0.15
			c-0.09,0.17-0.23,0.62-0.43,1.35c-0.19,0.73-0.38,1.52-0.56,2.37c-0.11,0.54-0.17,0.91-0.16,1.12c0,0.07,0.01,0.13,0.03,0.16
			c0.01,0.02,0.03,0.04,0.07,0.06c0.03,0.02,0.07,0.05,0.12,0.07s0.08,0.03,0.11,0.04l0.24-0.04
			C119.06,24.75,119.25,24.72,119.47,24.69z"/>
	</g>
</g>
<g>
	<path class="st9" d="M46.69,118.82l-1.03-17.75c-0.35-0.49-0.82-1.37-1.4-2.64c-0.58-1.27-0.88-2.03-0.89-2.29
		c-0.02-0.25-0.01-0.4,0.02-0.43c0.27-0.32,1.98-0.58,5.11-0.78c6.04-0.4,10.79,0.6,14.26,2.99c3.47,2.39,5.34,5.77,5.63,10.14
		c0.14,2.16-0.06,4.16-0.61,6.02c-0.55,1.86-1.34,3.44-2.38,4.75c-1.04,1.32-2.21,2.49-3.53,3.52c-1.32,1.03-2.73,1.87-4.23,2.51
		c-2.95,1.21-5.67,1.9-8.13,2.07c-1.16,0.08-1.84,0.03-2.02-0.14C47.29,126.63,47.03,123.97,46.69,118.82z M60.14,117.08
		c0.78-0.92,1.42-2.14,1.9-3.66c0.48-1.52,0.67-3.12,0.56-4.79c-0.11-1.68-0.49-3.09-1.15-4.23c-0.66-1.14-1.4-2-2.22-2.56
		c-0.82-0.56-1.76-1-2.8-1.33c-1.61-0.5-3.12-0.7-4.55-0.6c-0.38,0.03-0.57,0.05-0.56,0.08c-0.19,0.22-0.06,3.76,0.39,10.62
		s0.78,10.38,1,10.58c0.06,0.06,0.27,0.07,0.64,0.05s0.91-0.16,1.63-0.42c0.73-0.26,1.57-0.71,2.54-1.36
		C58.48,118.8,59.35,118.01,60.14,117.08z"/>
	<path class="st9" d="M72.8,97.05c0.8-0.05,1.46,0.18,1.99,0.68c0.53,0.51,0.82,1.19,0.88,2.06c0.06,0.87-0.22,1.63-0.84,2.29
		c-0.61,0.66-1.32,1.01-2.12,1.06c-0.8,0.05-1.45-0.17-1.97-0.66c-0.51-0.49-0.8-1.17-0.86-2.04c-0.06-0.87,0.21-1.64,0.81-2.31
		C71.31,97.46,72,97.1,72.8,97.05z M75.73,108.08l0.39,7.28c0.15,2.33,0.33,4.04,0.53,5.13s0.64,2.08,1.31,3
		c0.02,0.3-0.54,0.82-1.69,1.55c-1.15,0.74-2.14,1.13-2.98,1.19c-0.26,0.02-0.55-0.42-0.87-1.3s-0.54-1.72-0.67-2.53
		c-0.13-0.8-0.34-3.52-0.64-8.17s-0.37-7.18-0.19-7.61c0.63-0.58,1.79-0.93,3.48-1.04c0.67-0.04,1.08,0.02,1.24,0.19L75.73,108.08z"
		/>
	<path class="st9" d="M94.76,111.35l0.78,10.64c0.15,2.33-0.02,4.43-0.51,6.28c-0.49,1.85-1.14,3.31-1.95,4.37
		c-0.81,1.06-1.75,1.94-2.85,2.64c-1.76,1.17-3.57,1.81-5.43,1.93c-0.09,0-0.28-0.21-0.57-0.64c-0.29-0.43-0.58-1.03-0.86-1.79
		s-0.45-1.47-0.49-2.13l0.83-0.05c0.58-0.04,1.14-0.13,1.67-0.27s1.17-0.48,1.92-1c0.75-0.53,1.38-1.2,1.88-2.02
		c0.5-0.82,0.9-2,1.21-3.55c0.31-1.55,0.39-3.35,0.26-5.38c-0.01-0.12-0.03-0.18-0.06-0.18l-0.12,0.14
		c-1.09,2.03-2.93,3.12-5.52,3.29c-1.95,0.13-3.55-0.56-4.82-2.07c-1.27-1.51-1.96-3.25-2.09-5.23c-0.24-3.59,0.69-6.63,2.77-9.11
		c2.08-2.48,5.22-3.86,9.4-4.13c1.02-0.07,1.53-0.03,1.54,0.12c0.12,0.5,0.2,1.06,0.24,1.65l0,0.68l0.48-0.03
		c0.93-0.06,1.56-0.01,1.89,0.15L94.76,111.35z M89.76,107.89l-0.92-0.07c-1.86,0.12-3.29,0.84-4.3,2.15
		c-1.01,1.31-1.45,2.9-1.33,4.75c0.06,0.93,0.38,1.72,0.96,2.37c0.58,0.65,1.39,0.95,2.42,0.88c1.03-0.07,1.87-0.54,2.51-1.43
		c0.64-0.88,0.95-1.58,0.91-2.09C89.8,111.04,89.71,108.85,89.76,107.89z"/>
	<path class="st9" d="M102.62,111.87l0.15,1.66l0.22,3.41c0.21,3.2,0.26,4.87,0.15,5c-0.35,0.41-0.99,0.75-1.9,1.03
		c-0.92,0.27-1.67,0.42-2.27,0.46s-0.9,0.01-0.9-0.08c0.12-1.36,0.07-3.58-0.13-6.67l-0.79-10.09c-0.12-1.86-0.12-2.86,0.02-3.02
		c0.3-0.35,0.83-0.68,1.6-0.98c0.77-0.31,1.49-0.48,2.17-0.53c0.68-0.04,1.03,0.01,1.04,0.16c-0.04,0.72-0.04,1.45,0.01,2.16
		s0.11,1.08,0.2,1.07l0.12-0.1c0.13-0.22,0.33-0.5,0.6-0.83c0.27-0.33,0.86-0.79,1.77-1.38c0.91-0.58,1.79-0.91,2.65-0.96
		c0.86-0.06,1.59,0.05,2.21,0.33c0.62,0.28,1.13,0.62,1.53,1.05s0.78,1.05,1.11,1.87c0.33,0.82,0.59,1.59,0.78,2.29
		c0.19,0.71,0.37,1.66,0.54,2.85c0.2,1.64,0.38,3.73,0.54,6.28l0.21,5.26c0.01,0.21-0.45,0.44-1.4,0.7
		c-0.95,0.26-1.71,0.4-2.29,0.44l-1.45-0.13c0.11-2.71,0.09-5.33-0.08-7.86c-0.17-2.53-0.45-4.42-0.85-5.67
		c-0.4-1.25-1.08-1.85-2.04-1.78c-0.96,0.06-1.72,0.38-2.28,0.96c-0.56,0.58-0.91,1.14-1.05,1.69l-0.25,0.78L102.62,111.87z"/>
	<path class="st9" d="M130.64,120.18c-0.94,0.75-2.85,1.22-5.73,1.41c-2.88,0.19-5.14-0.55-6.79-2.22
		c-1.66-1.67-2.58-3.97-2.77-6.92c-0.19-2.95,0.56-5.57,2.26-7.86c1.7-2.29,4.22-3.54,7.56-3.76c1.37-0.09,2.64,0.2,3.84,0.88
		c1.2,0.67,1.86,1.95,1.98,3.82s-0.55,3.77-2.01,5.7c-1.46,1.93-3.53,3.46-6.19,4.6c0.02,0.36,0.4,0.63,1.12,0.81
		c0.73,0.18,1.44,0.25,2.13,0.2c2.21-0.14,3.92-0.66,5.15-1.56c0.03-0.03,0.07-0.05,0.13-0.05c0.06,0,0.11,0.28,0.14,0.85
		C131.58,117.81,131.3,119.18,130.64,120.18z M125.92,106.15c-0.06-0.87-0.54-1.27-1.44-1.21c-1.19,0.08-2.2,0.77-3.01,2.09
		c-0.82,1.32-1.17,2.86-1.05,4.62c0.03,0.42,0.1,0.62,0.22,0.62c1.04-0.1,2.21-0.8,3.49-2.1
		C125.41,108.87,126.01,107.53,125.92,106.15z"/>
</g>
<g>
	<path d="M156.32,84.98c0.32,0,0.6-0.1,0.84-0.27c0.43-0.3,0.77-0.69,0.93-1.2c0.14-0.47,0.06-0.92-0.16-1.35
		c-0.19-0.36-0.45-0.65-0.74-0.93c-0.43-0.42-0.86-0.84-1.29-1.27c-0.08-0.08-0.12-0.09-0.2,0c-0.48,0.47-1.03,0.85-1.66,1.11
		c-1.05,0.44-2.13,0.51-3.23,0.2c-1.3-0.37-2.29-1.15-3-2.29c-0.42-0.69-0.61-1.45-0.66-2.25c-0.06-1.03,0.1-2.03,0.32-3.03
		c0.13-0.57,0.27-1.13,0.41-1.69c0.02-0.08,0.01-0.14-0.05-0.2c-0.69-0.65-1.31-1.35-1.83-2.15c-0.34-0.53-0.59-1.11-0.77-1.72
		c-0.17-0.57-0.29-1.15-0.28-1.75c0.01-0.49,0.1-0.97,0.38-1.39c0.16-0.24,0.37-0.3,0.62-0.25c0.28,0.05,0.53,0.17,0.77,0.31
		c0.5,0.28,0.95,0.62,1.38,1c0.4,0.35,0.79,0.73,1.09,1.17c0.37,0.55,0.63,1.15,0.81,1.79c0.34,1.2,0.34,2.41,0.1,3.63
		c0,0,0,0.01,0,0.01c-0.12,0.26-0.02,0.43,0.18,0.62c0.39,0.36,0.76,0.75,1.13,1.13c0.06,0.06,0.09,0.06,0.16,0.01
		c0.66-0.51,1.39-0.78,2.23-0.73c1.13,0.07,2.01,0.6,2.65,1.53c0.7,1.01,0.74,2.09,0.33,3.22c-0.1,0.27-0.23,0.54-0.38,0.79
		c-0.07,0.11-0.05,0.16,0.03,0.25c0.59,0.59,1.18,1.17,1.75,1.78c0.52,0.55,0.86,1.2,0.85,1.99c-0.01,0.66-0.28,1.21-0.7,1.69
		c-0.42,0.49-0.93,0.87-1.56,1.06c-0.69,0.21-1.37,0.22-2.03-0.13c-1.08-0.58-1.29-2.04-0.43-2.89c0.77-0.76,2.13-0.47,2.52,0.54
		c0.2,0.53,0.04,1-0.29,1.43C156.48,84.81,156.4,84.89,156.32,84.98z M149.73,73.73c-0.02,0.06-0.04,0.1-0.05,0.15
		c-0.11,0.37-0.22,0.73-0.31,1.11c-0.18,0.74-0.31,1.48-0.28,2.25c0.03,0.8,0.23,1.54,0.72,2.19c0.69,0.93,1.65,1.27,2.78,1.16
		c0.53-0.05,1.03-0.2,1.51-0.46c0.38-0.21,0.73-0.44,1.03-0.75c0.06-0.07,0.1-0.11,0.01-0.18c-0.09-0.08-0.17-0.17-0.25-0.26
		c-0.86-0.87-1.71-1.73-2.57-2.6c-0.08-0.08-0.11-0.08-0.16,0.02c-0.19,0.33-0.29,0.67-0.29,1.05c0,0.89,0.55,1.43,1.44,1.43
		c0.15,0,0.31-0.03,0.46-0.04c0.13-0.01,0.22,0.06,0.28,0.17c0.06,0.1,0.04,0.2-0.02,0.29c-0.09,0.14-0.23,0.2-0.39,0.23
		c-0.56,0.11-1.11,0.09-1.65-0.12c-0.84-0.33-1.41-0.91-1.62-1.8c-0.22-0.92-0.03-1.79,0.46-2.59c0.04-0.06,0.05-0.1-0.01-0.16
		C150.46,74.47,150.11,74.11,149.73,73.73z M148.15,70.92c0.04-0.03,0.04-0.06,0.04-0.09c0.11-0.4,0.19-0.81,0.23-1.23
		c0.08-0.84,0.02-1.67-0.35-2.45c-0.11-0.23-0.23-0.45-0.44-0.61c-0.3-0.22-0.62-0.17-0.82,0.14c-0.05,0.07-0.09,0.15-0.12,0.23
		c-0.12,0.33-0.13,0.67-0.08,1.01c0.08,0.64,0.29,1.25,0.6,1.82C147.45,70.19,147.79,70.57,148.15,70.92z M152.9,75.69
		c0.01,0.04,0.04,0.06,0.07,0.09c0.87,0.87,1.74,1.74,2.6,2.62c0.2,0.2,0.2,0.2,0.29-0.06c0.23-0.71,0.21-1.39-0.22-2.02
		C155.03,75.42,153.85,75.17,152.9,75.69z"/>
	<path d="M163.91,69.5c-0.64,0.25-1.29,0.5-1.94,0.75c-0.09,0.03-0.11,0.06-0.08,0.16c0.34,1.48,0.68,2.96,1.02,4.44
		c0.07,0.3,0.14,0.59,0.2,0.89c0.08,0.37-0.01,0.71-0.2,1.02c-0.51,0.84-1.25,1.35-2.23,1.49c-0.18,0.03-0.37,0.02-0.56-0.03
		c-0.53-0.14-0.84-0.58-0.77-1.12c0.06-0.43,0.27-0.79,0.55-1.1c0.45-0.49,0.98-0.83,1.63-0.98c0.12-0.03,0.24-0.06,0.37-0.04
		c0.07,0.01,0.08-0.02,0.06-0.08c-0.17-0.74-0.34-1.48-0.51-2.22c-0.21-0.93-0.43-1.87-0.64-2.8c-0.04-0.17-0.08-0.35-0.12-0.52
		c-0.05-0.21,0.01-0.33,0.21-0.41c1.29-0.51,2.58-1.02,3.87-1.53c0.44-0.17,0.88-0.34,1.31-0.52c0.27-0.11,0.42,0.01,0.48,0.27
		c0.21,0.94,0.43,1.88,0.64,2.82c0.23,0.99,0.45,1.98,0.67,2.97c0.05,0.21,0.1,0.43,0.14,0.64c0.09,0.37-0.01,0.71-0.2,1.03
		c-0.52,0.88-1.29,1.38-2.31,1.49c-0.29,0.03-0.57-0.02-0.82-0.19c-0.39-0.26-0.53-0.75-0.36-1.26c0.14-0.42,0.39-0.76,0.72-1.05
		c0.44-0.39,0.94-0.67,1.53-0.77c0.05-0.01,0.09-0.01,0.14-0.02c0.19-0.02,0.19-0.02,0.15-0.2c-0.29-1.28-0.59-2.57-0.88-3.85
		c-0.02-0.08-0.05-0.08-0.12-0.06C165.23,68.98,164.57,69.23,163.91,69.5C163.91,69.49,163.91,69.49,163.91,69.5z"/>
	<path d="M143.61,85.46c-0.25-0.65-0.25-1.32-0.1-1.99c0.13-0.56,0.36-1.07,0.76-1.5c0.07-0.07,0.02-0.09-0.03-0.13
		c-1.05-0.71-2.11-1.41-3.16-2.12c-0.8-0.54-1.6-1.08-2.4-1.62c-0.29-0.2-0.36-0.58-0.15-0.87c0.12-0.16,0.26-0.28,0.44-0.37
		c0.37-0.19,0.71-0.43,1.07-0.64c0.4-0.25,0.8-0.49,1.28-0.55c0.63-0.08,1.21,0.06,1.73,0.42c0.39,0.28,0.76,0.59,1.04,0.99
		c0.07,0.1,0.13,0.2,0.15,0.33c0.01,0.05,0.03,0.11-0.03,0.15c-0.05,0.03-0.1-0.01-0.14-0.04c-0.27-0.19-0.57-0.35-0.88-0.47
		c-0.37-0.14-0.74-0.19-1.12-0.07c-0.21,0.06-0.39,0.18-0.53,0.34c-0.21,0.25-0.37,0.52-0.47,0.84c-0.02,0.08-0.01,0.12,0.06,0.16
		c1.25,0.84,2.5,1.68,3.75,2.52c0.38,0.26,0.77,0.51,1.15,0.77c0.32,0.21,0.53,0.52,0.63,0.88c0.34,1.21,0.12,2.32-0.66,3.31
		c-0.25,0.32-0.59,0.55-1,0.61c-0.54,0.07-0.94-0.17-1.23-0.61C143.7,85.68,143.65,85.57,143.61,85.46z"/>
	<path d="M142.52,94.98c-0.31,0.13-0.63,0.05-0.82-0.19c-0.19-0.24-0.19-0.59,0.01-0.82c0.21-0.25,0.44-0.48,0.66-0.72
		c0.47-0.51,0.94-1.02,1.43-1.51c0.76-0.74,1.59-1.38,2.53-1.89c0.29-0.16,0.66-0.06,0.86,0.22c0.19,0.26,0.15,0.64-0.08,0.86
		c-0.17,0.16-0.39,0.24-0.58,0.36c-0.81,0.5-1.52,1.13-2.18,1.81c-0.54,0.57-1.07,1.14-1.6,1.71
		C142.67,94.89,142.58,94.96,142.52,94.98z"/>
	<path d="M137.84,92.92c-0.38,0.16-0.81-0.05-0.91-0.46c-0.31-1.28-0.61-2.57-0.71-3.9c-0.05-0.71-0.06-1.42-0.01-2.13
		c0.02-0.33,0.22-0.56,0.52-0.64c0.27-0.07,0.56,0.05,0.73,0.31c0.09,0.13,0.1,0.28,0.09,0.43c-0.06,0.92-0.02,1.84,0.1,2.75
		c0.11,0.82,0.29,1.63,0.48,2.43c0.04,0.15,0.07,0.3,0.11,0.45C138.3,92.48,138.14,92.8,137.84,92.92z"/>
	<path d="M139.42,92.94c-0.06-0.14-0.08-0.28-0.04-0.42c0.4-1.39,0.79-2.78,1.43-4.09c0.27-0.54,0.57-1.06,0.9-1.55
		c0.19-0.28,0.54-0.37,0.84-0.23c0.28,0.13,0.43,0.45,0.36,0.76c-0.02,0.1-0.08,0.19-0.13,0.28c-0.46,0.68-0.83,1.4-1.14,2.16
		c-0.26,0.64-0.47,1.29-0.66,1.95c-0.11,0.36-0.21,0.72-0.32,1.08c-0.08,0.26-0.27,0.41-0.53,0.45c-0.26,0.04-0.47-0.05-0.64-0.26
		C139.46,93.03,139.44,92.98,139.42,92.94z"/>
	<path d="M145.3,99.04c-0.06-0.15-0.12-0.3-0.19-0.44c0,0,0,0,0.01,0C145.19,98.74,145.25,98.89,145.3,99.04
		C145.31,99.04,145.3,99.04,145.3,99.04z"/>
	<path d="M172.49,87.76c-0.1-0.06-0.03-0.18-0.09-0.22C172.42,87.59,172.46,87.68,172.49,87.76z"/>
	<path d="M177.07,85.85c-0.08-0.08-0.09-0.19-0.16-0.31C177.01,85.64,177.01,85.76,177.07,85.85z"/>
	<path d="M145.4,98.95c0.07,0.06,0.09,0.15,0.1,0.24C145.47,99.11,145.44,99.03,145.4,98.95z"/>
	<path d="M148.84,97.11c0.13,0.03,0.23-0.09,0.36-0.09C149.07,97.02,148.97,97.16,148.84,97.11z"/>
	<path d="M149.56,97c0.06,0.13,0.11,0.27,0.17,0.4c0,0,0,0-0.01,0C149.67,97.27,149.61,97.14,149.56,97
		C149.56,97,149.56,97,149.56,97z"/>
	<path d="M144.35,99.5c-0.06-0.07-0.09-0.14-0.1-0.25C144.32,99.33,144.32,99.42,144.35,99.5z"/>
	<path d="M149.75,97.03c0.04,0.1,0.09,0.21,0.13,0.31c0,0-0.01,0-0.01,0.01c-0.04-0.1-0.09-0.21-0.13-0.31
		C149.75,97.04,149.75,97.04,149.75,97.03z"/>
</g>
</svg>
