<svg width="38" height="37" viewBox="0 0 38 37" fill="none" xmlns="http://www.w3.org/2000/svg">
    <path d="M37.3076 24.2373C37.3286 24.2583 37.3286 24.2793 37.3286 24.3003C37.3286 24.2793 37.3286 24.2583 37.3076 24.2373Z" fill="black"></path>
    <path d="M26.1728 36.2861C26.1518 36.3071 26.1518 36.3071 26.1309 36.3071C26.1518 36.3071 26.1728 36.2861 26.1728 36.2861Z" fill="black"></path>
    <path d="M26.3608 36.1182C26.3608 36.1392 26.3398 36.1392 26.3398 36.1601C26.3398 36.1392 26.3398 36.1182 26.3608 36.1182Z" fill="black"></path>
    <path d="M26.2773 36.2021C26.2563 36.2231 26.2563 36.2231 26.2354 36.2441C26.2563 36.2231 26.2563 36.2231 26.2773 36.2021Z" fill="black"></path>
    <path d="M26.0888 36.3496C26.0679 36.3496 26.0678 36.3706 26.0469 36.3706C26.0469 36.3706 26.0679 36.3706 26.0888 36.3496Z" fill="black"></path>
    <path d="M37.3496 24.3418C37.3706 24.3838 37.3706 24.4258 37.3916 24.4887C37.3706 24.4258 37.3706 24.3838 37.3496 24.3418Z" fill="black"></path>
    <path d="M25.8793 36.4336C25.8584 36.4336 25.8374 36.4546 25.8164 36.4546C25.8374 36.4546 25.8584 36.4546 25.8793 36.4336Z" fill="black"></path>
    <path d="M25.9828 36.4121C25.9619 36.4121 25.9409 36.4331 25.9199 36.4331C25.9409 36.4121 25.9619 36.4121 25.9828 36.4121Z" fill="black"></path>
    <path d="M37.1826 24.0273C37.2036 24.0483 37.2245 24.0693 37.2245 24.0903C37.2036 24.0693 37.2036 24.0483 37.1826 24.0273Z" fill="black"></path>
    <path d="M37.2451 24.1318C37.2661 24.1528 37.2661 24.1738 37.2871 24.1948C37.2871 24.1738 37.2661 24.1528 37.2451 24.1318Z" fill="black"></path>
    <path d="M37.3081 25.0771C37.3081 25.0981 37.2871 25.0981 37.2871 25.1191C37.3081 25.0981 37.3081 25.0771 37.3081 25.0771Z" fill="black"></path>
    <path d="M37.2446 25.1816C37.2446 25.2026 37.2236 25.2026 37.2236 25.2236C37.2446 25.2026 37.2446 25.2026 37.2446 25.1816Z" fill="black"></path>
    <path d="M25.4804 36.4751C25.4594 36.4751 25.4384 36.4751 25.3965 36.4541C25.4384 36.4751 25.4594 36.4751 25.4804 36.4751Z" fill="black"></path>
    <path d="M37.0771 25.3916C37.0561 25.3916 37.0561 25.4126 37.0352 25.4126C37.0561 25.4126 37.0561 25.3916 37.0771 25.3916Z" fill="black"></path>
    <path d="M37.1826 25.2871C37.1826 25.3081 37.1616 25.3081 37.1406 25.3291C37.1616 25.3081 37.1616 25.3081 37.1826 25.2871Z" fill="black"></path>
    <path d="M34.8545 37C35.0432 37 35.232 36.937 35.3998 36.832C35.232 36.937 35.0432 37 34.8545 37Z" fill="black"></path>
    <path d="M24.9131 36.2236C24.955 36.2656 25.0179 36.3076 25.0808 36.3496C25.0179 36.3076 24.976 36.2656 24.9131 36.2236Z" fill="black"></path>
    <path d="M36.3857 25.811L36.931 25.4961L36.3857 25.811Z" fill="black"></path>
    <path d="M37.0986 23.9434C37.1196 23.9644 37.1406 23.9853 37.1615 24.0063C37.1406 23.9853 37.1196 23.9644 37.0986 23.9434Z" fill="black"></path>
    <path d="M25.543 36.4751C25.5639 36.4751 25.5849 36.4751 25.6059 36.4751C25.6688 36.4751 25.7317 36.4751 25.7946 36.4541C25.7107 36.4751 25.6269 36.4961 25.543 36.4751Z" fill="black"></path>
    <path d="M25.3757 36.4546C25.2918 36.4336 25.1869 36.3916 25.124 36.3496C25.1869 36.4126 25.2708 36.4336 25.3757 36.4546Z" fill="black"></path>
    <path d="M25.9834 4.25283C26.7174 5.93217 27.3255 7.86342 27.745 9.96259C27.8079 10.2355 28.0385 10.4454 28.3321 10.4454H35.3995C35.8399 10.4454 36.1335 9.96259 35.9447 9.56375C33.6589 5.05052 29.6533 1.58688 24.767 0.0334845C24.2008 -0.155441 23.7394 0.495304 24.0959 0.978114C24.788 1.88076 25.4381 2.97233 25.9834 4.25283Z" fill="black"></path>
    <path d="M12.0164 32.0665C11.2194 30.2402 10.5903 28.12 10.1499 25.8319C10.087 25.538 9.8563 25.3281 9.5627 25.3281H2.34857C1.90817 25.3281 1.61458 25.7899 1.80332 26.1888C4.02628 30.9749 8.17859 34.6695 13.2536 36.2858C13.8199 36.4538 14.2603 35.803 13.9038 35.3412C13.2117 34.4386 12.5826 33.347 12.0164 32.0665Z" fill="black"></path>
    <path d="M9.45805 18.1498C9.45805 16.5334 9.54195 14.959 9.70972 13.4266C9.75167 13.0698 9.45806 12.7549 9.10155 12.7549H1.23731C0.964685 12.7549 0.73399 12.9438 0.650105 13.1957C0.230679 14.7701 0 16.4284 0 18.1498C0 19.6612 0.167776 21.1306 0.503316 22.558C0.56623 22.8309 0.817871 23.0199 1.0905 23.0199H9.03863C9.39514 23.0199 9.66777 22.705 9.6468 22.3481C9.52097 20.9837 9.45805 19.5772 9.45805 18.1498Z" fill="black"></path>
    <path d="M21.6843 34.1452L18.916 25.7275C18.8322 25.4756 18.6015 25.3076 18.3498 25.3076H13.128C12.7505 25.3076 12.4569 25.6645 12.5408 26.0423C12.9392 27.9106 13.4635 29.6319 14.1136 31.1223C15.4768 34.2291 17.2593 35.9924 18.9999 35.9924C19.8598 35.9924 20.7196 35.5516 21.5375 34.7539C21.7052 34.607 21.7682 34.3761 21.6843 34.1452Z" fill="black"></path>
    <path d="M28.5418 18.1498C28.5418 18.1498 28.5418 18.1708 28.5418 18.1498C28.5418 18.4227 28.7095 18.6536 28.9612 18.7375L37.4546 21.5294C37.5385 21.5504 37.6014 21.5714 37.6853 21.6134C37.895 20.4799 37.9998 19.3253 37.9998 18.1498C37.9998 16.4284 37.7691 14.7701 37.3497 13.1957C37.2868 12.9438 37.0352 12.7549 36.7625 12.7549H28.8983C28.5418 12.7549 28.2482 13.0698 28.2901 13.4266C28.4579 14.959 28.5418 16.5334 28.5418 18.1498Z" fill="black"></path>
    <path d="M17.0699 20.081C16.7553 19.1364 16.9231 18.0868 17.5103 17.2681C18.0975 16.4494 19.0412 15.9666 20.0268 15.9666C20.3624 15.9666 20.6979 16.0296 21.0125 16.1136L25.4374 17.562C25.8359 17.6879 26.2343 17.3941 26.2343 16.9742C26.1924 15.7147 26.1085 14.4762 25.9617 13.2797C25.9198 12.9858 25.6681 12.7549 25.3535 12.7549H12.6449C12.3304 12.7549 12.0787 12.9858 12.0368 13.2797C11.848 14.8541 11.7432 16.4704 11.7432 18.1498C11.7432 19.6192 11.827 21.0676 11.9738 22.4741C12.0158 22.7889 12.2674 23.0199 12.582 23.0199H17.1957C17.6151 23.0199 17.8877 22.621 17.7619 22.2222L17.0699 20.081Z" fill="black"></path>
    <path d="M23.8865 5.17673C22.5233 2.06995 20.7407 0.306641 19.0001 0.306641C17.2595 0.306641 15.4979 2.09094 14.1138 5.17673C13.4218 6.73012 12.8765 8.51442 12.499 10.4457H25.5012C25.1028 8.51442 24.5575 6.73012 23.8865 5.17673Z" fill="black"></path>
    <path d="M12.0162 4.25322C12.5824 2.97273 13.2115 1.88115 13.9036 0.978507C14.2601 0.516688 13.7987 -0.134057 13.2325 0.0338773C8.36716 1.58727 4.34069 5.0719 2.05481 9.56414C1.8451 9.96299 2.15967 10.4458 2.60006 10.4458H9.66738C9.96098 10.4458 10.1917 10.2359 10.2546 9.96299C10.674 7.86381 11.2612 5.93257 12.0162 4.25322Z" fill="black"></path>
    <path d="M20.3004 18.3174C20.2166 18.2964 20.1327 18.2754 20.0488 18.2754C19.5245 18.2754 19.1051 18.8002 19.2728 19.346L24.6625 35.8035C24.7254 35.9715 24.8093 36.0974 24.9141 36.2024C24.9561 36.2443 25.019 36.2863 25.0819 36.3283C25.0819 36.3283 25.1029 36.3283 25.1029 36.3493C25.1867 36.3913 25.2706 36.4333 25.3545 36.4543C25.3755 36.4543 25.3755 36.4543 25.3965 36.4543C25.4174 36.4543 25.4384 36.4543 25.4804 36.4753C25.5013 36.4753 25.5223 36.4753 25.5433 36.4753C25.6272 36.4753 25.711 36.4753 25.7949 36.4543H25.8159C25.8369 36.4543 25.8578 36.4333 25.8788 36.4333C25.8998 36.4333 25.9207 36.4333 25.9207 36.4123C25.9417 36.4123 25.9627 36.3913 25.9837 36.3913C26.0046 36.3913 26.0256 36.3703 26.0466 36.3703C26.0675 36.3703 26.0885 36.3493 26.0885 36.3493C26.1095 36.3283 26.1305 36.3283 26.1514 36.3073C26.1724 36.3073 26.1724 36.2863 26.1934 36.2863C26.2144 36.2653 26.2353 36.2653 26.2563 36.2443C26.2773 36.2234 26.2773 36.2234 26.2982 36.2024C26.3192 36.1814 26.3402 36.1604 26.3611 36.1394C26.3611 36.1184 26.3821 36.1184 26.3821 36.0974C26.4031 36.0554 26.4241 36.0344 26.466 35.9924L29.0874 31.5632L34.2254 36.7062C34.3722 36.8531 34.54 36.9371 34.7287 36.9791C34.7916 37 34.8545 37 34.9174 37C35.1062 37 35.2949 36.9371 35.4627 36.8321C35.5256 36.7901 35.5676 36.7481 35.6095 36.7062L36.6161 35.6986L37.6856 34.628C38.0631 34.2501 38.0631 33.6204 37.6856 33.2425L32.5477 28.0995L36.4274 25.8114L36.9726 25.4966C37.0146 25.4756 37.0565 25.4546 37.0985 25.4126C37.1194 25.4126 37.1194 25.3916 37.1404 25.3916C37.1614 25.3706 37.1823 25.3496 37.2033 25.3286C37.2243 25.3076 37.2243 25.3076 37.2453 25.2866C37.2662 25.2657 37.2872 25.2447 37.3082 25.2237C37.3082 25.2027 37.3291 25.2027 37.3291 25.1817C37.3501 25.1607 37.3501 25.1187 37.3711 25.0977C37.3711 25.0767 37.3921 25.0767 37.3921 25.0557C37.413 25.0137 37.434 24.9718 37.434 24.9508C37.434 24.9298 37.434 24.9298 37.434 24.9088C37.434 24.8878 37.455 24.8458 37.455 24.8248C37.455 24.8038 37.455 24.7828 37.455 24.7618C37.455 24.7409 37.455 24.7199 37.455 24.6989C37.455 24.6779 37.455 24.6569 37.455 24.6359C37.455 24.6149 37.455 24.5939 37.455 24.5729C37.455 24.5519 37.455 24.5309 37.455 24.5099C37.455 24.489 37.455 24.468 37.455 24.447C37.455 24.405 37.434 24.363 37.413 24.3C37.413 24.279 37.413 24.279 37.413 24.258C37.413 24.2371 37.3921 24.2161 37.3921 24.1951C37.3921 24.1741 37.3711 24.1741 37.3711 24.1531C37.3501 24.1321 37.3501 24.1111 37.3291 24.0901C37.3291 24.0691 37.3082 24.0691 37.3082 24.0481C37.2872 24.0271 37.2872 24.0061 37.2662 23.9852C37.2662 23.9642 37.2453 23.9642 37.2453 23.9642C37.2243 23.9432 37.2033 23.9222 37.1824 23.9012C37.0775 23.8172 36.9726 23.7332 36.8258 23.6913L20.3004 18.3174Z" fill="black"></path>
    <path d="M37.3921 24.8457C37.3921 24.8667 37.3711 24.9087 37.3711 24.9297C37.3711 24.8877 37.3921 24.8667 37.3921 24.8457Z" fill="black"></path>
    <path d="M37.2236 24.0898C37.2236 24.1108 37.2446 24.1108 37.2446 24.1318C37.2446 24.1108 37.2446 24.1108 37.2236 24.0898Z" fill="black"></path>
    <path d="M37.3916 24.5938C37.3916 24.6147 37.3916 24.6357 37.3916 24.6567C37.4126 24.6357 37.4126 24.6147 37.3916 24.5938Z" fill="black"></path>
    <path d="M37.1621 24.0059L37.1833 24.027L37.1621 24.0059Z" fill="black"></path>
    <path d="M37.2871 24.1953C37.2871 24.2163 37.3081 24.2163 37.3081 24.2373C37.3081 24.2163 37.3081 24.2163 37.2871 24.1953Z" fill="black"></path>
    <path d="M37.225 25.2236C37.2041 25.2446 37.1831 25.2656 37.1621 25.2866C37.204 25.2656 37.2041 25.2446 37.225 25.2236Z" fill="black"></path>
    <path d="M25.3964 36.4747C25.3755 36.4747 25.3755 36.4747 25.3545 36.4747C25.3755 36.4537 25.3964 36.4537 25.3964 36.4747Z" fill="black"></path>
    <path d="M25.9199 36.4336C25.8989 36.4336 25.8779 36.4546 25.8779 36.4546C25.8989 36.4336 25.9199 36.4336 25.9199 36.4336Z" fill="black"></path>
    <path d="M26.0463 36.3701C26.0253 36.3701 26.0044 36.3911 25.9834 36.3911C26.0044 36.3911 26.0253 36.3911 26.0463 36.3701Z" fill="black"></path>
    <path d="M25.1032 36.3493C25.1032 36.3493 25.082 36.3493 25.082 36.3281C25.1032 36.3493 25.1032 36.3493 25.1032 36.3493Z" fill="black"></path>
    <path d="M37.14 25.3281C37.1191 25.3491 37.0981 25.3701 37.0771 25.3911C37.0981 25.3701 37.1191 25.3491 37.14 25.3281Z" fill="black"></path>
    <path d="M37.035 25.4121C36.9931 25.4331 36.9511 25.4751 36.9092 25.4961C36.9721 25.4751 37.014 25.4541 37.035 25.4121Z" fill="black"></path>
    <path d="M37.3495 24.9512C37.3286 24.9932 37.3286 25.0351 37.3076 25.0561C37.3286 25.0351 37.3495 24.9932 37.3495 24.9512Z" fill="black"></path>
    <path d="M26.1518 36.3076C26.1308 36.3286 26.1098 36.3286 26.0889 36.3496C26.1098 36.3496 26.1308 36.3286 26.1518 36.3076Z" fill="black"></path>
    <path d="M37.3076 25.0977C37.2866 25.1186 37.2866 25.1606 37.2656 25.1816C37.2656 25.1606 37.2866 25.1396 37.3076 25.0977Z" fill="black"></path>
    <path d="M34.8547 37.0005C34.7918 37.0005 34.7289 37.0005 34.666 36.9795C34.7289 36.9795 34.7918 37.0005 34.8547 37.0005Z" fill="black"></path>
    <path d="M26.4237 36.0137C26.4028 36.0557 26.3818 36.0976 26.3398 36.1186C26.3818 36.0766 26.4028 36.0347 26.4237 36.0137Z" fill="black"></path>
    <path d="M26.2357 36.2441C26.2148 36.2651 26.1938 36.2861 26.1729 36.2861C26.1938 36.2651 26.2148 36.2651 26.2357 36.2441Z" fill="black"></path>
    <path d="M26.3402 36.1396C26.3193 36.1606 26.2983 36.1816 26.2773 36.2026C26.2983 36.1816 26.3193 36.1606 26.3402 36.1396Z" fill="black"></path>
</svg>
