<svg width="38" height="38" viewBox="0 0 38 38" fill="none" xmlns="http://www.w3.org/2000/svg">
    <path d="M19.2519 33.0257L20.2002 34.0585V37.4731C20.2002 37.7682 19.9684 38.0001 19.6734 38.0001H18.3247C18.0297 38.0001 17.7979 37.7682 17.7979 37.4731V34.0375L18.7251 33.0257C18.8726 32.8782 19.1044 32.8782 19.2519 33.0257Z" fill="black"></path>
    <path d="M36.9746 24.3415C34.6144 23.5194 31.9592 23.2032 30.4208 23.0768C29.9572 23.0346 29.7886 22.4655 30.1469 22.1704C34.0665 18.9033 36.3634 15.3622 37.5646 13.0226C38.1757 11.8633 37.1432 10.5143 35.8577 10.7883C31.1373 11.8211 27.0491 14.3926 25.4476 15.5098C25.1315 15.7416 24.6889 15.5308 24.6468 15.1304C23.9303 7.33149 21.5912 2.77865 20.1582 0.670847C19.5893 -0.172274 18.367 -0.235508 17.7348 0.565457C14.026 5.18154 13.4149 12.4745 13.3095 15.0882C13.2884 15.4887 12.8459 15.7206 12.5087 15.4887C10.865 14.3505 6.81895 11.8 2.11966 10.7883C0.85527 10.5143 -0.177306 11.8422 0.412741 13.0015C1.61391 15.3411 3.91088 18.9033 7.85155 22.1915C8.20979 22.4866 8.02013 23.0557 7.57759 23.0979C6.01818 23.2243 3.36298 23.5616 1.0028 24.3836C-0.177296 24.8052 -0.366959 26.4071 0.707769 27.0605C2.16181 27.9458 4.62737 28.9365 8.58911 29.2948C8.9895 29.3369 9.17915 29.7796 8.94734 30.0957C8.31515 30.9389 7.34578 32.4565 6.8611 34.4589C6.65037 35.2809 7.34579 36.0608 8.18872 35.9765C10.1274 35.8079 13.457 35.1123 16.1965 32.3722L17.3766 31.0864C17.777 30.6438 18.367 30.3908 18.9992 30.3908C19.6103 30.3908 20.2004 30.6438 20.6008 31.0864L21.0012 31.5291C21.0433 31.5501 21.0855 31.5923 21.1065 31.6344C23.9514 35.0069 27.7235 35.829 29.8308 35.9976C30.6737 36.0608 31.3691 35.302 31.1584 34.48C30.6737 32.4776 29.7043 30.9389 29.0721 30.1168C28.8403 29.8006 29.03 29.3369 29.4304 29.3159C33.3711 28.9575 35.8155 27.9879 37.2696 27.1237C38.3654 26.386 38.1968 24.763 36.9746 24.3415ZM13.8363 19.6411C13.8363 18.6293 14.6582 17.8073 15.6697 17.8073C16.6812 17.8073 17.503 18.6293 17.503 19.6411C17.503 20.6528 16.6812 21.4748 15.6697 21.4748C14.6582 21.4748 13.8363 20.6528 13.8363 19.6411ZM23.3613 25.6272C22.4973 27.2291 20.8326 28.2198 19.0203 28.2198C17.1869 28.2198 15.5221 27.2081 14.6581 25.6061C14.3631 25.037 14.5739 24.3415 15.1218 24.0464C15.6907 23.7513 16.3862 23.962 16.6812 24.5101C17.1448 25.3743 18.0299 25.9012 18.9992 25.9012C19.9686 25.9012 20.8537 25.3743 21.3173 24.5311C21.6123 23.962 22.3288 23.7723 22.8977 24.0674C23.4456 24.3625 23.6564 25.0792 23.3613 25.6272ZM22.3288 21.4748C21.3172 21.4748 20.4954 20.6528 20.4954 19.6411C20.4954 18.6293 21.3172 17.8073 22.3288 17.8073C23.3403 17.8073 24.1621 18.6293 24.1621 19.6411C24.1621 20.6528 23.3403 21.4748 22.3288 21.4748Z" fill="black"></path>
</svg>
