<svg width="66" height="58" viewBox="0 0 66 58" fill="none" xmlns="http://www.w3.org/2000/svg">
<path d="M17.845 55.4004L17.8445 55.3998C17.5848 55.1732 17.3942 54.9207 17.2651 54.7135C17.139 54.5113 17.081 54.3676 17.0796 54.3642L17.0796 54.3641L17.0795 54.3638L1.75994 15.6702C1.75981 15.6699 1.75969 15.6696 1.75956 15.6692C1.39139 14.7328 1.56759 13.9666 2.18945 13.3632L2.191 13.3617C2.43579 13.1232 2.71287 12.9445 2.9461 12.8211C3.16802 12.7038 3.32744 12.6486 3.33906 12.6445C3.33968 12.6443 3.33988 12.6442 3.33965 12.6443L3.33968 12.6444L3.35244 12.6401L31.6704 3.16233C31.6706 3.16225 31.6709 3.16216 31.6712 3.16208C32.7666 2.79789 33.5314 2.99635 34.0603 3.32208C34.6312 3.67365 34.9989 4.22172 35.1496 4.60421L35.1502 4.60592L50.4737 43.3031C50.4739 43.3035 50.474 43.3039 50.4742 43.3043C50.8417 44.2391 50.6454 44.8673 50.316 45.3201C49.9436 45.8319 49.3418 46.1848 48.8867 46.3363L48.8853 46.3368L20.5579 55.8151C20.5578 55.8151 20.5577 55.8152 20.5576 55.8152C20.173 55.9437 19.8071 56.001 19.4721 56.001C18.8512 56.001 18.3004 55.7983 17.845 55.4004Z" fill="black" stroke="black" stroke-width="2"/>
<mask id="path-2-inside-1" fill="white">
<path fill-rule="evenodd" clip-rule="evenodd" d="M32.9018 0.0131882C32.9018 0.0131882 29.9896 -0.325368 29.6316 2.42822L24.1693 44.5183C24.1693 44.5183 23.8112 47.2719 26.7194 47.6104L56.6805 51.09C56.6805 51.09 59.5926 51.4286 59.9507 48.675L65.417 6.58118C65.417 6.58118 65.775 3.83135 62.8629 3.49279L32.9018 0.0131882Z"/>
</mask>
<path fill-rule="evenodd" clip-rule="evenodd" d="M32.9018 0.0131882C32.9018 0.0131882 29.9896 -0.325368 29.6316 2.42822L24.1693 44.5183C24.1693 44.5183 23.8112 47.2719 26.7194 47.6104L56.6805 51.09C56.6805 51.09 59.5926 51.4286 59.9507 48.675L65.417 6.58118C65.417 6.58118 65.775 3.83135 62.8629 3.49279L32.9018 0.0131882Z" fill="white"/>
<path d="M32.9018 0.0131882L32.6708 1.99981L32.671 1.99984L32.9018 0.0131882ZM29.6316 2.42822L27.6482 2.17033L27.6482 2.17083L29.6316 2.42822ZM24.1693 44.5183L26.1526 44.7762L26.1526 44.7757L24.1693 44.5183ZM26.7194 47.6104L26.4881 49.597L26.4887 49.5971L26.7194 47.6104ZM56.6805 51.09L56.9114 49.1034L56.9112 49.1034L56.6805 51.09ZM59.9507 48.675L61.934 48.9329L61.934 48.9325L59.9507 48.675ZM65.417 6.58118L63.4337 6.32294L63.4336 6.32362L65.417 6.58118ZM62.8629 3.49279L63.0938 1.50617L63.0936 1.50615L62.8629 3.49279ZM32.9018 0.0131882C33.1327 -1.97343 33.1318 -1.97354 33.1309 -1.97365C33.1305 -1.97369 33.1296 -1.9738 33.1289 -1.97387C33.1276 -1.97402 33.1262 -1.97418 33.1248 -1.97434C33.1219 -1.97466 33.1189 -1.975 33.1157 -1.97535C33.1092 -1.97605 33.102 -1.97681 33.094 -1.97761C33.078 -1.97922 33.059 -1.98101 33.0372 -1.98286C32.9935 -1.98654 32.9381 -1.99048 32.8724 -1.99365C32.7417 -1.99996 32.5668 -2.00342 32.3602 -1.99505C31.9567 -1.97871 31.3823 -1.91542 30.7641 -1.70781C30.1408 -1.49843 29.4212 -1.12394 28.8141 -0.456598C28.1923 0.226954 27.7859 1.11187 27.6482 2.17033L31.6149 2.68611C31.6562 2.36778 31.7481 2.26242 31.773 2.235C31.8127 2.19138 31.8883 2.13421 32.0377 2.08403C32.1924 2.03208 32.3683 2.0079 32.5221 2.00167C32.5941 1.99876 32.6495 2.00024 32.6795 2.00169C32.6941 2.0024 32.7016 2.00304 32.7008 2.00297C32.7003 2.00294 32.6977 2.00271 32.6928 2.00222C32.6903 2.00197 32.6873 2.00165 32.6836 2.00125C32.6818 2.00105 32.6798 2.00084 32.6777 2.0006C32.6766 2.00048 32.6755 2.00035 32.6744 2.00022C32.6738 2.00015 32.6729 2.00005 32.6726 2.00002C32.6717 1.99991 32.6708 1.99981 32.9018 0.0131882ZM27.6482 2.17083L22.1859 44.2609L26.1526 44.7757L31.6149 2.68562L27.6482 2.17083ZM24.1693 44.5183C22.1859 44.2604 22.1858 44.2614 22.1857 44.2624C22.1856 44.2628 22.1855 44.2639 22.1854 44.2646C22.1852 44.2661 22.185 44.2676 22.1848 44.2691C22.1844 44.2722 22.184 44.2755 22.1836 44.279C22.1828 44.2859 22.1819 44.2936 22.1809 44.302C22.179 44.3189 22.1769 44.3387 22.1748 44.3612C22.1705 44.4063 22.1661 44.4627 22.1625 44.5292C22.1553 44.6613 22.1515 44.837 22.1608 45.0438C22.179 45.4481 22.2498 46.0227 22.4811 46.6396C22.7165 47.2675 23.1286 47.963 23.831 48.5351C24.5399 49.1126 25.4347 49.4744 26.4881 49.597L26.9507 45.6238C26.55 45.5772 26.3989 45.4678 26.3571 45.4337C26.3087 45.3943 26.265 45.338 26.2264 45.2351C26.1837 45.1213 26.1622 44.9864 26.1567 44.8638C26.1542 44.8072 26.1556 44.7651 26.1566 44.7453C26.1571 44.7358 26.1575 44.7328 26.1571 44.7373C26.1569 44.7396 26.1564 44.7439 26.1557 44.7503C26.1554 44.7535 26.1549 44.7572 26.1544 44.7615C26.1541 44.7637 26.1539 44.766 26.1535 44.7684C26.1534 44.7696 26.1532 44.7709 26.1531 44.7722C26.153 44.7728 26.1529 44.7738 26.1528 44.7741C26.1527 44.7751 26.1526 44.7762 24.1693 44.5183ZM26.4887 49.5971L56.4498 53.0767L56.9112 49.1034L26.9501 45.6238L26.4887 49.5971ZM56.6805 51.09C56.4495 53.0766 56.4505 53.0767 56.4514 53.0768C56.4517 53.0769 56.4527 53.077 56.4533 53.0771C56.4547 53.0772 56.456 53.0774 56.4575 53.0775C56.4603 53.0779 56.4633 53.0782 56.4666 53.0785C56.473 53.0792 56.4803 53.08 56.4883 53.0808C56.5042 53.0824 56.5232 53.0842 56.5451 53.0861C56.5888 53.0897 56.6442 53.0937 56.7098 53.0969C56.8405 53.1032 57.0155 53.1066 57.222 53.0982C57.6255 53.0819 58.2 53.0186 58.8181 52.811C59.4415 52.6016 60.1611 52.2271 60.7681 51.5598C61.3899 50.8762 61.7964 49.9913 61.934 48.9329L57.9674 48.4171C57.926 48.7354 57.8341 48.8408 57.8092 48.8682C57.7695 48.9118 57.6939 48.969 57.5445 49.0192C57.3899 49.0711 57.2139 49.0953 57.0602 49.1015C56.9881 49.1044 56.9328 49.103 56.9028 49.1015C56.8881 49.1008 56.8806 49.1002 56.8815 49.1002C56.8819 49.1003 56.8845 49.1005 56.8894 49.101C56.8919 49.1012 56.895 49.1015 56.8986 49.1019C56.9004 49.1021 56.9024 49.1024 56.9046 49.1026C56.9056 49.1027 56.9067 49.1029 56.9079 49.103C56.9085 49.103 56.9093 49.1031 56.9096 49.1032C56.9105 49.1033 56.9114 49.1034 56.6805 51.09ZM61.934 48.9325L67.4003 6.83873L63.4336 6.32362L57.9674 48.4174L61.934 48.9325ZM65.417 6.58118C67.4002 6.83941 67.4004 6.83838 67.4005 6.83733C67.4006 6.83697 67.4007 6.83591 67.4008 6.83518C67.401 6.83372 67.4012 6.83221 67.4014 6.83066C67.4018 6.82755 67.4022 6.82425 67.4026 6.82077C67.4034 6.81381 67.4043 6.8061 67.4053 6.79766C67.4072 6.78079 67.4093 6.76098 67.4114 6.73841C67.4157 6.69333 67.4202 6.63684 67.4238 6.57038C67.4309 6.43816 67.4348 6.26245 67.4254 6.05559C67.407 5.65125 67.336 5.07665 67.1039 4.4598C66.8677 3.83183 66.4547 3.13701 65.7516 2.56583C65.0421 1.98952 64.1472 1.62863 63.0938 1.50617L62.6319 5.47941C63.0346 5.52623 63.187 5.63603 63.2295 5.67053C63.2783 5.71016 63.3217 5.76628 63.36 5.86808C63.4025 5.98101 63.424 6.11503 63.4295 6.23686C63.432 6.29308 63.4306 6.33485 63.4296 6.35434C63.4291 6.36373 63.4287 6.36665 63.4292 6.36201C63.4294 6.35966 63.4298 6.35534 63.4305 6.3489C63.4309 6.34567 63.4313 6.34191 63.4319 6.33759C63.4321 6.33543 63.4324 6.33314 63.4327 6.33069C63.4329 6.32947 63.433 6.32822 63.4332 6.32692C63.4333 6.32628 63.4334 6.32528 63.4335 6.32496C63.4336 6.32395 63.4337 6.32294 65.417 6.58118ZM63.0936 1.50615L33.1325 -1.97346L32.671 1.99984L62.6321 5.47944L63.0936 1.50615Z" fill="black" mask="url(#path-2-inside-1)"/>
</svg>
