<svg width="38" height="38" viewBox="0 0 38 38" fill="none" xmlns="http://www.w3.org/2000/svg">
    <path d="M30.729 25.1586C30.9398 25.0953 31.1505 25.0531 31.3612 25.011C31.5719 24.9688 31.6983 24.7579 31.6562 24.5681C30.1812 19.1067 27.3155 14.1091 23.2697 9.97609C17.5594 4.15614 10.079 0.676823 2.02966 0.04422C1.06037 -0.0401271 0.175371 0.634648 0.0489419 1.60464C-0.0774871 2.63789 0.681087 3.54462 1.69252 3.60788C8.89897 4.15614 15.5997 7.27698 20.7201 12.4854C23.6069 15.4376 25.8194 18.8747 27.2733 22.6281C27.3365 22.7758 27.4208 22.8812 27.5683 22.9445C28.5376 23.4505 29.4226 24.1464 30.1601 24.9899C30.2655 25.1375 30.4973 25.2007 30.729 25.1586Z" fill="black"></path>
    <path d="M37.9568 7.76157C38.02 5.29442 36.0604 3.249 33.595 3.18574C32.7522 3.16465 31.9514 3.39661 31.2561 3.79726C30.4132 1.62532 28.3061 0.0649024 25.8196 0.00164204C23.1014 -0.0616183 20.7836 1.70967 20.0039 4.15573C21.7528 5.37876 23.3753 6.79158 24.8925 8.33092C26.0304 9.49069 27.0629 10.7137 28.0322 12C30.0129 12.0422 32.415 12.1054 33.3843 12.1265C35.8708 12.1898 37.9147 10.2287 37.9568 7.76157Z" fill="black"></path>
    <path d="M23.67 21.8893C24.0282 21.9104 24.26 21.552 24.0914 21.2357C22.8272 18.6631 21.1414 16.2592 19.0764 14.1505C14.4828 9.44814 8.49853 6.58034 2.02958 5.94774C1.06029 5.86339 0.154218 6.51709 0.0277885 7.48708C-0.0986405 8.52033 0.638862 9.40597 1.65029 9.5114C7.27639 10.0386 12.5021 12.5479 16.5057 16.6387C18.0439 18.2202 19.3293 19.9704 20.3829 21.8472C20.5093 22.0791 20.7832 22.2056 21.0571 22.1424C21.7736 21.9526 22.5322 21.8683 23.2907 21.8683C23.4172 21.8893 23.5436 21.8893 23.67 21.8893Z" fill="black"></path>
    <path d="M18.0441 23.5343C18.297 23.3445 18.3813 23.0071 18.2127 22.733C17.3066 21.1515 16.2109 19.6754 14.9045 18.3258C11.4277 14.7411 6.93945 12.5059 2.07193 11.8944C1.06049 11.7678 0.112277 12.4848 0.00691957 13.497C-0.0773665 14.4669 0.617993 15.3104 1.56621 15.4369C5.65408 15.943 9.42588 17.8197 12.3337 20.8141C13.598 22.1214 14.6516 23.5764 15.4523 25.1579C15.5998 25.4532 16.0002 25.4953 16.2109 25.2423C16.4216 24.9892 16.6323 24.7573 16.8641 24.5253C17.2223 24.1669 17.6227 23.8295 18.0441 23.5343Z" fill="black"></path>
    <path d="M32.6889 27.3303C32.5414 27.3303 32.3939 27.3303 32.2674 27.3514C31.4667 27.4146 30.7292 27.6677 30.076 28.0472C29.781 28.2159 29.4017 28.1316 29.2331 27.8364C29.0224 27.4568 28.7696 27.0772 28.4746 26.7398C27.6949 25.812 26.6624 25.0951 25.4824 24.6944C24.787 24.4625 24.0495 24.3359 23.291 24.3359C22.701 24.3359 22.1531 24.3992 21.6052 24.5468C20.8467 24.7366 20.1302 25.074 19.4981 25.4957C18.2759 26.3181 17.3488 27.5201 16.8642 28.9329C16.6956 29.3968 16.5902 29.8818 16.527 30.3878C16.4849 30.7252 16.1688 30.9572 15.8316 30.915C15.6841 30.8939 15.5156 30.8728 15.347 30.8728C13.4084 30.8728 11.8281 32.4333 11.7859 34.3733C11.7438 36.3765 13.4506 38.0002 15.4313 38.0002H32.5624C35.5335 38.0002 38.0621 35.5541 37.9989 32.5809C37.9567 29.6498 35.5967 27.3303 32.6889 27.3303Z" fill="black"></path>
</svg>
