<svg width="37" height="37" viewBox="0 0 37 37" fill="none" xmlns="http://www.w3.org/2000/svg">
    <path d="M28.869 36.3853V22.9587C28.869 22.6102 28.5816 22.3232 28.2325 22.3232H8.66481C8.31575 22.3232 8.04883 22.6102 8.04883 22.9382V36.4058C8.04883 36.7338 8.31575 37.0003 8.64428 37.0003H18.5205H28.3146C28.6226 36.9798 28.869 36.7133 28.869 36.3853ZM12.9972 24.9061H23.9206C24.5366 24.9061 25.0499 25.4185 25.0499 26.0335C25.0499 26.6485 24.5366 27.1609 23.9206 27.1609H12.9972C12.3812 27.1609 11.8679 26.6485 11.8679 26.0335C11.8679 25.4185 12.3812 24.9061 12.9972 24.9061ZM11.8679 30.3587C11.8679 29.7437 12.3812 29.2313 12.9972 29.2313H23.9206C24.5366 29.2313 25.0499 29.7437 25.0499 30.3587C25.0499 30.9737 24.5366 31.4861 23.9206 31.4861H12.9972C12.3812 31.4861 11.8679 30.9737 11.8679 30.3587Z" fill="black"></path>
    <path d="M8.04885 9.28588C8.04885 9.63435 8.33631 9.92133 8.68536 9.92133H20.8408C21.1898 9.92133 21.4773 9.63435 21.4773 9.28588V0.594459C21.4773 0.266481 21.2103 0 20.8818 0H8.62377C8.29524 0 8.02832 0.266481 8.02832 0.594459V9.28588H8.04885ZM13.9417 2.9928C13.9417 2.66482 14.2087 2.39834 14.5372 2.39834H18.8901C19.2187 2.39834 19.4856 2.66482 19.4856 2.9928V7.33851C19.4856 7.66649 19.2187 7.93297 18.8901 7.93297H14.5372C14.2087 7.93297 13.9417 7.66649 13.9417 7.33851V2.9928Z" fill="black"></path>
    <path d="M36.1376 8.17895L28.8485 0.881452C28.2941 0.327989 27.5344 0.0205078 26.7542 0.0205078H23.7564V9.30638C23.7564 10.9053 22.4628 12.1967 20.8613 12.1967H8.70588C7.10433 12.1967 5.81076 10.9053 5.81076 9.30638V0.0205078H2.36127C1.04717 0.0205078 0 1.08644 0 2.37785V18.4898V34.6017C0 35.9136 1.0677 36.959 2.36127 36.959H5.79024V22.9175C5.79024 21.3391 7.0838 20.0477 8.66482 20.0477H28.2325C29.8341 20.0477 31.1276 21.3391 31.1276 22.938V36.959H34.6387C35.9528 36.959 37 35.8931 37 34.6017V10.2698C37 9.47037 36.692 8.73241 36.1376 8.17895Z" fill="black"></path>
</svg>
