<svg width="37" height="37" viewBox="0 0 37 37" fill="none" xmlns="http://www.w3.org/2000/svg">
    <path d="M16.4398 33.2899L11.0565 28.1448C10.1248 27.2633 9.89703 25.9104 10.4561 24.7625L15.1975 15.2921C14.5557 14.9232 14.1209 14.2262 14.1209 13.4268V12.7913L10.4768 14.7182C10.1455 14.8822 9.79351 14.9847 9.44152 14.9847C9.00671 14.9847 8.57191 14.8617 8.19922 14.5952C7.64018 14.2057 7.3089 13.5908 7.26749 12.9143L6.99832 9.24505C6.97762 8.87608 6.62563 8.63009 6.27364 8.71209L3.51987 9.36804C1.42865 9.86001 0 11.6639 0 13.7138V35.9547C0 36.5287 0.476217 36.9797 1.03525 36.9797H16.7504C17.0817 36.9797 17.3509 36.7132 17.3509 36.3852V35.1143C17.3509 34.4379 17.0817 33.8024 16.5641 33.3719C16.5227 33.3514 16.4813 33.3104 16.4398 33.2899Z" fill="black"></path>
    <path d="M16.9988 13.3442H19.9804C20.3116 13.3442 20.5808 13.0777 20.5808 12.7497V11.9503C20.5808 11.7248 20.4566 11.5403 20.2702 11.4378L18.7795 10.6384C18.5931 10.5359 18.3861 10.5359 18.2204 10.6384L16.7297 11.4378C16.5433 11.5403 16.4191 11.7453 16.4191 11.9503V12.7497C16.3984 13.0777 16.6676 13.3442 16.9988 13.3442Z" fill="black"></path>
    <path d="M27.1863 1.66072L20.9748 8.42527C20.7056 8.71225 20.7884 9.16322 21.1404 9.3477L26.6273 12.2585C27 12.4635 27.4762 12.2175 27.4969 11.787L28.2216 2.11169C28.263 1.53773 27.5797 1.25075 27.1863 1.66072Z" fill="black"></path>
    <path d="M24.2662 0.0204986L12.6713 0C12.1537 0 11.8845 0.614958 12.2365 0.983934L18.034 7.31801C18.2617 7.58449 18.6758 7.58449 18.9243 7.31801L24.7217 1.00443C25.0737 0.614958 24.7838 0.0204986 24.2662 0.0204986Z" fill="black"></path>
    <path d="M33.4597 9.36804L30.7059 8.71209C30.3539 8.63009 30.002 8.87608 29.9812 9.24505L29.7121 12.9143C29.6707 13.5908 29.3394 14.2262 28.7804 14.5952C28.4077 14.8617 27.9729 14.9847 27.538 14.9847C27.1861 14.9847 26.8341 14.9027 26.5028 14.7182L22.8587 12.7913V13.4268C22.8587 14.2262 22.4239 14.9027 21.782 15.2921L26.5235 24.7625C27.0825 25.8899 26.8548 27.2633 25.9231 28.1448L20.5397 33.2899C20.4983 33.3309 20.4776 33.3514 20.4362 33.3924C19.9186 33.8229 19.6494 34.4788 19.6494 35.1348V36.4057C19.6494 36.7337 19.9186 37.0002 20.2499 37.0002H35.965C36.5448 37.0002 37.0003 36.5287 37.0003 35.9752V13.7138C36.9589 11.6639 35.5302 9.86001 33.4597 9.36804Z" fill="black"></path>
    <path d="M24.4532 25.7669L19.5254 15.9276C19.4219 15.7226 19.2149 15.5996 18.9871 15.5996H17.9518C17.7241 15.5996 17.517 15.7226 17.4135 15.9276L12.5064 25.7874C12.3822 26.0334 12.4236 26.3409 12.6306 26.5459L18.014 31.691C18.2624 31.937 18.6558 31.937 18.925 31.691L24.3083 26.5459C24.5361 26.3204 24.5775 26.0334 24.4532 25.7669Z" fill="black"></path>
    <path d="M8.73715 2.09046L9.46183 11.7658C9.50324 12.1963 9.95875 12.4423 10.3314 12.2373L15.8183 9.32647C16.1703 9.14198 16.2324 8.69101 15.9839 8.40403L9.77241 1.63949C9.37901 1.25001 8.69574 1.53699 8.73715 2.09046Z" fill="black"></path>
</svg>
