<svg width="37" height="37" viewBox="0 0 37 37" fill="none" xmlns="http://www.w3.org/2000/svg">
    <path d="M36.7138 20.1612C36.6321 19.669 36.0403 19.4844 35.7138 19.8536C35.5301 20.0382 35.3464 20.2433 35.1627 20.4074C34.9587 20.592 34.6934 20.6945 34.4281 20.6945C34.1423 20.6945 33.8566 20.592 33.6525 20.3663C33.2036 19.9151 33.2444 19.1357 33.7138 18.705C34.5097 17.9872 35.0607 17.0437 35.3464 16.0182C35.3464 16.0182 35.3464 16.0182 35.3464 15.9977C35.4485 15.567 35.5097 15.1158 35.5097 14.644C35.5097 12.7161 34.5913 11.0138 33.1832 9.94724C32.9178 9.74214 32.5097 9.82418 32.3464 10.1113C31.3668 11.7931 29.673 12.8802 27.7342 13.0443C27.4485 13.0648 27.224 13.2904 27.2036 13.5775C27.1015 14.521 26.7954 15.4439 26.2444 16.2848C26.0199 16.613 25.673 16.7976 25.326 16.7976C25.0811 16.7976 24.8362 16.7156 24.6321 16.5515C24.1832 16.1823 24.1015 15.5055 24.4281 15.0337C25.5301 13.3314 25.0811 11.0343 23.4281 9.90622C22.9587 9.57806 22.775 8.94224 23.0199 8.42949C23.326 7.81419 24.0811 7.6296 24.6321 7.99878C25.5709 8.6346 26.2648 9.49601 26.7138 10.4805C26.7954 10.6856 26.9995 10.8087 27.224 10.8087C28.6321 10.8497 29.9587 10.0293 30.5913 8.73714C31.5709 6.54256 31.1219 3.77371 29.2444 1.88679C26.877 -0.533398 23.1423 -0.635951 20.8974 1.64067L20.877 1.66117C20.1015 2.46106 19.6934 3.5686 19.6934 4.69666V31.2367C19.7342 34.4362 22.4281 37 25.775 37C28.8158 37 31.326 34.8464 31.775 32.0571H31.7546C31.9587 31.0931 31.7954 30.0881 31.2648 29.2472C30.8362 28.5704 30.224 28.0781 29.5097 27.791C29.3056 27.709 29.0811 27.75 28.9179 27.914C28.1219 28.6524 27.1423 29.1652 26.0607 29.3908C25.9791 29.4113 25.9178 29.4113 25.8362 29.4113C25.2852 29.4113 24.7954 29.0011 24.7342 28.4063C24.673 27.8115 25.0811 27.2782 25.6525 27.1552C26.5913 26.9501 27.4076 26.3963 27.9587 25.5759C28.4893 24.7555 28.6934 23.771 28.5301 22.807C28.4281 22.2328 28.7342 21.6585 29.2648 21.4739C29.9178 21.2688 30.5709 21.679 30.6934 22.3353C30.877 23.2993 30.8362 24.2838 30.5505 25.2067C30.4689 25.4939 30.5913 25.781 30.8566 25.9246C31.775 26.3963 32.5505 27.1142 33.1219 28.0166C33.326 28.3242 33.4893 28.6524 33.6321 29.0011C33.7954 29.4113 34.3464 29.4933 34.6321 29.1446C36.1219 27.2782 36.9995 24.9196 36.9995 22.3353C36.8974 21.638 36.8362 20.8996 36.7138 20.1612Z" fill="black"></path>
    <path d="M0.285714 20.1612C0.367347 19.669 0.959184 19.4844 1.28571 19.8536C1.46939 20.0382 1.65306 20.2433 1.83673 20.4074C2.04082 20.592 2.30612 20.6945 2.57143 20.6945C2.85714 20.6945 3.14286 20.592 3.34694 20.3663C3.79592 19.9151 3.7551 19.1357 3.28571 18.705C2.4898 17.9872 1.93878 17.0437 1.65306 16.0182C1.65306 16.0182 1.65306 16.0182 1.65306 15.9977C1.55102 15.567 1.4898 15.1158 1.4898 14.644C1.4898 12.7161 2.40816 11.0138 3.81633 9.94724C4.08163 9.74214 4.4898 9.82418 4.65306 10.1113C5.63265 11.7931 7.32653 12.8802 9.26531 13.0443C9.55102 13.0648 9.77551 13.2904 9.79592 13.5775C9.89796 14.521 10.2041 15.4439 10.7551 16.2848C10.9796 16.613 11.3265 16.7976 11.6735 16.7976C11.9184 16.7976 12.1633 16.7156 12.3673 16.5515C12.8163 16.1823 12.898 15.5055 12.5714 15.0337C11.4694 13.3314 11.9184 11.0343 13.5714 9.90622C14.0408 9.57806 14.2245 8.94224 13.9796 8.42949C13.6735 7.81419 12.9184 7.6296 12.3673 7.99878C11.4286 8.6346 10.7347 9.49601 10.2857 10.4805C10.2041 10.6856 10 10.8087 9.77551 10.8087C8.36735 10.8497 7.04082 10.0293 6.40816 8.73714C5.42857 6.54256 5.87755 3.77371 7.7551 1.88679C10.1224 -0.533398 13.8571 -0.635951 16.102 1.64067L16.1224 1.66117C16.898 2.46106 17.3061 3.5686 17.3061 4.69666V31.2367C17.2653 34.4362 14.5714 37 11.2245 37C8.18367 37 5.67347 34.8464 5.22449 32.0571H5.2449C5.04082 31.0931 5.20408 30.0881 5.73469 29.2472C6.16327 28.5704 6.77551 28.0781 7.4898 27.791C7.69388 27.709 7.91837 27.75 8.08163 27.914C8.87755 28.6524 9.85714 29.1652 10.9388 29.3908C11.0204 29.4113 11.0816 29.4113 11.1633 29.4113C11.7143 29.4113 12.2041 29.0011 12.2653 28.4063C12.3265 27.8115 11.9184 27.2782 11.3469 27.1552C10.4082 26.9501 9.59184 26.3963 9.04082 25.5759C8.51021 24.7555 8.30612 23.771 8.46939 22.807C8.57143 22.2328 8.26531 21.6585 7.73469 21.4739C7.08163 21.2688 6.42857 21.679 6.30612 22.3353C6.12245 23.2993 6.16327 24.2838 6.44898 25.2067C6.53061 25.4939 6.40816 25.781 6.14286 25.9246C5.22449 26.3963 4.44898 27.1142 3.87755 28.0166C3.67347 28.3242 3.5102 28.6524 3.36735 29.0011C3.20408 29.4113 2.65306 29.4933 2.36735 29.1446C0.877551 27.2782 0 24.9196 0 22.3353C0.102041 21.638 0.163265 20.8996 0.285714 20.1612Z" fill="black"></path>
</svg>
