<svg width="38" height="36" viewBox="0 0 38 36" fill="none" xmlns="http://www.w3.org/2000/svg">
    <path d="M24.7321 2.71304H13.2665C12.5077 2.71304 11.8965 2.10783 11.8965 1.35652C11.8965 0.605218 12.5077 0 13.2665 0H24.7321C25.4909 0 26.1021 0.605218 26.1021 1.35652C26.1021 2.1287 25.4909 2.71304 24.7321 2.71304Z" fill="black"></path>
    <path d="M26.2924 16.2366C24.9856 16.3827 24.2058 17.0505 23.6367 17.5305C23.0887 18.0105 22.7515 18.3027 21.9717 18.3027C21.1918 18.3027 20.8546 18.0105 20.3066 17.5305C19.6533 16.9671 18.768 16.1949 17.103 16.1949C15.459 16.1949 14.5527 16.9671 13.8994 17.5305C13.3514 18.0105 13.0141 18.3027 12.2343 18.3027C11.5177 18.3027 11.1805 18.0731 10.7168 17.6766L13.0774 14.3166C13.6464 13.5027 13.9626 12.5427 13.9626 11.541V5.00879H24.0793V11.541C24.0793 12.5427 24.3955 13.5027 24.9645 14.3166L26.2924 16.2366Z" fill="black"></path>
    <path d="M37.5685 32.3061L28.2948 19.1166C27.8522 18.7409 27.5149 18.5322 26.8194 18.5322C26.0396 18.5322 25.7023 18.8244 25.1544 19.3044C24.501 19.8679 23.6158 20.64 21.9507 20.64C20.2857 20.64 19.4005 19.8679 18.7471 19.3044C18.1991 18.8244 17.8619 18.5322 17.082 18.5322C16.3022 18.5322 15.965 18.8244 15.417 19.3044C14.7636 19.8679 13.8784 20.64 12.2133 20.64C10.8434 20.64 10.0003 20.1183 9.36801 19.5966L0.431551 32.327C-0.664429 33.8714 0.452643 36 2.37061 36H35.6294C37.5474 35.9792 38.6644 33.8505 37.5685 32.3061ZM10.6537 32.5357C9.68416 32.5357 8.92541 31.7635 8.92541 30.8244C8.92541 29.8853 9.70523 29.1131 10.6537 29.1131C11.6021 29.1131 12.382 29.8853 12.382 30.8244C12.382 31.7635 11.6021 32.5357 10.6537 32.5357ZM15.9861 27.5896C14.6372 27.5896 13.5412 26.5044 13.5412 25.1687C13.5412 23.8331 14.6372 22.7479 15.9861 22.7479C17.335 22.7479 18.4309 23.8331 18.4309 25.1687C18.4309 26.5044 17.335 27.5896 15.9861 27.5896ZM25.4494 33.2661C23.8265 33.2661 22.5198 31.9722 22.5198 30.3653C22.5198 28.7583 23.8265 27.4644 25.4494 27.4644C27.0723 27.4644 28.3791 28.7583 28.3791 30.3653C28.358 31.9722 27.0512 33.2661 25.4494 33.2661Z" fill="black"></path>
</svg>
