<svg width="38" height="38" viewBox="0 0 38 38" fill="none" xmlns="http://www.w3.org/2000/svg">
    <path d="M37.9105 36.4894L33.4905 26.3298C32.9854 25.1494 31.4489 24.8543 30.5439 25.7607L25.8292 30.4821C24.9242 31.3885 25.2189 32.9272 26.3975 33.4331L36.5424 37.8594C37.4054 38.2599 38.2894 37.3746 37.9105 36.4894Z" fill="black"></path>
    <path d="M11.4742 29.3441L4.9705 22.7467C4.40222 22.1776 3.45508 22.578 3.45508 23.379V30.5877C3.45508 30.8195 3.53927 31.0514 3.70765 31.22L10.2113 37.7331C10.7796 38.3022 11.7268 37.9017 11.7268 37.1008V29.9764C11.7268 29.7446 11.6426 29.5127 11.4742 29.3441Z" fill="black"></path>
    <path d="M29.3644 11.3432C29.5328 11.5118 29.7643 11.5962 29.9959 11.5962H37.1099C37.9097 11.5962 38.2886 10.6476 37.7413 10.0785L31.2377 3.56543C31.0693 3.3968 30.8378 3.3125 30.6062 3.3125H23.408C22.6082 3.3125 22.2083 4.28208 22.7766 4.8301L29.3644 11.3432Z" fill="black"></path>
    <path d="M2.46582 14.0201C2.10801 14.3784 1.47658 14.252 1.28715 13.7882C0.550492 11.828 0.108494 7.38054 0.0243036 6.0737C0.00325606 5.90508 -0.0177915 4.78796 0.0243036 4.23993C0.129541 3.14388 0.655729 2.11106 1.37134 1.37333C2.10801 0.656683 3.13934 0.129729 4.23381 0.0243387C4.78104 -0.0178172 5.89656 0.00326077 6.06494 0.0243387C7.36989 0.108651 11.8109 0.572366 13.7683 1.28902C14.2524 1.47872 14.3577 2.11105 13.9999 2.46938L2.46582 14.0201Z" fill="black"></path>
    <path d="M15.4314 13.0078C14.7789 13.0078 14.1685 13.2608 13.7055 13.7245C12.7583 14.673 12.7583 16.2117 13.7055 17.1602C14.1685 17.6239 14.7789 17.8768 15.4314 17.8768C16.0838 17.8768 16.6942 17.6239 17.1573 17.1602C17.6203 16.6964 17.8729 16.0852 17.8729 15.4318C17.8729 14.7784 17.6203 14.1671 17.1573 13.7034C16.6942 13.2608 16.0838 13.0078 15.4314 13.0078Z" fill="black"></path>
    <path d="M29.512 20.9545L28.165 19.5844L28.7754 18.9732C30.1224 17.6242 30.1224 15.411 28.7754 14.062L26.418 11.7013L20.7773 6.05239C20.0827 5.35681 18.3989 4.11321 17.4518 3.43871C17.094 3.18578 16.5889 3.22793 16.2731 3.5441L3.70778 16.1277C3.39206 16.4438 3.34997 16.9497 3.60254 17.308C4.27606 18.2565 5.51786 19.9638 6.21243 20.6383L11.8532 26.2872L14.2105 28.648C14.884 29.3224 15.768 29.6597 16.652 29.6597C17.536 29.6597 18.42 29.3224 19.0935 28.648L19.5986 28.1421L20.9667 29.5122C21.6824 30.2288 22.84 30.2288 23.5556 29.5122L29.5541 23.505C30.2276 22.8305 30.2276 21.6711 29.512 20.9545ZM18.7988 18.8046C17.8938 19.7109 16.7151 20.1957 15.4523 20.1957C14.1894 20.1957 12.9897 19.7109 12.1057 18.8046C10.2536 16.9497 10.2536 13.9355 12.1057 12.0807C13.0108 11.1743 14.1894 10.6895 15.4523 10.6895C16.7151 10.6895 17.9149 11.1743 18.7988 12.0807C19.7039 12.987 20.188 14.1674 20.188 15.4321C20.188 16.7178 19.6828 17.8982 18.7988 18.8046Z" fill="black"></path>
</svg>
