<?xml version="1.0" encoding="utf-8"?>
<!-- Generator: Adobe Illustrator 23.0.6, SVG Export Plug-In . SVG Version: 6.00 Build 0)  -->
<svg version="1.1" id="Calque_1" xmlns="http://www.w3.org/2000/svg" xmlns:xlink="http://www.w3.org/1999/xlink" x="0px" y="0px"
	 viewBox="0 0 1106.32 588.69" style="enable-background:new 0 0 1106.32 588.69;" xml:space="preserve">
<style type="text/css">
	.st0{fill-rule:evenodd;clip-rule:evenodd;fill:#FFA200;}
	.st1{enable-background:new    ;}
	.st2{fill:#FFFFFF;}
	.st3{fill:#FF7100;}
</style>
<g>
	<polygon class="st0" points="863.99,325.03 281.87,363.13 294.07,549.52 876.18,511.42 	"/>
	<g class="st1">
		<path class="st2" d="M420.49,508.78c-5.52-0.67-10.66-3.08-15.43-7.22c-4.77-4.15-8.58-9.46-11.42-15.95
			c-4.39-10.45-6.99-21.8-7.79-34.07l-0.04-0.54c-0.7-12.45,0.54-24.54,3.72-36.28c1.05-3.65,2.47-7.62,4.25-11.92
			c1.78-4.3,3.43-7.78,4.97-10.43c2.34-3.79,5.09-7.4,8.25-10.82c3.16-3.42,6.21-6.05,9.15-7.88c2.55-1.5,4.85-2.32,6.9-2.46
			c2.11-0.14,3.97,0.44,5.59,1.73c2.04,1.56,3.14,3.52,3.3,5.88c0.02,0.36,0.02,0.7-0.02,1c0.13,2.9-1.36,5.7-4.48,8.39
			c-6.41,5.46-11.27,12.51-14.59,21.16c-5.48,13.34-7.76,27.11-6.83,41.3c0.45,6.88,1.69,13.48,3.72,19.77
			c2.03,6.3,4.38,10.91,7.04,13.83c2.07,1.99,3.96,2.93,5.66,2.81c1.82-0.12,3.41-1.41,4.78-3.86c2.09-4.93,3.83-14.69,5.23-29.28
			c0.23-1.9,0.3-3.45,0.23-4.66c-0.08-1.27-0.32-2.16-0.71-2.68c-0.78-1.16-2.67-1.7-5.67-1.63c-1.95-0.05-3.46-0.24-4.54-0.57
			c-1.08-0.32-2.09-0.94-3.03-1.85c-1.88-1.82-2.9-3.91-3.06-6.26c-0.05-0.72-0.01-1.48,0.12-2.28c0.55-3.19,2.46-5.62,5.7-7.29
			c1.66-0.71,4.14-1.41,7.46-2.08s6.6-1.14,9.88-1.42c1.52-0.1,2.7-0.16,3.52-0.18c0.82-0.02,1.5,0.04,2.04,0.18
			c0.54,0.15,1.17,0.38,1.9,0.69c4.66,2,7.19,5.96,7.57,11.88c0.13,1.99,0,5.49-0.37,10.49c-0.38,5-0.87,10.25-1.48,15.75
			c-0.61,5.5-1.26,10.21-1.94,14.14c-2.22,13.67-6.51,22.81-12.86,27.41c-4.15,3.18-8.53,4.93-13.16,5.23
			C422.85,508.9,421.68,508.89,420.49,508.78z"/>
	</g>
	<g class="st1">
		<path class="st2" d="M480.2,500.87c-7.92-2.33-12.91-8.83-14.96-19.49c-0.21-1.32-0.35-2.68-0.44-4.07
			c-0.42-6.4,0.46-13.28,2.62-20.65c2.71-8.91,6.84-16.89,12.38-23.92c8.34-10.19,17.28-15.6,26.83-16.22
			c3.69-0.24,7.06,0.19,10.1,1.29c3.04,1.11,6.97,3.29,11.77,6.55c3.08,2.04,5.28,3.76,6.6,5.16c1.33,1.4,2.41,3.1,3.25,5.11
			c0.29,0.77,0.92,2.55,1.89,5.34c0.98,2.79,2.08,5.96,3.31,9.52c1.18,3.62,2.47,7.47,3.89,11.53c1.41,4.06,2.62,7.42,3.62,10.09
			c1.86,5.04,2.92,8.21,3.18,9.53c0.26,1.32,0.41,2.22,0.44,2.7c0.1,1.57-0.1,2.95-0.61,4.13c-1.75,3.88-4.5,5.94-8.25,6.18
			c-3.87,0.25-7.12-1.72-9.74-5.91c-0.47-0.82-1.17-2.39-2.12-4.73s-1.92-4.86-2.92-7.59c-1-2.72-1.8-5.07-2.4-7.03
			c-0.82-2.68-1.55-4.55-2.18-5.63c-0.63-1.08-1.3-1.6-2-1.55c-0.7,0.05-1.45,0.63-2.23,1.74c-0.78,1.11-2.01,3.27-3.68,6.47
			c-8.32,15.77-16.88,25.8-25.66,30.07c-2,0.86-3.69,1.35-5.07,1.47c-1.38,0.12-2.27,0.19-2.68,0.22
			C483.35,501.3,481.7,501.2,480.2,500.87z M492.32,472.96c2.23-2.82,4.85-7.01,7.87-12.57c3.02-5.57,5.75-11.25,8.2-17.05
			c0.71-1.69,1.04-3.01,0.98-3.98c-0.07-1.03-0.52-1.69-1.37-2c-0.49-0.27-0.91-0.4-1.26-0.37c-0.41,0.03-0.99,0.25-1.72,0.66
			c-3.25,1.61-6.44,4.38-9.56,8.32c-3.13,3.94-5.62,8.36-7.47,13.27c-1.4,3.85-2.21,6.91-2.44,9.17c-0.24,2.26-0.32,3.88-0.26,4.84
			c0.08,1.21,0.34,2.1,0.79,2.68c0.5,0.51,1.05,0.75,1.63,0.71c0.29-0.02,0.58-0.1,0.87-0.24
			C489.49,475.96,490.74,474.82,492.32,472.96z"/>
	</g>
	<g class="st1">
		<path class="st2" d="M579.25,503.11c-2.29-0.82-4.16-2.44-5.61-4.86c-1.45-2.42-3.08-6.64-4.89-12.65
			c-2.83-9.1-5.32-20.09-7.46-33c-1.06-6.36-1.7-11.17-1.92-14.43l-0.05-0.82c-0.16-3.27,0.13-5.59,0.87-6.97
			c1.4-2.88,3.56-4.54,6.47-4.97l0.96-0.15c4.1-0.27,7.4,2.06,9.9,6.99c0.46,0.82,0.91,1.53,1.33,2.14c0.42,0.61,0.72,0.91,0.9,0.9
			c1.11-0.07,2.56-2.62,4.35-7.66c3.98-10.27,8.28-17.77,12.92-22.5c5.59-5.4,10.93-8.27,16.03-8.6c4.33-0.28,8.53,1.29,12.58,4.73
			c4.48,3.77,7.91,11.61,10.28,23.53c0.51,2.33,0.92,4.13,1.24,5.38c0.32,1.25,0.61,2.16,0.88,2.72c0.27,0.56,0.59,0.92,0.95,1.08
			c0.48,0.21,0.96,0.3,1.43,0.27c0.29-0.02,0.58-0.07,0.87-0.15c0.86-0.36,2.08-1.11,3.65-2.24c3.92-2.99,7.67-4.6,11.25-4.83
			c0.88-0.06,1.76-0.02,2.65,0.1c8.53,0.9,14.84,7.79,18.92,20.69c0.81,2.56,1.73,6.02,2.75,10.38c1.02,4.36,1.95,8.62,2.78,12.78
			c0.83,4.16,1.3,7.03,1.4,8.6c0.36,5.56-1.9,9.22-6.78,11c-0.69,0.23-1.39,0.36-2.09,0.41c-2.17,0.14-4.25-0.57-6.23-2.14
			c-1.06-0.84-1.94-1.81-2.66-2.92c-0.72-1.1-1.38-2.71-1.99-4.83c-0.61-2.11-1.31-5.11-2.09-9.01
			c-2.07-10.06-3.57-15.93-4.51-17.63c-0.88-1.7-1.87-2.52-2.98-2.44c-0.94,0.06-1.97,0.89-3.1,2.48
			c-2.38,3.19-4.59,9.01-6.62,17.45c-0.79,3.21-1.39,5.58-1.79,7.12c-0.4,1.54-0.74,2.67-1.01,3.39c-0.28,0.72-0.63,1.42-1.05,2.12
			c-1.81,2.91-3.52,4.45-5.13,4.61c-1.61,0.17-2.5,0.25-2.67,0.27c-2.99,0.2-5.56-0.85-7.71-3.13c-0.71-0.86-1.3-1.9-1.79-3.11
			c-0.49-1.21-0.93-3.02-1.33-5.42c-0.39-2.4-0.85-5.74-1.36-10.01c-2.54-20.82-4.66-34.76-6.35-41.8c-0.66-2.93-1.85-4.4-3.55-4.41
			l-0.35,0.02c-0.41,0.03-0.78,0.14-1.12,0.35c-0.4,0.27-0.92,0.79-1.58,1.56c-4.38,5.87-8.12,16.61-11.22,32.22
			c-0.62,3.13-1.23,7.26-1.84,12.36c-0.61,5.11-1.11,10.04-1.5,14.79c-0.52,7.44-1.21,12.06-2.09,13.88
			c-1.24,2.69-2.77,4.49-4.59,5.4c-1.82,0.91-3.35,1.4-4.58,1.48C581.76,503.68,580.52,503.52,579.25,503.11z"/>
		<path class="st2" d="M726.65,496.1c-8.82-1.67-15.79-6.16-20.92-13.46c-5.13-7.31-8.26-14.29-9.4-20.95
			c-1.14-6.66-1.83-11.71-2.05-15.15c-0.42-6.46-0.19-12.85,0.69-19.15c1.37-9.61,4.17-17.65,8.4-24.12
			c4.63-6.55,8.79-10.25,12.47-11.1c3.68-0.85,6.23-1.32,7.63-1.41c4.4-0.29,8.63,0.59,12.71,2.62c5.36,2.74,9.22,6.4,11.58,10.98
			s3.67,8.89,3.94,12.94c0.18,2.78,0.02,5.7-0.49,8.77c-3.29,16.35-11.89,27.44-25.8,33.26c-1.15,0.44-2.19,0.9-3.13,1.39
			c-0.94,0.49-1.55,0.86-1.82,1.12c-0.66,0.77-0.95,1.67-0.88,2.7c0.13,1.93,1.48,4.27,4.08,7.01c2.4,2.51,4.98,3.68,7.73,3.5
			l0.62-0.04c0.7-0.05,1.4-0.21,2.08-0.5c0.8-0.36,1.99-1.04,3.57-2.05c1.07-0.68,2.13-1.31,3.19-1.89c1.05-0.58,1.83-0.99,2.35-1.2
			c0.81-0.24,1.59-0.38,2.35-0.43c2.93-0.19,5.41,0.89,7.45,3.24c1.52,1.72,2.36,3.67,2.5,5.84c0.09,1.45-0.13,3.01-0.66,4.68
			c-0.92,2.18-2.6,4.32-5.05,6.43c-2.45,2.1-5.25,3.83-8.4,5.19c-2.12,0.87-4,1.4-5.63,1.6c-1.64,0.2-2.72,0.31-3.24,0.35
			C730.37,496.4,728.43,496.35,726.65,496.1z M720.46,439.36c2.04-1.23,3.98-3.1,5.81-5.61c1.83-2.52,3.19-5.2,4.06-8.04
			c0.49-1.55,0.75-2.95,0.79-4.19c0.04-1.25,0.04-2.14,0-2.68c-0.07-1.03-0.24-1.92-0.53-2.7c-0.71-1.77-1.63-2.87-2.77-3.28
			c-1.15-0.41-2.07-0.59-2.77-0.54c-0.88,0.06-1.74,0.36-2.59,0.9c-3.16,2.15-5.53,7.7-7.12,16.67c-0.47,2.76-0.65,4.99-0.53,6.68
			c0.17,2.66,1.11,3.93,2.81,3.82C718.43,440.31,719.38,439.98,720.46,439.36z"/>
	</g>
	<g class="st1">
		<path class="st3" d="M176.37,355.76c-6.54-1.86-11.08-6.13-13.65-12.84c-0.85-1.93-1.63-4.63-2.36-8.12
			c-0.73-3.48-1.73-9.35-3.01-17.59c-1.02-7.33-2.48-11.83-4.38-13.49c-1.9-1.66-4.46-2.44-7.69-2.33c-1.67,0.05-3.51,0.29-5.5,0.7
			c-5.45,0.76-9.64,1.41-12.57,1.97c-2.94,0.56-5.13,1.06-6.56,1.51c-1.44,0.45-2.48,0.97-3.13,1.57c-1.42,0.97-2.45,2.01-3.08,3.12
			c-0.63,1.12-0.95,2.42-0.96,3.91c-0.01,1.5,0.01,2.76,0.04,3.79c0.07,1.96,0.2,4.42,0.41,7.41l0.91,12.22l-2.19,4.56
			c-3.68,7.02-7.21,10.59-10.61,10.7c-3.4,0.11-5.16,0.17-5.27,0.17c-6.69,0.22-12.15-2.99-16.39-9.64
			c-1.06-1.8-1.98-4.13-2.74-6.98c-0.76-2.85-1.52-7.05-2.26-12.61c-0.74-5.55-1.67-13.32-2.78-23.29
			c-4.31-39.32-6.93-66.3-7.86-80.94c-0.93-14.64-1.51-25.52-1.75-32.64c-0.52-15.86-0.62-32.31-0.29-49.34
			c0.07-4.49,0.16-7.83,0.26-10.02c0.09-2.19,0.31-3.92,0.67-5.2c0.35-1.28,0.89-2.73,1.61-4.37c0.94-1.99,1.83-3.57,2.69-4.75
			c0.85-1.18,1.94-2.19,3.25-3.04c3.17-2.06,6.31-3.14,9.43-3.25c2.34-0.08,4.59,0.37,6.74,1.33c5.1,2.36,8.26,6.86,9.49,13.49
			c0.15,1.26,0.5,5.85,1.04,13.77c0.54,7.92,1.16,17.28,1.85,28.07c2.32,36.51,4.11,61.93,5.36,76.27
			c1.25,14.34,2.35,22.18,3.29,23.53c0.71,1.24,1.8,2.24,3.28,3c1.47,0.76,3.05,1.11,4.72,1.05c1.67-0.05,4.56-0.55,8.66-1.49
			c4.1-0.94,8.14-1.93,12.12-2.99c3.98-1.05,6.63-1.89,7.95-2.51c0.76-0.48,1.52-1.11,2.28-1.89c0.75-0.77,1.29-1.51,1.6-2.21
			c0.42-0.71,0.7-1.63,0.83-2.79c0.13-1.15,0.17-3.11,0.14-5.87c-0.04-2.76-0.17-6.84-0.4-12.24c-0.24-5.4-0.61-12.69-1.14-21.88
			c-0.35-7.24-0.64-14.19-0.86-20.85c-0.22-6.55-0.37-12.81-0.45-18.79c-0.06-11.96,0.16-27.1,0.68-45.41
			c0.27-8.75,0.73-14.95,1.4-18.6c0.66-3.65,1.79-6.53,3.4-8.65c2.02-2.94,4.28-4.74,6.77-5.4c2.49-0.66,4.4-1.01,5.74-1.05
			c2.12-0.07,4.25,0.32,6.4,1.17c6.12,2.79,9.72,8.77,10.8,17.94c0.17,1.95,0.62,9.47,1.33,22.56c0.71,13.09,1.48,28.71,2.3,46.86
			c1.58,37.8,3.05,65.42,4.41,82.86c1.36,17.44,3.37,34.35,6.03,50.71c1.27,7.9,1.97,13.97,2.11,18.22c0.05,1.49,0.03,2.76-0.04,3.8
			c-0.42,4.27-1.92,7.83-4.5,10.68c-2.26,2.49-4.69,4.18-7.28,5.07c-2.59,0.89-4.73,1.36-6.4,1.42
			C178.89,356.19,177.61,356.06,176.37,355.76z"/>
	</g>
	<g class="st1">
		<path class="st3" d="M293.84,354.29c-13.84-3.34-26.25-11.56-37.23-24.66c-10.98-13.1-19.31-29.68-25-49.74
			c-4.24-16.88-6.65-34.18-7.24-51.88c-0.74-22.52,1.51-45.61,6.75-69.25c3.04-12.52,6.97-23.93,11.76-34.21
			c3.43-7.59,6.9-13.17,10.41-16.74c3.51-3.57,7.81-6.01,12.9-7.33c3.99-0.93,8.88-1.5,14.68-1.69c2.01-0.07,4.07-0.07,6.19-0.03
			c8.59,0.06,16.6,0.77,24.01,2.14c40.34,8.33,63.7,43.23,70.08,104.68c0.35,3.9,0.59,7.8,0.72,11.71
			c0.61,18.5-1.19,36.62-5.4,54.37c-5.09,21.57-13.13,40.01-24.12,55.33c-8.43,11.67-18.21,19.81-29.33,24.44
			c-2.64,1.12-4.96,1.89-6.96,2.3c-2,0.41-4.83,0.73-8.51,0.97l-3.85,0.13C299.5,354.97,296.2,354.79,293.84,354.29z M312.7,311.91
			c6.56-4.24,12.85-13.08,18.88-26.51c7.46-17.39,11.35-32.1,11.68-44.13c0.33-12.03,0.44-19.66,0.33-22.88
			c-0.57-17.12-3.67-33.24-9.3-48.36c-4.29-11.59-10.03-19.8-17.22-24.63c-7.19-4.82-16.64-7.04-28.34-6.66l-0.84,0.03
			c-4.57,0.15-7.82,0.69-9.74,1.62c-1.92,0.93-3.4,2.61-4.44,5.06c-2.07,4.9-4.12,13.05-6.14,24.45c-2.02,11.4-3.46,22.87-4.31,34.4
			c-0.5,8.42-0.63,16.42-0.38,24c0.87,26.32,6.22,48.23,16.07,65.74c8.5,13.99,16.93,20.84,25.29,20.56
			C307.15,314.51,309.97,313.61,312.7,311.91z"/>
	</g>
	<g class="st1">
		<path class="st3" d="M436.36,343.38c-14.02-1.95-24-8.47-29.94-19.55c-2.83-4.62-4.36-10.32-4.58-17.11
			c-0.14-4.37,0.25-9.16,1.2-14.36c2.46-13.31,9.2-34.07,20.21-62.27c1.95-5.01,4.9-12.21,8.83-21.6
			c3.93-9.39,7.92-18.75,11.96-28.09c9.54-21.83,14.3-33.43,14.25-34.81c-0.33-3.32-2.62-4.92-6.85-4.78
			c-0.89,0.03-2.98,0.3-6.25,0.81c-3.28,0.51-6.86,1.06-10.74,1.65c-9.31,1.8-15.5,2.84-18.56,3.11c-3.06,0.27-5.32,0.43-6.76,0.48
			c-2.23,0.07-3.96-0.04-5.2-0.35c-5.29-1.32-9.05-3.67-11.28-7.05c-2.23-3.38-3.4-6.73-3.51-10.07c-0.05-1.61,0.06-3.22,0.34-4.84
			c0.68-3.13,2.25-6.03,4.74-8.7c2.48-2.67,5.48-4.7,9.01-6.08c6.93-2.99,26.25-5.98,57.96-8.99c8.56-0.97,14.32-1.53,17.27-1.69
			c2.95-0.15,5.04-0.25,6.27-0.29c2.56-0.08,4.57-0.09,6.02-0.03c2.13,0.27,3.99,0.79,5.58,1.54c7.15,3.45,10.92,9.59,11.32,18.44
			l0.02,0.52c0.13,3.91-1.7,11.04-5.49,21.41c-4,10.83-11.75,29.5-23.26,55.99c-19.17,44.7-31.09,75.81-35.76,93.33
			c-0.39,1.85-0.65,3.19-0.79,4c-0.14,0.81-0.2,1.5-0.18,2.08l0.02,0.69c0.13,0.57,0.37,1.2,0.73,1.87
			c1.09,2.72,3.37,4.03,6.83,3.92c1.23-0.04,2.56-0.26,4-0.65c8.53-1.89,23.46-7.79,44.78-17.7c5.27-2.59,10.08-4.82,14.43-6.69
			c4.35-1.87,7.18-3,8.51-3.39c1.66-0.4,3.33-0.63,5-0.68c4.46-0.15,8.41,1.05,11.84,3.58c4.57,3.3,7.08,8.17,7.51,14.59
			c0.18,5.52-1.73,10.24-5.73,14.17c-1.19,1.31-2.54,2.47-4.07,3.5c-1.53,1.03-4,2.38-7.4,4.04c-3.41,1.67-8.62,4.17-15.66,7.51
			c-30.99,14.72-54.17,22.33-69.56,22.83C440.83,343.75,438.49,343.65,436.36,343.38z"/>
	</g>
	<g class="st1">
		<path class="st3" d="M575.89,334.63c-1.82-0.98-3.62-2.41-5.42-4.31c-1.79-1.9-3.17-3.86-4.13-5.9c-1.2-2.49-1.91-7.01-2.12-13.56
			c-0.29-8.73,0.31-21.06,1.79-36.99c1.52-14.66,4.22-31.75,8.1-51.26c3.88-19.51,8.36-38.44,13.44-56.79
			c12.18-43.54,25.62-69.12,40.32-76.74c1.86-1.1,3.48-1.78,4.87-2.06c1.39-0.27,3.58-0.46,6.59-0.56c4.01-0.13,7.32,0.25,9.92,1.14
			c2.6,0.89,5.33,2.61,8.21,5.17c3.79,3.21,6.91,7.31,9.36,12.29c2.45,4.98,4.73,12.44,6.85,22.38c2.11,9.94,4.53,23.9,7.24,41.87
			c9.54,62.62,18.66,105.46,27.35,128.52c1.46,3.75,2.39,6.42,2.78,8.02c0.39,1.6,0.6,2.92,0.63,3.95c0.02,0.58-0.02,1.09-0.12,1.56
			c-1.44,10.63-7.11,16.34-17.01,17.13c-5.35,0.18-10.04-1.57-14.07-5.23c-2.07-1.77-3.87-3.87-5.4-6.29
			c-1.53-2.42-3.09-5.79-4.69-10.11c-1.59-4.09-3.16-7-4.72-8.73c-1.56-1.73-3.52-2.67-5.87-2.83c-0.56-0.1-1.51-0.12-2.85-0.08
			c-2.12,0.07-5.07,0.28-8.85,0.64c-6.23,0.55-12.88,1.2-19.94,1.95c-7.06,0.75-12.37,1.42-15.92,1.99c-5,0.74-8.38,2.18-10.15,4.3
			c-1.77,2.13-2.79,6.08-3.04,11.83c-0.19,4.26-0.81,7.65-1.84,10.16c-1.03,2.51-2.63,4.72-4.8,6.63c-1.19,1.08-2.34,1.8-3.44,2.18
			c-1.1,0.38-2.71,0.67-4.83,0.85l-1.84,0.06c-1.23,0.04-2.23,0.02-3.02-0.07C578.04,335.54,576.91,335.18,575.89,334.63z
			 M631.3,258.6c4.66-0.84,8.76-1.61,12.31-2.3c3.55-0.69,5.76-1.23,6.64-1.6c1.76-0.86,2.99-2.34,3.7-4.44
			c0.31-0.7,0.51-1.34,0.61-1.92c0.09-0.58,0.13-1.1,0.12-1.56c-0.02-0.57-0.1-1.2-0.23-1.89c-0.16-1.49-0.48-3.58-0.96-6.27
			c-0.48-2.69-1.13-6.38-1.96-11.07c-1.08-5.6-2.32-12.66-3.71-21.19c-1.4-8.52-2.66-16.45-3.8-23.78
			c-2.67-16.48-4.42-25.8-5.28-27.96c-0.83-1.47-1.86-2.18-3.08-2.14l-0.33,0.01c-1.33,0.16-2.58,1.18-3.75,3.06
			c-1.89,3.51-4.8,12.73-8.71,27.64c-3.92,14.91-7.71,31.06-11.37,48.44c-2.32,11.01-3.4,18.64-3.26,22.89
			c0.05,1.5,0.25,2.58,0.61,3.26c0.23,0.34,0.69,0.75,1.38,1.25s1.48,0.96,2.39,1.39c0.91,0.43,1.64,0.7,2.2,0.79l4.83-0.85
			C622.86,259.91,626.75,259.32,631.3,258.6z"/>
	</g>
	<g class="st1">
		<path class="st3" d="M757.64,337.78c-5.42-2.01-9.34-5.67-11.75-11c-0.95-1.81-1.77-4.69-2.46-8.63
			c-0.69-3.95-1.51-10.25-2.46-18.9c-0.96-8.65-2.14-20.9-3.56-36.73c-0.87-9.4-1.74-18.78-2.6-28.13
			c-0.87-9.35-1.55-16.43-2.04-21.25c-0.57-7.11-1.07-15.38-1.49-24.8c-0.42-9.42-0.71-16.43-0.86-21.02
			c-0.3-9.08-0.54-18.04-0.72-26.9c-0.32-13.1-0.38-21.79-0.19-26.05c0.15-2.08,0.42-4.12,0.8-6.15c0.38-2.02,0.78-3.56,1.19-4.61
			c2.28-5.14,5.57-8.78,9.85-10.94c4.28-2.15,7.98-3.28,11.1-3.39c2.12-0.07,4.19,0.21,6.22,0.83c3.94,1.02,8.08,5.52,12.42,13.48
			c4.34,7.97,10.59,22.4,18.76,43.3c14.5,37.03,24.83,62.4,30.97,76.12c1.68,3.74,3.31,7.34,4.88,10.8
			c1.56,3.46,2.65,5.98,3.26,7.57c0.72,1.47,1.55,2.97,2.49,4.49c0.94,1.52,1.76,2.73,2.46,3.63c1.04,1.12,1.76,1.78,2.16,2
			c0.4,0.22,0.71,0.32,0.93,0.31c0.33-0.01,0.67-0.13,0.99-0.38c0.65-0.48,1.19-1.25,1.6-2.3c0.41-1.05,0.72-2.84,0.91-5.38
			c0.19-2.54,0.33-6.14,0.4-10.8c0.07-4.66,0.09-10.85,0.06-18.55c-0.06-8.63-0.05-17.49,0.04-26.58
			c0.09-9.09,0.21-16.34,0.37-21.75c0.3-11.17,0.66-23.17,1.07-36.02c0.41-12.84,0.76-23.35,1.05-31.53
			c0.13-6.33,0.61-11.09,1.45-14.29c0.84-3.19,2.29-5.86,4.34-8c3.67-3.8,7.9-5.78,12.7-5.94l0.84-0.03
			c5.14,0.17,9.56,2.33,13.27,6.46c1.85,2.01,3.19,4.5,4.01,7.46c0.82,2.97,1.33,7.26,1.51,12.89l0.08,2.41
			c0,6.79-0.19,16.4-0.55,28.84c-1.29,35.36-1.86,67.19-1.7,95.49c0.26,28.18-0.24,48.5-1.5,60.97c-1.26,12.47-3.7,21.52-7.3,27.16
			c-5.27,9.38-12.48,14.22-21.62,14.52l-0.67,0.02c-6.25,0.21-11.92-1.68-17.01-5.65c-5.1-3.97-10.85-11.64-17.25-22.99
			c-6.4-11.35-14.42-27.68-24.05-48.99c-2.78-6.23-5-11.05-6.67-14.45c-1.68-3.4-2.98-5.8-3.92-7.2c-0.94-1.41-1.75-2.21-2.42-2.42
			c-0.23-0.11-0.45-0.16-0.67-0.15c-1.34,0.04-2.29,1.52-2.87,4.41l0.05,1.55c0.08,2.41,0.33,6.84,0.77,13.26
			c0.73,8.6,1.61,18.41,2.65,29.42c1.03,11.01,2.08,20.81,3.15,29.4c0.63,5.62,1.01,10.21,1.12,13.77c0.06,1.72,0.05,3.22-0.02,4.49
			c-0.33,3.69-1.45,6.78-3.38,9.26c-2.46,3.3-5.09,5.49-7.9,6.56c-2.81,1.07-5.11,1.63-6.89,1.69
			C761.23,338.52,759.44,338.3,757.64,337.78z"/>
	</g>
	<g class="st1">
		<path class="st3" d="M918.92,323.31c-1.82-0.97-3.62-2.41-5.42-4.31c-1.79-1.9-3.17-3.86-4.13-5.9c-1.2-2.49-1.91-7.01-2.12-13.56
			c-0.29-8.73,0.31-21.06,1.79-36.99c1.52-14.66,4.22-31.75,8.1-51.26c3.88-19.51,8.36-38.44,13.44-56.79
			c12.18-43.54,25.62-69.12,40.32-76.74c1.86-1.1,3.48-1.78,4.87-2.06c1.39-0.27,3.58-0.46,6.59-0.56c4.01-0.13,7.32,0.25,9.92,1.14
			c2.59,0.89,5.33,2.61,8.21,5.17c3.79,3.21,6.91,7.31,9.36,12.29c2.45,4.98,4.74,12.44,6.85,22.38c2.11,9.94,4.53,23.9,7.24,41.87
			c9.54,62.62,18.66,105.46,27.35,128.53c1.46,3.75,2.39,6.42,2.78,8.02c0.39,1.6,0.6,2.91,0.63,3.95c0.02,0.58-0.02,1.1-0.12,1.56
			c-1.44,10.63-7.11,16.34-17.01,17.13c-5.35,0.18-10.04-1.57-14.07-5.23c-2.07-1.77-3.87-3.87-5.4-6.29
			c-1.53-2.42-3.09-5.79-4.69-10.11c-1.59-4.09-3.16-7-4.73-8.73c-1.56-1.73-3.52-2.67-5.87-2.83c-0.56-0.09-1.51-0.12-2.85-0.08
			c-2.12,0.07-5.07,0.28-8.85,0.64c-6.23,0.55-12.88,1.2-19.94,1.95c-7.06,0.75-12.37,1.42-15.92,1.99c-5,0.74-8.38,2.17-10.15,4.3
			c-1.77,2.13-2.79,6.08-3.04,11.83c-0.19,4.26-0.81,7.65-1.84,10.16c-1.03,2.51-2.63,4.72-4.8,6.63c-1.19,1.08-2.34,1.8-3.44,2.19
			c-1.1,0.38-2.71,0.67-4.83,0.85l-1.84,0.06c-1.23,0.04-2.23,0.02-3.02-0.07C921.06,324.22,919.94,323.85,918.92,323.31z
			 M974.33,247.28c4.66-0.84,8.76-1.61,12.31-2.3c3.55-0.69,5.76-1.23,6.64-1.6c1.76-0.86,2.99-2.34,3.7-4.44
			c0.31-0.7,0.51-1.34,0.61-1.92c0.09-0.58,0.13-1.09,0.12-1.56c-0.02-0.57-0.1-1.2-0.23-1.89c-0.16-1.49-0.48-3.58-0.96-6.27
			c-0.48-2.69-1.13-6.38-1.96-11.07c-1.08-5.6-2.32-12.66-3.71-21.19c-1.4-8.52-2.66-16.45-3.8-23.78
			c-2.67-16.48-4.42-25.8-5.27-27.96c-0.83-1.47-1.86-2.18-3.08-2.14l-0.33,0.01c-1.33,0.16-2.58,1.18-3.75,3.06
			c-1.89,3.51-4.8,12.73-8.71,27.64c-3.92,14.91-7.71,31.06-11.38,48.44c-2.32,11.01-3.4,18.64-3.26,22.89
			c0.05,1.5,0.25,2.58,0.61,3.26c0.23,0.34,0.69,0.75,1.38,1.25c0.69,0.5,1.48,0.96,2.39,1.39c0.91,0.43,1.64,0.7,2.2,0.79
			l4.83-0.85C965.89,248.59,969.77,248,974.33,247.28z"/>
	</g>
</g>
</svg>
