<svg width="91" height="48" viewBox="0 0 91 48" fill="none" xmlns="http://www.w3.org/2000/svg">
<mask id="path-1-inside-1" fill="white">
<path fill-rule="evenodd" clip-rule="evenodd" d="M89.8785 25.5722C90.941 24.7721 90.941 23.1771 89.8785 22.3769L60.7031 0.405994C59.3852 -0.586528 57.5 0.353741 57.5 2.00364V8.97266H5C2.23858 8.97266 0 11.2112 0 13.9727V33.9727C0 36.7341 2.23858 38.9727 5 38.9727H57.5V45.9455C57.5 47.5954 59.3852 48.5357 60.7031 47.5432L89.8785 25.5722Z"/>
</mask>
<path fill-rule="evenodd" clip-rule="evenodd" d="M89.8785 25.5722C90.941 24.7721 90.941 23.1771 89.8785 22.3769L60.7031 0.405994C59.3852 -0.586528 57.5 0.353741 57.5 2.00364V8.97266H5C2.23858 8.97266 0 11.2112 0 13.9727V33.9727C0 36.7341 2.23858 38.9727 5 38.9727H57.5V45.9455C57.5 47.5954 59.3852 48.5357 60.7031 47.5432L89.8785 25.5722Z" fill="#FF6B6B"/>
<path d="M89.8785 22.3769L88.9761 23.5752L88.9761 23.5752L89.8785 22.3769ZM89.8785 25.5722L90.7808 26.7705L90.7808 26.7705L89.8785 25.5722ZM60.7031 0.405994L59.8008 1.60423L59.8008 1.60423L60.7031 0.405994ZM57.5 8.97266V10.4727H59V8.97266H57.5ZM57.5 38.9727H59V37.4727H57.5V38.9727ZM60.7031 47.5432L59.8008 46.345L59.8008 46.345L60.7031 47.5432ZM88.9761 23.5752C89.2417 23.7752 89.2418 24.174 88.9761 24.374L90.7808 26.7705C92.6402 25.3703 92.6402 22.5789 90.7808 21.1787L88.9761 23.5752ZM59.8008 1.60423L88.9761 23.5752L90.7808 21.1787L61.6055 -0.79224L59.8008 1.60423ZM59 2.00364C59 1.59117 59.4713 1.3561 59.8008 1.60423L61.6055 -0.79224C59.299 -2.52915 56 -0.883684 56 2.00364H59ZM59 8.97266V2.00364H56V8.97266H59ZM5 10.4727H57.5V7.47266H5V10.4727ZM1.5 13.9727C1.5 12.0397 3.067 10.4727 5 10.4727V7.47266C1.41015 7.47266 -1.5 10.3828 -1.5 13.9727H1.5ZM1.5 33.9727V13.9727H-1.5V33.9727H1.5ZM5 37.4727C3.067 37.4727 1.5 35.9057 1.5 33.9727H-1.5C-1.5 37.5625 1.41015 40.4727 5 40.4727V37.4727ZM57.5 37.4727H5V40.4727H57.5V37.4727ZM59 45.9455V38.9727H56V45.9455H59ZM59.8008 46.345C59.4713 46.5931 59 46.358 59 45.9455H56C56 48.8329 59.299 50.4783 61.6055 48.7414L59.8008 46.345ZM88.9761 24.374L59.8008 46.345L61.6055 48.7414L90.7808 26.7705L88.9761 24.374Z" fill="black" mask="url(#path-1-inside-1)"/>
<path d="M23.5789 22.9006H25.0989C25.0522 22.4873 24.9389 22.1206 24.7589 21.8006C24.5789 21.4806 24.3489 21.214 24.0689 21.0006C23.7956 20.7806 23.4822 20.614 23.1289 20.5006C22.7822 20.3873 22.4122 20.3306 22.0189 20.3306C21.4722 20.3306 20.9789 20.4273 20.5389 20.6206C20.1056 20.814 19.7389 21.0806 19.4389 21.4206C19.1389 21.7606 18.9089 22.1606 18.7489 22.6206C18.5889 23.074 18.5089 23.5673 18.5089 24.1006C18.5089 24.6206 18.5889 25.1073 18.7489 25.5606C18.9089 26.0073 19.1389 26.3973 19.4389 26.7306C19.7389 27.064 20.1056 27.3273 20.5389 27.5206C20.9789 27.7073 21.4722 27.8006 22.0189 27.8006C22.4589 27.8006 22.8622 27.734 23.2289 27.6006C23.5956 27.4673 23.9156 27.274 24.1889 27.0206C24.4622 26.7673 24.6822 26.4606 24.8489 26.1006C25.0156 25.7406 25.1189 25.3373 25.1589 24.8906H23.6389C23.5789 25.3706 23.4122 25.7573 23.1389 26.0506C22.8722 26.344 22.4989 26.4906 22.0189 26.4906C21.6656 26.4906 21.3656 26.424 21.1189 26.2906C20.8722 26.1506 20.6722 25.9673 20.5189 25.7406C20.3656 25.514 20.2522 25.2606 20.1789 24.9806C20.1122 24.694 20.0789 24.4006 20.0789 24.1006C20.0789 23.7873 20.1122 23.484 20.1789 23.1906C20.2522 22.8973 20.3656 22.6373 20.5189 22.4106C20.6722 22.1773 20.8722 21.994 21.1189 21.8606C21.3656 21.7206 21.6656 21.6506 22.0189 21.6506C22.2122 21.6506 22.3956 21.684 22.5689 21.7506C22.7489 21.8106 22.9089 21.8973 23.0489 22.0106C23.1889 22.124 23.3056 22.2573 23.3989 22.4106C23.4922 22.5573 23.5522 22.7206 23.5789 22.9006ZM25.921 20.5006V27.6406H27.341V20.5006H25.921ZM29.7191 21.6706V20.5006H28.2991V21.6706H29.7191ZM28.2991 22.4706V27.6406H29.7191V22.4706H28.2991ZM34.1573 24.2906H35.5473C35.5273 23.9573 35.4473 23.6706 35.3073 23.4306C35.1673 23.184 34.9839 22.9806 34.7573 22.8206C34.5373 22.654 34.2839 22.5306 33.9973 22.4506C33.7173 22.3706 33.4239 22.3306 33.1173 22.3306C32.6973 22.3306 32.3239 22.4006 31.9973 22.5406C31.6706 22.6806 31.3939 22.8773 31.1673 23.1306C30.9406 23.3773 30.7673 23.674 30.6473 24.0206C30.5339 24.3606 30.4773 24.7306 30.4773 25.1306C30.4773 25.5173 30.5406 25.874 30.6673 26.2006C30.7939 26.5206 30.9706 26.7973 31.1973 27.0306C31.4239 27.264 31.6973 27.4473 32.0173 27.5806C32.3439 27.7073 32.7006 27.7706 33.0873 27.7706C33.7739 27.7706 34.3373 27.5906 34.7773 27.2306C35.2173 26.8706 35.4839 26.3473 35.5773 25.6606H34.2073C34.1606 25.9806 34.0439 26.2373 33.8573 26.4306C33.6773 26.6173 33.4173 26.7106 33.0773 26.7106C32.8573 26.7106 32.6706 26.6606 32.5173 26.5606C32.3639 26.4606 32.2406 26.334 32.1473 26.1806C32.0606 26.0206 31.9973 25.844 31.9573 25.6506C31.9173 25.4573 31.8973 25.2673 31.8973 25.0806C31.8973 24.8873 31.9173 24.694 31.9573 24.5006C31.9973 24.3006 32.0639 24.1206 32.1573 23.9606C32.2573 23.794 32.3839 23.6606 32.5373 23.5606C32.6906 23.454 32.8806 23.4006 33.1073 23.4006C33.7139 23.4006 34.0639 23.6973 34.1573 24.2906ZM36.3095 20.5006V27.6406H37.7295V25.8606L38.2795 25.3306L39.6995 27.6406H41.4195L39.2495 24.3706L41.1995 22.4706H39.5195L37.7295 24.3306V20.5006H36.3095ZM44.3048 20.5006V27.6406H45.7248V24.9306C45.7248 24.404 45.8115 24.0273 45.9848 23.8006C46.1582 23.5673 46.4382 23.4506 46.8248 23.4506C47.1648 23.4506 47.4015 23.5573 47.5348 23.7706C47.6682 23.9773 47.7348 24.294 47.7348 24.7206V27.6406H49.1548V24.4606C49.1548 24.1406 49.1248 23.8506 49.0648 23.5906C49.0115 23.324 48.9148 23.1006 48.7748 22.9206C48.6348 22.734 48.4415 22.5906 48.1948 22.4906C47.9548 22.384 47.6448 22.3306 47.2648 22.3306C46.9982 22.3306 46.7248 22.4006 46.4448 22.5406C46.1648 22.674 45.9348 22.8906 45.7548 23.1906H45.7248V20.5006H44.3048ZM53.5126 24.5006H51.2026C51.2092 24.4006 51.2292 24.2873 51.2626 24.1606C51.3026 24.034 51.3659 23.914 51.4526 23.8006C51.5459 23.6873 51.6659 23.594 51.8126 23.5206C51.9659 23.4406 52.1559 23.4006 52.3826 23.4006C52.7292 23.4006 52.9859 23.494 53.1526 23.6806C53.3259 23.8673 53.4459 24.1406 53.5126 24.5006ZM51.2026 25.4006H54.9326C54.9592 25.0006 54.9259 24.6173 54.8326 24.2506C54.7392 23.884 54.5859 23.5573 54.3726 23.2706C54.1659 22.984 53.8992 22.7573 53.5726 22.5906C53.2459 22.4173 52.8626 22.3306 52.4226 22.3306C52.0292 22.3306 51.6692 22.4006 51.3426 22.5406C51.0226 22.6806 50.7459 22.874 50.5126 23.1206C50.2792 23.3606 50.0992 23.6473 49.9726 23.9806C49.8459 24.314 49.7826 24.674 49.7826 25.0606C49.7826 25.4606 49.8426 25.8273 49.9626 26.1606C50.0892 26.494 50.2659 26.7806 50.4926 27.0206C50.7192 27.2606 50.9959 27.4473 51.3226 27.5806C51.6492 27.7073 52.0159 27.7706 52.4226 27.7706C53.0092 27.7706 53.5092 27.6373 53.9226 27.3706C54.3359 27.104 54.6426 26.6606 54.8426 26.0406H53.5926C53.5459 26.2006 53.4192 26.354 53.2126 26.5006C53.0059 26.6406 52.7592 26.7106 52.4726 26.7106C52.0726 26.7106 51.7659 26.6073 51.5526 26.4006C51.3392 26.194 51.2226 25.8606 51.2026 25.4006ZM55.5748 22.4706V27.6406H56.9948V25.3106C56.9948 25.0773 57.0181 24.8606 57.0648 24.6606C57.1114 24.4606 57.1881 24.2873 57.2948 24.1406C57.4081 23.9873 57.5548 23.8673 57.7348 23.7806C57.9148 23.694 58.1348 23.6506 58.3948 23.6506C58.4814 23.6506 58.5714 23.6573 58.6648 23.6706C58.7581 23.6773 58.8381 23.6873 58.9048 23.7006V22.3806C58.7914 22.3473 58.6881 22.3306 58.5948 22.3306C58.4148 22.3306 58.2414 22.3573 58.0748 22.4106C57.9081 22.464 57.7514 22.5406 57.6048 22.6406C57.4581 22.734 57.3281 22.8506 57.2148 22.9906C57.1014 23.124 57.0114 23.2706 56.9448 23.4306H56.9248V22.4706H55.5748ZM62.5657 24.5006H60.2557C60.2624 24.4006 60.2824 24.2873 60.3157 24.1606C60.3557 24.034 60.419 23.914 60.5057 23.8006C60.599 23.6873 60.719 23.594 60.8657 23.5206C61.019 23.4406 61.209 23.4006 61.4357 23.4006C61.7824 23.4006 62.039 23.494 62.2057 23.6806C62.379 23.8673 62.499 24.1406 62.5657 24.5006ZM60.2557 25.4006H63.9857C64.0124 25.0006 63.979 24.6173 63.8857 24.2506C63.7924 23.884 63.639 23.5573 63.4257 23.2706C63.219 22.984 62.9524 22.7573 62.6257 22.5906C62.299 22.4173 61.9157 22.3306 61.4757 22.3306C61.0824 22.3306 60.7224 22.4006 60.3957 22.5406C60.0757 22.6806 59.799 22.874 59.5657 23.1206C59.3324 23.3606 59.1524 23.6473 59.0257 23.9806C58.899 24.314 58.8357 24.674 58.8357 25.0606C58.8357 25.4606 58.8957 25.8273 59.0157 26.1606C59.1424 26.494 59.319 26.7806 59.5457 27.0206C59.7724 27.2606 60.049 27.4473 60.3757 27.5806C60.7024 27.7073 61.069 27.7706 61.4757 27.7706C62.0624 27.7706 62.5624 27.6373 62.9757 27.3706C63.389 27.104 63.6957 26.6606 63.8957 26.0406H62.6457C62.599 26.2006 62.4724 26.354 62.2657 26.5006C62.059 26.6406 61.8124 26.7106 61.5257 26.7106C61.1257 26.7106 60.819 26.6073 60.6057 26.4006C60.3924 26.194 60.2757 25.8606 60.2557 25.4006ZM64.6979 26.1006V27.6406H66.2679V26.1006H64.6979ZM66.2179 22.4206V20.5006H64.7379V22.4206L65.1179 25.5006H65.8279L66.2179 22.4206Z" fill="black"/>
</svg>
