<svg width="290" height="74" viewBox="0 0 290 74" fill="none" xmlns="http://www.w3.org/2000/svg">
<mask id="path-1-inside-1" fill="white">
<path fill-rule="evenodd" clip-rule="evenodd" d="M238.712 70.1736C238.712 73.1337 242.103 74.8122 244.456 73.0173L288.118 39.7219C289.995 38.2906 289.994 35.4657 288.118 34.0345L244.456 0.739064C242.103 -1.05593 238.712 0.622596 238.712 3.58276V10.2685C238.712 12.2435 237.111 13.8447 235.135 13.8447H8.34448C3.73595 13.8447 0 17.5806 0 22.1891V51.5002C0 56.1087 3.73595 59.8447 8.34448 59.8447H235.135C237.111 59.8447 238.712 61.4458 238.712 63.4209V70.1736Z"/>
</mask>
<path fill-rule="evenodd" clip-rule="evenodd" d="M238.712 70.1736C238.712 73.1337 242.103 74.8122 244.456 73.0173L288.118 39.7219C289.995 38.2906 289.994 35.4657 288.118 34.0345L244.456 0.739064C242.103 -1.05593 238.712 0.622596 238.712 3.58276V10.2685C238.712 12.2435 237.111 13.8447 235.135 13.8447H8.34448C3.73595 13.8447 0 17.5806 0 22.1891V51.5002C0 56.1087 3.73595 59.8447 8.34448 59.8447H235.135C237.111 59.8447 238.712 61.4458 238.712 63.4209V70.1736Z" fill="#FF6B6B"/>
<path d="M244.456 0.739064L245.902 -1.15673L244.456 0.739064ZM244.456 73.0173L243.011 71.1215L244.456 73.0173ZM288.118 39.7219L286.672 37.8261L288.118 39.7219ZM286.672 37.8261L243.011 71.1215L245.902 74.913L289.563 41.6176L286.672 37.8261ZM243.011 2.63486L286.672 35.9303L289.563 32.1387L245.902 -1.15673L243.011 2.63486ZM241.096 10.2685V3.58276H236.328V10.2685H241.096ZM8.34448 16.2288H235.135V11.4605H8.34448V16.2288ZM2.38414 22.1891C2.38414 18.8973 5.05267 16.2288 8.34448 16.2288V11.4605C2.41923 11.4605 -2.38414 16.2639 -2.38414 22.1891H2.38414ZM2.38414 51.5002V22.1891H-2.38414V51.5002H2.38414ZM8.34448 57.4605C5.05267 57.4605 2.38414 54.792 2.38414 51.5002H-2.38414C-2.38414 57.4254 2.41923 62.2288 8.34448 62.2288V57.4605ZM235.135 57.4605H8.34448V62.2288H235.135V57.4605ZM241.096 70.1736V63.4209H236.328V70.1736H241.096ZM235.135 62.2288C235.794 62.2288 236.328 62.7625 236.328 63.4209H241.096C241.096 60.1291 238.427 57.4605 235.135 57.4605V62.2288ZM236.328 10.2685C236.328 10.9268 235.794 11.4605 235.135 11.4605V16.2288C238.427 16.2288 241.096 13.5603 241.096 10.2685H236.328ZM245.902 -1.15673C241.979 -4.14839 236.328 -1.35085 236.328 3.58276H241.096C241.096 2.59604 242.226 2.03653 243.011 2.63486L245.902 -1.15673ZM243.011 71.1215C242.226 71.7198 241.096 71.1603 241.096 70.1736H236.328C236.328 75.1072 241.979 77.9047 245.902 74.913L243.011 71.1215ZM289.563 41.6176C292.691 39.2322 292.691 34.5241 289.563 32.1387L286.672 35.9303C287.298 36.4073 287.298 37.349 286.672 37.8261L289.563 41.6176Z" fill="black" mask="url(#path-1-inside-1)"/>
<path d="M27.5825 41.3271V32.7442H29.7186C30.4561 32.7442 31.0728 32.8523 31.5687 33.0684C32.0774 33.2719 32.4842 33.5707 32.7894 33.9649C33.0946 34.359 33.3107 34.8359 33.4379 35.3953C33.5778 35.9421 33.6477 36.5588 33.6477 37.2454C33.6477 37.9956 33.5523 38.6314 33.3616 39.1527C33.1709 39.6741 32.9166 40.1 32.5987 40.4306C32.2808 40.7485 31.9184 40.9774 31.5115 41.1173C31.1046 41.2571 30.685 41.3271 30.2527 41.3271H27.5825ZM24.588 30.2265V43.8447H30.4625C31.5052 43.8447 32.408 43.6731 33.1709 43.3298C33.9465 42.9737 34.5886 42.4905 35.0973 41.8802C35.6186 41.2699 36.0064 40.5451 36.2607 39.7059C36.515 38.8666 36.6422 37.9511 36.6422 36.9593C36.6422 35.8277 36.4832 34.8422 36.1654 34.003C35.8602 33.1638 35.4279 32.4644 34.8684 31.905C34.3216 31.3455 33.6668 30.9259 32.9039 30.6461C32.1536 30.3664 31.3399 30.2265 30.4625 30.2265H24.588ZM40.6039 38.9239C40.6039 38.5297 40.642 38.1419 40.7183 37.7604C40.7946 37.3789 40.9218 37.042 41.0998 36.7495C41.2905 36.4571 41.5384 36.2218 41.8436 36.0438C42.1488 35.8531 42.5303 35.7577 42.988 35.7577C43.4458 35.7577 43.8272 35.8531 44.1324 36.0438C44.4503 36.2218 44.6982 36.4571 44.8762 36.7495C45.067 37.042 45.2005 37.3789 45.2768 37.7604C45.3531 38.1419 45.3912 38.5297 45.3912 38.9239C45.3912 39.318 45.3531 39.7059 45.2768 40.0873C45.2005 40.4561 45.067 40.793 44.8762 41.0982C44.6982 41.3907 44.4503 41.6259 44.1324 41.8039C43.8272 41.9819 43.4458 42.0709 42.988 42.0709C42.5303 42.0709 42.1488 41.9819 41.8436 41.8039C41.5384 41.6259 41.2905 41.3907 41.0998 41.0982C40.9218 40.793 40.7946 40.4561 40.7183 40.0873C40.642 39.7059 40.6039 39.318 40.6039 38.9239ZM37.8955 38.9239C37.8955 39.7122 38.0163 40.4243 38.2579 41.0601C38.4995 41.6958 38.8428 42.2426 39.2878 42.7003C39.7329 43.1454 40.2669 43.4887 40.89 43.7303C41.513 43.9719 42.2124 44.0927 42.988 44.0927C43.7636 44.0927 44.463 43.9719 45.086 43.7303C45.7218 43.4887 46.2622 43.1454 46.7073 42.7003C47.1523 42.2426 47.4956 41.6958 47.7372 41.0601C47.9788 40.4243 48.0996 39.7122 48.0996 38.9239C48.0996 38.1355 47.9788 37.4235 47.7372 36.7877C47.4956 36.1392 47.1523 35.5924 46.7073 35.1474C46.2622 34.6896 45.7218 34.34 45.086 34.0984C44.463 33.8441 43.7636 33.7169 42.988 33.7169C42.2124 33.7169 41.513 33.8441 40.89 34.0984C40.2669 34.34 39.7329 34.6896 39.2878 35.1474C38.8428 35.5924 38.4995 36.1392 38.2579 36.7877C38.0163 37.4235 37.8955 38.1355 37.8955 38.9239ZM60.8944 43.8447L64.0033 33.9839H61.2186L59.4067 40.6595H59.3685L57.6901 33.9839H55.058L53.4177 40.6786H53.3796L51.5676 33.9839H48.7067L51.8346 43.8447H54.6384L56.3168 37.2264H56.355L58.1097 43.8447H60.8944ZM64.9179 33.9839V43.8447H67.6263V38.6759C67.6263 37.6714 67.7916 36.953 68.1222 36.5207C68.4528 36.0756 68.9868 35.8531 69.7243 35.8531C70.3728 35.8531 70.8242 36.0565 71.0785 36.4634C71.3328 36.8576 71.46 37.4616 71.46 38.2754V43.8447H74.1683V37.7795C74.1683 37.1691 74.1111 36.616 73.9967 36.1201C73.895 35.6115 73.7106 35.1855 73.4436 34.8422C73.1765 34.4862 72.8078 34.2128 72.3373 34.0221C71.8796 33.8186 71.2883 33.7169 70.5635 33.7169C69.9913 33.7169 69.4318 33.8504 68.8851 34.1174C68.3383 34.3718 67.8933 34.785 67.55 35.3572H67.4927V33.9839H64.9179ZM76.0618 30.2265V43.8447H78.7702V30.2265H76.0618ZM83.0676 38.9239C83.0676 38.5297 83.1057 38.1419 83.182 37.7604C83.2583 37.3789 83.3855 37.042 83.5635 36.7495C83.7542 36.4571 84.0022 36.2218 84.3073 36.0438C84.6125 35.8531 84.994 35.7577 85.4517 35.7577C85.9095 35.7577 86.2909 35.8531 86.5961 36.0438C86.914 36.2218 87.1619 36.4571 87.3399 36.7495C87.5307 37.042 87.6642 37.3789 87.7405 37.7604C87.8168 38.1419 87.8549 38.5297 87.8549 38.9239C87.8549 39.318 87.8168 39.7059 87.7405 40.0873C87.6642 40.4561 87.5307 40.793 87.3399 41.0982C87.1619 41.3907 86.914 41.6259 86.5961 41.8039C86.2909 41.9819 85.9095 42.0709 85.4517 42.0709C84.994 42.0709 84.6125 41.9819 84.3073 41.8039C84.0022 41.6259 83.7542 41.3907 83.5635 41.0982C83.3855 40.793 83.2583 40.4561 83.182 40.0873C83.1057 39.7059 83.0676 39.318 83.0676 38.9239ZM80.3592 38.9239C80.3592 39.7122 80.48 40.4243 80.7216 41.0601C80.9632 41.6958 81.3065 42.2426 81.7515 42.7003C82.1966 43.1454 82.7306 43.4887 83.3537 43.7303C83.9767 43.9719 84.6761 44.0927 85.4517 44.0927C86.2273 44.0927 86.9267 43.9719 87.5497 43.7303C88.1855 43.4887 88.7259 43.1454 89.171 42.7003C89.616 42.2426 89.9593 41.6958 90.2009 41.0601C90.4425 40.4243 90.5633 39.7122 90.5633 38.9239C90.5633 38.1355 90.4425 37.4235 90.2009 36.7877C89.9593 36.1392 89.616 35.5924 89.171 35.1474C88.7259 34.6896 88.1855 34.34 87.5497 34.0984C86.9267 33.8441 86.2273 33.7169 85.4517 33.7169C84.6761 33.7169 83.9767 33.8441 83.3537 34.0984C82.7306 34.34 82.1966 34.6896 81.7515 35.1474C81.3065 35.5924 80.9632 36.1392 80.7216 36.7877C80.48 37.4235 80.3592 38.1355 80.3592 38.9239ZM91.9714 37.0166C92.0096 36.3808 92.1685 35.8531 92.4483 35.4335C92.728 35.0139 93.084 34.6769 93.5163 34.4226C93.9487 34.1683 94.4319 33.9903 94.9659 33.8886C95.5127 33.7741 96.0594 33.7169 96.6062 33.7169C97.1021 33.7169 97.6043 33.7551 98.113 33.8314C98.6216 33.8949 99.0857 34.0284 99.5053 34.2319C99.9249 34.4353 100.268 34.7214 100.535 35.0902C100.802 35.4462 100.936 35.923 100.936 36.5207V41.6513C100.936 42.0964 100.961 42.5223 101.012 42.9292C101.063 43.3361 101.152 43.6413 101.279 43.8447H98.5326C98.4817 43.6921 98.4372 43.5396 98.3991 43.387C98.3736 43.2217 98.3546 43.0564 98.3418 42.8911C97.9095 43.3361 97.4009 43.6476 96.816 43.8257C96.2311 44.0037 95.6335 44.0927 95.0231 44.0927C94.5526 44.0927 94.114 44.0355 93.7071 43.921C93.3002 43.8066 92.9442 43.6286 92.639 43.387C92.3338 43.1454 92.0922 42.8402 91.9142 42.4715C91.7489 42.1027 91.6663 41.664 91.6663 41.1554C91.6663 40.5959 91.7616 40.1382 91.9524 39.7822C92.1558 39.4134 92.4101 39.121 92.7153 38.9048C93.0332 38.6886 93.3892 38.5297 93.7834 38.428C94.1903 38.3135 94.5972 38.2245 95.004 38.1609C95.4109 38.0974 95.8115 38.0465 96.2057 38.0084C96.5998 37.9702 96.9495 37.913 97.2547 37.8367C97.5598 37.7604 97.8014 37.6523 97.9794 37.5125C98.1575 37.3599 98.2401 37.1437 98.2274 36.864C98.2274 36.5715 98.1765 36.3426 98.0748 36.1773C97.9858 35.9993 97.8587 35.8658 97.6934 35.7768C97.5408 35.6751 97.3564 35.6115 97.1402 35.5861C96.9368 35.5479 96.7143 35.5289 96.4727 35.5289C95.9386 35.5289 95.519 35.6433 95.2138 35.8722C94.9087 36.1011 94.7307 36.4825 94.6798 37.0166H91.9714ZM98.2274 39.0192C98.113 39.121 97.9667 39.2036 97.7887 39.2672C97.6234 39.318 97.439 39.3626 97.2356 39.4007C97.0449 39.4388 96.8414 39.4706 96.6253 39.4961C96.4091 39.5215 96.1929 39.5533 95.9768 39.5914C95.7733 39.6296 95.5699 39.6804 95.3664 39.744C95.1757 39.8076 95.004 39.8966 94.8515 40.011C94.7116 40.1128 94.5972 40.2463 94.5081 40.4116C94.4191 40.5769 94.3746 40.7867 94.3746 41.041C94.3746 41.2826 94.4191 41.486 94.5081 41.6513C94.5972 41.8166 94.7179 41.9501 94.8705 42.0519C95.0231 42.1409 95.2011 42.2044 95.4046 42.2426C95.608 42.2807 95.8178 42.2998 96.034 42.2998C96.568 42.2998 96.9813 42.2108 97.2737 42.0328C97.5662 41.8548 97.7824 41.645 97.9222 41.4034C98.0621 41.1491 98.1447 40.8948 98.1702 40.6404C98.2083 40.3861 98.2274 40.1827 98.2274 40.0301V39.0192ZM109.799 38.8857C109.799 39.2926 109.761 39.6868 109.685 40.0683C109.609 40.4497 109.482 40.793 109.303 41.0982C109.125 41.3907 108.884 41.6259 108.579 41.8039C108.286 41.9819 107.918 42.0709 107.472 42.0709C107.053 42.0709 106.69 41.9819 106.385 41.8039C106.093 41.6132 105.845 41.3716 105.641 41.0791C105.451 40.774 105.311 40.4306 105.222 40.0492C105.133 39.6677 105.088 39.2863 105.088 38.9048C105.088 38.4979 105.126 38.1101 105.203 37.7413C105.292 37.3599 105.425 37.0229 105.603 36.7305C105.794 36.438 106.042 36.2028 106.347 36.0248C106.652 35.8467 107.027 35.7577 107.472 35.7577C107.918 35.7577 108.286 35.8467 108.579 36.0248C108.871 36.2028 109.106 36.438 109.284 36.7305C109.475 37.0102 109.609 37.3408 109.685 37.7223C109.761 38.091 109.799 38.4788 109.799 38.8857ZM109.838 42.5859V43.8447H112.412V30.2265H109.704V35.1855H109.666C109.361 34.7024 108.941 34.34 108.407 34.0984C107.886 33.8441 107.333 33.7169 106.748 33.7169C106.023 33.7169 105.387 33.8631 104.84 34.1556C104.294 34.4353 103.836 34.8104 103.467 35.2809C103.111 35.7514 102.838 36.2981 102.647 36.9212C102.469 37.5315 102.38 38.1673 102.38 38.8285C102.38 39.5151 102.469 40.1763 102.647 40.8121C102.838 41.4479 103.111 42.0137 103.467 42.5096C103.836 42.9928 104.3 43.3806 104.859 43.6731C105.419 43.9528 106.067 44.0927 106.805 44.0927C107.453 44.0927 108.032 43.9782 108.541 43.7494C109.062 43.5078 109.482 43.1199 109.799 42.5859H109.838ZM117.349 37.0929V34.1556H114.355V37.0929H117.349ZM114.355 40.9075V43.8447H117.349V40.9075H114.355ZM133.726 34.8041H136.625C136.536 34.0157 136.32 33.3164 135.977 32.706C135.633 32.0957 135.195 31.5871 134.661 31.1802C134.139 30.7606 133.542 30.4427 132.868 30.2265C132.207 30.0104 131.501 29.9023 130.751 29.9023C129.708 29.9023 128.767 30.0867 127.928 30.4554C127.101 30.8242 126.402 31.3328 125.83 31.9813C125.258 32.6297 124.819 33.3927 124.514 34.27C124.209 35.1347 124.056 36.0756 124.056 37.0929C124.056 38.0847 124.209 39.0129 124.514 39.8775C124.819 40.7295 125.258 41.4733 125.83 42.1091C126.402 42.7448 127.101 43.2471 127.928 43.6158C128.767 43.9719 129.708 44.1499 130.751 44.1499C131.59 44.1499 132.359 44.0227 133.058 43.7684C133.758 43.5141 134.368 43.1454 134.889 42.6622C135.411 42.179 135.83 41.5941 136.148 40.9075C136.466 40.2208 136.663 39.4516 136.74 38.5996H133.84C133.726 39.5151 133.408 40.2526 132.887 40.8121C132.378 41.3716 131.666 41.6513 130.751 41.6513C130.077 41.6513 129.504 41.5242 129.034 41.2699C128.564 41.0028 128.182 40.6532 127.89 40.2208C127.597 39.7885 127.381 39.3053 127.241 38.7713C127.114 38.2245 127.05 37.665 127.05 37.0929C127.05 36.4952 127.114 35.9167 127.241 35.3572C127.381 34.7977 127.597 34.3018 127.89 33.8695C128.182 33.4245 128.564 33.0748 129.034 32.8205C129.504 32.5535 130.077 32.4199 130.751 32.4199C131.119 32.4199 131.469 32.4835 131.8 32.6107C132.143 32.7251 132.448 32.8904 132.715 33.1066C132.982 33.3227 133.205 33.577 133.383 33.8695C133.561 34.1492 133.675 34.4608 133.726 34.8041ZM138.336 30.2265V43.8447H141.045V30.2265H138.336ZM145.723 32.4581V30.2265H143.015V32.4581H145.723ZM143.015 33.9839V43.8447H145.723V33.9839H143.015ZM154.331 37.4552H156.982C156.944 36.8195 156.792 36.2727 156.525 35.815C156.258 35.3445 155.908 34.9567 155.476 34.6515C155.056 34.3336 154.573 34.0984 154.026 33.9458C153.492 33.7932 152.933 33.7169 152.348 33.7169C151.547 33.7169 150.835 33.8504 150.212 34.1174C149.588 34.3845 149.061 34.7596 148.628 35.2428C148.196 35.7132 147.866 36.2791 147.637 36.9403C147.421 37.5888 147.312 38.2945 147.312 39.0574C147.312 39.7949 147.433 40.4751 147.675 41.0982C147.916 41.7085 148.253 42.2362 148.686 42.6813C149.118 43.1263 149.639 43.476 150.25 43.7303C150.873 43.9719 151.553 44.0927 152.291 44.0927C153.6 44.0927 154.675 43.7494 155.514 43.0627C156.353 42.3761 156.862 41.3779 157.04 40.0683H154.427C154.338 40.6786 154.115 41.1681 153.759 41.5369C153.416 41.8929 152.92 42.0709 152.271 42.0709C151.852 42.0709 151.496 41.9756 151.203 41.7848C150.911 41.5941 150.676 41.3525 150.498 41.0601C150.332 40.7549 150.212 40.4179 150.135 40.0492C150.059 39.6804 150.021 39.318 150.021 38.962C150.021 38.5933 150.059 38.2245 150.135 37.8558C150.212 37.4743 150.339 37.131 150.517 36.8258C150.707 36.5079 150.949 36.2536 151.241 36.0629C151.534 35.8595 151.896 35.7577 152.329 35.7577C153.486 35.7577 154.153 36.3236 154.331 37.4552ZM158.579 30.2265V43.8447H161.288V40.4497L162.337 39.4388L165.045 43.8447H168.326L164.187 37.6078L167.906 33.9839H164.702L161.288 37.5315V30.2265H158.579ZM174.115 30.2265V43.8447H176.823V38.6759C176.823 37.6714 176.989 36.953 177.319 36.5207C177.65 36.0756 178.184 35.8531 178.921 35.8531C179.57 35.8531 180.021 36.0565 180.276 36.4634C180.53 36.8576 180.657 37.4616 180.657 38.2754V43.8447H183.365V37.7795C183.365 37.1691 183.308 36.616 183.194 36.1201C183.092 35.6115 182.908 35.1855 182.641 34.8422C182.374 34.4862 182.005 34.2128 181.534 34.0221C181.077 33.8186 180.485 33.7169 179.761 33.7169C179.252 33.7169 178.731 33.8504 178.197 34.1174C177.663 34.3718 177.224 34.785 176.881 35.3572H176.823V30.2265H174.115ZM191.82 37.8558H187.414C187.427 37.665 187.465 37.4489 187.529 37.2073C187.605 36.9657 187.726 36.7368 187.891 36.5207C188.069 36.3045 188.298 36.1265 188.578 35.9866C188.87 35.834 189.233 35.7577 189.665 35.7577C190.326 35.7577 190.816 35.9358 191.133 36.2918C191.464 36.6478 191.693 37.1691 191.82 37.8558ZM187.414 39.5724H194.528C194.579 38.8094 194.516 38.0783 194.338 37.3789C194.16 36.6796 193.867 36.0565 193.46 35.5098C193.066 34.963 192.558 34.5307 191.935 34.2128C191.311 33.8822 190.58 33.7169 189.741 33.7169C188.991 33.7169 188.304 33.8504 187.681 34.1174C187.071 34.3845 186.543 34.7532 186.098 35.2237C185.653 35.6814 185.31 36.2282 185.068 36.864C184.827 37.4997 184.706 38.1864 184.706 38.9239C184.706 39.6868 184.82 40.3861 185.049 41.0219C185.291 41.6577 185.628 42.2044 186.06 42.6622C186.492 43.1199 187.02 43.476 187.643 43.7303C188.266 43.9719 188.965 44.0927 189.741 44.0927C190.86 44.0927 191.814 43.8384 192.602 43.3298C193.39 42.8211 193.975 41.9756 194.357 40.793H191.973C191.884 41.0982 191.642 41.3907 191.248 41.6704C190.854 41.9374 190.383 42.0709 189.836 42.0709C189.074 42.0709 188.489 41.8738 188.082 41.4797C187.675 41.0855 187.452 40.4497 187.414 39.5724ZM195.896 33.9839V43.8447H198.605V39.4007C198.605 38.9557 198.649 38.5424 198.738 38.1609C198.827 37.7795 198.973 37.4489 199.177 37.1691C199.393 36.8767 199.673 36.6478 200.016 36.4825C200.359 36.3172 200.779 36.2346 201.275 36.2346C201.44 36.2346 201.612 36.2473 201.79 36.2727C201.968 36.2854 202.121 36.3045 202.248 36.3299V33.8123C202.032 33.7487 201.834 33.7169 201.656 33.7169C201.313 33.7169 200.983 33.7678 200.665 33.8695C200.347 33.9712 200.048 34.1175 199.768 34.3082C199.488 34.4862 199.241 34.7087 199.024 34.9757C198.808 35.23 198.637 35.5098 198.509 35.815H198.471V33.9839H195.896ZM209.373 37.8558H204.967C204.98 37.665 205.018 37.4489 205.082 37.2073C205.158 36.9657 205.279 36.7368 205.444 36.5207C205.622 36.3045 205.851 36.1265 206.131 35.9866C206.423 35.834 206.786 35.7577 207.218 35.7577C207.879 35.7577 208.369 35.9358 208.687 36.2918C209.017 36.6478 209.246 37.1691 209.373 37.8558ZM204.967 39.5724H212.082C212.133 38.8094 212.069 38.0783 211.891 37.3789C211.713 36.6796 211.42 36.0565 211.014 35.5098C210.619 34.963 210.111 34.5307 209.488 34.2128C208.865 33.8822 208.134 33.7169 207.294 33.7169C206.544 33.7169 205.857 33.8504 205.234 34.1174C204.624 34.3845 204.096 34.7532 203.651 35.2237C203.206 35.6814 202.863 36.2282 202.621 36.864C202.38 37.4997 202.259 38.1864 202.259 38.9239C202.259 39.6868 202.373 40.3861 202.602 41.0219C202.844 41.6577 203.181 42.2044 203.613 42.6622C204.046 43.1199 204.573 43.476 205.196 43.7303C205.819 43.9719 206.519 44.0927 207.294 44.0927C208.413 44.0927 209.367 43.8384 210.155 43.3298C210.944 42.8211 211.529 41.9756 211.91 40.793H209.526C209.437 41.0982 209.195 41.3907 208.801 41.6704C208.407 41.9374 207.936 42.0709 207.39 42.0709C206.627 42.0709 206.042 41.8738 205.635 41.4797C205.228 41.0855 205.006 40.4497 204.967 39.5724ZM213.583 40.9075V43.8447H216.578V40.9075H213.583ZM216.482 33.8886V30.2265H213.659V33.8886L214.384 39.7631H215.738L216.482 33.8886Z" fill="black"/>
</svg>
